<?xml version="1.0" encoding="UTF-8" standalone="no"?>
<svg
   version="1.1"
   id="svg883"
   width="2560"
   height="1440"
   viewBox="0 0 2560 1440"
   sodipodi:docname="an-effective-incident-runbook-template.svg"
   inkscape:version="1.3 (0e150ed, 2023-07-21)"
   xml:space="preserve"
   xmlns:inkscape="http://www.inkscape.org/namespaces/inkscape"
   xmlns:sodipodi="http://sodipodi.sourceforge.net/DTD/sodipodi-0.dtd"
   xmlns="http://www.w3.org/2000/svg"
   xmlns:svg="http://www.w3.org/2000/svg"
   xmlns:rdf="http://www.w3.org/1999/02/22-rdf-syntax-ns#"
   xmlns:cc="http://creativecommons.org/ns#"
   xmlns:dc="http://purl.org/dc/elements/1.1/"><metadata
     id="metadata889"><rdf:RDF><cc:Work
         rdf:about=""><dc:format>image/svg+xml</dc:format><dc:type
           rdf:resource="http://purl.org/dc/dcmitype/StillImage" /></cc:Work></rdf:RDF></metadata><defs
     id="defs887" /><sodipodi:namedview
     pagecolor="#ffffff"
     bordercolor="#666666"
     borderopacity="1"
     objecttolerance="10"
     gridtolerance="10"
     guidetolerance="10"
     inkscape:pageopacity="0"
     inkscape:pageshadow="2"
     inkscape:window-width="1920"
     inkscape:window-height="1111"
     id="namedview885"
     showgrid="false"
     showguides="true"
     inkscape:guide-bbox="true"
     inkscape:zoom="0.3606765"
     inkscape:cx="1282.3126"
     inkscape:cy="859.49598"
     inkscape:window-x="0"
     inkscape:window-y="43"
     inkscape:window-maximized="1"
     inkscape:current-layer="g891"
     inkscape:document-rotation="0"
     inkscape:showpageshadow="2"
     inkscape:pagecheckerboard="0"
     inkscape:deskcolor="#d1d1d1"><sodipodi:guide
       position="-5085.6997,719.99659"
       orientation="0,-1"
       id="guide2524"
       inkscape:locked="false" /><sodipodi:guide
       position="640,3678.5859"
       orientation="1,0"
       id="guide3207"
       inkscape:locked="false" /><sodipodi:guide
       position="1920,1222.9258"
       orientation="1,0"
       id="guide3211"
       inkscape:locked="false" /></sodipodi:namedview><g
     inkscape:groupmode="layer"
     inkscape:label="Image"
     id="g891"><rect
       style="fill:#ff554a;fill-opacity:1;stroke:none;stroke-width:3.56535;stroke-linecap:round;stroke-linejoin:round;paint-order:markers fill stroke"
       id="rect2275"
       width="2560"
       height="1440"
       x="0"
       y="0" /><path
       class="sketchy_een"
       d="m 1217.8396,935.72866 c -0.077,-4.6126 0.077,-9.20601 -0.1153,-13.81862 -0.1922,-5.51591 -0.4228,-11.05103 -0.4997,-16.60538 -0.038,-5.32372 -0.2691,-10.66665 -0.7303,-16.00959 -0.615,-6.63062 -1.5376,-13.70328 -3.4979,-20.10327 -1.4222,-4.72792 -3.3441,-9.32131 -5.4006,-13.74172 -2.1141,-4.43964 -5.17,-8.36035 -8.2835,-12.16575 -2.4985,-3.11351 -5.7465,-5.43903 -8.8985,-7.89909 -4.4588,-3.51711 -9.1483,-6.43843 -13.9723,-9.30209 0.058,-0.84563 0.2691,-1.67206 0.2691,-2.49848 0.038,-3.30571 -0.038,-6.59219 -0.1538,-9.89789 -0.1922,-7.66846 -0.4228,-15.31769 -0.8456,-22.94771 -0.1346,-2.82522 -1.0571,-5.4006 -2.3256,-7.76456 -2.018,-7.1111 -8.3987,-12.95373 -16.0864,-12.60779 -0.8649,0.0384 -1.749,0.0961 -2.6138,0.15376 -3.594,-14.49127 -6.3231,-29.19395 -9.6096,-43.74288 -3.3057,-14.66425 -5.3622,-29.50146 -8.2835,-44.24258 -1.3069,-6.51531 -2.7676,-13.04983 -4.036,-19.56514 -1.4991,-7.86065 -2.9214,-15.74052 -4.8433,-23.48585 -1.9219,-7.7069 -4.5357,-15.20238 -6.1693,-22.98615 -1.7682,-8.05284 -3.2289,-16.20178 -4.6895,-24.3315 -2.2294,-12.78076 -4.4204,-25.59996 -6.5922,-38.39994 -0.6534,-3.74775 -3.8438,-7.3033 -7.015,-9.34053 -0.3459,-2.4024 -0.5958,-4.78558 -1.3646,-7.16876 -0.6534,-2.07567 -1.3837,-4.11291 -2.1141,-6.13092 -1.9219,-5.40059 -4.5741,-10.89728 -7.8606,-15.60598 -4.382,-6.24624 -10.0132,-11.74293 -16.1057,-16.25944 -6.5345,-4.90089 -14.5105,-6.97657 -22.4288,-8.20659 -13.2612,-1.72973 -26.6955,-2.32553 -40.072,-3.11351 -7.0919,-0.42283 -14.24139,-0.57658 -21.33329,-0.80721 -6.7844,-0.26907 -13.54953,-0.80721 -20.33391,-0.96096 -7.43782,-0.19219 -14.89487,0.0769 -22.3327,0.15375 -7.015,0.0384 -14.08767,-0.11531 -21.10267,-0.19219 -6.82281,-0.11531 -13.66485,-0.57657 -20.48766,-0.92252 -4.26666,-0.19219 -8.55254,-0.19219 -12.8192,-0.15375 -2.26786,0 -4.53573,0 -6.78437,-0.0384 -1.11472,0 -2.24865,-0.0192 -3.36336,-0.0192 -8.43723,0 -16.87445,0.23063 -25.29246,0.51892 -10.74353,0.38438 -22.10207,1.53753 -32.26902,5.18918 -4.36276,1.57597 -8.55254,3.57477 -12.53091,5.99639 -1.26847,0.8072 -2.57537,1.57597 -3.88228,2.38318 -4.09369,2.63303 -6.93813,5.47747 -9.82101,9.32131 -2.03723,2.806 -3.57477,5.76575 -5.1123,8.8216 -2.17177,4.36276 -4.47807,8.74474 -6.7075,13.12671 -1.36456,2.70991 -1.78738,5.59279 -1.76817,8.43723 -0.76876,1.26846 -1.403,2.59459 -1.59519,3.93993 -2.34474,16.14412 -5.13152,32.23059 -7.74533,48.33627 -2.47928,15.49067 -4.59339,31.03899 -6.68828,46.5681 -1.67207,12.55013 -3.09429,25.15792 -4.7087,37.74649 -1.97958,14.16454 -3.95916,28.32909 -6.05405,42.45519 -2.34474,15.95193 -5.45825,31.73089 -7.015,47.79813 0,0.0961 0.0576,0.1922 0.0576,0.26907 -4.86245,-0.0769 -9.70569,-0.19219 -14.56814,-0.24985 -6.8036,-0.0769 -12.76155,4.26666 -15.33692,10.24383 -3.8054,3.34414 -6.32311,8.12972 -6.55374,13.56875 -0.38439,8.86005 -0.65345,17.75853 -0.88408,26.61858 -0.0769,3.55555 -0.1922,7.09188 -0.32673,10.62821 -2.44084,1.09549 -4.82402,2.28708 -7.01501,3.76696 -6.09248,4.03603 -10.78196,9.43662 -15.10628,15.2216 -5.97717,8.0144 -10.12851,17.95072 -12.01199,27.73329 -2.19099,11.47386 -2.69069,23.71648 -2.07568,35.34409 0.30751,5.24684 0.88409,10.5129 1.4991,15.75974 0.65345,5.51593 1.34534,11.24323 2.69069,16.64383 2.07567,8.5526 11.51229,13.5496 19.79576,11.2817 0.57658,-0.1538 0.9994,-0.5766 1.53754,-0.788 16.08646,-0.1922 32.19214,-0.4613 48.27861,-0.5381 16.64382,-0.1153 33.26842,-0.6535 49.8738,-0.7688 32.53809,-0.2306 65.07618,0.077 97.61427,-0.6919 13.58797,-0.3075 27.2336,-0.1922 40.86,0 2.61381,0.038 5.24684,0.038 7.86065,0.038 4.53573,-0.038 9.09068,-0.038 13.62641,0.1921 6.93813,0.3844 13.89548,0.346 20.83361,0.5382 15.2408,0.3459 30.53929,0.1922 45.81849,0 16.6823,-0.2307 33.3838,0.1153 50.1045,0.615 11.1279,0.3075 22.2558,1.1147 33.4221,1.2685 10.5129,0.1537 21.0258,0.3459 31.5387,0.4228 10.0901,0.077 20.2571,-0.1538 30.3087,0.7303 7.9375,0.6919 15.8174,1.8451 23.7549,1.4222 7.9183,-0.442 14.5105,-5.3621 16.7976,-12.6078 1.0378,-1.9795 1.7297,-4.1705 1.6913,-6.5729 z M 751.69738,816.85795 c 0.46126,-6.01561 0.82643,-12.03122 1.21081,-18.06604 12.93452,-0.0769 25.84982,-0.13454 38.76511,-0.4997 14.818,-0.38438 29.5399,-1.76817 44.31946,-1.88348 31.46181,-0.26907 62.92363,-0.46126 94.38545,-0.4997 7.13032,0 14.27986,-0.11532 21.37174,0.61501 7.20719,0.76877 14.39517,1.30691 21.64081,1.53754 15.24085,0.53814 30.50084,0.34594 45.74164,0.73033 15.9904,0.46126 32.0384,0.38438 48.0288,0.8072 6.5921,0.1922 13.1651,0.73033 19.7573,0.80721 7.0919,0.11532 14.203,0.53814 21.2949,0.73033 8.4372,0.26907 16.8744,0.84564 25.3309,1.42222 3.1903,0.21141 6.3615,0.46126 9.5519,0.73033 0.442,5.78498 0.615,11.55073 0.7688,17.31649 -8.1682,0.42282 -16.3364,0.69189 -24.4853,0.92252 -6.8228,0.23063 -13.6648,0.84565 -20.4876,1.07628 -8.0529,0.26907 -16.1057,0.34594 -24.1778,0.26907 -33.499,-0.34595 -66.9981,-0.61502 -100.51634,-0.30751 -32.92247,0.26907 -65.88339,1.84504 -98.7482,0.30751 -17.02821,-0.80721 -34.07563,-0.61502 -51.14227,-0.46127 -15.16394,0.15376 -30.30867,0.30751 -45.47261,-0.26906 -4.97777,-0.1922 -9.97476,-0.44205 -14.95253,-0.90331 -4.09369,-0.59579 -8.16816,-1.44144 -12.24262,-2.13333 0,-0.74954 0,-1.49909 0.0576,-2.24864 z M 978.08024,576.73337 c 2.78677,0.38438 5.55437,0.5958 8.34117,0.86486 0.6918,0.17298 1.3645,0.36517 2.0372,0.5958 0.6342,0.32673 1.2492,0.69189 1.845,1.07627 2.2487,1.94114 4.3243,4.07447 6.2078,6.36156 5.03539,7.015 8.91769,15.04862 12.49249,22.92849 1.2108,3.32492 2.1718,6.72672 3.2096,10.1093 0.9994,3.19038 1.9604,6.36155 2.6138,9.62881 2.2294,10.85884 4.6511,21.60237 7.1688,32.3459 1.4991,6.32311 2.806,12.70389 4.6894,18.87325 1.6145,5.32371 2.9982,10.66665 4.4589,16.0288 1.576,5.76576 3.5748,11.35854 4.9778,17.14352 1.4606,5.88107 3.4594,11.55073 4.8432,17.41259 2.2294,9.24443 5.2468,18.21979 6.9381,27.61798 0.6535,3.6132 1.2685,7.28407 2.1526,10.89728 0.1537,0.61501 0.3267,1.23003 0.4997,1.84504 -23.0438,-0.36516 -46.0876,-0.92252 -69.07379,-2.07567 -6.11168,-0.32673 -12.20416,-0.84565 -18.29664,-1.34535 0.13453,-0.88408 0.23063,-1.76816 0.15375,-2.63303 -1.30691,-13.43421 -0.9994,-26.96452 -1.4991,-40.43717 -0.61501,-16.00959 0.0769,-32.07683 0.15376,-48.0672 0.0384,-16.60538 -0.15376,-33.22998 -0.1922,-49.83536 0,-16.62461 -0.24985,-33.22999 -0.71111,-49.85459 2.13333,-0.17297 4.28588,-0.4997 6.36156,-0.32672 1.53753,0.23063 3.09429,0.42282 4.63182,0.4997 1.403,0.0384 2.74835,-0.0384 4.15135,0.11531 1.61441,0.23063 3.24804,0.44204 4.86241,0.63423 -0.9994,-0.13453 -2.01797,-0.26907 -3.01737,-0.4036 z M 787.92556,749.30249 c 2.46006,-17.23961 5.22762,-34.44079 7.82221,-51.68041 2.88288,-19.16153 5.13152,-38.41916 7.6108,-57.61913 1.9027,-13.97235 3.84384,-27.96392 6.2078,-41.8594 2.63303,-15.54833 6.24624,-30.88524 8.70629,-46.51044 0.44204,-2.67147 0.46126,-5.11231 0.0769,-7.53393 2.94054,-6.2078 5.65044,-12.66544 9.43662,-18.35432 0.48048,-0.4997 0.9994,-0.98018 1.53754,-1.44144 2.49849,-1.78739 5.05465,-3.44024 7.78377,-4.8048 5.26606,-1.80661 10.76275,-2.94054 16.25944,-3.8054 13.35733,-1.47988 26.96452,-1.24925 40.3603,-1.36456 13.43421,-0.0769 26.84921,0.8072 40.28342,0.96096 7.16876,0.0769 14.3183,-0.0384 21.44862,0.19219 3.69009,0.0769 7.36095,0.0769 11.0126,0.11531 3.72852,0.0384 7.36095,0.46126 11.08947,0.73033 7.09187,0.46126 14.20297,0.92252 21.29487,1.15315 6.74589,0.1922 13.43419,0.96096 20.18009,1.19159 8.2835,0.28829 16.6631,0.96096 24.9465,1.9027 4.209,0.71111 8.322,1.69129 12.3772,3.03664 1.0378,0.53813 2.0565,1.13393 3.0366,1.78738 2.6715,2.21021 5.2853,4.67026 7.5532,7.22642 1.4222,2.01801 2.7291,4.17056 3.8438,6.36155 0.5382,1.59519 0.9994,3.2096 1.5375,4.76636 0.9226,2.61381 1.7682,5.2084 2.3064,7.93752 0.5381,2.67147 2.1525,4.88168 4.1513,6.7075 0.038,1.34535 -0.019,2.67147 0.2498,4.07447 3.152,17.18196 6.5922,34.30626 9.9364,51.44978 3.1519,16.08646 6.9381,31.99995 9.8594,48.10563 1.3838,7.43783 2.5754,14.89488 3.8439,22.37114 1.1915,7.13032 2.7291,14.20298 3.9591,21.3333 1.23,7.28408 2.3832,14.60659 3.767,21.87144 1.4222,7.32252 3.1904,14.62581 4.8432,21.90988 1.6721,7.41861 3.5556,14.818 5.3045,22.23661 -1.7105,0 -3.421,0.0961 -5.1315,0.0769 -10.4168,-0.11531 -20.8528,-0.4997 -31.2696,-0.74955 -0.058,-0.23063 0.019,-0.48048 -0.058,-0.71111 -0.9994,-2.84444 -1.6529,-5.80419 -2.4985,-8.66785 -0.8841,-2.9982 -1.8451,-5.82342 -2.3448,-8.93693 -1.0763,-6.78437 -3.3057,-13.28046 -5.1507,-19.87264 -1.4607,-5.16996 -2.7676,-10.43602 -3.9207,-15.68286 -1.3838,-6.24624 -3.3057,-12.3195 -5.0355,-18.48886 -3.0366,-10.82041 -6.2078,-21.60237 -9.5135,-32.3459 -1.9988,-6.55374 -3.0366,-13.35734 -4.5357,-20.0264 -1.1916,-5.49669 -2.5754,-10.85884 -3.6901,-16.37475 -1.4991,-7.5147 -3.421,-14.89487 -5.7465,-22.17895 -1.7682,-5.38137 -3.7285,-10.66665 -6.2078,-15.74051 -1.4607,-3.07507 -3.1135,-6.05405 -4.6511,-9.09068 -1.5759,-3.26726 -3.1903,-6.55375 -5.0546,-9.66725 -2.3832,-4.03603 -5.3622,-7.74534 -8.3219,-11.35855 -1.3838,-1.69129 -3.0367,-3.11351 -4.6511,-4.51651 -2.6522,-2.36396 -5.4198,-4.78558 -8.4948,-6.5153 -7.09189,-3.95916 -15.10629,-4.8048 -23.06309,-5.3045 -4.65101,-0.30751 -9.28283,-0.80721 -13.97231,-0.80721 -7.86065,0 -15.79818,0.4997 -23.60117,1.4991 -4.45885,0.57658 -8.05284,1.38378 -11.35854,4.68948 -0.65346,0.65346 -0.98018,1.51832 -1.4991,2.24865 -3.95915,3.38258 -6.66906,8.16816 -6.41921,13.58797 0.92252,19.29607 2.03723,38.5537 2.11411,57.8882 0.0769,16.7207 -0.0384,33.49905 -0.11531,50.21975 -0.0769,16.06724 0.61501,32.15371 0.92252,48.22095 0.23063,13.78016 0.11531,27.5411 1.65285,41.24439 0.0384,0.44204 0.19219,0.78798 0.24985,1.23002 -13.03062,-0.0961 -26.04201,-0.11531 -39.0534,-0.11531 -15.35613,0 -30.73149,-0.11532 -46.08762,-0.23063 -1.13393,-0.0192 -2.28709,-0.0192 -3.42102,-0.0192 -13.93391,0 -27.82939,0.80721 -41.78252,1.21081 -4.3051,0.13453 -8.6102,-0.0577 -12.9153,-0.13454 0.0384,-0.24985 0.13454,-0.46126 0.15376,-0.71111 0.53813,-5.43903 1.15315,-10.87806 1.84504,-16.31709 z m 373.81324,171.83878 c -7.3609,0 -14.7796,0.0769 -22.1405,0.1922 -7.976,0.11531 -15.9135,0.19219 -23.8702,0.15375 -16.9129,-0.0769 -33.8066,-0.57658 -50.681,-0.69189 -16.1057,-0.0769 -32.2306,-0.15376 -48.3363,-0.30751 -4.7279,-0.0384 -9.4366,0 -14.1261,0 -9.93629,0.0384 -19.91109,0.0769 -29.80896,-0.53814 -13.6264,-0.8072 -27.27203,-0.38438 -40.93688,-0.38438 -14.6258,0 -29.27082,0.4997 -43.89663,0.61501 -16.5285,0.11532 -33.11467,-0.15375 -49.64317,-0.38438 -13.66484,-0.11532 -27.34891,-0.0769 -41.01375,-0.0384 -8.39879,0.0384 -16.79758,0.0769 -25.21558,0.0384 -19.81499,-0.0384 -39.57232,-1.28769 -59.36809,-1.69129 -1.07627,-10.89728 -1.34534,-21.89066 -0.17297,-32.7495 0.69189,-4.09369 1.65285,-8.14894 3.07507,-12.06965 1.61441,-3.28649 3.45946,-6.41921 5.57357,-9.43663 1.17237,-1.34534 2.4024,-2.59459 3.72852,-3.78618 1.32613,-0.86486 2.67147,-1.63363 4.13213,-2.3063 2.51771,-1.01862 5.01621,-2.07567 7.5147,-3.13273 1.34534,-0.57657 2.70991,-1.15315 4.07447,-1.72973 1.05706,-0.46126 2.01801,-1.19159 2.92132,-2.03723 5.99638,0.86486 12.01199,1.55675 18.04682,1.9988 5.82341,0.46126 11.70448,0.42282 17.5279,0.42282 1.96036,-0.0384 3.92071,-0.0384 5.86185,-0.0384 7.01501,0.0384 14.04923,0.0384 21.10268,0.0384 9.35974,-0.0384 18.75793,-0.0384 28.19455,0 8.0144,0 16.0288,0 24.10087,0.0769 7.63001,0.0769 15.26003,0.65345 22.94771,0.96095 16.45163,0.57658 32.96091,0.73033 49.41254,0.42283 33.22998,-0.57658 66.45994,-0.73033 99.67073,-0.57658 16.836,0.11532 33.6912,-0.11531 50.5272,-0.23063 14.7411,-0.11531 29.463,-0.80721 44.2042,-0.57657 10.9165,0.17297 22.0828,1.32612 32.9993,0.11531 4.3051,2.26786 8.591,4.53573 12.5502,7.38017 2.2102,1.8066 4.305,3.65165 6.2077,5.8042 1.9027,2.7099 3.5748,5.5159 5.0355,8.5141 2.1525,5.72732 3.4979,11.64683 4.4204,17.72009 0.7111,6.88047 0.7495,13.76094 0.9802,20.67985 0.058,2.13333 0.1537,4.26666 0.2306,6.38077 -8.5718,0.61502 -17.2012,1.23003 -25.8306,1.19159 z M 771.76222,635.73629 c -0.0769,0.63423 -0.15375,1.26846 -0.23063,1.9027 -0.0961,0.78799 -0.23063,1.57597 -0.34595,2.36396 0.1922,-1.42222 0.38439,-2.84444 0.57658,-4.26666 z M 1054.6879,491.20797 c -0.3652,-0.0577 -0.7303,-0.0961 -1.0955,-0.13454 -0.2691,-0.0384 -0.5573,-0.0769 -0.8264,-0.11531 0.615,0.0769 1.2685,0.17297 1.9219,0.24985 z"
       id="path1"
       style="fill:#f9f9f9;stroke-width:19.2192" /><path
       class="sketchy_een"
       d="m 1878.947,905.89596 c -0.5874,-12.1355 -0.386,-24.2877 -0.2853,-36.4399 0.1007,-12.9075 -0.1007,-25.815 -0.4532,-38.7225 -0.2014,-6.7307 -0.7217,-13.4279 -0.8057,-20.1586 -0.1342,-6.63 -0.2014,-13.2768 -0.3189,-19.9068 -0.2685,-13.6293 -0.2685,-27.2249 -0.621,-40.8374 -0.2014,-7.3182 -0.621,-14.6364 -0.4532,-21.9546 0.1679,-6.9992 0.1679,-13.9481 0.2014,-20.9306 0.067,-13.2432 -0.6546,-26.4697 -0.9064,-39.6961 -0.1342,-7.0496 -0.2853,-14.1496 -0.8056,-21.1657 -0.3861,-5.5389 -1.0743,-10.9604 -1.2421,-16.4826 -0.2853,-10.6416 -0.9064,-21.2328 -0.7889,-31.8576 0.1679,-12.3201 0.8728,-24.6569 1.4939,-36.977 0.386,-8.0902 -7.0832,-14.8881 -14.8882,-14.8881 -1.7288,0 -3.2898,0.4532 -4.8004,0.9903 -1.6282,-0.6378 -3.357,-1.0071 -5.2872,-1.2588 -7.7043,-0.9736 -15.4085,-0.7386 -23.1463,-1.1918 -1.8463,-0.1175 -3.6927,-0.1678 -5.5558,-0.1678 -8.342,0 -16.6841,1.1078 -24.9254,2.4338 -0.1007,-5.6733 -0.2014,-11.3633 -0.4029,-17.0534 -0.2685,-7.6706 -6.2103,-14.0824 -14.0824,-14.0824 -0.2518,0 -0.47,0.1342 -0.705,0.151 -2.0309,-1.2085 -4.2801,-2.0981 -6.7978,-2.1988 -2.7695,-0.1007 -5.4215,0.034 -8.1574,0.2686 -3.3738,0.3189 -6.7643,0.2517 -10.1045,0.5203 -3.6423,0.235 -7.2846,0.7721 -10.8933,1.1749 -1.4435,0.1679 -2.9206,0.3525 -4.4144,0.4532 -0.9736,-1.8463 -1.8464,-3.7598 -2.8367,-5.5893 -2.0813,-3.8437 -4.3976,-7.2175 -7.0832,-10.6248 -2.6688,-3.3905 -6.2104,-6.009 -9.8191,-8.3253 -3.8773,-2.4506 -8.2581,-4.7165 -12.8068,-5.4215 -4.0451,-0.6714 -8.0231,-0.9567 -12.0179,-0.9567 -1.3932,0 -2.7863,0.034 -4.1794,0.1007 -4.8173,0.235 -9.7184,0.8225 -14.2671,2.417 -6.009,2.1149 -11.6151,4.6494 -16.5499,8.6778 -3.4744,2.8198 -6.2775,6.6971 -8.6441,10.4066 -2.4842,3.8437 -4.4312,7.9224 -6.1768,12.1018 -0.47,0 -0.9232,0 -1.3932,0 -6.63,0 -13.2936,-0.1846 -19.9571,-0.1846 -1.5778,0 -3.0381,0.4364 -4.4816,0.9231 -0.1678,0 -0.3189,-0.1007 -0.4867,-0.1007 -8.3253,0 -13.9482,6.63 -14.5021,14.5021 -0.2854,3.6759 -0.3693,7.3853 -0.5036,11.0948 -0.5706,-0.1007 -1.0742,-0.3525 -1.6617,-0.3693 -1.1581,-0.05 -2.333,-0.067 -3.5248,-0.067 -2.4673,0 -4.9683,0.084 -7.4021,0.1846 -3.8269,0.2014 -7.7042,0.1007 -11.5311,0.2014 -5.1194,0.1343 -10.222,0.5203 -15.3246,0.8896 -6.63,0.4532 -13.2935,0.705 -19.9571,1.1582 -3.508,0.2685 -6.5964,1.242 -9.1477,3.8101 -1.2589,1.2421 -2.2156,2.7527 -2.8534,4.3808 -1.3932,2.1821 -2.4171,4.5991 -2.3163,7.3182 1.1077,28.6517 3.0212,57.2866 2.5345,85.9718 -0.4868,28.0475 -0.1679,56.0781 -0.7218,84.1087 -0.2685,13.5286 0.4532,27.0571 1.0071,40.5521 0.621,14.4014 0.9064,28.8363 1.1414,43.2545 0.235,14.3007 0.621,28.6181 0.7217,42.9188 0.1007,12.9075 -0.4532,25.7479 -1.1078,38.6218 -0.2853,6.2104 -0.4867,12.4208 -0.7889,18.6312 -0.2853,5.8243 -0.067,11.7493 -0.7217,17.5233 0.017,-0.067 0.017,-0.1511 0.034,-0.2182 -0.3021,3.122 -0.1007,5.925 1.6281,8.8959 0.5707,0.9736 1.4435,1.7121 2.2324,2.5178 2.2492,4.6997 7.016,7.9392 12.5382,8.0735 7.4525,0.2349 14.8882,0.3357 22.3406,0.3357 6.865,0.034 13.6797,0.3524 20.5111,0.5203 12.5214,0.2685 25.0093,0.386 37.514,0.621 26.8893,0.4196 53.8121,0.3022 80.6678,-0.7385 26.755,-1.0407 53.51,-1.0071 80.2818,-1.8463 12.0011,-0.3861 24.0358,-0.8057 35.9866,-0.3861 4.1962,0.1175 8.3924,0.4196 12.5886,0.5203 1.6282,0.034 3.2563,0.034 4.918,0.034 3.2227,-0.034 6.4621,-0.05 9.668,0.235 1.2253,0.1678 2.4506,0.3357 3.6759,0.47 1.5274,0.1846 3.1723,-0.235 4.7333,-0.8728 1.3428,0.4196 2.6688,0.856 4.1794,0.856 7.8721,0 14.3343,-6.5293 14.3678,-14.3678 0.067,-10.9437 -0.8056,-21.8874 -1.3595,-32.7807 z m -229.1462,-359.1447 c 2.1484,-0.1007 4.2969,-0.3357 6.4118,-0.7385 1.7624,-0.3357 3.5416,-1.0407 4.9683,-2.1149 1.2421,-0.6546 2.2827,-1.4938 3.122,-2.5345 2.4002,-2.7695 2.4338,-3.2227 3.8101,-6.5461 0.9568,-2.2659 1.4939,-4.6326 2.2828,-6.9489 1.2588,-2.6184 2.7527,-5.1361 4.4311,-7.5364 0.8729,-1.0238 1.7792,-1.9974 2.7695,-2.9037 1.7121,-1.1078 3.5416,-2.0646 5.388,-2.9374 2.1148,-0.7553 4.2633,-1.3596 6.4453,-1.7624 3.827,-0.386 7.7546,-0.5539 11.5816,-0.3021 0.9231,0.2182 1.8463,0.47 2.7527,0.7889 1.242,0.621 2.417,1.3092 3.5751,2.0813 0.94,0.8224 1.8128,1.6953 2.6352,2.6184 1.4268,2.1485 2.5513,4.4816 3.6088,6.8147 1.0406,2.5177 2.0645,5.0186 3.1891,7.486 0.4196,0.9399 0.8728,1.8799 1.3596,2.803 1.7959,3.2563 4.1962,5.4383 7.1839,7.5364 4.9347,3.508 11.2122,2.3835 16.7176,1.561 3.3402,-0.4868 6.6804,-1.091 10.0206,-1.6113 5.0858,-0.5875 10.1883,-0.9736 15.2909,-1.4267 0.5036,10.138 1.0071,20.276 1.0743,30.414 0.034,5.9754 0.067,11.934 0.1175,17.8926 -0.6211,-0.084 -1.175,-0.3692 -1.8128,-0.386 -8.4596,-0.1343 -16.8687,-0.3525 -25.3283,-0.6546 -13.7803,-0.4532 -27.5774,-0.3357 -41.3913,-0.3861 -12.9411,-0.1007 -25.9158,-0.3357 -38.8904,-0.2014 -10.1213,0.1343 -20.1586,-0.5035 -30.1959,-1.4938 0.1007,-6.3447 0.1343,-12.6893 0.1846,-19.0676 0.067,-4.7836 0.4532,-9.517 0.9064,-14.3006 0.1846,-1.8464 0.3021,-3.7095 0.4532,-5.5726 5.774,-0.1511 11.5479,-0.2853 17.3387,-0.5707 z m 192.6896,379.4543 c -4.2633,-0.067 -8.4595,-0.2854 -12.7061,-0.5204 -10.8597,-0.5874 -21.9209,0.1679 -32.7807,0.5204 -13.3607,0.386 -26.6543,1.0406 -40.0318,1.2756 -13.881,0.235 -27.7621,0.3525 -41.6431,0.6882 -13.7132,0.3357 -27.4432,0.5875 -41.1564,0.5203 -13.26,-0.067 -26.5703,-0.2014 -39.8303,-0.1007 -24.7576,0.2182 -49.3977,-1.5274 -74.105,-2.7191 0.1007,-6.6972 0.3861,-13.3943 0.6211,-20.0747 0.4532,-12.4879 1.4938,-24.9422 1.561,-37.4133 0.067,-14.3678 -0.5204,-28.7692 -0.8393,-43.1202 -0.3525,-13.9985 -0.3189,-28.0138 -0.7553,-42.0292 -0.7553,-27.4431 -1.6617,-54.8863 -1.5274,-82.363 0.1343,-27.7285 0.8057,-55.5074 0.2853,-83.2359 -0.2685,-15.3581 -0.4028,-30.733 -0.7049,-46.1079 1.7624,-0.1678 3.508,-0.3525 5.2536,-0.4868 5.1026,-0.386 10.2387,-0.1342 15.3078,0 7.6706,0.1511 15.3413,-0.034 22.9951,0.4197 0.4029,0.017 0.7554,-0.1847 1.1414,-0.2014 -0.084,5.4214 -0.1678,10.8429 -0.067,16.2644 -2.5513,-2.7695 -6.1432,-4.599 -9.903,-4.599 -7.486,0 -13.0418,6.0761 -13.3272,13.3271 -0.5539,13.5957 -0.386,27.1579 -0.2685,40.7368 0.1007,13.5957 0.2853,27.1578 0.6882,40.7367 0.386,13.0418 0.5203,26.05 0.9399,39.0918 0.4196,13.0922 1.0407,26.1676 1.3596,39.2765 0.5539,23.3812 1.2421,46.7961 0.9064,70.1605 -0.1343,9.0135 -0.235,18.0101 -0.2015,26.99 0,3.743 -0.067,7.4357 -0.1007,11.1955 -0.034,3.8437 -0.2853,7.7378 0.034,11.5647 0,0.7721 0.4532,1.4267 0.5707,2.1652 -1.7792,2.3667 -2.9709,5.1698 -2.9709,8.1407 0,3.6423 1.4603,7.1839 4.0284,9.752 2.803,2.803 5.9418,3.6087 9.7519,4.0283 7.1839,0.7721 14.4014,1.3428 21.6525,1.5274 6.8314,0.235 13.6292,0.1007 20.4439,0.235 6.2439,0.1343 12.4879,0.7385 18.7318,0.9735 6.9825,0.2686 14.0153,0.3861 20.9978,0.4197 6.3782,0.034 12.7397,-0.034 19.1179,-0.1008 7.5364,-0.067 15.0895,-0.1342 22.6259,-0.1007 13.495,0.067 27.0236,0.4532 40.5186,0.3022 9.3659,-0.1343 18.7318,-0.3357 28.1313,-0.5539 3.2898,-0.067 6.5629,-0.067 9.8863,-0.067 4.9683,0.034 9.9534,0.034 14.8881,-0.2685 6.5125,-0.3525 11.8333,-4.8005 12.9914,-11.1116 2.1149,-2.3666 3.8102,-5.7572 3.5081,-8.8959 -0.3861,-4.4312 -0.7889,-8.8456 -1.2085,-13.2768 -0.4532,-4.9348 -0.4532,-9.8863 -0.6211,-14.8546 -0.3525,-12.2865 -0.4196,-24.5729 -0.4532,-36.8594 0,-13.0418 0.4197,-26.1172 -0.4867,-39.1254 -0.94,-13.2936 -0.8393,-26.6543 -1.2925,-39.9647 -0.386,-10.759 -1.0742,-21.5181 -1.5945,-32.2772 -0.5539,-10.7254 -0.5203,-21.4342 -0.4196,-32.1261 0.1342,-10.6583 0.034,-21.3503 0.1342,-32.0254 0.1343,-11.5144 0.319,-23.012 -0.067,-34.5264 -0.2349,-7.0496 -5.7236,-12.9746 -12.9746,-12.9746 -6.865,0 -13.3272,5.925 -13.0082,12.9746 0.621,13.7804 1.0742,27.5439 1.242,41.3242 0.1343,12.9915 0,25.9997 0.2014,39.0079 0.235,13.4615 0.8729,26.8557 1.6282,40.3172 0.7217,13.1593 0.6546,26.3689 1.0071,39.5282 0.2853,10.6248 0.8056,21.2664 0.6881,31.8911 -0.1007,10.5577 -0.3189,21.1321 -0.4196,31.7066 -0.067,9.2987 -0.386,18.5975 -0.5203,27.8963 -0.067,4.3808 0.3189,8.7449 0.621,13.1257 0.067,1.175 0.1343,2.3499 0.2014,3.5248 -8.6777,0.1847 -17.3554,0.3693 -26.0332,0.4364 -13.495,0.1343 -26.99,0.4532 -40.5185,0.3525 -14.0489,-0.1342 -28.0978,-0.3357 -42.1467,-0.3357 -13.7132,0 -27.4432,0 -41.1564,-0.386 -4.3808,-0.1511 -8.812,-0.4196 -13.1928,-0.5875 -2.7024,-0.1007 -5.4047,-0.067 -8.0903,-0.067 -1.8128,0 -3.6087,0 -5.4047,-0.034 -5.0019,-0.084 -10.0038,-0.4364 -15.0056,-0.9232 0.5707,-7.3181 0.4867,-14.6867 0.4196,-22.0216 -0.034,-9.7856 -0.3525,-19.6047 -0.4196,-29.3902 -0.1007,-12.7397 -0.067,-25.4962 -0.4197,-38.2358 -0.3524,-12.5551 -0.6546,-25.0766 -0.9063,-37.6148 -0.235,-12.3536 -1.2085,-24.6737 -1.6282,-37.0441 -0.4196,-12.2193 -0.9399,-24.4219 -1.2756,-36.6412 -0.5539,-22.0217 0.067,-43.9762 1.1078,-65.9476 1.2589,1.9471 2.7863,3.6256 4.8172,4.8173 2.2828,1.326 4.7166,1.9806 7.3518,1.9806 13.5957,1.7288 27.141,1.6953 40.8039,1.3931 12.7061,-0.2853 25.4625,-0.2182 38.1686,-0.3189 14.0489,-0.1007 28.0978,-0.1678 42.1131,0.3861 4.8844,0.2014 9.7856,0.8728 14.6699,0.9063 4.0955,0 8.191,0.067 12.2865,-0.05 3.5248,-0.1007 6.714,-1.5274 9.1645,-3.7598 1.9806,1.1246 4.1291,1.9303 6.5125,1.9303 7.4861,0 13.7804,-6.2776 13.7468,-13.7972 0,-5.2033 -0.1343,-10.4065 -0.034,-15.6098 0.05,-3.1892 -0.05,-6.3951 -0.1343,-9.5842 0.5036,-0.067 0.9735,0 1.4771,-0.084 6.3111,-1.1749 12.639,-2.182 18.9668,-3.1388 5.7572,-0.5539 11.3801,0 17.1541,0.034 1.796,0.034 3.6087,0 5.4383,0 1.6449,-0.017 3.3234,0.017 5.0019,0.034 -0.1175,11.0947 0,22.1727 -0.1008,33.2675 -0.1342,12.2529 1.0407,24.4722 1.4603,36.7252 0.2686,6.8314 0.6882,13.6628 0.7889,20.4942 0.1007,6.865 0.067,13.7132 0.3861,20.5446 0.6881,13.5286 0.9399,27.0236 1.1413,40.5689 0.4197,27.376 0.4868,54.7856 1.3596,82.1617 0.4532,13.5621 1.1414,27.0907 1.2756,40.636 0.1008,11.313 -0.1007,22.6763 -0.067,34.006 0.067,10.8934 0.4868,21.7867 1.0743,32.6465 0.235,4.2801 0.2853,8.5267 0.3021,12.8068 -1.3764,0 -2.7527,-0.1007 -4.1291,-0.1007 -1.6952,0.05 -3.3737,0.05 -5.0018,0.017 z m -196.1137,-227.7867 c -2.6352,-2.6688 -4.1291,-6.2775 -4.1291,-10.0205 0,-3.7431 1.4939,-7.3518 4.1291,-10.0206 2.2492,-2.2156 5.8747,-4.1794 9.1981,-4.1794 0.2685,0 0.5371,0.017 0.8056,0.034 10.0541,1.0071 20.125,1.4938 30.2127,1.7288 4.1626,0.1175 8.3253,-0.034 12.4879,-0.2014 3.7094,-0.1343 7.4189,-0.2686 11.1451,-0.235 8.1574,0.1007 16.3149,0.6546 24.4891,0.5539 5.9753,-0.05 12.0011,-0.621 17.9765,-0.3189 7.251,0.3525 13.2936,5.7908 13.2936,13.2936 0,7.2846 -6.0426,13.2264 -13.2936,13.2935 -14.1496,0.1343 -28.2824,0.3525 -42.4656,0.3861 -7.8721,0 -15.7441,0.4532 -23.633,0.4867 -10.0877,0.067 -20.1586,0.1679 -30.2127,-0.7049 -3.8605,-0.3021 -7.1671,-1.2757 -10.0037,-4.0955 z m 119.6421,28.937 c 2.501,2.5009 3.8941,5.925 3.8941,9.4331 0,7.4692 -6.0425,13.1425 -13.3271,13.3607 -3.122,0.1007 -6.2104,-0.084 -9.3324,-0.3189 -4.4144,-0.3357 -8.7449,-0.1343 -13.1761,0 -8.0063,0.235 -16.0966,0.3524 -24.1197,0.2517 -2.1149,0 -4.2298,0 -6.3111,0 -2.4338,0.034 -4.8844,0.034 -7.3182,-0.017 -4.448,-0.067 -8.8792,-0.3525 -13.2936,-0.2686 -10.6583,0.1678 -21.3335,0.6882 -31.9918,0.705 -7.5196,0.034 -13.7804,-6.3111 -13.7804,-13.8139 0,-7.3686 6.1433,-13.7804 13.5622,-13.7804 0.067,0 0.151,0 0.2182,0 10.7926,0.1343 21.6188,0.9735 32.4114,0.9735 4.4816,0 8.9799,-0.2685 13.4615,-0.3021 4.5822,-0.033 9.1309,0 13.7131,-0.033 8.0064,-0.067 15.996,-0.1847 24.0023,-0.034 4.3977,0.067 8.7785,0.067 13.1929,-0.067 2.887,-0.084 5.8243,-0.2517 8.7449,0 3.6591,0.3357 6.781,1.2421 9.4498,3.9109 z m -0.05,62.4899 c 0,3.4912 -1.3931,6.8649 -3.8437,9.3323 -2.3163,2.266 -6.009,4.1626 -9.3659,3.8605 -6.3447,-0.5874 -12.9747,-0.6882 -19.3865,-0.4532 -7.6371,0.3022 -15.2574,0.1679 -22.928,0.1679 -8.9128,-0.034 -17.8255,-0.1679 -26.7215,0.1343 -9.0134,0.3021 -17.9765,0.9735 -26.9564,1.4267 -7.2846,0.3524 -13.3271,-6.3783 -13.3271,-13.3607 0,-7.4693 6.0425,-13.0754 13.3271,-13.3272 12.6558,-0.4532 25.2947,-0.3525 37.9841,-0.2853 5.6229,0.067 11.2458,0.1007 16.9023,0.067 13.6796,0 27.4096,-0.4867 41.0892,-0.7385 0.067,0 0.1511,0 0.2182,0 7.1503,-0.034 13.0082,6.16 13.0082,13.1761 z"
       id="path1-6"
       style="fill:#f9f9f9;stroke-width:16.7848" /></g><style
     type="text/css"
     id="style1">&#10;	.sketchy_een{fill:#111918;}&#10;</style><style
     type="text/css"
     id="style1-8">&#10;	.sketchy_een{fill:#111918;}&#10;</style></svg>
