<?xml version="1.0" encoding="UTF-8" standalone="no"?>
<svg
   version="1.1"
   id="svg883"
   width="2560"
   height="1440"
   viewBox="0 0 2560 1440"
   sodipodi:docname="an-effective-how-to-guide-template.svg"
   inkscape:version="1.3 (0e150ed, 2023-07-21)"
   xml:space="preserve"
   xmlns:inkscape="http://www.inkscape.org/namespaces/inkscape"
   xmlns:sodipodi="http://sodipodi.sourceforge.net/DTD/sodipodi-0.dtd"
   xmlns="http://www.w3.org/2000/svg"
   xmlns:svg="http://www.w3.org/2000/svg"
   xmlns:rdf="http://www.w3.org/1999/02/22-rdf-syntax-ns#"
   xmlns:cc="http://creativecommons.org/ns#"
   xmlns:dc="http://purl.org/dc/elements/1.1/"><metadata
     id="metadata889"><rdf:RDF><cc:Work
         rdf:about=""><dc:format>image/svg+xml</dc:format><dc:type
           rdf:resource="http://purl.org/dc/dcmitype/StillImage" /></cc:Work></rdf:RDF></metadata><defs
     id="defs887" /><sodipodi:namedview
     pagecolor="#ffffff"
     bordercolor="#666666"
     borderopacity="1"
     objecttolerance="10"
     gridtolerance="10"
     guidetolerance="10"
     inkscape:pageopacity="0"
     inkscape:pageshadow="2"
     inkscape:window-width="1920"
     inkscape:window-height="1110"
     id="namedview885"
     showgrid="false"
     showguides="true"
     inkscape:guide-bbox="true"
     inkscape:zoom="0.40887728"
     inkscape:cx="1357.3755"
     inkscape:cy="744.72224"
     inkscape:window-x="0"
     inkscape:window-y="43"
     inkscape:window-maximized="1"
     inkscape:current-layer="g891"
     inkscape:document-rotation="0"
     inkscape:showpageshadow="2"
     inkscape:pagecheckerboard="0"
     inkscape:deskcolor="#d1d1d1"><sodipodi:guide
       position="-5085.6997,719.99659"
       orientation="0,-1"
       id="guide2524"
       inkscape:locked="false" /><sodipodi:guide
       position="640,3678.5859"
       orientation="1,0"
       id="guide3207"
       inkscape:locked="false" /><sodipodi:guide
       position="1920,1222.9258"
       orientation="1,0"
       id="guide3211"
       inkscape:locked="false" /></sodipodi:namedview><g
     inkscape:groupmode="layer"
     inkscape:label="Image"
     id="g891"><rect
       style="fill:#172b4d;fill-opacity:1;stroke:none;stroke-width:3.56535;stroke-linecap:round;stroke-linejoin:round;paint-order:markers fill stroke"
       id="rect2275"
       width="2560"
       height="1440"
       x="0"
       y="0" /><g
       id="g7"
       transform="matrix(0.25739911,0,0,0.25739911,658.5411,488.33957)"
       style="fill:#ffffff">&#10;	<path
   id="path1-2"
   d="m 897.76562,-12.964844 c -31.4856,0.295759 -62.89078,7.5528965 -91.28043,21.1811573 -33.30262,15.9110877 -62.42053,40.4569877 -83.75705,70.5713677 -14.67187,20.645103 -25.68816,43.886609 -32.33752,68.327549 -72.12012,0.002 -144.2405,-0.0119 -216.36047,0.0164 -12.91764,0.2131 -25.59491,6.15706 -34.06531,15.90543 -7.66349,8.68315 -11.86562,20.3022 -11.57422,31.87695 0,22.9655 10e-6,45.93099 0,68.89649 -45.42922,0.002 -90.85884,-0.012 -136.28781,0.0192 -13.04535,0.25294 -25.82525,6.35794 -34.26511,16.30154 -7.48297,8.66099 -11.5355,20.15948 -11.23028,31.59447 0.003,484.97759 -0.002,969.95529 0.007,1454.93279 0.0255,12.8631 5.73112,25.5743 15.2863,34.1798 8.70228,7.966 20.51922,12.3996 32.31404,12.1343 404.24881,0 808.49774,0 1212.74644,0 12.9474,0 25.7548,-5.7444 34.3866,-15.3901 7.9352,-8.7133 12.3248,-20.5267 12.0466,-32.3058 0,-485.0484 0,-970.09691 0,-1455.14525 -0.024,-12.94708 -5.8079,-25.73805 -15.4726,-34.34677 -8.7282,-7.91341 -20.549,-12.2689 -32.3227,-11.9712 -44.6596,0 -89.3193,0 -133.9789,0 -0.01,-23.84792 0.014,-47.69644 -0.027,-71.54398 -0.3501,-12.71101 -6.2335,-25.13394 -15.8045,-33.49899 -8.6704,-7.68802 -20.2861,-11.92421 -31.8692,-11.65235 -71.4316,0 -142.8633,0 -214.2949,0 -8.8975,-32.72836 -25.669,-63.265222 -48.4441,-88.390798 -22.6157,-25.033821 -51.1044,-44.739739 -82.5539,-56.967214 -25.68151,-10.0162772 -53.29669,-15.01788 -80.85746,-14.722062 z m 4.62305,93.41211 c 16.70652,0.306594 33.3433,4.034176 48.55488,10.95668 22.93427,10.342064 42.55508,27.855834 55.43255,49.468294 9.3263,15.55963 15.1512,33.2034 16.8603,51.26653 0.4011,3.86812 0.4335,7.78739 1.3339,11.58975 2.4421,11.33984 9.2782,21.66095 18.7948,28.30063 8.0366,5.66788 17.9051,8.68261 27.7365,8.48452 0.2287,0.005 1.1991,6.6e-4 1.714,0.002 68.4658,0 136.9315,1e-5 205.3973,0 0,53.64779 0,107.29558 0,160.94336 -252.14,0 -504.27996,0 -756.41993,0 0,-53.64778 0,-107.29557 0,-160.94336 69.68783,-0.002 139.37593,0.0118 209.0636,-0.0165 13.06511,-0.21984 25.88214,-6.2989 34.35239,-16.24393 6.87764,-7.94947 10.88103,-18.28391 11.27585,-28.77966 1.55183,-22.9423 9.74264,-45.38063 23.31378,-63.94205 13.92742,-19.14114 33.4035,-34.211259 55.49148,-42.751888 14.95919,-5.827074 31.05099,-8.645704 47.0986,-8.334356 z M 428.39062,357.21094 c 0.002,30.8016 -0.0123,61.60365 0.0222,92.40497 0.33014,12.69717 6.1708,25.12104 15.71149,33.50168 8.67769,7.74687 20.34055,12.01512 31.96708,11.74178 283.0686,-0.003 566.13731,0.002 849.20591,-0.007 13.0206,-0.022 25.8801,-5.8757 34.4925,-15.63401 7.8224,-8.71111 12.1199,-20.45941 11.8235,-32.15932 0,-29.94934 0,-59.89869 0,-89.84804 29.4596,0 58.9193,0 88.3789,0 0,454.12109 0,908.2422 0,1362.3633 -373.3275,0 -746.65498,0 -1119.98245,0 0,-454.1211 0,-908.24221 0,-1362.3633 29.46028,0 58.92057,0 88.38085,0 z"
   style="fill:#ffffff" />&#10;	<path
   id="path2"
   d="m 685.67578,659.54297 c -12.48283,-0.0118 -24.86111,5.27926 -33.47979,14.30986 -39.27692,39.27627 -78.55384,78.55254 -117.83076,117.82881 -16.0409,-16.02806 -32.04789,-32.09094 -48.12145,-48.08577 -9.2288,-8.72735 -22.1571,-13.34555 -34.82621,-12.50128 -12.20029,0.72194 -24.00928,6.48319 -32.06575,15.67802 -8.38929,9.39871 -12.65506,22.31375 -11.54441,34.86065 0.91224,11.25756 6.10954,22.08893 14.29224,29.87076 26.72566,26.72222 53.43714,53.45919 80.18656,80.15731 9.28599,8.88333 22.38565,13.56819 35.19817,12.66484 11.50881,-0.73786 22.65319,-5.9395 30.61296,-14.28482 50.54079,-50.54386 101.09252,-101.07719 151.61437,-151.63972 8.89593,-9.25522 13.61584,-22.32727 12.74923,-35.13015 -0.72754,-12.13664 -6.442,-23.88199 -15.56392,-31.92531 -8.48456,-7.59439 -19.83269,-11.89273 -31.22124,-11.8032 z"
   style="fill:#ffffff" />&#10;	<path
   id="path3"
   d="m 824.80664,735.28516 c -12.76133,-0.0192 -25.40099,5.53454 -34.03902,14.92512 -8.37902,8.95421 -12.96467,21.32158 -12.4395,33.57488 0.42466,12.24416 5.93451,24.21149 14.96601,32.49186 8.73321,8.1296 20.68115,12.67414 32.61017,12.40266 173.4514,-0.004 346.903,0.005 520.3543,-0.007 12.9523,-0.0824 25.7189,-5.93269 34.2873,-15.63868 8.1759,-9.1174 12.507,-21.5539 11.7375,-33.77864 -0.679,-12.59519 -6.7648,-24.78049 -16.4208,-32.8959 -8.5871,-7.32882 -19.9079,-11.34014 -31.1931,-11.07653 -173.2876,0.001 -346.57533,-0.003 -519.86286,0.002 z"
   style="fill:#ffffff" />&#10;	<path
   id="path4"
   d="m 685.69531,1015.4492 c -12.51076,-0.024 -24.90926,5.2963 -33.54108,14.3478 -39.263,39.2636 -78.526,78.5272 -117.789,117.7909 -16.03592,-16.0305 -32.0539,-32.0797 -48.11561,-48.0838 -9.22176,-8.7189 -22.13474,-13.3421 -34.79454,-12.5061 -12.21525,0.7077 -24.03595,6.4789 -32.10547,15.6778 -8.29342,9.3044 -12.56765,22.0411 -11.57301,34.4655 0.82457,11.3981 6.0415,22.3972 14.32345,30.2694 26.70187,26.6989 53.39044,53.4116 80.11553,80.0869 9.2891,8.9336 22.43149,13.6393 35.27856,12.7309 11.49956,-0.737 22.63533,-5.9326 30.59033,-14.27 50.51879,-50.5223 101.04905,-101.0336 151.55127,-151.5723 8.91078,-9.2279 13.66369,-22.2756 12.83399,-35.0722 -0.69582,-12.2274 -6.45874,-24.0694 -15.667,-32.148 -8.47051,-7.5392 -19.76621,-11.8021 -31.10742,-11.7168 z"
   style="fill:#ffffff" />&#10;	<path
   id="path5"
   d="m 824.82812,1091.1895 c -13.02071,-0.031 -25.91192,5.755 -34.56538,15.4808 -8.27882,9.1281 -12.66239,21.648 -11.88885,33.9475 0.67532,12.4989 6.67287,24.5951 16.20473,32.7075 8.64049,7.4693 20.10136,11.5501 31.51708,11.2626 173.38826,0 346.7767,0.01 520.1648,0 12.9954,-0.084 25.8032,-5.9721 34.3715,-15.7357 7.9139,-8.8853 12.2111,-20.8854 11.6961,-32.7771 -0.4332,-12.4533 -6.1374,-24.6142 -15.44,-32.9061 -8.682,-7.8605 -20.4125,-12.2358 -32.1229,-11.9708 -170.7401,0 -341.4802,0 -512.22028,0 -0.43623,-0.1867 -1.22704,-0.015 -1.79991,-0.064 -1.97229,0.02 -3.94459,0.04 -5.91689,0.06 z"
   style="fill:#ffffff" />&#10;	<path
   id="path6"
   d="m 685.69531,1371.3555 c -12.49098,-0.024 -24.87145,5.2778 -33.50046,14.3051 -39.27654,39.2772 -78.55308,78.5544 -117.82962,117.8316 -16.03829,-16.0313 -32.0557,-32.0846 -48.12163,-48.0875 -9.21307,-8.7108 -22.11104,-13.3299 -34.75892,-12.5044 -12.00618,0.6984 -23.64817,6.2583 -31.70049,15.1984 -8.24193,8.9938 -12.69058,21.326 -12.09669,33.5107 0.50375,11.8528 5.71798,23.4485 14.34214,31.6109 26.17352,26.2288 52.38991,52.4137 78.59759,78.6073 8.9195,9.4202 21.93054,14.7803 34.8961,14.3867 12.18921,-0.2359 24.16468,-5.5436 32.57441,-14.3628 50.51994,-50.5219 101.04855,-101.0355 151.55098,-151.5746 8.90643,-9.2297 13.65232,-22.278 12.82003,-35.0719 -0.69545,-12.1718 -6.41174,-23.9607 -15.55208,-32.0318 -8.48276,-7.6019 -19.8294,-11.904 -31.22136,-11.8177 z"
   style="fill:#ffffff" />&#10;	<path
   id="path7"
   d="m 824.82812,1447.0957 c -12.95035,-0.031 -25.77371,5.6921 -34.42513,15.325 -8.36731,9.1425 -12.80722,21.7339 -12.02902,34.1033 0.67803,12.5274 6.70024,24.6509 16.2707,32.763 8.63352,7.4326 20.06438,11.4912 31.45103,11.2052 173.38826,0 346.7767,0.01 520.1648,0 13.0387,-0.083 25.8872,-6.0129 34.457,-15.8325 7.8862,-8.9015 12.1473,-20.906 11.6067,-32.7897 -0.4639,-12.4147 -6.161,-24.5272 -15.4361,-32.7947 -8.7064,-7.885 -20.4796,-12.258 -32.2229,-11.9709 -170.7067,0 -341.4135,0 -512.12028,0 -0.43623,-0.1867 -1.22704,-0.015 -1.79991,-0.064 -1.97229,0.02 -3.94459,0.04 -5.91689,0.06 z"
   style="fill:#ffffff" />&#10;</g><g
       id="g8"
       transform="matrix(0.27341544,0,0,0.27341544,1342.7582,473.92757)"
       style="fill:#ffffff">&#10;	<path
   id="path1-0"
   d="M 896.2168,40.507812 C 841.61172,40.847541 787.04248,48.460876 734.47784,63.274282 666.35831,82.416457 601.67876,113.638 544.20296,154.89533 486.24901,196.45342 435.58498,248.14996 395.24655,306.9619 c -29.20126,42.5297 -53.01044,88.76248 -70.61529,137.25712 -18.54338,51.06245 -30.15742,104.62804 -34.50027,158.7771 -3.96383,49.45902 -1.96888,99.39314 5.93863,148.37704 7.66917,47.48986 20.95514,94.07369 39.55617,138.43898 21.76435,51.98913 50.81657,100.92005 86.05355,144.90836 34.57364,43.211 75.08389,81.6543 120.00459,113.9722 18.05848,13.0025 36.82122,25.0264 56.17349,36.0104 0,45.3646 0,90.7292 0,136.0938 -0.28981,1.6827 -0.0513,3.4084 -0.12695,5.1105 0,38.9417 0,77.8834 0,116.825 -0.37286,1.7386 -0.0845,3.5317 -0.17188,5.2961 0,67.6064 0,135.2128 0,202.8192 58.07357,0 116.14714,0 174.22071,0 3.69183,22.3796 13.41567,43.7182 27.85734,61.2063 15.56917,18.9434 36.5691,33.3936 59.88853,41.0095 26.48913,8.7175 55.80509,8.5739 82.19364,-0.4571 24.33639,-8.2491 46.04918,-23.9603 61.58939,-44.4152 12.7515,-16.7239 21.3879,-36.5815 24.7875,-57.3435 58.0384,0 116.0768,0 174.1152,0 0,-42.6582 0,-85.3164 0,-127.9747 0.3822,-1.7527 0.091,-3.5611 0.1778,-5.341 -0.01,-66.3477 0.012,-132.6956 -0.01,-199.0433 -0.028,-35.0935 0,-70.187 -0.01,-105.2805 0,-9.5023 0,-19.0047 0,-28.507 50.7281,-28.7777 97.3828,-64.7524 137.9743,-106.6396 42.3243,-43.6299 78.0559,-93.64715 105.5689,-147.85131 25.0515,-49.28586 43.2995,-102.01472 54.1567,-156.22285 11.2469,-56.17603 14.6037,-113.91633 10.0242,-171.02138 -4.9285,-61.54549 -19.2835,-122.33281 -42.4897,-179.55144 -18.6654,-46.11091 -43.0316,-89.90306 -72.2902,-130.1308 -35.4379,-48.76797 -78.1045,-92.25971 -126.1346,-128.68659 -43.9826,-33.3608 -92.4832,-60.76914 -143.7954,-81.136802 -50.3262,-20.01836 -103.3504,-33.226796 -157.1811,-39.192064 -23.89392,-2.661968 -47.94467,-3.903665 -71.9854,-3.760552 z m 3.89648,91.880858 c 1.09696,0.002 2.50497,0.007 3.40664,0.007 9.72335,0.0717 19.4446,0.40092 29.15,0.99697 0.36093,0.0275 1.19812,0.0793 1.74144,0.11604 9.50315,0.61877 18.98861,1.50621 28.44411,2.63982 0.40028,0.0531 1.1916,0.14737 1.74156,0.21625 7.08877,0.87514 14.15718,1.91214 21.20375,3.07867 0.40495,0.0719 1.18371,0.20103 1.73174,0.29484 6.99433,1.18172 13.96138,2.52155 20.90108,3.99032 0.4,0.0898 1.1735,0.25394 1.7165,0.37221 7.9833,1.72321 15.9238,3.64392 23.8167,5.74302 0.3829,0.0997 1.1594,0.31228 1.6929,0.45518 1.0834,0.28954 2.0538,0.56293 3.186,0.87278 0.8218,0.2232 1.6018,0.44553 2.495,0.69641 7.7565,2.20037 15.4651,4.5696 23.1144,7.11821 0.3402,0.12019 1.1372,0.38524 1.6524,0.56092 27.0811,9.13824 53.3927,20.54704 78.5937,34.02892 0.3222,0.1692 1.0568,0.56991 1.537,0.82776 0.626,0.33998 1.5232,0.81833 1.9803,1.07199 52.4051,28.55743 99.831,66.19857 139.5934,110.70122 13.3559,14.93411 25.8493,30.6374 37.4147,46.99669 0.1944,0.28533 0.6883,0.9838 0.9975,1.42743 4.012,5.71136 7.899,11.51003 11.6763,17.37921 0.1923,0.29525 0.6455,1.01242 0.9378,1.46929 22.3977,35.0731 40.5627,72.84803 53.9391,112.25532 0.1176,0.36366 0.3812,1.13862 0.5547,1.65974 0.2702,0.8116 0.5059,1.49706 0.7459,2.23185 1.016,3.06585 1.9935,6.14428 2.9553,9.22755 0.1138,0.36187 0.352,1.14797 0.5135,1.67225 4.3072,14.05527 8.0049,28.29705 11.092,42.66955 0.2087,0.97812 0.4728,2.20752 0.6589,3.11832 4.7768,22.93654 7.9838,46.19822 9.6223,69.56918 0.028,0.37019 0.077,1.1492 0.1133,1.67578 0.2611,3.95784 0.4785,7.9184 0.6563,11.88086 0.011,0.36982 0.047,1.1998 0.068,1.74582 0.089,2.05026 0.1493,4.10155 0.217,6.15261 0.012,0.36191 0.03,1.20036 0.044,1.74477 0.089,3.3683 0.1381,6.73747 0.1664,10.1068 0,0.48819 0.01,1.33382 0.01,1.95896 0.029,10.89293 -0.2801,21.94472 -0.9366,32.9361 -0.023,0.40494 -0.075,1.20186 -0.1091,1.75688 -0.046,0.70836 -0.093,1.54675 -0.1349,2.09263 -0.3177,4.7109 -0.6983,9.41739 -1.1352,14.11871 -0.035,0.38439 -0.1162,1.19509 -0.1688,1.74268 -1.9054,19.62466 -4.9355,39.13893 -9.0422,58.42333 -0.082,0.35752 -0.2552,1.17329 -0.3721,1.70629 -4.3345,20.02508 -9.8784,39.78597 -16.5517,59.15699 -0.091,0.26882 -0.3968,1.1327 -0.5704,1.6302 -14.7736,42.40379 -35.1169,82.85986 -60.3429,120.00825 -0.2324,0.34158 -0.6174,0.89949 -0.9444,1.37823 -20.9749,30.70609 -45.3076,59.10833 -72.3728,84.60643 -0.2039,0.195 -0.8776,0.8186 -1.2621,1.1784 -11.9024,11.1387 -24.3332,21.7109 -37.2242,31.6888 -0.2361,0.1735 -0.9536,0.7289 -1.3747,1.0491 -7.2432,5.5664 -14.6386,10.9343 -22.1624,16.1149 -0.3356,0.2338 -0.9911,0.6777 -1.4492,0.992 -18.3199,12.5191 -37.4486,23.8458 -57.1902,33.9732 -8.7826,4.4835 -17.578,8.942 -26.3645,13.4176 0,61.2969 0,122.5938 0,183.8907 -54.8444,0 -109.6888,0 -164.53323,0 0,-148.6745 0,-297.349 0,-446.02351 61.24373,-61.25089 122.49823,-122.49136 183.72583,-183.75813 9.0123,-9.31578 13.6877,-22.60695 12.5618,-35.51366 -0.9232,-11.64845 -6.5168,-22.83906 -15.2798,-30.57001 -9.1692,-8.20483 -21.7434,-12.4383 -34.0083,-11.44847 -11.2101,0.8181 -22.0253,5.95622 -29.7648,14.1044 C 1008.7906,674.1658 954.39529,728.56044 900,782.95508 845.12472,728.08028 790.25961,673.19503 735.36958,618.33515 c -9.14236,-8.8851 -22.13661,-13.59613 -34.84827,-12.70309 -11.97773,0.74873 -23.5521,6.43909 -31.44696,15.48103 -8.1977,9.23014 -12.37994,21.87619 -11.3051,34.17455 0.88329,11.10038 6.00791,21.78278 14.07651,29.45269 60.73631,60.7389 121.47262,121.4778 182.20893,182.2167 0,148.67447 0,297.34897 0,446.02347 -54.76888,0 -109.53776,0 -164.30664,0 0,-61.2963 0,-122.5925 0,-183.8887 -11.37854,-5.832 -22.83097,-11.5205 -34.14063,-17.4863 -0.27579,-0.1533 -1.05727,-0.5688 -1.52706,-0.8226 -11.57842,-6.214 -22.9218,-12.8651 -34.00419,-19.9255 -0.31614,-0.1993 -1.01028,-0.6489 -1.47115,-0.944 -38.25414,-24.5468 -73.30186,-54.0954 -103.88263,-87.726 -32.64813,-35.85567 -60.20126,-76.34107 -81.56988,-119.87215 -6.55576,-13.34726 -12.53054,-26.97915 -17.91423,-40.84064 -0.12732,-0.32331 -0.43025,-1.12097 -0.62485,-1.62602 -0.25252,-0.66239 -0.62173,-1.61426 -0.80484,-2.10445 -2.39799,-6.33394 -4.67277,-12.71422 -6.82812,-19.13476 -0.1071,-0.33896 -0.37617,-1.14029 -0.54531,-1.65635 -0.22363,-0.67274 -0.54034,-1.64257 -0.7086,-2.13858 -1.25968,-3.87228 -2.47674,-7.75817 -3.65429,-11.65625 -0.0977,-0.34467 -0.34089,-1.15132 -0.49432,-1.67294 -2.94005,-9.88877 -5.56964,-19.86932 -7.91779,-29.91495 -0.0783,-0.3629 -0.26742,-1.17058 -0.38816,-1.70379 -0.17256,-0.75689 -0.37965,-1.65227 -0.51654,-2.25708 -0.25703,-1.16083 -0.51406,-2.32166 -0.77108,-3.48249 -0.0696,-0.34799 -0.24996,-1.17442 -0.36198,-1.70568 -1.7461,-8.13303 -3.28282,-16.31052 -4.64193,-24.51697 -0.0562,-0.37078 -0.19089,-1.18547 -0.27714,-1.72621 -0.36669,-2.21246 -0.68795,-4.43182 -1.0256,-6.64879 -0.0652,-0.4808 -0.19046,-1.32018 -0.27867,-1.93836 -0.0998,-0.69622 -0.15705,-1.05976 -0.24596,-1.72728 -1.20262,-8.52696 -2.18255,-17.08487 -2.9656,-25.66054 -0.0304,-0.39328 -0.10438,-1.19616 -0.15147,-1.74623 -0.26775,-3.00722 -0.49455,-6.01791 -0.71181,-9.02916 -0.0284,-0.37781 -0.0799,-1.19807 -0.11707,-1.74528 -0.20538,-3.0121 -0.37026,-6.02677 -0.52551,-9.04183 -0.0141,-0.39508 -0.0547,-1.19946 -0.0789,-1.75121 -0.14373,-3.016 -0.25166,-6.0335 -0.34294,-9.05152 -0.0152,-0.48809 -0.0351,-1.33336 -0.0521,-1.95831 -0.0822,-2.95079 -0.12367,-5.90249 -0.15691,-8.85419 0.003,-0.2973 -0.003,-1.15558 -0.004,-1.66797 -0.01,-2.0996 -0.0107,-4.19921 -0.002,-6.29883 -2.2e-4,-0.36998 0.01,-1.14924 0.0137,-1.67578 0.0892,-9.23656 0.42945,-18.46987 0.99414,-27.68945 0.0277,-0.36092 0.0795,-1.1981 0.11649,-1.74141 0.28429,-4.37763 0.63256,-8.75101 1.02805,-13.11992 0.0728,-0.74367 0.16829,-1.79232 0.2498,-2.65308 2.64315,-27.43047 7.47585,-54.65049 14.44941,-81.31176 0.0968,-0.37522 0.30783,-1.16059 0.44836,-1.69282 0.7373,-2.79026 1.50829,-5.57147 2.28797,-8.35015 0.11125,-0.37355 0.33171,-1.154 0.48476,-1.6833 7.17375,-25.01246 16.26258,-49.47312 27.12071,-73.11944 0.16366,-0.34195 0.50556,-1.08912 0.73746,-1.5862 18.09841,-39.04833 41.0966,-75.81308 68.21762,-109.22825 0.20735,-0.24597 0.76119,-0.92843 1.10143,-1.3418 8.88736,-10.88666 18.2245,-21.40533 27.95912,-31.54101 0.27822,-0.2809 0.83533,-0.86251 1.22031,-1.25852 0.53282,-0.54971 1.17003,-1.21094 1.58956,-1.64296 41.26312,-42.29082 89.72036,-77.56045 142.72183,-103.6883 16.47729,-8.13427 33.39163,-15.3822 50.64017,-21.71882 0.35028,-0.12292 1.12887,-0.40919 1.64314,-0.59466 5.47456,-1.99618 10.98873,-3.88224 16.52678,-5.6944 0.36363,-0.11431 1.29886,-0.41631 1.68946,-0.54492 8.85094,-2.83908 17.77555,-5.44836 26.76562,-7.81055 0.39435,-0.1056 1.16204,-0.30207 1.6993,-0.44246 0.95969,-0.25213 1.72953,-0.4423 2.72589,-0.6961 1.08,-0.27629 1.99992,-0.50519 3.12151,-0.78217 2.19387,-0.54466 4.39316,-1.06716 6.59393,-1.58317 0.3969,-0.0866 1.17047,-0.26761 1.71155,-0.39034 1.20978,-0.28044 2.36009,-0.53654 3.63006,-0.82144 20.26972,-4.48706 40.8092,-7.75401 61.47089,-9.7765 0.35961,-0.0368 1.19539,-0.11312 1.73736,-0.16507 1.83372,-0.17841 3.66963,-0.33286 5.50482,-0.49509 0.36829,-0.0257 1.19694,-0.0955 1.7415,-0.1381 1.83579,-0.15289 3.67339,-0.28232 5.51046,-0.41854 0.36106,-0.0273 1.14792,-0.0773 1.67187,-0.11328 3.95983,-0.26125 7.92237,-0.47849 11.88672,-0.65821 0.35295,-0.0103 1.19978,-0.0475 1.74192,-0.0681 2.05091,-0.0893 4.10285,-0.1493 6.15456,-0.21701 0.36191,-0.0121 1.20036,-0.0301 1.74477,-0.0445 3.36959,-0.0897 6.74013,-0.13456 10.1107,-0.16644 0.3116,0.004 1.1673,-0.002 1.6875,-0.002 0.53907,-0.001 1.07813,-0.003 1.61719,-0.004 z M 1110.498,1406.6055 c 0,10.0768 0,20.1536 0,30.2304 -140.29227,0 -280.58459,0 -420.87691,0 0,-10.0768 0,-20.1536 0,-30.2304 140.29232,0 280.58464,0 420.87691,0 z m -0.1777,122.1211 c 0,10.0768 0,20.1536 0,30.2304 -140.29035,0 -280.58072,0 -420.87108,0 0,-10.0768 0,-20.1536 0,-30.2304 140.29036,0 280.58073,0 420.87108,0 z m -178.92382,122.1211 c -5.55523,8.2497 -14.42178,14.2401 -24.22158,16.0666 -10.45458,2.0345 -21.86237,-0.3312 -30.24823,-7.0195 -3.23599,-2.5441 -6.0473,-5.6202 -8.32511,-9.0471 20.93164,0 41.86328,0 62.79492,0 z"
   style="fill:#ffffff" />&#10;	<path
   id="path2-3"
   d="m 1065.5371,231.60938 c -12.7046,0.23957 -25.167,6.06834 -33.5254,15.63476 -7.9621,8.96555 -12.1777,21.13 -11.4663,33.10057 0.6163,11.90657 6.0911,23.46373 14.9058,31.49123 8.5377,7.85668 20.1198,12.32616 31.7303,12.12827 10.1036,0.24448 20.0052,2.72264 29.5676,5.84463 13.513,4.49812 26.4081,10.75399 38.5606,18.15779 10.7907,6.60842 20.9734,14.21616 30.3231,22.74431 0.182,0.17521 0.8812,0.81406 1.2624,1.16784 17.9476,16.67666 32.6987,37.07346 41.4868,60.02664 5.7861,15.03733 9.0032,31.05019 9.5379,47.15122 0,0.30281 0.034,1.19993 0.048,1.73088 0.014,0.48355 0.032,1.39702 0.044,2.05504 -0.019,3.86609 0.1867,7.75121 1.0459,11.53244 2.2808,10.61388 8.4286,20.34147 17.0688,26.92115 9.1754,7.067 21.0758,10.47147 32.6008,9.29673 12.2501,-1.14837 23.8994,-7.47535 31.553,-17.10655 6.8351,-8.49567 10.4802,-19.47024 10.1114,-30.36678 -0.1333,-30.41876 -5.8434,-60.86385 -17.289,-89.07366 -10.9383,-27.09058 -26.9847,-52.03468 -46.6526,-73.60798 -23.5711,-25.90544 -52.1282,-47.16222 -83.3955,-62.88573 -19.3902,-9.72346 -39.8944,-17.35992 -61.1207,-21.92979 -11.9554,-2.55075 -24.1586,-4.10856 -36.3977,-4.01301 z"
   style="fill:#ffffff" />&#10;	<path
   id="path3-9"
   d="m 34.507812,666.93945 c -12.560089,-0.0195 -25.0006334,5.44639 -33.5010483,14.69044 -8.2587615,8.82864 -12.7714407,21.02797 -12.2289487,33.10763 0.443561,12.26573 6.0847809,24.23625 15.2695112,32.38028 8.5557848,7.71298 20.1036248,11.9835 31.6194708,11.70456 47.718946,2.3e-4 95.438183,0.0186 143.156943,-0.0141 12.67229,-0.20996 25.10618,-6.02719 33.43993,-15.568 7.86281,-8.87515 12.05805,-20.88627 11.3925,-32.72859 -0.57924,-12.43287 -6.5247,-24.49161 -16.01357,-32.54298 -8.47354,-7.29761 -19.68747,-11.29571 -30.86565,-11.03116 -47.42303,10e-4 -94.846193,-0.003 -142.269138,0.002 z"
   style="fill:#ffffff" />&#10;	<path
   id="path4-8"
   d="m 141.16211,130.67383 c -12.58042,-0.0285 -25.04633,5.44127 -33.55692,14.70484 -8.416188,9.00433 -12.919749,21.51443 -12.172027,33.81754 0.608598,11.49071 5.751777,22.65979 14.082887,30.59728 33.77083,33.7686 67.52751,67.55188 101.32067,101.29782 9.13914,8.79125 22.0689,13.43295 34.71211,12.53564 11.89555,-0.75877 23.39417,-6.38125 31.27399,-15.32992 8.30718,-9.25855 12.53499,-22.01118 11.43497,-34.39919 -0.90458,-11.09058 -6.03807,-21.75558 -14.10824,-29.41242 -33.73156,-33.72884 -67.45095,-67.47026 -101.20092,-101.18044 -8.44184,-8.1014 -20.08994,-12.71517 -31.78652,-12.63115 z"
   style="fill:#ffffff" />&#10;	<path
   id="path5-6"
   d="m 242.32031,1102.041 c -12.28509,-0.017 -24.46352,5.1954 -32.9478,14.0786 -33.76595,33.7663 -67.54524,67.5198 -101.29072,101.3063 -8.977157,9.2776 -13.654396,22.4999 -12.578564,35.3588 0.906525,12.0992 6.875914,23.7134 16.182604,31.4979 9.22081,7.8433 21.64138,11.7558 33.69362,10.6434 10.97088,-0.9525 21.51827,-6.0183 29.11676,-13.9905 33.76569,-33.7675 67.54525,-67.5216 101.28877,-101.311 8.95023,-9.2977 13.59708,-22.5242 12.49229,-35.3769 -0.92886,-11.9583 -6.79001,-23.4384 -15.94507,-31.1912 -8.25584,-7.1048 -19.12026,-11.0915 -30.01189,-11.0154 z"
   style="fill:#ffffff" />&#10;	<path
   id="path6-5"
   d="m 1622.0527,666.93945 c -12.5942,-0.0205 -25.0651,5.47731 -33.5697,14.76308 -8.2276,8.83636 -12.7136,21.02311 -12.1607,33.08653 0.453,12.02445 5.8912,23.76324 14.7754,31.88086 8.606,7.9897 20.3745,12.439 32.114,12.15244 47.7177,2.4e-4 95.4356,0.0186 143.1531,-0.0141 12.6826,-0.20972 25.1273,-6.03736 33.4594,-15.5934 7.9258,-8.95225 12.1112,-21.09556 11.3553,-33.03146 -0.6692,-12.42401 -6.6953,-24.43698 -16.2368,-32.4197 -8.4693,-7.19264 -19.6193,-11.10683 -30.7247,-10.82618 -47.3884,0.001 -94.777,-0.003 -142.1653,0.002 z"
   style="fill:#ffffff" />&#10;	<path
   id="path7-7"
   d="m 1658.5449,130.67188 c -12.2812,-0.024 -24.4572,5.18268 -32.945,14.05629 -33.8317,33.83494 -67.6776,67.65633 -101.4869,101.51321 -8.7288,9.13976 -13.3354,22.02425 -12.4372,34.62581 0.764,12.04893 6.5344,23.68205 15.6737,31.57355 9.3418,8.19603 22.1179,12.30486 34.4863,11.08402 10.96,-0.99432 21.4636,-6.12589 29.0307,-14.10995 33.7163,-33.71979 67.4472,-67.42542 101.1408,-101.16754 8.7884,-9.14044 13.4274,-22.06837 12.5318,-34.71016 -0.7629,-11.97202 -6.4512,-23.54087 -15.4961,-31.42773 -8.3235,-7.36134 -19.3849,-11.51754 -30.4981,-11.4375 z"
   style="fill:#ffffff" />&#10;	<path
   id="path8"
   d="m 1557.3516,1102.041 c -12.5454,-0.017 -24.9764,5.4259 -33.4782,14.6513 -8.4726,9.0243 -12.9983,21.5974 -12.2263,33.9518 0.6259,11.4695 5.7714,22.6108 14.0897,30.5322 33.7694,33.7648 67.525,67.5439 101.3166,101.2862 9.2969,8.9538 22.5283,13.5938 35.3816,12.4892 12.0564,-0.9408 23.6216,-6.8969 31.3805,-16.1749 7.7764,-9.1509 11.6991,-21.4458 10.6651,-33.4104 -0.8834,-11.1082 -6.0024,-21.8033 -14.0779,-29.4793 -33.7827,-33.7747 -67.5505,-67.5648 -101.3532,-101.319 -8.4385,-8.04 -20.0452,-12.6166 -31.6979,-12.5271 z"
   style="fill:#ffffff" />&#10;</g></g><style
     type="text/css"
     id="style1">&#10;	.sketchy_een{fill:#111918;}&#10;</style><style
     type="text/css"
     id="style1-8">&#10;	.sketchy_een{fill:#111918;}&#10;</style></svg>
