<?xml version="1.0" encoding="UTF-8" standalone="no"?>
<svg
   version="1.1"
   id="svg883"
   width="2560"
   height="1440"
   viewBox="0 0 2560 1440"
   sodipodi:docname="automate-your-macos-defaults.svg"
   inkscape:version="1.3 (0e150ed, 2023-07-21)"
   xml:space="preserve"
   xmlns:inkscape="http://www.inkscape.org/namespaces/inkscape"
   xmlns:sodipodi="http://sodipodi.sourceforge.net/DTD/sodipodi-0.dtd"
   xmlns="http://www.w3.org/2000/svg"
   xmlns:svg="http://www.w3.org/2000/svg"
   xmlns:rdf="http://www.w3.org/1999/02/22-rdf-syntax-ns#"
   xmlns:cc="http://creativecommons.org/ns#"
   xmlns:dc="http://purl.org/dc/elements/1.1/"><metadata
     id="metadata889"><rdf:RDF><cc:Work
         rdf:about=""><dc:format>image/svg+xml</dc:format><dc:type
           rdf:resource="http://purl.org/dc/dcmitype/StillImage" /></cc:Work></rdf:RDF></metadata><defs
     id="defs887" /><sodipodi:namedview
     pagecolor="#ffffff"
     bordercolor="#666666"
     borderopacity="1"
     objecttolerance="10"
     gridtolerance="10"
     guidetolerance="10"
     inkscape:pageopacity="0"
     inkscape:pageshadow="2"
     inkscape:window-width="1920"
     inkscape:window-height="1110"
     id="namedview885"
     showgrid="false"
     showguides="true"
     inkscape:guide-bbox="true"
     inkscape:zoom="0.32340347"
     inkscape:cx="1202.8319"
     inkscape:cy="932.272"
     inkscape:window-x="0"
     inkscape:window-y="43"
     inkscape:window-maximized="0"
     inkscape:current-layer="g891"
     inkscape:document-rotation="0"
     inkscape:showpageshadow="2"
     inkscape:pagecheckerboard="0"
     inkscape:deskcolor="#d1d1d1"><sodipodi:guide
       position="-5085.6997,719.99659"
       orientation="0,-1"
       id="guide2524"
       inkscape:locked="false" /><sodipodi:guide
       position="640,3678.5859"
       orientation="1,0"
       id="guide3207"
       inkscape:locked="false" /><sodipodi:guide
       position="1920,1222.9258"
       orientation="1,0"
       id="guide3211"
       inkscape:locked="false" /></sodipodi:namedview><g
     inkscape:groupmode="layer"
     inkscape:label="Image"
     id="g891"><rect
       style="fill:#343a40;fill-opacity:1;stroke:none;stroke-width:3.56535;stroke-linecap:round;stroke-linejoin:round;paint-order:markers fill stroke"
       id="rect2275"
       width="2560"
       height="1440"
       x="0"
       y="0" /><path
       d="m 1037.5185,540.03558 c 17.1333,-19.85752 28.6822,-47.51705 25.5217,-75.03558 -24.6899,0.94 -54.5602,15.76852 -72.26367,35.60254 -15.89758,17.60151 -29.77523,45.7287 -26.04442,72.70672 27.54152,2.04451 55.65329,-13.39501 72.78639,-33.27368 m 61.7605,174.64747 c 0.6892,71.13457 65.111,94.7991 65.8238,95.1046 -0.5228,1.6685 -10.2894,33.72253 -33.9337,66.85521 -20.4601,28.62303 -41.6805,57.12856 -75.1153,57.73956 -32.8407,0.5875 -43.4152,-18.65902 -80.98474,-18.65902 -37.54575,0 -49.28472,18.04802 -80.3669,19.24652 -32.27035,1.1515 -56.86518,-30.97303 -77.46783,-59.49971 -42.15581,-58.35055 -74.35484,-164.89966 -31.10598,-236.80738 21.4819,-35.69654 59.85937,-58.32706 101.5399,-58.89106 31.67627,-0.5875 61.59403,20.42152 80.96098,20.42152 19.367,0 55.72457,-25.26253 93.93567,-21.54952 15.9926,0.6345 60.9049,6.1805 89.7296,46.62404 -2.3288,1.38651 -53.5858,29.96253 -53.0155,89.41524"
       id="apple-[#173]"
       style="fill:#ffffff;fill-rule:evenodd;stroke:none;stroke-width:23.5" /><path
       fill="#000000"
       d="m 1639.0865,520 a 14.285714,14.285714 0 0 1 13.6,9.91429 l 15.7143,48.82857 c 6.6,3.22857 12.9143,6.85714 18.9429,10.94286 l 50.1714,-10.8 a 14.285714,14.285714 0 0 1 15.3714,6.85714 l 39.6,68.54286 a 14.285714,14.285714 0 0 1 -1.8,16.74285 l -34.4285,38 a 159.42857,159.42857 0 0 1 0,21.88572 l 34.4285,38.05714 a 14.285714,14.285714 0 0 1 1.8,16.74286 l -39.6,68.57143 a 14.285714,14.285714 0 0 1 -15.3714,6.82857 l -50.1714,-10.8 c -6,4.05714 -12.3429,7.71429 -18.9143,10.94286 l -15.7429,48.82856 a 14.285714,14.285714 0 0 1 -13.6,9.91429 h -79.2 a 14.285714,14.285714 0 0 1 -13.6,-9.91429 l -15.6857,-48.79999 a 156.97143,156.97143 0 0 1 -19,-11 l -50.1428,10.82857 a 14.285714,14.285714 0 0 1 -15.3715,-6.85714 l -39.6,-68.54286 a 14.285714,14.285714 0 0 1 1.8,-16.74286 l 34.4286,-38.05714 a 159.42857,159.42857 0 0 1 0,-21.82857 l -34.4286,-38.05715 a 14.285714,14.285714 0 0 1 -1.8,-16.74285 l 39.6,-68.57143 a 14.285714,14.285714 0 0 1 15.3715,-6.82857 l 50.1428,10.82857 c 6.0572,-4.08572 12.4,-7.77143 19,-11 l 15.7143,-48.8 A 14.285714,14.285714 0 0 1 1559.858,520 h 79.2 z m -10.4571,28.57143 h -58.2857 l -16.2286,50.48571 -10.9429,5.34286 a 131.30045,131.30045 0 0 0 -15.5428,8.97143 l -10.1143,6.85714 -51.8857,-11.2 -29.1429,50.51429 35.5715,39.37143 -0.8572,12.11428 a 130.85714,130.85714 0 0 0 0,17.94286 l 0.8572,12.11429 -35.6286,39.37143 29.1714,50.51428 51.8857,-11.17143 10.1143,6.82858 a 131.30045,131.30045 0 0 0 15.5429,8.97142 l 10.9428,5.34286 16.2572,50.48571 h 58.3428 l 16.2858,-50.51428 10.9142,-5.31429 a 128.69732,128.69732 0 0 0 15.5143,-8.97142 l 10.0857,-6.82858 51.9143,11.17143 29.1429,-50.51428 -35.6,-39.37143 0.8571,-12.11429 a 130.85714,130.85714 0 0 0 0,-17.97143 l -0.8571,-12.11428 35.6286,-39.34286 -29.1715,-50.51429 -51.9143,11.14286 -10.0857,-6.8 A 128.4,128.4 0 0 0 1655.8865,604.4 l -10.9142,-5.31428 -16.3143,-50.51429 z m -29.1429,85.71429 a 85.714287,85.714287 0 1 1 0,171.42857 85.714287,85.714287 0 0 1 0,-171.42857 z m 0,28.57142 a 57.14286,57.14286 0 1 0 0,114.28572 57.14286,57.14286 0 0 0 0,-114.28572 z"
       id="path1"
       style="fill:#f9f9f9;stroke-width:0.446429" /></g></svg>
