<?xml version="1.0" encoding="UTF-8" standalone="no"?>
<svg
   version="1.1"
   id="svg883"
   width="2560"
   height="1440"
   viewBox="0 0 2560 1440"
   sodipodi:docname="python-pinning.svg"
   inkscape:version="1.3 (0e150ed, 2023-07-21)"
   xml:space="preserve"
   xmlns:inkscape="http://www.inkscape.org/namespaces/inkscape"
   xmlns:sodipodi="http://sodipodi.sourceforge.net/DTD/sodipodi-0.dtd"
   xmlns:xlink="http://www.w3.org/1999/xlink"
   xmlns="http://www.w3.org/2000/svg"
   xmlns:svg="http://www.w3.org/2000/svg"
   xmlns:rdf="http://www.w3.org/1999/02/22-rdf-syntax-ns#"
   xmlns:cc="http://creativecommons.org/ns#"
   xmlns:dc="http://purl.org/dc/elements/1.1/"><metadata
     id="metadata889"><rdf:RDF><cc:Work
         rdf:about=""><dc:format>image/svg+xml</dc:format><dc:type
           rdf:resource="http://purl.org/dc/dcmitype/StillImage" /></cc:Work></rdf:RDF></metadata><defs
     id="defs887"><linearGradient
       id="linearGradient2795"><stop
         style="stop-color:#b8b8b8;stop-opacity:0.49803922;"
         offset="0"
         id="stop2797" /><stop
         style="stop-color:#7f7f7f;stop-opacity:0;"
         offset="1"
         id="stop2799" /></linearGradient><linearGradient
       id="linearGradient2787"><stop
         style="stop-color:#7f7f7f;stop-opacity:0.5;"
         offset="0"
         id="stop2789" /><stop
         style="stop-color:#7f7f7f;stop-opacity:0;"
         offset="1"
         id="stop2791" /></linearGradient><linearGradient
       id="linearGradient3676"><stop
         style="stop-color:#b2b2b2;stop-opacity:0.5;"
         offset="0"
         id="stop3678" /><stop
         style="stop-color:#b3b3b3;stop-opacity:0;"
         offset="1"
         id="stop3680" /></linearGradient><linearGradient
       id="linearGradient3236"><stop
         style="stop-color:#f4f4f4;stop-opacity:1"
         offset="0"
         id="stop3244" /><stop
         style="stop-color:white;stop-opacity:1"
         offset="1"
         id="stop3240" /></linearGradient><linearGradient
       id="linearGradient4671"><stop
         style="stop-color:#ffd43b;stop-opacity:1;"
         offset="0"
         id="stop4673" /><stop
         style="stop-color:#ffe873;stop-opacity:1"
         offset="1"
         id="stop4675" /></linearGradient><linearGradient
       id="linearGradient4689"><stop
         style="stop-color:#5a9fd4;stop-opacity:1;"
         offset="0"
         id="stop4691" /><stop
         style="stop-color:#306998;stop-opacity:1;"
         offset="1"
         id="stop4693" /></linearGradient><linearGradient
       x1="224.23996"
       y1="144.75717"
       x2="-65.308502"
       y2="144.75717"
       id="linearGradient2987"
       xlink:href="#linearGradient4671"
       gradientUnits="userSpaceOnUse"
       gradientTransform="translate(100.2702,99.61116)" /><linearGradient
       x1="172.94208"
       y1="77.475983"
       x2="26.670298"
       y2="76.313133"
       id="linearGradient2990"
       xlink:href="#linearGradient4689"
       gradientUnits="userSpaceOnUse"
       gradientTransform="translate(100.2702,99.61116)" /><linearGradient
       inkscape:collect="always"
       xlink:href="#linearGradient4671"
       id="linearGradient2255"
       gradientUnits="userSpaceOnUse"
       gradientTransform="matrix(0.562541,0,0,0.567972,-11.5974,-7.60954)"
       x1="224.23996"
       y1="144.75717"
       x2="-65.308502"
       y2="144.75717" /><linearGradient
       inkscape:collect="always"
       xlink:href="#linearGradient4689"
       id="linearGradient2258"
       gradientUnits="userSpaceOnUse"
       gradientTransform="matrix(0.562541,0,0,0.567972,-11.5974,-7.60954)"
       x1="172.94208"
       y1="76.176224"
       x2="26.670298"
       y2="76.313133" /><radialGradient
       inkscape:collect="always"
       xlink:href="#linearGradient2795"
       id="radialGradient2801"
       cx="61.518883"
       cy="132.28575"
       fx="61.518883"
       fy="132.28575"
       r="29.036913"
       gradientTransform="matrix(1,0,0,0.177966,0,108.7434)"
       gradientUnits="userSpaceOnUse" /><linearGradient
       inkscape:collect="always"
       xlink:href="#linearGradient4671"
       id="linearGradient1475"
       gradientUnits="userSpaceOnUse"
       gradientTransform="matrix(1.8588718,0,0,1.8768181,720.45567,458.83045)"
       x1="150.96111"
       y1="192.35176"
       x2="112.03144"
       y2="137.27299" /><linearGradient
       inkscape:collect="always"
       xlink:href="#linearGradient4689"
       id="linearGradient1478"
       gradientUnits="userSpaceOnUse"
       gradientTransform="matrix(1.8588718,0,0,1.8768181,720.45567,458.83045)"
       x1="26.648937"
       y1="20.603781"
       x2="135.66525"
       y2="114.39767" /></defs><sodipodi:namedview
     pagecolor="#ffffff"
     bordercolor="#666666"
     borderopacity="1"
     objecttolerance="10"
     gridtolerance="10"
     guidetolerance="10"
     inkscape:pageopacity="0"
     inkscape:pageshadow="2"
     inkscape:window-width="1920"
     inkscape:window-height="1111"
     id="namedview885"
     showgrid="false"
     showguides="true"
     inkscape:guide-bbox="true"
     inkscape:zoom="0.35455254"
     inkscape:cx="1218.4372"
     inkscape:cy="885.62333"
     inkscape:window-x="0"
     inkscape:window-y="43"
     inkscape:window-maximized="1"
     inkscape:current-layer="g891"
     inkscape:document-rotation="0"
     inkscape:showpageshadow="2"
     inkscape:pagecheckerboard="0"
     inkscape:deskcolor="#d1d1d1" /><g
     inkscape:groupmode="layer"
     inkscape:label="Image"
     id="g891"><rect
       style="fill:#1f4361;fill-opacity:1;stroke-width:15;stroke-linecap:round;stroke-linejoin:round"
       id="rect1252"
       width="2560"
       height="1440"
       x="0"
       y="0" /><g
       id="g3"
       transform="matrix(1.2655484,0,0,1.2655484,-244.93292,-144.61032)"><path
         style="fill:url(#linearGradient1478);fill-opacity:1;stroke-width:3.30442"
         d="m 951.46737,497.50304 c -15.14631,0.0704 -29.61071,1.36214 -42.33788,3.61421 -37.49267,6.62372 -44.29988,20.48774 -44.29988,46.05535 v 33.76705 h 88.59976 v 11.25568 h -88.59976 -33.25073 c -25.74956,0 -48.29661,15.47697 -55.34904,44.91946 -8.13489,33.74793 -8.49571,54.80719 0,90.04545 6.29799,26.23 21.33844,44.91946 47.08799,44.91946 h 30.46262 v -40.47914 c 0,-29.2438 25.30242,-55.03925 55.34904,-55.03925 h 88.4965 c 24.63431,0 44.29991,-20.28308 44.29991,-45.02273 V 547.1726 c 0,-24.01103 -20.2561,-42.04801 -44.29991,-46.05535 -15.22011,-2.53359 -31.0123,-3.68459 -46.15862,-3.61421 z m -47.91409,27.1582 c 9.15175,0 16.62536,7.59569 16.62536,16.93515 0,9.30636 -7.47361,16.83189 -16.62536,16.83189 -9.18456,0 -16.62536,-7.52553 -16.62536,-16.83189 -10e-6,-9.33945 7.4408,-16.93515 16.62536,-16.93515 z"
         id="path1948" /><path
         style="fill:url(#linearGradient1475);fill-opacity:1;stroke-width:3.30442"
         d="m 1052.975,592.19533 v 39.34325 c 0,30.50229 -25.86,56.17514 -55.34901,56.17514 h -88.4965 c -24.24068,0 -44.29988,20.74675 -44.29988,45.02273 v 84.36597 c 0,24.01105 20.87927,38.13408 44.29988,45.02274 28.04571,8.24654 54.94007,9.7369 88.4965,0 22.30531,-6.45813 44.29991,-19.45514 44.29991,-45.02274 V 783.33538 H 953.42937 V 772.0797 h 88.49653 44.2999 c 25.7495,0 35.3449,-17.96087 44.2998,-44.91946 9.2502,-27.75345 8.8566,-54.44289 0,-90.04545 -6.3636,-25.63384 -18.5175,-44.91946 -44.2998,-44.91946 z m -49.7728,213.65142 c 9.1846,10e-6 16.6254,7.52554 16.6254,16.83188 0,9.33946 -7.4408,16.93516 -16.6254,16.93516 -9.15176,0 -16.62536,-7.5957 -16.62536,-16.93516 0,-9.30634 7.47359,-16.83188 16.62536,-16.83188 z"
         id="path1950" /></g><g
       style="fill:#f9f9f9"
       id="g4"
       transform="matrix(12.504668,0,0,12.504668,1430.2911,519.92565)"><path
         d="M 31.714,11.864 20.209,0.301 C 19.961,0.052 19.604,-0.049 19.261,0.035 18.92,0.118 18.648,0.374 18.544,0.709 17.852,2.937 17.771,4.954 18.3,6.793 18.251,6.827 18.205,6.863 18.162,6.906 l -5.347,5.346 c -1.725,-0.8 -3.579,-1.233 -5.428,-1.233 -1.175,0 -2.327,0.174 -3.424,0.515 -0.334,0.104 -0.59,0.375 -0.674,0.714 -0.084,0.339 0.014,0.698 0.261,0.947 l 6.843,6.887 -9.568,9.72 -0.832,2.192 2.011,-0.777 9.793,-9.72 6.932,6.977 c 0.189,0.192 0.447,0.295 0.709,0.295 0.079,0 0.159,-0.01 0.238,-0.029 0.341,-0.084 0.613,-0.34 0.717,-0.675 0.905,-2.913 0.64,-6.042 -0.636,-8.848 l 5.459,-5.46 c 0.02,-0.02 0.033,-0.041 0.051,-0.063 0.824,0.236 1.678,0.361 2.564,0.361 1.101,0 2.268,-0.158 3.468,-0.531 0.334,-0.104 0.59,-0.375 0.674,-0.714 0.084,-0.339 -0.015,-0.697 -0.262,-0.945 z M 18.849,25.755 6.262,13.086 c 3.23,-0.377 6.714,0.925 9.236,3.447 2.51,2.509 3.735,5.978 3.351,9.221 z m -0.092,-8.363 c -0.526,-0.804 -1.14,-1.568 -1.845,-2.274 -0.702,-0.702 -1.469,-1.321 -2.28,-1.854 l 4.504,-4.503 c 0.459,0.799 1.052,1.563 1.782,2.291 0.745,0.745 1.534,1.348 2.363,1.814 z M 22.332,9.639 C 20.409,7.716 19.668,5.572 20.061,2.986 l 8.966,9.012 c -2.583,0.37 -4.738,-0.403 -6.695,-2.36 z"
         id="path1-4"
         style="fill:#f9f9f9" /></g></g></svg>
