<?xml version="1.0" encoding="UTF-8" standalone="no"?>
<svg
   version="1.1"
   id="svg883"
   width="2560"
   height="1440"
   viewBox="0 0 2560 1440"
   sodipodi:docname="bash-environment-variable-defaults.svg"
   inkscape:version="1.2.2 (b0a8486, 2022-12-01)"
   xml:space="preserve"
   xmlns:inkscape="http://www.inkscape.org/namespaces/inkscape"
   xmlns:sodipodi="http://sodipodi.sourceforge.net/DTD/sodipodi-0.dtd"
   xmlns="http://www.w3.org/2000/svg"
   xmlns:svg="http://www.w3.org/2000/svg"
   xmlns:rdf="http://www.w3.org/1999/02/22-rdf-syntax-ns#"
   xmlns:cc="http://creativecommons.org/ns#"
   xmlns:dc="http://purl.org/dc/elements/1.1/"><metadata
     id="metadata889"><rdf:RDF><cc:Work
         rdf:about=""><dc:format>image/svg+xml</dc:format><dc:type
           rdf:resource="http://purl.org/dc/dcmitype/StillImage" /></cc:Work></rdf:RDF></metadata><defs
     id="defs887" /><sodipodi:namedview
     pagecolor="#ffffff"
     bordercolor="#666666"
     borderopacity="1"
     objecttolerance="10"
     gridtolerance="10"
     guidetolerance="10"
     inkscape:pageopacity="0"
     inkscape:pageshadow="2"
     inkscape:window-width="1792"
     inkscape:window-height="1004"
     id="namedview885"
     showgrid="false"
     showguides="true"
     inkscape:guide-bbox="true"
     inkscape:zoom="0.35455254"
     inkscape:cx="1218.4372"
     inkscape:cy="885.62333"
     inkscape:window-x="0"
     inkscape:window-y="25"
     inkscape:window-maximized="1"
     inkscape:current-layer="g891"
     inkscape:document-rotation="0"
     inkscape:showpageshadow="2"
     inkscape:pagecheckerboard="0"
     inkscape:deskcolor="#d1d1d1" /><g
     inkscape:groupmode="layer"
     inkscape:label="Image"
     id="g891"><rect
       style="fill:#343a40;fill-opacity:1;stroke-width:15;stroke-linecap:round;stroke-linejoin:round"
       id="rect1252"
       width="2560"
       height="1440"
       x="0"
       y="0" /><path
       style="line-height:normal;text-indent:0;text-align:start;text-decoration:none;text-decoration-line:none;text-decoration-style:solid;text-decoration-color:#000000;text-transform:none;isolation:auto;mix-blend-mode:normal;fill:#ffffff;fill-opacity:1;stroke-width:94.5841"
       d="m 884.27579,497.39633 -66.871,66.87096 155.7327,155.73268 -155.7327,155.7327 66.871,66.871 222.61311,-222.6037 z"
       font-weight="400"
       font-family="sans-serif"
       white-space="normal"
       overflow="visible"
       id="path1318"
       sodipodi:nodetypes="ccccccc" /><g
       id="g330"
       transform="translate(25.000015,13.33334)"><path
         d="m 1353.8917,531.48139 q 8.1481,0 15.5555,3.33334 7.4074,2.96296 12.963,8.14815 5.5556,5.18519 8.5185,12.5926 3.3334,7.03704 3.3334,15.18519 0,8.14815 -3.3334,15.18519 -2.9629,7.03704 -8.5185,12.5926 -5.5556,5.18519 -12.963,8.51852 -7.4074,2.96297 -15.5555,2.96297 -8.5185,0 -15.926,-2.96297 -7.4074,-3.33333 -12.9629,-8.51852 -5.5556,-5.55556 -8.8889,-12.5926 -2.963,-7.03704 -2.963,-15.18519 0,-8.14815 2.963,-15.18519 3.3333,-7.40741 8.8889,-12.5926 5.5555,-5.18519 12.9629,-8.14815 7.4075,-3.33334 15.926,-3.33334 z m 0,272.22236 q 8.1481,0 15.5555,3.33333 7.4074,2.96297 12.963,8.14815 5.5556,5.18519 8.5185,12.5926 3.3334,7.03704 3.3334,14.81482 0,8.51853 -3.3334,15.55557 -2.9629,7.03704 -8.5185,12.22223 -5.5556,5.55555 -12.963,8.51852 -7.4074,2.96296 -15.5555,2.96296 -8.5185,0 -15.926,-2.96296 -7.4074,-2.96297 -12.9629,-8.51852 -5.5556,-5.18519 -8.8889,-12.22223 -2.963,-7.03704 -2.963,-15.55557 0,-7.77778 2.963,-14.81482 3.3333,-7.40741 8.8889,-12.5926 5.5555,-5.18518 12.9629,-8.14815 7.4075,-3.33333 15.926,-3.33333 z"
         style="font-size:666.667px;line-height:1.25;font-family:'Bangla MN';-inkscape-font-specification:'Bangla MN';fill:#ffffff"
         id="path1539" /><path
         d="m 1467.5952,627.40736 h 250 v 37.7778 h -250 z m 0,121.11117 h 250 v 37.40743 h -250 z"
         style="font-size:666.667px;line-height:1.25;font-family:'Bangla MN';-inkscape-font-specification:'Bangla MN';fill:#ffffff;stroke-width:0.818723"
         id="path1541" /></g></g></svg>
