<?xml version="1.0" encoding="UTF-8" standalone="no"?>
<svg
   version="1.1"
   id="svg883"
   width="2560"
   height="1440"
   viewBox="0 0 2560 1440"
   sodipodi:docname="2025.svg"
   inkscape:version="1.3 (0e150ed, 2023-07-21)"
   xml:space="preserve"
   xmlns:inkscape="http://www.inkscape.org/namespaces/inkscape"
   xmlns:sodipodi="http://sodipodi.sourceforge.net/DTD/sodipodi-0.dtd"
   xmlns="http://www.w3.org/2000/svg"
   xmlns:svg="http://www.w3.org/2000/svg"
   xmlns:rdf="http://www.w3.org/1999/02/22-rdf-syntax-ns#"
   xmlns:cc="http://creativecommons.org/ns#"
   xmlns:dc="http://purl.org/dc/elements/1.1/"><metadata
     id="metadata889"><rdf:RDF><cc:Work
         rdf:about=""><dc:format>image/svg+xml</dc:format><dc:type
           rdf:resource="http://purl.org/dc/dcmitype/StillImage" /></cc:Work></rdf:RDF></metadata><defs
     id="defs887" /><sodipodi:namedview
     pagecolor="#ffffff"
     bordercolor="#666666"
     borderopacity="1"
     objecttolerance="10"
     gridtolerance="10"
     guidetolerance="10"
     inkscape:pageopacity="0"
     inkscape:pageshadow="2"
     inkscape:window-width="1920"
     inkscape:window-height="1111"
     id="namedview885"
     showgrid="false"
     showguides="true"
     inkscape:guide-bbox="true"
     inkscape:zoom="0.29023558"
     inkscape:cx="1062.9296"
     inkscape:cy="613.2949"
     inkscape:window-x="0"
     inkscape:window-y="39"
     inkscape:window-maximized="1"
     inkscape:current-layer="g891"
     inkscape:document-rotation="0"
     inkscape:showpageshadow="2"
     inkscape:pagecheckerboard="0"
     inkscape:deskcolor="#d1d1d1" /><g
     inkscape:groupmode="layer"
     inkscape:label="Image"
     id="g891"><rect
       style="fill:#a47864;fill-opacity:1;stroke-width:15;stroke-linecap:round;stroke-linejoin:round"
       id="rect1252"
       width="2560"
       height="1440"
       x="0"
       y="0" /><path
       style="font-weight:800;font-stretch:condensed;font-size:580.623px;font-family:'Hubot Sans';-inkscape-font-specification:'Hubot Sans Ultra-Bold Condensed';fill:#ffffff;stroke-width:12.4419;stroke-linejoin:round"
       d="m 731.92829,931.63708 v -78.3841 L 858.5041,695.32353 q 9.87059,-13.35433 15.67682,-24.38617 6.38685,-11.61246 8.70935,-20.90242 2.90311,-9.28997 2.90311,-16.25745 v -12.19308 q 0,-13.35433 -4.64498,-22.06367 -4.64499,-8.70935 -12.77371,-12.19309 -7.5481,-4.06436 -17.41869,-4.06436 -13.93495,0 -22.64429,6.96748 -8.70935,6.96748 -12.19309,20.90243 -3.48374,13.35433 -3.48374,34.83738 h -82.44846 q -1.74187,-45.86922 12.77371,-77.80348 15.09619,-31.93427 44.12734,-48.19171 29.03115,-16.83807 69.67476,-16.83807 39.48236,0 66.19102,15.0962 26.70866,14.51557 40.64361,40.64361 13.93495,26.12803 13.93495,60.96541 0,23.80554 -6.96747,46.44984 -6.38686,22.06367 -21.48305,45.28859 -15.0962,23.22492 -40.06299,50.5142 l -64.44915,78.96473 -9.87059,10.45121 v 4.06436 l 15.67682,-0.58062 h 131.22079 v 76.64223 z m 404.46091,5.22561 q -31.3536,0 -55.1592,-9.28997 -23.2249,-9.87059 -38.9017,-27.28928 -15.6768,-17.99931 -23.2249,-42.38547 -7.5481,-24.96679 -7.5481,-55.15919 V 637.26123 q 0,-40.06298 13.3543,-70.25538 13.9349,-30.1924 41.8048,-47.03046 27.8699,-16.83807 70.2554,-16.83807 41.8049,0 69.0942,16.83807 27.8699,16.83806 41.2242,47.03046 13.9349,30.1924 13.9349,70.25538 v 165.47755 q 0,40.06299 -13.9349,70.25538 -13.3543,30.1924 -41.2242,47.03047 -27.8699,16.83806 -69.6748,16.83806 z m 0,-71.41663 q 16.2574,0 24.3862,-9.87059 8.7093,-10.45121 8.7093,-26.70865 V 611.1332 q 0,-11.03184 -3.4837,-19.16056 -3.4838,-8.12872 -11.0319,-12.77371 -6.9674,-4.64498 -17.9993,-4.64498 -16.838,0 -25.5474,10.45121 -8.1287,9.87059 -8.1287,26.12804 v 217.73362 q 0,11.03183 3.4837,19.16055 4.0644,8.12873 11.0319,12.77371 7.5481,4.64498 18.5799,4.64498 z m -80.126,-113.22148 v -64.44915 h 160.8326 v 64.44915 z m 237.4747,179.4125 v -78.3841 l 126.5758,-157.92945 q 9.8706,-13.35433 15.6768,-24.38617 6.3868,-11.61246 8.7093,-20.90242 2.9032,-9.28997 2.9032,-16.25745 v -12.19308 q 0,-13.35433 -4.645,-22.06367 -4.645,-8.70935 -12.7737,-12.19309 -7.5481,-4.06436 -17.4187,-4.06436 -13.935,0 -22.6443,6.96748 -8.7094,6.96748 -12.1931,20.90243 -3.4837,13.35433 -3.4837,34.83738 h -82.4485 q -1.7419,-45.86922 12.7737,-77.80348 15.0962,-31.93427 44.1273,-48.19171 29.0312,-16.83807 69.6748,-16.83807 39.4824,0 66.191,15.0962 26.7087,14.51557 40.6436,40.64361 13.935,26.12803 13.935,60.96541 0,23.80554 -6.9675,46.44984 -6.3868,22.06367 -21.483,45.28859 -15.0962,23.22492 -40.063,50.5142 l -64.4492,78.96473 -9.8706,10.45121 v 4.06436 l 15.6768,-0.58062 h 131.2208 v 76.64223 z m 405.0415,5.22561 q -34.8374,0 -60.3848,-9.87059 -25.5474,-10.45121 -41.8048,-29.03115 -15.6768,-18.57993 -23.2249,-44.70797 -6.9675,-26.12803 -5.8063,-58.0623 h 87.6741 q -0.5806,19.74118 2.9031,33.67614 3.4838,13.35433 12.7737,20.3218 9.29,6.38685 26.1281,6.38685 12.193,0 21.483,-5.2256 9.29,-5.22561 13.935,-16.25745 5.2256,-11.03183 5.2256,-29.03115 v -37.74049 q 0,-19.74118 -5.2256,-31.35364 -5.2257,-11.61246 -14.5156,-16.83807 -9.29,-5.2256 -22.0637,-5.2256 -16.2574,0 -25.5474,9.87059 -8.7093,9.28996 -12.1931,28.45052 l -83.6097,0.58063 13.935,-244.44228 h 226.4429 v 76.06161 h -150.962 l -9.8705,96.96404 h 6.9674 q 6.9675,-16.25745 23.8056,-25.54741 17.4187,-9.28997 37.7405,-9.28997 26.128,0 45.8692,9.28997 20.3218,9.28996 33.6761,27.28928 13.935,17.99931 20.9024,44.70797 6.9675,26.12803 6.9675,60.38479 0,37.15987 -8.7093,65.02977 -8.1288,27.86991 -24.9668,46.44984 -16.8381,18.57994 -41.2242,27.8699 -23.8056,9.28997 -56.3205,9.28997 z"
       id="text2"
       aria-label="2025" /></g></svg>
