<?xml version="1.0" encoding="UTF-8" standalone="no"?>
<svg
   xmlns:dc="http://purl.org/dc/elements/1.1/"
   xmlns:cc="http://creativecommons.org/ns#"
   xmlns:rdf="http://www.w3.org/1999/02/22-rdf-syntax-ns#"
   xmlns:svg="http://www.w3.org/2000/svg"
   xmlns="http://www.w3.org/2000/svg"
   xmlns:sodipodi="http://sodipodi.sourceforge.net/DTD/sodipodi-0.dtd"
   xmlns:inkscape="http://www.inkscape.org/namespaces/inkscape"
   version="1.1"
   id="svg1408"
   xml:space="preserve"
   width="1920"
   height="1080"
   viewBox="0 0 1920.0001 1080"
   sodipodi:docname="changing-a-git-commit-message.svg"
   inkscape:version="1.0.1 (c497b03c, 2020-09-10)"><metadata
     id="metadata1414"><rdf:RDF><cc:Work
         rdf:about=""><dc:format>image/svg+xml</dc:format><dc:type
           rdf:resource="http://purl.org/dc/dcmitype/StillImage" /><dc:title></dc:title></cc:Work></rdf:RDF></metadata><defs
     id="defs1412" /><sodipodi:namedview
     pagecolor="#ffffff"
     bordercolor="#666666"
     borderopacity="1"
     objecttolerance="10"
     gridtolerance="10"
     guidetolerance="10"
     inkscape:pageopacity="0"
     inkscape:pageshadow="2"
     inkscape:window-width="2002"
     inkscape:window-height="1022"
     id="namedview1410"
     showgrid="false"
     showguides="true"
     inkscape:guide-bbox="true"
     inkscape:zoom="0.50383782"
     inkscape:cx="920.13523"
     inkscape:cy="562.26017"
     inkscape:window-x="1611"
     inkscape:window-y="400"
     inkscape:window-maximized="0"
     inkscape:current-layer="g1416"
     inkscape:document-rotation="0" /><g
     id="g1416"
     inkscape:groupmode="layer"
     inkscape:label="ink_ext_XXXXXX"
     transform="matrix(1.3333333,0,0,-1.3333333,0,122.52)"><rect
       style="fill:#f03c2e;fill-opacity:1;stroke:none;stroke-width:29.6279;stroke-linecap:round;stroke-linejoin:round"
       id="rect2774"
       width="1440"
       height="810"
       x="1.8000001e-05"
       y="-91.889992"
       transform="scale(1,-1)" /><g
       id="g1418"
       transform="matrix(0.28322442,0,0,0.28322442,659.90478,-444.71961)"><path
         d="M 901.543,500.352 500.352,901.527 c -23.094,23.11 -60.567,23.11 -83.692,0 L 333.359,818.211 439.031,712.535 c 24.563,8.293 52.727,2.727 72.297,-16.847 19.688,-19.696 25.203,-48.102 16.699,-72.75 L 629.883,521.094 c 24.648,8.496 53.066,3.004 72.754,-16.711 27.5,-27.492 27.5,-72.059 0,-99.574 -27.52,-27.516 -72.078,-27.516 -99.61,0 -20.683,20.703 -25.8,51.097 -15.312,76.582 l -95,94.992 V 326.414 c 6.699,-3.32 13.027,-7.742 18.613,-13.312 27.5,-27.497 27.5,-72.059 0,-99.598 -27.5,-27.488 -72.09,-27.488 -99.57,0 -27.5,27.539 -27.5,72.101 0,99.598 6.797,6.789 14.668,11.925 23.066,15.363 v 252.281 c -8.398,3.438 -16.25,8.531 -23.066,15.367 -20.828,20.821 -25.84,51.395 -15.156,76.977 L 292.422,777.285 17.3242,502.211 c -23.10545,-23.129 -23.10545,-60.602 0,-83.711 L 418.535,17.3242 c 23.098,-23.10545 60.559,-23.10545 83.692,0 L 901.543,416.641 c 23.113,23.113 23.113,60.605 0,83.711"
         style="fill:#ffffff;fill-opacity:1;fill-rule:nonzero;stroke:none"
         id="path1420" /></g><g
       id="g887"
       transform="matrix(3.3333334,0,0,-3.3333334,421.90331,-146.44334)"
       style="fill:#ffffff"><path
         d="M 70.617,92.107 C 70.617,93.708 69.315,95 67.724,95 H 59.421 C 55.641,95 52.256,93.293 50,90.603 47.744,93.293 44.359,95 40.579,95 h -8.303 c -1.591,0 -2.893,-1.292 -2.893,-2.893 0,-1.601 1.302,-2.893 2.893,-2.893 h 8.303 c 3.597,0 6.528,-2.932 6.528,-6.528 V 17.314 c 0,-3.597 -2.932,-6.528 -6.528,-6.528 h -8.303 c -1.591,0 -2.893,-1.292 -2.893,-2.893 C 29.383,6.292 30.685,5 32.276,5 h 8.303 C 44.359,5 47.744,6.707 50,9.397 52.257,6.707 55.641,5 59.421,5 h 8.303 c 1.591,0 2.893,1.292 2.893,2.893 0,1.601 -1.302,2.893 -2.893,2.893 h -8.303 c -3.597,0 -6.528,2.932 -6.528,6.528 v 65.371 c 0,3.597 2.932,6.528 6.528,6.528 h 8.303 c 1.591,0.001 2.893,1.293 2.893,2.894 z"
         id="path885"
         style="fill:#ffffff" /></g></g></svg>
