<?xml version="1.0" encoding="UTF-8" standalone="no"?>
<svg
   version="1.1"
   id="svg1408"
   xml:space="preserve"
   width="1920"
   height="1080"
   viewBox="0 0 1920.0001 1080"
   sodipodi:docname="copying-changes-between-git-clones.svg"
   inkscape:version="1.3 (0e150ed, 2023-07-21)"
   xmlns:inkscape="http://www.inkscape.org/namespaces/inkscape"
   xmlns:sodipodi="http://sodipodi.sourceforge.net/DTD/sodipodi-0.dtd"
   xmlns="http://www.w3.org/2000/svg"
   xmlns:svg="http://www.w3.org/2000/svg"
   xmlns:rdf="http://www.w3.org/1999/02/22-rdf-syntax-ns#"
   xmlns:cc="http://creativecommons.org/ns#"
   xmlns:dc="http://purl.org/dc/elements/1.1/"
   xmlns:sketch="http://www.bohemiancoding.com/sketch/ns"><metadata
     id="metadata1414"><rdf:RDF><cc:Work
         rdf:about=""><dc:format>image/svg+xml</dc:format><dc:type
           rdf:resource="http://purl.org/dc/dcmitype/StillImage" /></cc:Work></rdf:RDF></metadata><defs
     id="defs1412" /><sodipodi:namedview
     pagecolor="#ffffff"
     bordercolor="#666666"
     borderopacity="1"
     objecttolerance="10"
     gridtolerance="10"
     guidetolerance="10"
     inkscape:pageopacity="0"
     inkscape:pageshadow="2"
     inkscape:window-width="1920"
     inkscape:window-height="1110"
     id="namedview1410"
     showgrid="false"
     showguides="true"
     inkscape:guide-bbox="true"
     inkscape:zoom="0.50383782"
     inkscape:cx="919.93888"
     inkscape:cy="562.68106"
     inkscape:window-x="0"
     inkscape:window-y="43"
     inkscape:window-maximized="0"
     inkscape:current-layer="g1416"
     inkscape:document-rotation="0"
     inkscape:showpageshadow="0"
     inkscape:pagecheckerboard="0"
     inkscape:deskcolor="#505050" /><g
     id="g1416"
     inkscape:groupmode="layer"
     inkscape:label="ink_ext_XXXXXX"
     transform="matrix(1.3333333,0,0,-1.3333333,0,122.52)"><rect
       style="fill:#f03c2e;fill-opacity:1;stroke:none;stroke-width:29.6279;stroke-linecap:round;stroke-linejoin:round"
       id="rect2774"
       width="1440"
       height="810"
       x="1.8000001e-05"
       y="-91.889992"
       transform="scale(1,-1)" /><g
       id="g1418"
       transform="matrix(0.28322442,0,0,0.28322442,770.82543,-444.71961)"><path
         d="M 901.543,500.352 500.352,901.527 c -23.094,23.11 -60.567,23.11 -83.692,0 L 333.359,818.211 439.031,712.535 c 24.563,8.293 52.727,2.727 72.297,-16.847 19.688,-19.696 25.203,-48.102 16.699,-72.75 L 629.883,521.094 c 24.648,8.496 53.066,3.004 72.754,-16.711 27.5,-27.492 27.5,-72.059 0,-99.574 -27.52,-27.516 -72.078,-27.516 -99.61,0 -20.683,20.703 -25.8,51.097 -15.312,76.582 l -95,94.992 V 326.414 c 6.699,-3.32 13.027,-7.742 18.613,-13.312 27.5,-27.497 27.5,-72.059 0,-99.598 -27.5,-27.488 -72.09,-27.488 -99.57,0 -27.5,27.539 -27.5,72.101 0,99.598 6.797,6.789 14.668,11.925 23.066,15.363 v 252.281 c -8.398,3.438 -16.25,8.531 -23.066,15.367 -20.828,20.821 -25.84,51.395 -15.156,76.977 L 292.422,777.285 17.3242,502.211 c -23.10545,-23.129 -23.10545,-60.602 0,-83.711 L 418.535,17.3242 c 23.098,-23.10545 60.559,-23.10545 83.692,0 L 901.543,416.641 c 23.113,23.113 23.113,60.605 0,83.711"
         style="fill:#ffffff;fill-opacity:1;fill-rule:nonzero;stroke:none"
         id="path1420" /></g><path
       d="M 633.92599,-200.61 H 473.2117 c -17.7509,0 -32.14286,-14.39198 -32.14286,-32.14286 v -32.14285 h 16.07143 v 32.14285 c 0,8.87143 7.2,16.07143 16.07143,16.07143 h 160.71429 c 8.87143,0 16.07143,-7.2 16.07143,-16.07143 v -160.71429 c 0,-8.87143 -7.2,-16.07143 -16.07143,-16.07143 H 473.2117 c -8.87143,0 -16.07143,7.2 -16.07143,16.07143 v 32.14286 h -16.07143 v -32.14286 c 0,-17.75092 14.39196,-32.14286 32.14286,-32.14286 h 160.71429 c 17.7509,0 32.14287,14.39194 32.14287,32.14286 v 160.71429 c 0,17.75088 -14.39197,32.14286 -32.14287,32.14286 z m -85.6366,-162.66699 c -3.13394,-3.13393 -3.13394,-8.22857 0,-11.3625 3.13392,-3.14194 8.22856,-3.14194 11.37053,0 l 55.4384,55.43841 c 1.67142,1.67945 2.3866,3.90536 2.2741,6.09108 0.1125,2.18571 -0.60268,4.41158 -2.2741,6.08301 l -55.4384,55.43842 c -3.14197,3.14194 -8.23661,3.14194 -11.37053,0 -3.13394,-3.12591 -3.13394,-8.22056 0,-11.3625 l 42.13125,-42.12322 H 416.9617 c -4.44375,0 -8.03572,-3.6 -8.03572,-8.03571 0,-4.44378 3.59197,-8.03572 8.03572,-8.03572 h 173.45894 z"
       id="arrow-right"
       sketch:type="MSShapeGroup"
       style="fill:#ffffff;fill-rule:evenodd;stroke:none;stroke-width:8.03573" /></g></svg>
