<?xml version="1.0" encoding="UTF-8" standalone="no"?>
<svg
   xmlns:dc="http://purl.org/dc/elements/1.1/"
   xmlns:cc="http://creativecommons.org/ns#"
   xmlns:rdf="http://www.w3.org/1999/02/22-rdf-syntax-ns#"
   xmlns:svg="http://www.w3.org/2000/svg"
   xmlns="http://www.w3.org/2000/svg"
   xmlns:sodipodi="http://sodipodi.sourceforge.net/DTD/sodipodi-0.dtd"
   xmlns:inkscape="http://www.inkscape.org/namespaces/inkscape"
   inkscape:export-ydpi="90"
   inkscape:export-xdpi="90"
   inkscape:export-filename="/home/thockin/Downloads/kubernetes.png"
   sodipodi:docname="creating-a-gremlin-playground.svg"
   inkscape:version="1.0.1 (c497b03c, 2020-09-10)"
   version="1.1"
   id="svg2"
   height="1080"
   width="1920">
  <defs
     id="defs4" />
  <sodipodi:namedview
     inkscape:guide-bbox="true"
     showguides="true"
     lock-margins="true"
     inkscape:document-rotation="0"
     fit-margin-bottom="0"
     fit-margin-right="0"
     fit-margin-left="0"
     fit-margin-top="0"
     inkscape:snap-global="false"
     inkscape:window-maximized="1"
     inkscape:window-y="25"
     inkscape:window-x="1792"
     inkscape:window-height="1325"
     inkscape:window-width="2560"
     showgrid="false"
     inkscape:current-layer="layer1"
     inkscape:document-units="px"
     inkscape:cy="456.51512"
     inkscape:cx="1003.8772"
     inkscape:zoom="0.67911726"
     inkscape:pageshadow="2"
     inkscape:pageopacity="0.0"
     borderopacity="1.0"
     bordercolor="#666666"
     pagecolor="#ffffff"
     id="base">
    <sodipodi:guide
       id="guide887"
       orientation="1,0"
       position="952.43269,861.06058" />
    <sodipodi:guide
       id="guide889"
       orientation="0,-1"
       position="1221.257,540.5037" />
  </sodipodi:namedview>
  <metadata
     id="metadata7">
    <rdf:RDF>
      <cc:Work
         rdf:about="">
        <dc:format>image/svg+xml</dc:format>
        <dc:type
           rdf:resource="http://purl.org/dc/dcmitype/StillImage" />
        <dc:title></dc:title>
      </cc:Work>
    </rdf:RDF>
  </metadata>
  <g
     transform="translate(769.34052,-559.8786)"
     id="layer1"
     inkscape:groupmode="layer"
     inkscape:label="Layer 1">
    <rect
       inkscape:export-ydpi="96"
       inkscape:export-xdpi="96"
       y="559.8786"
       x="-768.89331"
       height="1080"
       width="1920"
       id="rect18"
       style="fill:#67b643;fill-opacity:1;fill-rule:evenodd;stroke-width:4.10839" />
    <g
       id="g4520"
       transform="matrix(3.9063911,0,0,3.9063911,540.20906,-3316.7504)">
      <path
         style="fill:#fdfdfd;stroke-width:0.32"
         d="m -47.992045,1127.4297 1.931548,-17.9061 17.061223,0.8915 16.318318,0.8915 -5.348904,16.5689 -13.372261,7.5054 -7.106316,1.4858 -7.254898,-5.9432 z"
         id="path4536"
         sodipodi:nodetypes="ccccccccc" />
      <path
         style="fill:#f9e308;stroke-width:0.32"
         d="m -25.793587,1174.8033 c -1.490547,-0.9088 -1.925808,-2.5847 -1.263242,-4.8639 0.685293,-2.3573 0.322007,-4.7399 -0.92046,-6.0367 -1.605085,-1.6754 -3.468829,-2.0753 -9.593729,-2.0588 -6.209916,0.017 -7.84,0.4044 -7.84,1.8644 0,1.236 -1.360744,2.5559 -3.788645,3.675 -4.607413,2.1237 -7.020559,2.0944 -10.493801,-0.1274 l -1.756213,-1.1235 -1.315279,1.1258 c -2.760816,2.3632 -7.345133,3.1203 -9.450362,1.5608 -1.708871,-1.2658 -2.3157,-2.5617 -2.3157,-4.9451 0,-4.9484 2.356095,-8.1095 7.84,-10.5187 4.85811,-2.1343 8.091011,-2.1213 9.909528,0.04 0.582688,0.6925 0.811065,1.3385 0.812581,2.2987 l 0.0021,1.3354 0.642381,-0.96 c 0.353309,-0.528 0.924196,-1.8617 1.268637,-2.9637 0.344441,-1.1021 0.776452,-2.2844 0.960025,-2.6274 0.325132,-0.6076 0.298463,-0.6106 -1.030746,-0.1179 -5.769253,2.1383 -11.124518,-1.8886 -11.124518,-8.3652 0,-2.5298 1.076291,-4.7556 3.240563,-6.7015 2.451112,-2.2038 4.499673,-2.8393 8.599437,-2.6678 l 3.36,0.1405 -2.137608,-2.1903 c -2.226048,-2.2809 -3.556404,-4.6054 -3.927351,-6.8621 -0.210571,-1.281 -0.242833,-1.3098 -1.235629,-1.1015 -2.672189,0.5605 -5.978894,-1.0238 -9.649634,-4.6231 -4.905942,-4.8105 -9.129778,-12.4566 -9.129778,-16.5268 0,-1.8923 0.427019,-1.9914 7.662413,-1.7777 6.375262,0.1882 10.130663,0.65 15.151638,1.8632 1.547728,0.3739 2.869956,0.624 2.938285,0.5556 0.06833,-0.068 -0.0053,-1.13 -0.163581,-2.3593 -0.45996,-3.5718 -0.402262,-4.6355 0.251245,-4.6319 0.798824,0 3.570071,1.344 5.5704,2.6926 l 1.7096,1.1526 0.242234,-1.5242 c 0.424032,-2.668 1.611946,-7.7643 1.80839,-7.7582 0.104157,0 1.269376,1.6565 2.589376,3.6741 1.32,2.0176 2.472,3.6693 2.56,3.6705 0.088,0 0.445952,-0.6082 0.79545,-1.3542 0.838973,-1.7907 5.843639,-6.7675 8.574087,-8.5264 1.193241,-0.7686 2.238656,-1.3284 2.323142,-1.2439 0.08449,0.085 -0.123392,1.7962 -0.461949,3.8038 -0.632998,3.7536 -1.193737,9.8902 -0.903728,9.8902 0.08971,0 0.790832,-0.2848 1.558055,-0.633 1.599712,-0.7259 3.524787,-0.8048 4.914944,-0.2015 0.875609,0.38 1.072518,0.341 2.24,-0.4437 1.195545,-0.8035 3.067824,-1.6018 3.75688,-1.6018 0.176349,0 0.256105,1.4001 0.192246,3.375 -0.104803,3.2412 -0.08376,3.3686 0.530874,3.2148 4.0609758,-1.0164 14.0069023,-1.8249 16.5593215,-1.346 l 1.1558881,0.2168 -0.9520161,2.3087 c -1.8720896,4.5398 -5.42407042,10.3851 -8.7415201,14.3853 -2.7084544,3.2659 -6.1617664,5.7833 -8.6616734,6.3143 -0.750768,0.1594 -0.938835,0.3534 -0.86289,0.8898 0.159043,1.1233 -0.511254,3.0944 -1.531001,4.5021 -1.20697,1.6662 -6.307479,5.5201 -8.853415,6.6896 l -1.936659,0.8896 1.711981,1.5498 c 1.462438,1.3238 1.711984,1.4516 1.711984,0.8765 0,-1.0734 1.268854,-3.48 2.286115,-4.336 0.886883,-0.7463 2.726617,-1.4446 3.815805,-1.4485 1.430947,-0.01 3.990822,1.1042 5.270915,2.2842 3.1624,2.915 3.0983776,8.1794 -0.144387,11.8727 -2.360403,2.6884 -8.276333,2.8702 -13.143188,0.404 -0.87119,-0.4415 -1.642044,-0.8027 -1.713004,-0.8027 -0.07096,0 -0.210567,0.612 -0.310228,1.36 -0.09966,0.748 -0.269644,1.648 -0.377737,2 -0.166003,0.5406 0.05767,0.7302 1.439997,1.2204 2.03094,0.7203 3.96214,2.5994 4.99902,4.8643 l 0.778004,1.6994 1.829344,-0.6463 c 3.736873,-1.3203 8.196755,-0.1359 9.7953214,2.6012 0.9189728,1.5735 0.8416736,3.7257 -0.1974976,5.4989 -3.1379548,5.3545 -13.6404318,9.9675 -17.4310498,7.6562 z m -22.509771,-28.3689 c 1.222738,-1.3927 2.209271,-3.5617 2.463469,-5.4162 l 0.182438,-1.3311 -2.499583,-0.189 c -1.374771,-0.104 -2.606145,-0.1232 -2.736387,-0.043 -0.130242,0.081 0.186018,0.9502 0.7028,1.9326 1.107449,2.1053 1.216652,3.9225 0.339149,5.6436 -0.552344,1.0834 -0.55586,1.1539 -0.04389,0.8799 0.306112,-0.1638 1.022512,-0.8285 1.592,-1.4771 z m 8.937672,-14.2238 c 0.908291,-0.7565 0.870553,-0.8178 -0.680804,-1.1076 l -1.195472,-0.2233 0.346775,0.9947 c 0.40471,1.161 0.510998,1.1843 1.529501,0.3362 z m 8.699456,-9.478 c 0.573219,-0.5735 -0.240647,-4.3259 -1.442221,-6.6495 -2.163975,-4.1848 -7.494371,-5.578 -10.776227,-2.8165 -1.524736,1.283 -3.137522,5.3514 -2.637707,6.6539 0.388283,1.0119 4.179499,2.4305 8.431367,3.1549 1.583015,0.2698 6.050775,0.031 6.424788,-0.3428 z m -9.816788,-2.4714 c -0.905942,-0.9059 -1.088,-1.3224 -1.088,-2.4888 0,-3.2085 2.831962,-4.8594 5.084567,-2.9639 1.705664,1.4352 1.72512,3.9402 0.04366,5.6217 -1.297511,1.2975 -2.629428,1.2418 -4.040227,-0.169 z m 3.648,-2.816 c 0.540164,-0.5402 0.477837,-2.0198 -0.105475,-2.5039 -0.813414,-0.675 -2.070525,0.093 -2.070525,1.2651 0,1.324 1.332301,2.0825 2.176,1.2388 z m 19.184001,5.3023 c 1.749638,-0.4689 0.310012,-6.1222 -1.902538,-7.4712 -1.4204,-0.866 -2.313878,-0.8246 -2.747626,0.1274 l -0.352892,0.7745 0.937801,-0.5345 c 0.846368,-0.4824 1.023965,-0.4873 1.82153,-0.05 1.988285,1.0901 2.475725,4.0223 0.98391,5.9189 -0.605072,0.7692 -0.844589,0.85 -2.099417,0.7086 -0.779034,-0.088 -1.295904,-0.044 -1.148596,0.097 0.522292,0.5006 3.26634,0.7619 4.507828,0.4292 z m -1.52,-4.9183 c 0.483404,-0.9032 -0.137639,-1.991 -1.061652,-1.8594 -0.713683,0.1016 -1.083481,1.1311 -0.733699,2.0427 0.257943,0.6722 1.399911,0.5556 1.795351,-0.1833 z"
         id="path4534"
         sodipodi:nodetypes="ssscssscsssssscssscssscssssssscscscscscsscssssssscscsssssscssscsssssssscssssscscscsssccsscsscsssscsssssssssssscsssccssssss" />
      <path
         style="fill:#a0dd31;stroke-width:0.32"
         d="m -25.793587,1174.8033 c -1.490547,-0.9088 -1.925808,-2.5847 -1.263242,-4.8639 0.685293,-2.3573 0.322007,-4.7399 -0.92046,-6.0367 -1.605085,-1.6754 -3.468829,-2.0753 -9.593729,-2.0588 -6.209916,0.017 -7.84,0.4044 -7.84,1.8644 0,1.236 -1.360744,2.5559 -3.788645,3.675 -4.607413,2.1237 -7.020559,2.0944 -10.493801,-0.1274 l -1.756213,-1.1235 -1.315279,1.1258 c -2.760816,2.3632 -7.345133,3.1203 -9.450362,1.5608 -1.708871,-1.2658 -2.3157,-2.5617 -2.3157,-4.9451 0,-4.9484 2.356095,-8.1095 7.84,-10.5187 4.85811,-2.1343 8.091011,-2.1213 9.909528,0.04 0.582688,0.6925 0.811065,1.3385 0.812581,2.2987 l 0.0021,1.3354 0.642381,-0.96 c 0.353309,-0.528 0.924196,-1.8617 1.268637,-2.9637 0.344441,-1.1021 0.776452,-2.2844 0.960025,-2.6274 0.325132,-0.6076 0.298463,-0.6106 -1.030746,-0.1179 -5.769253,2.1383 -11.124518,-1.8886 -11.124518,-8.3652 0,-2.5298 1.076291,-4.7556 3.240563,-6.7015 2.451112,-2.2038 4.499673,-2.8393 8.599437,-2.6678 l 3.36,0.1405 -2.137608,-2.1903 c -2.226048,-2.2809 -3.556404,-4.6054 -3.927351,-6.8621 -0.210571,-1.281 -0.242833,-1.3098 -1.235629,-1.1015 -2.672189,0.5605 -5.978894,-1.0238 -9.649634,-4.6231 -4.905942,-4.8105 -9.129778,-12.4566 -9.129778,-16.5268 0,-1.8923 0.427019,-1.9914 7.662413,-1.7777 6.375262,0.1882 10.130663,0.65 15.151638,1.8632 1.547728,0.3739 2.869956,0.624 2.938285,0.5556 0.06833,-0.068 -0.0053,-1.13 -0.163581,-2.3593 -0.45996,-3.5718 -0.402262,-4.6355 0.251245,-4.6319 0.798824,0 3.570071,1.344 5.5704,2.6926 l 1.7096,1.1526 0.242234,-1.5242 c 0.424032,-2.668 1.611946,-7.7643 1.80839,-7.7582 0.104157,0 1.269376,1.6565 2.589376,3.6741 1.32,2.0176 2.472,3.6693 2.56,3.6705 0.088,0 0.445952,-0.6082 0.79545,-1.3542 0.838973,-1.7907 5.843639,-6.7675 8.574087,-8.5264 1.193241,-0.7686 2.238656,-1.3284 2.323142,-1.2439 0.08449,0.085 -0.123392,1.7962 -0.461949,3.8038 -0.632998,3.7536 -1.193737,9.8902 -0.903728,9.8902 0.08971,0 0.790832,-0.2848 1.558055,-0.633 1.599712,-0.7259 3.524787,-0.8048 4.914944,-0.2015 0.875609,0.38 1.072518,0.341 2.24,-0.4437 1.195545,-0.8035 3.067824,-1.6018 3.75688,-1.6018 0.176349,0 0.256105,1.4001 0.192246,3.375 -0.104803,3.2412 -0.08376,3.3686 0.530874,3.2148 4.0609758,-1.0164 14.0069023,-1.8249 16.5593215,-1.346 l 1.1558881,0.2168 -0.9520161,2.3087 c -1.8720896,4.5398 -5.42407042,10.3851 -8.7415201,14.3853 -2.7084544,3.2659 -6.1617664,5.7833 -8.6616734,6.3143 -0.750768,0.1594 -0.938835,0.3534 -0.86289,0.8898 0.159043,1.1233 -0.511254,3.0944 -1.531001,4.5021 -1.20697,1.6662 -6.307479,5.5201 -8.853415,6.6896 l -1.936659,0.8896 1.711981,1.5498 c 1.462438,1.3238 1.711984,1.4516 1.711984,0.8765 0,-1.0734 1.268854,-3.48 2.286115,-4.336 0.886883,-0.7463 2.726617,-1.4446 3.815805,-1.4485 1.430947,-0.01 3.990822,1.1042 5.270915,2.2842 3.1624,2.915 3.0983776,8.1794 -0.144387,11.8727 -2.360403,2.6884 -8.276333,2.8702 -13.143188,0.404 -0.87119,-0.4415 -1.642044,-0.8027 -1.713004,-0.8027 -0.07096,0 -0.210567,0.612 -0.310228,1.36 -0.09966,0.748 -0.269644,1.648 -0.377737,2 -0.166003,0.5406 0.05767,0.7302 1.439997,1.2204 2.03094,0.7203 3.96214,2.5994 4.99902,4.8643 l 0.778004,1.6994 1.829344,-0.6463 c 3.736873,-1.3203 8.196755,-0.1359 9.7953214,2.6012 0.9189728,1.5735 0.8416736,3.7257 -0.1974976,5.4989 -3.1379548,5.3545 -13.6404318,9.9675 -17.4310498,7.6562 z m -22.509771,-28.3689 c 1.222738,-1.3927 2.209271,-3.5617 2.463469,-5.4162 l 0.182438,-1.3311 -2.499583,-0.189 c -1.374771,-0.104 -2.606145,-0.1232 -2.736387,-0.043 -0.130242,0.081 0.186018,0.9502 0.7028,1.9326 1.107449,2.1053 1.216652,3.9225 0.339149,5.6436 -0.552344,1.0834 -0.55586,1.1539 -0.04389,0.8799 0.306112,-0.1638 1.022512,-0.8285 1.592,-1.4771 z m 8.937672,-14.2238 c 0.908291,-0.7565 0.870553,-0.8178 -0.680804,-1.1076 l -1.195472,-0.2233 0.346775,0.9947 c 0.40471,1.161 0.510998,1.1843 1.529501,0.3362 z m 8.699456,-9.478 c 0.573219,-0.5735 -0.240647,-4.3259 -1.442221,-6.6495 -2.163975,-4.1848 -7.494371,-5.578 -10.776227,-2.8165 -1.524736,1.283 -3.137522,5.3514 -2.637707,6.6539 0.388283,1.0119 4.179499,2.4305 8.431367,3.1549 1.583015,0.2698 6.050775,0.031 6.424788,-0.3428 z m -9.816788,-2.4714 c -0.905942,-0.9059 -1.088,-1.3224 -1.088,-2.4888 0,-3.2085 2.831962,-4.8594 5.084567,-2.9639 1.705664,1.4352 1.72512,3.9402 0.04366,5.6217 -1.297511,1.2975 -2.629428,1.2418 -4.040227,-0.169 z m 3.648,-2.816 c 0.540164,-0.5402 0.477837,-2.0198 -0.105475,-2.5039 -0.813414,-0.675 -2.070525,0.093 -2.070525,1.2651 0,1.324 1.332301,2.0825 2.176,1.2388 z m 19.184001,5.3023 c 1.749638,-0.4689 0.310012,-6.1222 -1.902538,-7.4712 -1.4204,-0.866 -2.313878,-0.8246 -2.747626,0.1274 l -0.352892,0.7745 0.937801,-0.5345 c 0.846368,-0.4824 1.023965,-0.4873 1.82153,-0.05 1.988285,1.0901 2.475725,4.0223 0.98391,5.9189 -0.605072,0.7692 -0.844589,0.85 -2.099417,0.7086 -0.779034,-0.088 -1.295904,-0.044 -1.148596,0.097 0.522292,0.5006 3.26634,0.7619 4.507828,0.4292 z m -1.52,-4.9183 c 0.483404,-0.9032 -0.137639,-1.991 -1.061652,-1.8594 -0.713683,0.1016 -1.083481,1.1311 -0.733699,2.0427 0.257943,0.6722 1.399911,0.5556 1.795351,-0.1833 z m 1.789641,-13.0015 c 1.585434,-0.5628 2.3793,-1.0132 2.39736,-1.36 0.01485,-0.2852 0.130442,-1.3465 0.256864,-2.3585 0.126423,-1.012 0.135876,-1.84 0.02102,-1.84 -0.266928,0 -2.350061,1.5618 -3.916861,2.9365 -0.859312,0.754 -1.267241,1.4127 -1.401868,2.2635 -0.104436,0.66 -0.0857,1.2 0.04163,1.2 0.127332,0 1.298173,-0.3787 2.601869,-0.8415 z m -25.662944,-1.6385 c -0.261741,-2.1973 -0.196442,-2.1045 -2.608853,-3.7082 -3.224373,-2.1436 -3.234023,-2.1446 -3.04445,-0.3118 0.380015,3.6739 0.334687,3.6039 2.972081,4.591 1.316988,0.493 2.499769,0.9081 2.628403,0.9226 0.128633,0.014 0.1524,-0.6576 0.05282,-1.4936 z"
         id="path4532"
         sodipodi:nodetypes="ssscssscsssssscssscssscssssssscscscscscsscssssssscscsssssscssscsssssssscssssscscscsssccsscsscsssscsssssssssssscsssccssssssssssssssssssscs" />
      <path
         style="fill:#5dad51;stroke-width:0.32"
         d="m -25.793587,1174.8033 c -1.490547,-0.9088 -1.925808,-2.5847 -1.263242,-4.8639 0.685293,-2.3573 0.322007,-4.7399 -0.92046,-6.0367 -1.605085,-1.6754 -3.468829,-2.0753 -9.593729,-2.0588 -6.209916,0.017 -7.84,0.4044 -7.84,1.8644 0,1.236 -1.360744,2.5559 -3.788645,3.675 -4.607413,2.1237 -7.020559,2.0944 -10.493801,-0.1274 l -1.756213,-1.1235 -1.315279,1.1258 c -2.760816,2.3632 -7.345133,3.1203 -9.450362,1.5608 -1.708871,-1.2658 -2.3157,-2.5617 -2.3157,-4.9451 0,-4.9484 2.356095,-8.1095 7.84,-10.5187 4.85811,-2.1343 8.091011,-2.1213 9.909528,0.04 0.582688,0.6925 0.811065,1.3385 0.812581,2.2987 l 0.0021,1.3354 0.642381,-0.96 c 0.353309,-0.528 0.924196,-1.8617 1.268637,-2.9637 0.344441,-1.1021 0.776452,-2.2844 0.960025,-2.6274 0.325132,-0.6076 0.298463,-0.6106 -1.030746,-0.1179 -5.769253,2.1383 -11.124518,-1.8886 -11.124518,-8.3652 0,-2.4678 1.041631,-4.6896 3.079163,-6.5677 2.459488,-2.2671 3.835852,-2.7185 8.280837,-2.7157 h 3.84 l -2.137608,-2.1642 c -2.229942,-2.2577 -3.553467,-4.5615 -3.927351,-6.836 -0.210571,-1.2811 -0.242833,-1.3098 -1.235629,-1.1016 -2.672189,0.5604 -5.978894,-1.0239 -9.649634,-4.6232 -4.905942,-4.8105 -9.129778,-12.4566 -9.129778,-16.5268 0,-1.8923 0.427019,-1.9914 7.662413,-1.7777 6.375262,0.1882 10.130663,0.65 15.151638,1.8632 1.547728,0.3739 2.869956,0.624 2.938285,0.5556 0.06833,-0.068 -0.0053,-1.13 -0.163581,-2.3593 -0.45996,-3.5718 -0.402262,-4.6355 0.251245,-4.6319 0.798824,0 3.570071,1.344 5.5704,2.6926 l 1.7096,1.1526 0.242234,-1.5242 c 0.424032,-2.668 1.611946,-7.7643 1.80839,-7.7582 0.104157,0 1.269376,1.6565 2.589376,3.6741 1.32,2.0176 2.472,3.6693 2.56,3.6705 0.088,0 0.445952,-0.6082 0.79545,-1.3542 0.838973,-1.7907 5.843639,-6.7675 8.574087,-8.5264 1.193241,-0.7686 2.238656,-1.3284 2.323142,-1.2439 0.08449,0.085 -0.123392,1.7962 -0.461949,3.8038 -0.632998,3.7536 -1.193737,9.8902 -0.903728,9.8902 0.08971,0 0.790832,-0.2848 1.558055,-0.633 1.599712,-0.7259 3.524787,-0.8048 4.914944,-0.2015 0.875609,0.38 1.072518,0.341 2.24,-0.4437 1.195545,-0.8035 3.067824,-1.6018 3.75688,-1.6018 0.176349,0 0.256105,1.4001 0.192246,3.375 -0.104803,3.2412 -0.08376,3.3686 0.530874,3.2148 4.0609758,-1.0164 14.0069023,-1.8249 16.5593215,-1.346 l 1.1558881,0.2168 -0.9520161,2.3087 c -2.71624,6.5869 -8.3172961,14.7922 -12.1836129,17.8483 -1.8779616,1.4844 -3.8339486,2.5583 -5.1682716,2.8375 -0.824183,0.1725 -0.917514,0.3303 -1.003552,1.6972 -0.05772,0.917 -0.431271,2.0811 -0.953997,2.9731 -1.103197,1.8825 -5.638788,5.541 -8.832215,7.1243 l -2.418451,1.199 1.698451,1.5454 c 1.450071,1.3194 1.698455,1.447 1.698455,0.8722 0,-1.0734 1.268854,-3.48 2.286115,-4.336 0.886883,-0.7463 2.726617,-1.4446 3.815805,-1.4485 1.430947,-0.01 3.990822,1.1042 5.270915,2.2842 3.0904288,2.8487 3.1013344,8.0561 0.02448,11.696 -2.372374,2.8065 -8.400717,3.0694 -13.312071,0.5807 -0.871174,-0.4415 -1.642028,-0.8027 -1.712988,-0.8027 -0.07096,0 -0.210567,0.612 -0.310228,1.36 -0.09966,0.748 -0.269644,1.648 -0.377737,2 -0.166003,0.5406 0.05767,0.7302 1.439997,1.2204 2.03094,0.7203 3.96214,2.5994 4.99902,4.8643 l 0.778004,1.6994 1.829344,-0.6463 c 3.736873,-1.3203 8.196755,-0.1359 9.7953214,2.6012 0.9189728,1.5735 0.8416736,3.7257 -0.1974976,5.4989 -3.1379548,5.3545 -13.6404318,9.9675 -17.4310498,7.6562 z m 6.566147,-2.1176 c 3.272404,-1.0971 5.625469,-2.4773 7.631853,-4.4763 2.6544578,-2.6447 2.9059106,-4.8324 0.762698,-6.6358 -1.838647,-1.5472 -5.218295,-1.5574 -8.035015,-0.024 -1.555705,0.8467 -1.604953,0.8528 -2.055625,0.2537 -0.253956,-0.3376 -0.719296,-1.3182 -1.034096,-2.1791 -0.826618,-2.2605 -2.654573,-4.2034 -4.499834,-4.7827 -3.069235,-0.9636 -3.199574,-0.958 -4.205459,0.181 -1.224003,1.386 -3.951207,3.0002 -6.645024,3.9333 l -2.183076,0.7561 3.212768,0.019 c 5.052669,0.03 8.805236,1.3171 10.410964,3.5721 1.01024,1.4188 1.327405,4.6945 0.685929,7.0843 -0.462569,1.7233 -0.457091,1.8775 0.08814,2.48 0.812522,0.8978 2.833703,0.8354 5.865773,-0.1811 z m -47.341956,-5.403 c 1.861692,-0.6568 2.843542,-1.4279 3.572487,-2.8055 l 0.630719,-1.192 2.157586,1.3887 c 3.600429,2.3174 4.158876,2.533 6.05441,2.3373 0.983739,-0.1015 2.699787,-0.6567 4.076296,-1.3188 2.097509,-1.0088 2.422441,-1.2846 2.760699,-2.3433 0.626667,-1.9613 1.826108,-2.9101 6.593388,-5.2155 5.385171,-2.6042 7.162208,-4.1551 8.880448,-7.7506 1.879629,-3.9332 2.896413,-9.5604 2.188467,-12.1117 l -0.321305,-1.158 1.962592,-0.5436 c 2.859584,-0.7922 5.483494,-2.1888 8.176012,-4.3517 3.05752,-2.4561 4.035642,-3.8153 3.997655,-5.5552 -0.0159,-0.7286 -0.200976,-1.6463 -0.411258,-2.0392 -0.344499,-0.6437 -0.626643,-0.7149 -2.851075,-0.7191 -1.357808,0 -2.824765,-0.1849 -3.259904,-0.4051 -0.99761,-0.5048 -1.551635,-2.2681 -1.584246,-5.0424 -0.02883,-2.454 0.895955,-4.6559 2.274112,-5.4145 0.802348,-0.4417 0.910988,-0.4209 1.655446,0.317 0.438211,0.4343 1.222259,1.1101 1.742326,1.5018 1.270624,0.9568 2.272349,3.1954 2.51346,5.6168 0.281683,2.829 0.518445,3.1808 1.967347,2.9237 3.192032,-0.5664 7.2938592,-4.171 10.9350753,-9.6096 2.25212799,-3.3638 4.8914304,-8.039 5.291888,-9.3741 l 0.2312928,-0.771 -4.2777696,0.2031 c -6.8943393,0.3273 -13.1124605,1.6915 -17.8309825,3.9117 -1.294269,0.609 -2.410269,1.1073 -2.48,1.1073 -0.06973,0 -0.120515,-0.972 -0.112851,-2.16 0.01309,-2.0288 0.222016,-3.5314 0.778646,-5.6 0.320826,-1.1923 -0.295802,-1.1537 -3.352582,0.2097 l -2.4,1.0705 -0.258928,-1.6401 c -0.242749,-1.5376 0.189232,-8.7198 0.62312,-10.3601 0.329606,-1.2461 -0.390647,-0.8062 -3.144135,1.92 -3.062387,3.0321 -4.388698,5.2481 -4.648685,7.7671 -0.0995,0.9641 -0.272985,1.7529 -0.385523,1.7529 -0.112534,0 -1.348838,-1.729 -2.747338,-3.8422 -2.887849,-4.3638 -2.762825,-4.3804 -3.370627,0.4483 -0.422425,3.3561 -0.276006,5.6968 0.492634,7.8754 0.267472,0.7581 0.434051,1.4306 0.370176,1.4945 -0.06388,0.064 -1.757415,-0.516 -3.763418,-1.2887 -8.778499,-3.381 -17.326856,-5.0073 -26.320929,-5.0073 h -4.117574 l 0.220453,1.2 c 0.340256,1.8521 1.570254,4.6899 3.26711,7.5377 1.903168,3.194 7.264408,8.7658 9.404695,9.774 1.677153,0.7901 3.780088,0.8903 5.037479,0.2401 1.892174,-0.9785 1.988395,-0.8983 2.096884,1.7481 0.0795,1.9391 0.281672,2.7551 1.0177,4.1074 1.087172,1.9975 5.471743,6.2632 7.59619,7.3902 1.221928,0.6482 1.455384,0.9115 1.312568,1.4806 -0.09554,0.3806 -0.01805,0.7883 0.172218,0.9059 0.190262,0.1176 0.345929,0.3908 0.345929,0.6073 0,0.2662 -1.060886,0.042 -3.28,-0.6936 -4.191687,-1.3893 -8.234973,-1.7097 -10.804595,-0.8562 -1.927137,0.6401 -4.243844,2.7261 -4.977409,4.4818 -0.679598,1.6265 -0.580732,4.3826 0.218183,6.0822 1.679561,3.5731 5.161756,4.5185 9.028985,2.4513 3.231528,-1.7273 3.326476,-4.7276 0.237921,-7.5179 l -1.298347,-1.173 1.296367,-0.8578 c 1.397784,-0.9251 2.349322,-1.0241 7.098895,-0.7391 l 2.48,0.1488 v 1.6526 c 0,3.1562 -1.807336,7.3103 -4.120025,9.4696 -0.518373,0.484 -1.15201,0.88 -1.408081,0.88 -1.07809,0 -2.09651,1.3029 -2.781685,3.5587 -0.830471,2.7341 -1.710547,4.1993 -3.485767,5.8031 -1.390174,1.2559 -2.406956,1.4872 -3.387304,0.7703 -0.559699,-0.4093 -0.548426,-0.4906 0.258839,-1.8681 2.534471,-4.3248 -0.907344,-5.7457 -7.253368,-2.9945 -4.749806,2.0591 -6.622609,4.5737 -6.622609,8.8921 0,1.6597 0.112968,2.0006 0.935385,2.823 0.753656,0.7537 1.212116,0.9354 2.359767,0.9354 0.783411,0 2.019322,-0.2099 2.74647,-0.4665 z m 25.524414,-32.9482 c -0.293063,-0.4472 -0.787428,-1.4989 -1.098592,-2.3369 -0.496445,-1.3371 -0.812823,-1.6602 -2.582349,-2.6373 -1.894153,-1.046 -2.005196,-1.1706 -1.828942,-2.0519 0.227039,-1.1352 0.736483,-1.7992 1.380353,-1.7992 0.465386,0 0.451923,0.4066 -0.05385,1.6263 -0.275347,0.6641 3.202659,2.2691 6.494102,2.9969 5.002371,1.1062 13.395219,1.1798 16.663536,0.1462 0.626835,-0.1982 1.766035,-0.7189 2.531549,-1.1571 1.06297,-0.6084 1.478838,-0.7078 1.76,-0.4206 0.547491,0.5592 -1.12329,1.7769 -3.631846,2.6469 -1.909431,0.6622 -2.649904,0.7216 -9.029677,0.7233 h -6.949674 l -1.56089,1.5374 -1.560889,1.5374 -0.532835,-0.8132 z m 1.71278,-1.944 c 0.872548,-0.9288 0.861226,-0.9506 -0.718816,-1.382 -1.317011,-0.3597 -1.361523,-0.2981 -0.848694,1.1729 0.423984,1.2163 0.599302,1.2397 1.56751,0.2091 z m 1.226167,-8.2999 c -3.142944,-0.5548 -5.193482,-1.2422 -7.875597,-2.6402 -2.220078,-1.1572 -2.677939,-1.7861 -1.429386,-1.9635 0.517588,-0.074 0.72,-0.3175 0.72,-0.868 0,-1.2682 1.281584,-4.2892 2.322506,-5.4748 3.256989,-3.7095 9.727914,-3.0446 12.696119,1.3045 1.159152,1.6984 2.581376,6.3519 2.581376,8.4462 0,1.3057 -4.791373,1.9413 -9.015018,1.1958 z m 7.439805,-1.358 c 0.573219,-0.5735 -0.240647,-4.3259 -1.442221,-6.6495 -2.163975,-4.1848 -7.494371,-5.578 -10.776227,-2.8165 -1.524736,1.283 -3.137522,5.3514 -2.637707,6.6539 0.388283,1.0119 4.179499,2.4305 8.431367,3.1549 1.583015,0.2698 6.050775,0.031 6.424788,-0.3428 z m -9.816788,-2.4714 c -0.905942,-0.9059 -1.088,-1.3224 -1.088,-2.4888 0,-3.2085 2.831962,-4.8594 5.084567,-2.9639 1.705664,1.4352 1.72512,3.9402 0.04366,5.6217 -1.297511,1.2975 -2.629428,1.2418 -4.040227,-0.169 z m 3.648,-2.816 c 0.540164,-0.5402 0.477837,-2.0198 -0.105475,-2.5039 -0.813414,-0.675 -2.070525,0.093 -2.070525,1.2651 0,1.324 1.332301,2.0825 2.176,1.2388 z m 21.187002,-1.7835 c 0.0071,-2.812 2.948813,-6.0152 7.733354,-8.4208 2.3427136,-1.1779 7.39152969,-2.8599 8.5394433,-2.8448 0.2883104,0 -0.96266881,0.7893 -2.7799552,1.7456 -4.4473345,2.3403 -7.8950691,4.8786 -10.9529381,8.0637 l -2.542905,2.6488 0.0029,-1.1925 z m -38.69967,-1.2185 c -2.113868,-3.1 -8.734287,-8.0788 -14.400106,-10.8294 -3.265823,-1.5855 -3.089972,-1.8177 0.636506,-0.8403 8.61781,2.2601 14.969782,7.2747 14.637524,11.5556 l -0.09726,1.253 z m 39.779504,34.2292 c 1.84359,-0.6282 2.916893,-2.078 3.461882,-4.6763 0.730051,-3.4805 -0.976727,-6.2322 -4.331268,-6.9829 -1.467859,-0.3285 -1.869405,-0.3075 -2.829619,0.1482 -1.755606,0.8331 -2.646022,2.7148 -2.624602,5.5465 l 0.01754,2.3188 -0.908531,-0.5753 c -0.499693,-0.3163 -2.067801,-1.6118 -3.484688,-2.8787 -2.900595,-2.5936 -3.692477,-2.8879 -3.400096,-1.2635 0.102957,0.572 0.335757,1.9018 0.517335,2.9552 0.365244,2.1189 0.620611,2.4039 3.575155,3.9908 3.464534,1.8607 7.166413,2.385 10.00689,1.4172 z m -33.735176,-2.238 c 1.222738,-1.3927 2.209271,-3.5617 2.463469,-5.4162 l 0.182438,-1.3311 -2.499583,-0.189 c -1.374771,-0.104 -2.606145,-0.1232 -2.736387,-0.043 -0.130242,0.081 0.186018,0.9502 0.7028,1.9326 1.123987,2.1367 1.216159,3.9347 0.29027,5.6622 -0.619139,1.1552 -0.62118,1.1964 -0.04389,0.8875 0.332996,-0.1782 1.071391,-0.8547 1.640879,-1.5033 z m 30.652341,-23.6869 c 1.749638,-0.4689 0.310012,-6.1222 -1.902538,-7.4712 -1.4204,-0.866 -2.313878,-0.8246 -2.747626,0.1274 l -0.352892,0.7745 0.937801,-0.5345 c 0.846368,-0.4824 1.023965,-0.4873 1.82153,-0.05 1.988285,1.0901 2.475725,4.0223 0.98391,5.9189 -0.605072,0.7692 -0.844589,0.85 -2.099417,0.7086 -0.779034,-0.088 -1.295904,-0.044 -1.148596,0.097 0.522292,0.5006 3.26634,0.7619 4.507828,0.4292 z m -1.52,-4.9183 c 0.483404,-0.9032 -0.137639,-1.991 -1.061652,-1.8594 -0.713683,0.1016 -1.083481,1.1311 -0.733699,2.0427 0.257943,0.6722 1.399911,0.5556 1.795351,-0.1833 z m 1.765993,-12.928 c 2.420525,-0.8464 2.523866,-0.9862 2.804036,-3.792 0.225046,-2.2538 -0.01264,-2.3107 -2.175895,-0.5215 -0.876774,0.7252 -1.931162,1.5842 -2.343085,1.9089 -0.765734,0.6035 -1.40407,3.1726 -0.788291,3.1726 0.168867,0 1.295322,-0.3456 2.503235,-0.768 z m -25.597165,-1.872 c -0.168934,-1.3436 -0.415225,-1.8596 -1.230029,-2.5769 -1.247508,-1.0983 -4.353648,-2.9149 -4.586284,-2.6823 -0.218112,0.2181 0.48557,4.7859 0.782673,5.0805 0.280149,0.2778 4.229864,1.7727 4.81484,1.8222 0.334333,0.028 0.383024,-0.3373 0.2188,-1.6435 z"
         id="path4530"
         sodipodi:nodetypes="csscssscsssssscssscssccssssssscscscscscsscssssssscscsssssscssscsssssssscssscccsscssssscssssccsscssssssscsssscssssssssscsssssscssssssssscscsssssssssssssssscsscsssssssssssscssssssssssccccccsssssscssssscsssscssssssssssscssccssscscssssssccsssssscscscsssccssscsssccsssssssssssssssscs" />
      <path
         style="fill:#61a21f;stroke-width:0.32"
         d="m -24.830886,1175.0764 c -0.560925,-0.1623 -1.328522,-0.6875 -1.705763,-1.167 -0.568906,-0.7233 -0.654503,-1.1456 -0.501844,-2.4761 0.610324,-5.3191 0.599796,-5.7099 -0.184841,-6.8606 -1.827331,-2.6798 -7.505629,-3.8382 -14.187684,-2.8944 -3.192944,0.4509 -3.900524,0.8003 -4.133268,2.0409 -0.258448,1.3777 -1.490256,2.4985 -4.071627,3.7046 -4.090328,1.9112 -6.674934,1.8313 -10.067653,-0.3114 l -1.963619,-1.2402 -1.044073,1.0772 c -1.462887,1.5094 -3.895301,2.4958 -6.23976,2.5305 -2.432617,0.036 -3.831002,-0.7354 -4.885522,-2.6949 -0.669883,-1.2447 -0.749896,-1.725 -0.60114,-3.6087 0.31989,-4.0509 2.339046,-7.0291 6.032796,-8.8982 2.434602,-1.232 6.357362,-2.5289 7.649256,-2.5289 2.680808,0 5.07765,2.3548 4.637398,4.5561 -0.169586,0.8479 -0.132738,0.9124 0.310797,0.5443 0.576121,-0.4781 1.732679,-2.6318 1.74401,-3.2477 0.0042,-0.227 0.338517,-1.2171 0.742976,-2.2003 l 0.735381,-1.7876 -1.546408,0.5876 c -4.700583,1.7861 -9.281527,-0.5448 -10.706915,-5.448 -0.970132,-3.3371 -0.134517,-6.3405 2.501439,-8.9906 2.085603,-2.0969 4.338844,-3.013 7.465932,-3.0354 1.408,-0.01 3.196471,0.095 3.97438,0.2341 l 1.414379,0.2525 -2.393071,-2.5048 c -2.569271,-2.6893 -3.791354,-4.7843 -4.030991,-6.9103 l -0.150155,-1.3322 h -2.127271 c -2.794061,0 -4.969681,-1.0568 -8.076464,-3.9285 -3.077109,-2.8442 -5.780745,-6.5284 -7.745124,-10.5541 -1.363598,-2.7945 -1.624704,-3.6333 -1.752891,-5.6307 l -0.150624,-2.347 3.063341,-0.1828 c 6.355606,-0.3792 16.386009,0.7633 22.043728,2.5108 0.504771,0.1559 0.533179,-0.1301 0.350881,-3.5317 l -0.198357,-3.7013 1.398635,0.4935 c 1.546562,0.5457 3.759542,1.7581 5.308104,2.9083 l 1.008499,0.749 0.355987,-2.1522 c 0.494317,-2.9886 1.341766,-6.5804 1.62688,-6.8953 0.13095,-0.1446 1.30055,1.4009 2.599114,3.4346 1.29856,2.0337 2.437449,3.7 2.530864,3.703 0.09341,0 0.323436,-0.3906 0.511161,-0.8746 0.554429,-1.4295 3.172397,-4.677 5.093117,-6.3179 1.805037,-1.5421 5.918058,-4.4219 6.074861,-4.2535 0.04676,0.05 -0.185373,1.4594 -0.515856,3.1314 -0.330486,1.672 -0.697766,4.732 -0.816179,6.8 -0.232631,4.0626 -0.198989,4.1414 1.418944,3.3228 1.525011,-0.7717 3.097424,-0.8918 4.672659,-0.357 1.451005,0.4926 1.497293,0.4871 2.536685,-0.3057 0.879802,-0.6711 3.361837,-1.7801 3.983891,-1.7801 0.09276,0 0.07969,1.555 -0.02906,3.4556 l -0.197715,3.4556 2.788822,-0.6019 c 1.94913,-0.4207 4.7021924,-0.6547 9.1435941,-0.7772 l 6.3547681,-0.1753 -0.2199008,0.7616 c -0.5296193,1.8343 -3.8255617,8.0911 -5.95503692,11.3047 -3.17633608,4.7934 -6.77142088,8.4909 -9.66156448,9.9368 -1.231463,0.616 -2.507677,1.1201 -2.836032,1.1201 -0.495005,0 -0.597005,0.2482 -0.597005,1.4527 0,1.8155 -0.822864,3.4393 -2.613594,5.1576 -2.066128,1.9825 -6.027696,4.706 -8.023664,5.5161 l -1.760941,0.7147 1.670019,1.5795 c 0.918509,0.8687 1.753885,1.5794 1.856391,1.5794 0.102505,0 0.411443,-0.7742 0.686525,-1.7205 0.360227,-1.2391 0.856697,-2.0425 1.77464,-2.8718 1.52328,-1.3762 2.379587,-1.63 4.694169,-1.3911 2.220394,0.2292 4.347037,1.4602 5.479984,3.1722 1.8160708,2.7443 1.1299812,8.1364 -1.350944,10.6173 -2.473132,2.4731 -8.126307,2.5719 -12.980163,0.2267 -0.765949,-0.37 -1.484854,-0.6728 -1.597568,-0.6728 -0.112714,0 -0.363565,0.684 -0.557443,1.52 -0.193879,0.836 -0.436755,1.7374 -0.539725,2.0032 -0.137942,0.356 0.241066,0.6353 1.440032,1.0611 2.205344,0.7833 3.95489,2.4516 5.11063,4.8732 l 0.963338,2.0185 0.868995,-0.4509 c 2.598612,-1.3481 6.541824,-1.2218 8.771965,0.2811 4.8369186,3.2596 2.4144514,9.3488 -5.218777,13.1181 -2.798868,1.3821 -6.323793,2.4775 -7.793869,2.4221 -0.352,-0.013 -1.098941,-0.1569 -1.659869,-0.3192 z m 5.603446,-2.3907 c 3.272404,-1.0971 5.625469,-2.4773 7.631853,-4.4763 2.6544578,-2.6447 2.9059106,-4.8324 0.762698,-6.6358 -1.838647,-1.5472 -5.218295,-1.5574 -8.035015,-0.024 -1.555705,0.8467 -1.604953,0.8528 -2.055625,0.2537 -0.253956,-0.3376 -0.719296,-1.3182 -1.034096,-2.1791 -1.159834,-3.1718 -3.30608,-4.8066 -7.213392,-5.4946 -0.66,-0.1163 -1.2,-0.2609 -1.2,-0.3215 0,-0.061 0.348854,-0.6243 0.775232,-1.2526 0.867139,-1.2777 1.464768,-3.6367 1.464768,-5.7818 0,-0.7833 0.08629,-1.4242 0.191766,-1.4242 0.105472,0 1.013517,0.5072 2.017875,1.1271 5.474448,3.3791 11.597168,3.6027 13.651357,0.4986 1.160179,-1.7532 1.645136,-4.4091 1.123181,-6.1512 -0.875792,-2.9231 -4.619869,-4.8489 -7.120349,-3.6623 -1.755606,0.8331 -2.646022,2.7148 -2.624602,5.5465 l 0.01754,2.3188 -0.908531,-0.5753 c -0.499693,-0.3163 -2.067801,-1.6118 -3.484688,-2.8787 -1.41688,-1.2669 -2.830144,-2.3035 -3.140579,-2.3035 -0.325491,0 -0.78143,-0.4551 -1.077037,-1.0749 l -0.512608,-1.075 1.973341,-0.5467 c 2.870115,-0.795 5.491235,-2.1892 8.186758,-4.3546 3.05752,-2.4561 4.035642,-3.8153 3.997655,-5.5552 -0.0159,-0.7286 -0.200976,-1.6463 -0.411258,-2.0392 -0.344499,-0.6437 -0.626643,-0.7149 -2.851075,-0.7191 -1.357808,0 -2.824765,-0.1849 -3.259904,-0.4051 -0.99761,-0.5048 -1.551635,-2.2681 -1.584246,-5.0424 -0.02883,-2.454 0.895955,-4.6559 2.274112,-5.4145 0.802348,-0.4417 0.910988,-0.4209 1.655446,0.317 0.438211,0.4343 1.222259,1.1101 1.742326,1.5018 1.270624,0.9568 2.272349,3.1954 2.51346,5.6168 0.281683,2.829 0.518445,3.1808 1.967347,2.9237 3.192032,-0.5664 7.2938592,-4.171 10.9350753,-9.6096 2.25212799,-3.3638 4.8914304,-8.039 5.291888,-9.3741 l 0.2312928,-0.771 -4.2777696,0.2031 c -6.8943393,0.3273 -13.1124605,1.6915 -17.8309825,3.9117 -1.294269,0.609 -2.410269,1.1073 -2.48,1.1073 -0.06973,0 -0.120515,-0.972 -0.112851,-2.16 0.01309,-2.0288 0.222016,-3.5314 0.778646,-5.6 0.320826,-1.1923 -0.295802,-1.1537 -3.352582,0.2097 l -2.4,1.0705 -0.258928,-1.6401 c -0.242749,-1.5376 0.189232,-8.7198 0.62312,-10.3601 0.329606,-1.2461 -0.390647,-0.8062 -3.144135,1.92 -3.062387,3.0321 -4.388698,5.2481 -4.648685,7.7671 -0.0995,0.9641 -0.272985,1.7529 -0.385523,1.7529 -0.112534,0 -1.348838,-1.729 -2.747338,-3.8422 -2.887849,-4.3638 -2.762825,-4.3804 -3.370627,0.4483 -0.422425,3.3561 -0.276006,5.6968 0.492634,7.8754 0.267472,0.7581 0.434051,1.4306 0.370176,1.4945 -0.06388,0.064 -1.757415,-0.516 -3.763418,-1.2887 -8.778499,-3.381 -17.326856,-5.0073 -26.320929,-5.0073 h -4.117574 l 0.220453,1.2 c 0.340256,1.8521 1.570254,4.6899 3.26711,7.5377 1.903168,3.194 7.264408,8.7658 9.404695,9.774 1.677153,0.7901 3.780088,0.8903 5.037479,0.2401 1.892174,-0.9785 1.988395,-0.8983 2.096884,1.7481 0.0795,1.9391 0.281672,2.7551 1.0177,4.1074 1.087172,1.9975 5.471743,6.2632 7.59619,7.3902 1.221928,0.6482 1.455384,0.9115 1.312568,1.4806 -0.09554,0.3806 -0.01805,0.7883 0.172218,0.9059 0.190262,0.1176 0.345929,0.3908 0.345929,0.6073 0,0.2662 -1.060886,0.042 -3.28,-0.6936 -4.191687,-1.3893 -8.234973,-1.7097 -10.804595,-0.8562 -1.927137,0.6401 -4.243844,2.7261 -4.977409,4.4818 -0.679598,1.6265 -0.580732,4.3826 0.218183,6.0822 1.679561,3.5731 5.161756,4.5185 9.028985,2.4513 3.231528,-1.7273 3.326476,-4.7276 0.237921,-7.5179 l -1.298347,-1.173 1.296367,-0.8578 c 1.397784,-0.9251 2.349322,-1.0241 7.098895,-0.7391 l 2.48,0.1488 v 1.6526 c 0,3.1562 -1.807336,7.3103 -4.120025,9.4696 -0.518373,0.484 -1.15201,0.88 -1.408081,0.88 -1.07809,0 -2.09651,1.3029 -2.781685,3.5587 -0.830471,2.7341 -1.710547,4.1993 -3.485767,5.8031 -1.390174,1.2559 -2.406956,1.4872 -3.387304,0.7703 -0.559699,-0.4093 -0.548426,-0.4906 0.258839,-1.8681 2.534471,-4.3248 -0.907344,-5.7457 -7.253368,-2.9945 -4.749806,2.0591 -6.622609,4.5737 -6.622609,8.8921 0,1.6597 0.112968,2.0006 0.935385,2.823 0.753656,0.7537 1.212116,0.9354 2.359767,0.9354 2.773184,0 5.272393,-1.2941 6.318957,-3.272 l 0.630719,-1.192 2.157586,1.3887 c 3.600429,2.3174 4.158876,2.533 6.05441,2.3373 0.986342,-0.1018 2.702009,-0.6578 4.090279,-1.3255 2.16488,-1.0413 2.427094,-1.2696 2.769334,-2.4119 0.785515,-2.6218 2.276805,-3.1851 9.083563,-3.4308 3.856196,-0.1392 5.207431,-0.069 6.872113,0.3583 2.533209,0.6499 4.533328,1.7835 5.471619,3.1012 1.01024,1.4188 1.327405,4.6944 0.685929,7.0843 -0.462569,1.7233 -0.457091,1.8775 0.08814,2.48 0.812522,0.8978 2.833703,0.8354 5.865773,-0.1811 z m -21.817542,-38.3512 c -0.293063,-0.4472 -0.787428,-1.4989 -1.098592,-2.3369 -0.496445,-1.3371 -0.812823,-1.6602 -2.582349,-2.6373 -1.894153,-1.046 -2.005196,-1.1706 -1.828942,-2.0519 0.227039,-1.1352 0.736483,-1.7992 1.380353,-1.7992 0.465386,0 0.451923,0.4066 -0.05385,1.6263 -0.275347,0.6641 3.202659,2.2691 6.494102,2.9969 5.002371,1.1062 13.395219,1.1798 16.663536,0.1462 0.626835,-0.1982 1.766035,-0.7189 2.531549,-1.1571 1.06297,-0.6084 1.478838,-0.7078 1.76,-0.4206 0.547491,0.5592 -1.12329,1.7769 -3.631846,2.6469 -1.909431,0.6622 -2.649904,0.7216 -9.029677,0.7233 h -6.949674 l -1.56089,1.5374 -1.560889,1.5374 -0.532835,-0.8132 z m 1.833008,-2.0625 0.87878,-0.9173 -1.497836,-0.3772 c -0.823812,-0.2074 -1.537776,-0.3346 -1.586589,-0.2827 -0.158464,0.1686 0.868093,2.4944 1.100957,2.4944 0.124249,0 0.621356,-0.4128 1.104688,-0.9172 z m 1.105939,-8.1814 c -3.142944,-0.5548 -5.193482,-1.2422 -7.875597,-2.6402 -2.220078,-1.1572 -2.677939,-1.7861 -1.429386,-1.9635 0.517588,-0.074 0.72,-0.3175 0.72,-0.868 0,-1.2682 1.281584,-4.2892 2.322506,-5.4748 3.256989,-3.7095 9.727914,-3.0446 12.696119,1.3045 1.159152,1.6984 2.581376,6.3519 2.581376,8.4462 0,1.3057 -4.791373,1.9413 -9.015018,1.1958 z m 5.940029,-0.8214 c 0.567965,0 1.269533,-0.18 1.559037,-0.4 0.479251,-0.3642 0.484828,-0.595 0.0623,-2.578 -0.96649,-4.5361 -2.626896,-6.8877 -5.688922,-8.0571 -2.032995,-0.7764 -4.567399,-0.5478 -6.24665,0.5635 -2.118339,1.4019 -3.981216,6.1659 -2.91391,7.4519 0.631085,0.7604 2.496182,1.6265 4.802323,2.2299 2.178864,0.5702 6.249642,1.0989 6.966979,0.905 0.234394,-0.063 0.890871,-0.1152 1.458839,-0.1152 z m -7.708749,-2.5466 c -2.418343,-1.4746 -1.841354,-5.9793 0.841328,-6.5685 1.957107,-0.4298 3.542409,1.1432 3.542409,3.5151 0,1.4993 -0.700838,2.8192 -1.751059,3.2977 -1.127837,0.5139 -1.436144,0.4853 -2.632678,-0.2443 z m 3.481961,-3.6934 c 0.804506,-1.7657 -0.938108,-3.1509 -2.353027,-1.8704 -0.715113,0.6472 -0.732467,1.0377 -0.08705,1.9592 0.689104,0.9838 1.97264,0.9371 2.44008,-0.089 z m -11.449267,29.0162 c 1.164172,-1.6309 2.005325,-3.6509 2.160087,-5.1874 0.100694,-0.9997 0.02217,-1.1206 -0.849044,-1.3073 -1.130304,-0.2423 -4.96,-0.3471 -4.96,-0.1357 0,0.08 0.359769,0.6759 0.799487,1.3239 1.568738,2.3117 1.748402,5.0058 0.444378,6.6636 -0.863209,1.0973 -0.749621,1.2663 0.406739,0.6048 0.555832,-0.318 1.455091,-1.2008 1.998353,-1.9619 z m 31.018352,-25.2154 c -0.07933,-2.9497 -1.524086,-5.3444 -3.72814,-6.1795 -1.2505,-0.4738 -1.347978,-0.4477 -1.767802,0.4738 -0.542602,1.1908 -0.45473,1.5995 0.21383,0.9945 0.325991,-0.295 1.070128,-0.5155 1.68,-0.4977 0.946276,0.028 0.990378,0.061 0.325088,0.2473 -1.724256,0.4825 -1.672697,2.3322 0.07083,2.541 0.666163,0.08 0.877565,-0.063 1.03785,-0.7018 0.11071,-0.4411 0.09461,-0.9902 -0.03578,-1.2202 -0.187417,-0.3306 -0.149168,-0.3368 0.182612,-0.029 0.230828,0.2139 0.48335,1.1565 0.561164,2.0948 0.124189,1.4976 0.03605,1.8314 -0.721184,2.7313 -0.894115,1.0626 -1.684768,1.2623 -2.746809,0.694 -0.480746,-0.2573 -0.618963,-0.2269 -0.618963,0.1365 0,0.63 0.706086,0.7822 3.36,0.7239 l 2.24,-0.049 z m -0.581315,-15.9288 c 2.420525,-0.8464 2.523866,-0.9862 2.804036,-3.792 0.225046,-2.2538 -0.01264,-2.3107 -2.175895,-0.5215 -0.876774,0.7252 -1.931162,1.5842 -2.343085,1.9089 -0.765734,0.6035 -1.40407,3.1726 -0.788291,3.1726 0.168867,0 1.295322,-0.3456 2.503235,-0.768 z m -25.597165,-1.872 c -0.168934,-1.3436 -0.415225,-1.8596 -1.230029,-2.5769 -1.247508,-1.0983 -4.353648,-2.9149 -4.586284,-2.6823 -0.218112,0.2181 0.48557,4.7859 0.782673,5.0805 0.280149,0.2778 4.229864,1.7727 4.81484,1.8222 0.334333,0.028 0.383024,-0.3373 0.2188,-1.6435 z"
         id="path4528"
         sodipodi:nodetypes="cssssssscsssssssssscssssccsscsssscssscsscssscsssssssssscsscssssssscssssssssssssscsssccccsscssssssscssssccssscsssscssssssssscsssssscssssssssscscsssssssssssssssscsscsssssssssssscssssscssscccssssssssssccccccscsssssscsssssssssssscssssssscssccsssssssssssscccsscssssccssssssssssscs" />
      <path
         style="fill:#0e6103;stroke-width:0.32"
         d="m -24.605955,1175.1015 c -0.613219,-0.1442 -1.453603,-0.6558 -1.867523,-1.1371 -0.64777,-0.753 -0.726999,-1.1019 -0.568871,-2.505 0.580247,-5.1488 0.583476,-5.5225 0.0565,-6.5415 -1.300948,-2.5158 -5.381383,-3.7521 -11.385169,-3.4495 -2.024,0.102 -4.391561,0.3689 -5.261248,0.5931 -1.41688,0.3653 -1.610764,0.5241 -1.865195,1.5277 -0.40356,1.5918 -1.548521,2.6539 -4.157337,3.8564 -1.673528,0.7713 -2.871857,1.0856 -4.549794,1.1933 -2.370851,0.1522 -3.643683,-0.2734 -6.387243,-2.1357 l -0.940816,-0.6386 -1.260014,1.1384 c -1.802084,1.628 -3.801053,2.424 -6.142902,2.4461 -4.37662,0.041 -6.477578,-3.321 -5.161501,-8.2599 0.921092,-3.4566 2.877475,-5.6042 6.680838,-7.3337 5.435121,-2.4716 7.964968,-2.6383 10.116412,-0.6666 1.018797,0.9337 1.1688,1.2591 1.1688,2.5357 0,0.8055 0.09676,1.4646 0.215024,1.4646 0.298666,0 2.183387,-3.8271 2.192004,-4.4511 0.0039,-0.2799 0.291693,-1.1362 0.639617,-1.903 0.580042,-1.2783 0.586103,-1.3744 0.07297,-1.1568 -1.951996,0.8278 -2.98545,1.0844 -4.416787,1.0969 -2.278084,0.02 -4.660662,-1.2206 -5.953119,-3.0991 -2.697899,-3.9213 -2.406996,-8.1421 0.794463,-11.5271 0.908295,-0.9604 2.156432,-2.0026 2.773636,-2.316 2.428224,-1.2328 5.871849,-1.514 9.511925,-0.7765 0.975267,0.1976 0.898636,0.075 -1.44873,-2.3094 -2.601808,-2.6432 -3.789599,-4.6558 -4.104733,-6.9549 l -0.187795,-1.3702 -2.124239,0.024 c -1.706201,0.019 -2.48069,-0.1514 -3.935537,-0.8659 -6.052528,-2.9723 -13.708701,-14.1201 -13.708701,-19.9606 v -1.7099 h 5.743611 c 6.349324,0 11.49956,0.5489 16.602005,1.7693 1.818088,0.4349 3.343259,0.7907 3.389268,0.7907 0.04601,0 -0.02893,-0.684 -0.166539,-1.52 -0.137607,-0.836 -0.258778,-2.4833 -0.269269,-3.6606 l -0.01908,-2.1406 1.450504,0.4943 c 0.797777,0.2718 2.52045,1.1927 3.828162,2.0464 l 2.377658,1.5521 0.192313,-1.1858 c 0.490474,-3.0243 1.541005,-7.7758 1.747379,-7.9033 0.126087,-0.078 1.294564,1.5071 2.596615,3.5223 1.302054,2.0153 2.439369,3.6662 2.527369,3.6689 0.088,0 0.571773,-0.7833 1.075047,-1.7465 1.444182,-2.7639 5.636963,-6.7589 9.532262,-9.0826 l 1.167309,-0.6964 -0.305571,1.36 c -0.881002,3.9211 -1.616918,12.4118 -1.075766,12.4118 0.0843,0 1.067689,-0.3002 2.185296,-0.6671 1.719129,-0.5643 2.235456,-0.6122 3.353209,-0.3113 0.726656,0.1957 1.414464,0.5067 1.528461,0.6912 0.130704,0.2114 0.460771,0.1025 0.893514,-0.295 1.019613,-0.9366 3.12992,-1.9778 4.00863,-1.9778 h 0.771869 l -0.213974,3.3097 -0.213975,3.3096 2.966845,-0.6106 c 2.0145408,-0.4147 4.9553152,-0.6688 9.16180168,-0.7919 l 6.19496012,-0.1812 -0.2250176,0.7622 c -0.1237601,0.4192 -0.9986625,2.3527 -1.9442241,4.2966 -4.5913888,9.4391 -11.2440577,16.8502 -16.0606751,17.8916 -0.969546,0.2096 -1.040477,0.3153 -1.047027,1.5594 -0.01443,2.7383 -1.760368,4.9825 -6.497828,8.3522 -1.201667,0.8547 -2.973353,1.8745 -3.937078,2.2662 -0.963722,0.3917 -1.708538,0.829 -1.655146,0.9717 0.05339,0.1428 0.835024,0.9575 1.736957,1.8105 l 1.639878,1.5509 0.348452,-1.3838 c 0.414659,-1.6467 1.470505,-3.2814 2.715257,-4.2037 0.705584,-0.5228 1.37329,-0.6694 3.048541,-0.6694 2.736115,0 4.898493,1.0322 6.279866,2.9977 1.8904958,2.6898 1.3176894,8.0177 -1.131293,10.5226 -2.594957,2.6542 -8.452711,2.7571 -13.427946,0.236 l -1.474701,-0.7473 -0.402732,1.8155 c -0.221504,0.9985 -0.473354,1.9874 -0.559664,2.1976 -0.09491,0.2311 0.337644,0.5153 1.094448,0.719 2.487651,0.6699 4.560832,2.658 5.809587,5.5712 l 0.628342,1.4659 1.491821,-0.6599 c 1.898595,-0.8398 5.189117,-0.8966 7.096192,-0.1225 2.5500962,1.0352 3.954445,3.4762 3.4738146,6.0382 -0.7012352,3.7379 -6.9291456,8.3895 -12.9375236,9.663 -2.372477,0.5028 -2.330509,0.5013 -3.887155,0.1353 z m 6.41639,-2.5799 c 4.984954,-1.9224 8.9385478,-5.5954 8.9385478,-8.3041 0,-2.3945 -2.1300478,-3.9414 -5.4427358,-3.9529 -1.728496,-0.01 -2.39314,0.161 -3.907722,0.9813 l -1.824986,0.9884 -0.440588,-0.6825 c -0.242324,-0.3754 -0.712762,-1.4026 -1.045415,-2.2826 -1.114915,-2.9494 -4.371469,-5.28 -7.377747,-5.28 -1.010166,0 -1.179702,-0.4513 -0.425827,-1.1336 0.810707,-0.7336 1.544902,-3.2871 1.629286,-5.6664 0.03589,-1.012 0.122221,-1.84 0.191847,-1.84 0.06963,0 0.584982,0.3493 1.145238,0.7763 1.719494,1.3104 4.96879,2.6775 7.297171,3.0702 5.235661,0.8831 8.576173,-1.6504 8.594452,-6.5181 0.01334,-3.5545 -1.899712,-5.6522 -5.381911,-5.9013 -1.51832,-0.1087 -1.959805,-0.012 -2.731264,0.5965 -1.347293,1.0631 -2.104515,2.9835 -2.112771,5.3582 l -0.007,2.0218 -1.04,-0.7169 c -0.572,-0.3943 -1.998,-1.6281 -3.168887,-2.7418 -1.2088,-1.1498 -2.415366,-2.0249 -2.791769,-2.0249 -0.410419,0 -0.848842,-0.3596 -1.151114,-0.9441 -0.642173,-1.2418 -0.667005,-1.1911 0.709885,-1.4494 3.044742,-0.5712 7.208282,-2.9547 10.586467,-6.0604 2.249408,-2.068 2.807466,-3.8792 1.871056,-6.0725 -0.387654,-0.908 -0.449324,-0.9279 -3.105568,-1.0016 -1.490531,-0.041 -2.94152,-0.1721 -3.224416,-0.2904 -0.729881,-0.3052 -1.302563,-2.488 -1.299437,-4.953 0.0029,-2.3378 0.397984,-3.6673 1.410893,-4.7486 0.792192,-0.8457 1.314551,-0.9029 2.082903,-0.2283 0.308,0.2704 1.048576,0.8765 1.645728,1.3469 1.411536,1.1119 2.587117,3.6464 2.591145,5.5863 0.0046,2.201 0.522285,3.1358 1.734493,3.132 4.073648,-0.013 10.6046659,-6.925 15.5642179,-16.4724 l 1.6599616,-3.1955 -1.0561568,-0.216 c -1.5543776,-0.3179 -8.6745345,0.2612 -12.2455777,0.9959 -3.613914,0.7436 -7.258842,1.9186 -9.543923,3.0765 -0.88744,0.4497 -1.689421,0.7417 -1.782186,0.649 -0.35489,-0.3549 -0.08764,-4.9077 0.377693,-6.4344 0.268221,-0.88 0.489235,-1.7194 0.491142,-1.8654 0.0053,-0.4096 -1.749133,0.07 -4.012425,1.0959 -1.127533,0.5112 -2.146727,0.9295 -2.264877,0.9295 -0.285187,0 0.117731,-9.7032 0.475037,-11.44 0.153884,-0.748 0.1707,-1.36 0.03737,-1.36 -0.308992,0 -3.293389,2.6635 -4.777081,4.2634 -1.656797,1.7866 -3.205437,4.6649 -3.215645,5.9766 -0.01789,2.3006 -0.450416,2.0315 -3.05137,-1.8986 -1.392086,-2.1035 -2.593008,-3.7626 -2.66872,-3.6869 -0.07571,0.076 -0.326128,1.1114 -0.55648,2.3016 -0.565565,2.9221 -0.552813,7.6151 0.02592,9.5381 0.257546,0.8558 0.419789,1.6044 0.360538,1.6637 -0.05925,0.059 -1.169968,-0.3139 -2.468266,-0.8292 -5.913922,-2.3472 -12.667213,-4.1036 -18.680538,-4.8584 -3.745647,-0.4702 -12.192688,-0.571 -12.589964,-0.1503 -0.860582,0.9114 1.979058,7.2024 5.154343,11.419 4.537234,6.0253 9.408082,8.9883 12.331512,7.5015 2.250845,-1.1447 2.304109,-1.114 2.304109,1.3268 0,1.8212 0.170931,2.5525 0.970607,4.1528 1.115172,2.2317 4.333404,5.4565 7.139049,7.1537 1.147048,0.6939 1.737804,1.247 1.635682,1.5313 -0.08792,0.2448 0.07733,0.8071 0.367226,1.2495 0.501676,0.7657 0.498172,0.7925 -0.07274,0.5563 -2.10912,-0.8725 -7.028457,-2.1399 -8.935198,-2.3021 -3.465955,-0.2948 -5.593291,0.441 -7.870407,2.7222 -2.464907,2.4693 -3.075808,4.7768 -2.041065,7.7096 0.999686,2.8334 3.139336,4.4996 5.766849,4.4907 2.875189,-0.01 6.042801,-1.9747 6.419434,-3.9823 0.269278,-1.4354 -0.667949,-3.5095 -2.164847,-4.7908 l -1.270074,-1.0871 0.747744,-0.4824 c 1.785642,-1.1519 2.3952,-1.2525 6.162658,-1.0171 l 3.705085,0.2315 -0.0056,0.8485 c -0.01101,1.6791 -0.941865,5.2187 -1.775095,6.7496 -1.053243,1.9351 -2.618102,3.4793 -4.38726,4.3292 -1.269904,0.6101 -1.412908,0.8202 -2.352664,3.4555 -1.04773,2.9382 -2.263666,4.9806 -3.58287,6.0183 -0.82667,0.6503 -2.459535,0.8065 -3.243831,0.3104 -0.406099,-0.2568 -0.400678,-0.3714 0.04141,-0.8751 0.734757,-0.837 1.545877,-2.5307 1.545877,-3.2278 0,-0.3301 -0.371946,-0.9492 -0.826547,-1.3759 -1.322147,-1.241 -3.70199,-1.0491 -7.493453,0.6041 -3.756541,1.638 -5.750411,3.5137 -6.53174,6.1448 -0.990025,3.3337 -0.439381,5.5795 1.606042,6.5501 1.289939,0.6121 1.836023,0.608 3.985142,-0.03 1.687257,-0.5011 4.143022,-2.4742 4.513281,-3.6262 0.116866,-0.3636 0.381789,-0.2865 1.24782,0.3634 3.941602,2.9578 6.235017,3.4814 9.629767,2.1986 3.121826,-1.1798 4.039671,-1.9761 4.633935,-4.0204 0.384868,-1.324 1.871865,-1.9726 5.555753,-2.4235 3.796215,-0.4647 8.185149,-0.2172 10.809802,0.6095 4.085347,1.2867 5.749626,3.5754 5.365287,7.3781 -0.451101,4.4632 -0.410759,4.9314 0.464912,5.3958 1.101606,0.5843 3.392992,0.2605 6.421452,-0.9074 z m -22.664432,-38.1196 c -0.191974,-0.2313 -0.654771,-1.2377 -1.028435,-2.2364 -0.623603,-1.6667 -0.842349,-1.9055 -2.663987,-2.9084 -1.679925,-0.9248 -1.968441,-1.2104 -1.879347,-1.8602 0.119254,-0.8699 1.201468,-2.1277 1.539676,-1.7895 0.122487,0.1224 0.02365,0.5946 -0.219612,1.0491 -0.406255,0.7591 -0.37989,0.8736 0.323395,1.4041 1.023862,0.7723 5.081862,2.1358 7.851289,2.6381 1.232,0.2234 4.616001,0.4064 7.520001,0.4066 5.787593,3e-4 7.789603,-0.3826 10.062441,-1.9249 1.249872,-0.8482 1.673015,-0.8543 1.352682,-0.02 -0.236221,0.6156 -2.48425,1.7643 -4.535123,2.3174 -2.454509,0.6619 -7.621818,0.8743 -11.344244,0.4662 l -3.344243,-0.3666 -1.64272,1.6224 c -1.30007,1.2839 -1.71553,1.5346 -1.991773,1.2017 z m 1.602979,-2.0076 c 0.484,-0.426 0.88,-0.8466 0.88,-0.9348 0,-0.1785 -2.179484,-0.8258 -2.789958,-0.8286 -0.214474,-10e-4 -0.326749,0.1782 -0.249494,0.3982 0.883846,2.517 0.864678,2.5048 2.159452,1.3652 z m 1.84,-8.3738 c -2.656953,-0.4034 -5.615401,-1.3109 -7.92,-2.4295 -2.565514,-1.2453 -3.23627,-1.8419 -2.070876,-1.8419 0.435725,0 0.702859,-0.5191 1.139684,-2.2149 0.717061,-2.7835 2.028655,-4.7859 3.797055,-5.797 1.105341,-0.6319 1.812307,-0.784 3.614137,-0.7774 3.443895,0.013 6.161594,1.6532 7.669095,4.6293 0.868605,1.7148 2.241088,7.3496 1.870752,7.6805 -0.904272,0.8079 -5.13841,1.2005 -8.099847,0.7509 z m 5.385738,-0.7271 c 0.762157,-0.1473 1.524899,-0.4069 1.694979,-0.577 0.418727,-0.4187 -0.549139,-4.6306 -1.490761,-6.4873 -2.050541,-4.0434 -7.01304,-5.7304 -10.448183,-3.5519 -1.674445,1.0619 -3.115869,3.5846 -3.378238,5.9123 -0.144896,1.2855 -0.07507,1.4522 0.919835,2.1951 1.214662,0.9071 3.365206,1.6518 6.19663,2.1457 3.78832,0.6608 4.701447,0.7118 6.505738,0.3631 z m -7.465738,-2.3879 c -2.547635,-1.1106 -2.489945,-5.6497 0.08425,-6.6284 0.467923,-0.1779 1.216393,-0.2242 1.663264,-0.1029 0.808694,0.2196 0.807648,0.222 -0.223447,0.5059 -1.298416,0.3575 -1.722284,1.5828 -0.872393,2.5219 1.328125,1.4676 3.278912,0.054 2.446553,-1.7729 -0.509401,-1.118 -0.179702,-1.0031 0.413559,0.1441 1.066656,2.0627 0.325795,4.7953 -1.469811,5.4212 -0.55961,0.1951 -1.031988,0.3491 -1.049722,0.3422 -0.01773,-0.01 -0.46425,-0.2009 -0.99225,-0.4311 z m -8.502302,25.4903 c 1.03237,-1.2516 2.023947,-3.5637 2.385571,-5.5624 l 0.209093,-1.1556 -1.490843,-0.2044 c -3.260708,-0.4469 -5.469752,-0.1387 -4.279243,0.5971 0.475722,0.294 1.34273,2.0773 1.632893,3.3586 0.29003,1.2807 -0.198582,3.6317 -0.870721,4.1895 -0.790307,0.6559 -0.471357,0.9609 0.486753,0.4654 0.51216,-0.2649 1.379084,-1.0246 1.926497,-1.6882 z m 31.169611,-25.5659 c -0.07933,-2.9497 -1.524086,-5.3444 -3.72814,-6.1795 -1.2505,-0.4738 -1.347978,-0.4477 -1.767802,0.4738 -0.542602,1.1908 -0.45473,1.5995 0.21383,0.9945 0.32186,-0.2913 1.00586,-0.5275 1.52,-0.5249 h 0.934804 l -0.8,0.4033 c -1.057188,0.533 -1.196663,1.6252 -0.288733,2.2612 1.042681,0.7303 1.999222,0.144 1.814822,-1.1124 -0.09178,-0.6254 -0.03114,-0.8346 0.180595,-0.6228 0.175338,0.1753 0.382458,1.0865 0.460272,2.0248 0.12498,1.5071 0.03808,1.8289 -0.74526,2.7599 -0.897108,1.0661 -1.573732,1.1808 -3.105325,0.5262 -0.428669,-0.1832 -0.517923,-0.1218 -0.372755,0.2565 0.257894,0.6721 0.863865,0.8009 3.496384,0.7431 l 2.24,-0.049 -0.05269,-1.9592 z m -0.358793,-15.8372 c 1.181683,-0.3972 2.225798,-0.9236 2.320259,-1.1697 0.347405,-0.9054 0.579475,-4.8739 0.285015,-4.8739 -0.163965,0 -1.46457,0.9333 -2.890237,2.074 -2.272032,1.8178 -2.610781,2.2228 -2.743226,3.28 -0.170589,1.3615 -0.03123,1.7902 0.508998,1.5658 0.203872,-0.085 1.337508,-0.479 2.519191,-0.8762 z m -26.530173,-4.3777 c -0.49409,-0.4043 -1.834343,-1.3038 -2.978343,-1.999 l -2.08,-1.2639 -0.100068,1.1311 c -0.05504,0.6221 0.05957,1.9001 0.254695,2.84 l 0.354764,1.7089 2.625305,0.9402 2.625304,0.9401 0.09834,-1.7811 c 0.08952,-1.6214 0.01776,-1.8471 -0.8,-2.5163 z"
         id="path4526"
         sodipodi:nodetypes="cssssssssscscssssssssssssscscccscssssscsscssscsscssssssscccsscsssssssscsssssscsscscsssscccscscsssssssssscscssssssscsssssscscssscssssssssscsscsssssssssssssscsscsscsssssssssssscsssssssscccsssssssssssscsccsssssssssscssssssssssssssssssscsssscsssssscsssccssssssssccccssssscssscsscccsss" />
      <path
         style="fill:#025900;stroke-width:0.32"
         d="m -24.843977,1173.7618 c -0.71569,-0.3454 -1.270016,-1.4163 -0.91626,-1.77 0.104071,-0.1041 0.18922,0.043 0.18922,0.3259 0,1.3962 2.490707,1.887 5.294211,1.0432 0.85576,-0.2575 1.612848,-0.4113 1.682419,-0.3417 0.244486,0.2445 -3.265734,1.1298 -4.39471,1.1083 -0.628058,-0.012 -1.462752,-0.1765 -1.85488,-0.3657 z m 8.784291,-2.1364 c 3.946528,-2.0951 5.772349,-3.8343 6.6721088,-6.3556 0.2694336,-0.755 0.4336832,-0.9566 0.4425152,-0.5432 0.020384,0.9537 -1.593283,3.3451 -3.165194,4.6906 -1.281654,1.097 -5.393542,3.4619 -5.987555,3.4436 -0.150266,0 0.766893,-0.5606 2.038125,-1.2354 z m -9.644615,-0.9962 c 0.09296,-0.616 0.292842,-1.84 0.444173,-2.72 l 0.275152,-1.6 -0.09984,1.6 c -0.05491,0.88 -0.25479,2.104 -0.444176,2.72 l -0.344339,1.12 z m -44.93381,-2.5205 c -0.248889,-0.1578 0.254089,-0.2053 1.205465,-0.1139 2.276422,0.2187 5.419937,-1.2999 6.524356,-3.1519 0.736742,-1.2355 0.779228,-1.2572 1.375517,-0.7043 0.338412,0.3138 0.475448,0.4626 0.304525,0.3306 -0.573585,-0.443 -0.978494,-0.2387 -1.682797,0.849 -1.320893,2.0399 -6.156341,3.7861 -7.727066,2.7905 z m -1.796622,-1.4297 c -1.921455,-2.5192 -0.473506,-7.6672 2.868411,-10.1983 0.877417,-0.6646 1.727898,-1.209 1.889958,-1.2099 0.16206,-9e-4 -0.483361,0.5419 -1.434269,1.2063 -3.451609,2.4114 -4.982032,7.6087 -3.0041,10.2019 0.448957,0.5886 0.744286,1.0702 0.656286,1.0702 -0.088,0 -0.527329,-0.4816 -0.976286,-1.0702 z m 15.583715,0.5931 c -1.529721,-0.6649 -1.265756,-0.8048 0.393002,-0.2083 1.3203,0.4748 1.590849,0.474 3.440001,-0.01 2.461792,-0.6436 2.868693,-0.4983 0.54048,0.1931 -2.054948,0.6103 -3.013798,0.6157 -4.373483,0.025 z m -2.56,-1.4797 c -1.090725,-0.6985 -1.443699,-1.1676 -0.48,-0.6379 0.734218,0.4036 1.884426,1.293 1.68,1.2991 -0.088,0 -0.628,-0.2949 -1.2,-0.6612 z m 10.387484,-0.2855 c 1.380308,-0.7916 1.726207,-1.1744 2.008457,-2.2226 0.353981,-1.3146 1.06219,-2.2551 1.698117,-2.2551 0.202592,0 0.05244,0.2213 -0.333676,0.4917 -0.386113,0.2705 -0.857877,1.0705 -1.048365,1.7779 -0.272449,1.0118 -0.663274,1.4873 -1.831829,2.2283 -0.817018,0.5182 -1.637295,0.9407 -1.822838,0.9391 -0.185542,0 0.413018,-0.4334 1.330134,-0.9593 z m 23.496094,0.04 c -0.110617,-1.9349 -2.239808,-3.7798 -5.444889,-4.718 -1.47178,-0.4309 -1.472708,-0.432 -0.198688,-0.2495 2.931804,0.4201 6.171011,3.1897 5.829184,4.9841 l -0.142029,0.7456 z m 16.3016868,-2.1026 c -0.013888,-0.3436 -0.493264,-1.1188 -1.0652638,-1.7226 -0.905255,-0.9556 -0.932845,-1.0298 -0.212941,-0.5731 0.9725216,0.617 1.7192704,1.8768 1.4753888,2.4889 -0.108208,0.2717 -0.1812832,0.2001 -0.197184,-0.1932 z m -11.6912578,-2.1577 c -0.306,-0.518 -0.470333,-1.0278 -0.365184,-1.133 0.105149,-0.1051 0.191178,-0.051 0.191178,0.121 0,0.1717 0.18702,0.5679 0.4156,0.8805 0.394752,0.5399 0.475692,0.533 1.613664,-0.1385 0.658934,-0.3887 1.287913,-0.617 1.397731,-0.5072 0.109821,0.1098 0.05177,0.1997 -0.129008,0.1997 -0.180771,0 -0.832439,0.3419 -1.448147,0.7597 l -1.119472,0.7597 z m -22.487917,-0.7993 c 0.31135,-0.081 0.74335,-0.076 0.96,0.012 0.21665,0.088 -0.03809,0.1541 -0.56609,0.1475 -0.528,-0.01 -0.70526,-0.078 -0.39391,-0.1593 z m 30.633911,-0.1473 c -0.44,-0.1806 -1.664,-0.2591 -2.72,-0.1744 -1.158653,0.093 -1.666218,0.05 -1.28,-0.1088 1.000169,-0.4106 3.421997,-0.3237 4.48,0.1607 1.111469,0.509 0.710393,0.6113 -0.48,0.1225 z m -28.080001,-0.1801 c 0.484,-0.073 1.276,-0.073 1.76,0 0.484,0.073 0.088,0.1333 -0.88,0.1333 -0.968,0 -1.364,-0.06 -0.88,-0.1333 z m 6.0844,-3e-4 c 0.48642,-0.074 1.20642,-0.072 1.600001,0 0.39358,0.076 -0.0044,0.1362 -0.8844,0.1338 -0.880001,0 -1.20202,-0.065 -0.715601,-0.1381 z m -24.040595,-0.3766 c -0.352279,-0.2231 -0.275326,-0.5508 0.4,-1.7032 1.810582,-3.0895 0.373055,-5.0427 -3.414601,-4.6395 -1.049504,0.1117 -1.431601,0.077 -1.029204,-0.094 1.029582,-0.4374 2.996711,-0.3557 4.006405,0.1664 1.773196,0.917 2.036489,2.3847 0.804797,4.4865 -0.850438,1.451 -0.790459,1.7501 0.350997,1.7501 1.690849,0 4.092316,-3.0893 5.063947,-6.5144 0.292452,-1.0309 0.58998,-1.8161 0.661175,-1.7449 0.354539,0.3545 -1.284042,4.5501 -2.328202,5.9614 -1.685926,2.2786 -3.290914,3.1075 -4.515314,2.3317 z m 21.319927,0.06 c 0.398051,-0.077 0.974051,-0.074 1.28,0.01 0.305948,0.08 -0.01974,0.1428 -0.723732,0.1392 -0.704,0 -0.95432,-0.069 -0.556268,-0.1456 z m 15.414579,-1.1061 c -0.936109,-2.2599 -3.231434,-4.0734 -5.973341,-4.7194 -0.893523,-0.2105 -0.998195,-0.2904 -0.404969,-0.309 1.143584,-0.036 3.500476,1.1052 4.748041,2.2989 1.048432,1.0031 2.471283,3.3492 2.197354,3.6232 -0.07659,0.077 -0.331776,-0.3256 -0.567085,-0.8937 z m -44.458311,-3.9477 c 0.44,-0.2515 0.944,-0.4573 1.12,-0.4573 0.176,0 -0.04,0.2058 -0.48,0.4573 -0.44,0.2515 -0.944,0.4573 -1.12,0.4573 -0.176,0 0.04,-0.2058 0.48,-0.4573 z m 1.92,-0.8 c 0.264,-0.1706 0.624,-0.3102 0.8,-0.3102 0.176,0 0.104,0.1396 -0.16,0.3102 -0.264,0.1706 -0.624,0.3102 -0.8,0.3102 -0.176,0 -0.104,-0.1396 0.16,-0.3102 z m 35.273287,-1.4171 c 0.395542,-0.6034 0.761363,-1.0549 0.812934,-1.0033 0.15904,0.159 -1.031097,2.0962 -1.289161,2.0984 -0.133619,9e-4 0.08068,-0.4917 0.476227,-1.0951 z m -21.997494,-2.0493 c 0.347168,-0.4105 1.070489,-0.93 1.607381,-1.1543 2.587354,-1.0811 4.934462,-5.0724 5.204817,-8.851 l 0.158003,-2.2083 -1.882996,-0.028 c -1.035649,-0.015 -2.602998,-0.1523 -3.482998,-0.304 -1.542578,-0.2661 -1.526537,-0.2708 0.446941,-0.132 1.125818,0.079 2.764755,0.144 3.642083,0.144 h 1.59514 l -0.151178,2.3557 c -0.246643,3.8432 -2.990095,8.5889 -5.387082,9.3186 -0.432247,0.1316 -1.144874,0.5467 -1.583614,0.9225 l -0.797711,0.6832 z m 23.102867,-0.6936 c 0.10472,-0.792 0.242365,-1.5 0.305872,-1.5733 0.24072,-0.278 0.05772,1.7621 -0.212893,2.3733 -0.189222,0.4273 -0.220115,0.1615 -0.09298,-0.8 z m 7.429177,-0.4633 c -1.986156,-0.5477 -4.749766,-1.8491 -5.727836,-2.6971 -0.52714,-0.457 -0.254279,-0.3648 0.8,0.2704 2.221609,1.3385 5.03694,2.2777 7.68,2.5621 2.217913,0.2386 2.222646,0.2411 0.48,0.2558 -0.968,0.01 -2.422474,-0.1678 -3.232164,-0.3912 z m -38.127837,-0.069 c 0.22,-0.089 0.58,-0.089 0.8,0 0.22,0.089 0.04,0.1614 -0.4,0.1614 -0.44,0 -0.62,-0.073 -0.4,-0.1614 z m 3.295821,-0.1963 c 3.864667,-1.1157 5.503237,-3.4057 4.444048,-6.211 -0.260546,-0.69 -0.252082,-0.8137 0.03617,-0.5286 0.704548,0.6968 0.716762,3.0559 0.02155,4.1626 -0.78892,1.2558 -3.10296,2.6478 -4.733313,2.8474 -1.190008,0.1457 -1.183527,0.1381 0.231542,-0.2704 z m 41.26418,-0.1497 c 1.144685,-0.46 1.653283,-0.935 2.48,-2.3162 1.161699,-1.9409 1.434131,-1.8336 0.314736,0.124 -0.835911,1.4618 -1.932272,2.3276 -3.274736,2.586 -0.661584,0.1273 -0.512375,0 0.48,-0.3938 z m -46.778217,-0.7216 c -1.67087,-1.3773 -2.822967,-3.8572 -2.816884,-6.0633 0.0027,-0.9775 0.117328,-1.9542 0.254739,-2.1705 0.137411,-0.2163 0.190417,0.5399 0.11779,1.6805 -0.112721,1.7702 -0.0044,2.3347 0.740196,3.8566 0.552243,1.1287 1.34664,2.1264 2.165323,2.7195 0.711192,0.5152 1.160281,0.9367 0.997974,0.9367 -0.162306,0 -0.818918,-0.4318 -1.459138,-0.9595 z m 33.412457,-1.6005 c 0,-0.616 0.06586,-0.868 0.146345,-0.56 0.08049,0.308 0.08049,0.812 0,1.12 -0.08049,0.308 -0.146345,0.056 -0.146345,-0.56 z m 17.085798,-3.084 c 0.473783,-3.8239 -2.244665,-6.9373 -6.070851,-6.9528 -1.212791,0 -1.391389,-0.065 -0.819383,-0.2769 1.462826,-0.5411 4.42706,0.6332 5.841527,2.3142 1.1596,1.3781 1.637459,3.3202 1.217581,4.9485 l -0.332912,1.291 z m -12.20713,-0.1692 c -0.700099,-0.5572 -1.920908,-1.6189 -2.712908,-2.3592 -0.792,-0.7404 -1.728,-1.5041 -2.08,-1.6971 -0.352,-0.1931 -0.463696,-0.3554 -0.248218,-0.3608 0.215482,-0.01 1.421126,0.8903 2.67921,1.9903 1.258083,1.1 2.629779,2.264 3.048214,2.5867 l 0.760794,0.5867 v -1.8964 c 0,-2.1665 0.942998,-4.3263 2.247952,-5.1486 0.722102,-0.4551 0.712902,-0.4228 -0.10418,0.366 -1.258006,1.2143 -1.823772,2.7702 -1.823772,5.0153 0,1.0617 -0.111191,1.9303 -0.247092,1.9303 -0.135897,0 -0.819897,-0.4559 -1.52,-1.0132 z m -30.128626,-2.8237 -1.335718,-1.2609 1.096314,-0.6776 c 0.602973,-0.3726 1.276046,-0.605 1.495718,-0.5163 0.268098,0.1082 0.23871,0.1695 -0.0894,0.1864 -0.268839,0.014 -0.821458,0.2583 -1.228044,0.5431 l -0.739246,0.5178 1.212987,1.2422 c 1.572977,1.6109 1.306884,1.5885 -0.412616,-0.035 z m -10.181602,-1.6031 c 0.761402,-1.4245 2.525824,-3.1683 4.040768,-3.9938 1.492448,-0.8131 2.092548,-0.9442 4.596551,-1.0039 l 2.88,-0.069 -2.892437,0.2364 c -3.443835,0.2816 -5.701636,1.3296 -7.268039,3.3737 -1.218543,1.5901 -1.710742,2.1184 -1.356843,1.4563 z m 33.980497,-0.6192 c -0.719145,-1.2174 -0.6948,-1.3083 0.336823,-1.2572 0.784512,0.039 0.799651,0.059 0.139536,0.1849 -0.713636,0.1363 -0.721405,0.1705 -0.214429,0.9442 0.289315,0.4416 0.470953,0.8579 0.403641,0.9252 -0.06731,0.067 -0.366822,-0.2914 -0.665571,-0.7971 z m 1.856823,-1.6208 c 0.879708,-0.378 1.38495,-0.378 0.8,0 -0.264,0.1706 -0.696,0.3023 -0.96,0.2926 -0.3165,-0.012 -0.261997,-0.1113 0.16,-0.2926 z m -17.440001,-0.6589 c 0,-0.1864 -0.110883,-0.2703 -0.246409,-0.1866 -0.135523,0.084 -1.683524,-0.2589 -3.439999,-0.7616 -1.756476,-0.5026 -2.977133,-0.9227 -2.712573,-0.9334 0.411187,-0.017 3.201735,0.7104 5.3804,1.4019 0.466354,0.148 0.679535,0.045 0.764962,-0.3681 0.0838,-0.4056 -0.446665,-0.9597 -1.813975,-1.8947 -2.649817,-1.812 -6.43718,-5.8115 -7.255923,-7.6624 -0.402973,-0.911 -0.689602,-2.2691 -0.714654,-3.386 -0.04423,-1.9723 -0.203033,-2.1212 -1.481829,-1.3902 -1.27058,0.7263 -3.337207,0.5829 -5.210638,-0.3617 -2.304835,-1.162 -7.082676,-6.0246 -9.359434,-9.5254 -2.03729,-3.1325 -3.516229,-6.3776 -3.806797,-8.3529 -0.143121,-0.9729 -0.04834,-0.8194 0.395099,0.64 1.40924,4.6379 4.339122,9.3146 8.343322,13.3176 4.292866,4.2916 6.9213,5.2447 10.278448,3.7272 l 1.12,-0.5063 0.02277,2.1307 c 0.0155,1.4506 0.242847,2.6234 0.712192,3.6738 0.86346,1.9326 4.300336,5.5231 7.151469,7.4712 1.194072,0.8158 2.09745,1.6024 2.007507,1.748 -0.08994,0.1455 -0.0078,0.5556 0.182525,0.9112 0.233447,0.4362 0.238263,0.6466 0.01478,0.6466 -0.182179,0 -0.331245,-0.1525 -0.331245,-0.3389 z m 20.651533,-0.717 c 3.73234,-2.0122 7.935889,-5.717 8.45458,-7.4515 0.206499,-0.6906 0.286016,-0.7619 0.306384,-0.2748 0.04213,1.0078 -1.342125,2.6608 -4.062356,4.8512 -2.268908,1.827 -5.693142,3.9412 -6.354934,3.9237 -0.151363,0 0.593984,-0.4758 1.656326,-1.0486 z m -16.940185,-1.4435 c -0.278749,-0.539 -0.411367,-1.2288 -0.294701,-1.5328 0.134576,-0.3507 0.08752,-0.4758 -0.128736,-0.3421 -0.432723,0.2674 -0.846605,-0.755 -0.461507,-1.1401 0.169846,-0.1698 0.500272,0.2447 0.8079,1.0135 0.286282,0.7155 0.599511,1.3009 0.696064,1.3009 0.323168,0 2.069632,-1.3971 2.069632,-1.6556 0,-0.1403 -0.659964,-0.4214 -1.466585,-0.6245 -1.007047,-0.2536 -1.332922,-0.454 -1.04,-0.6397 0.591459,-0.3749 0.985545,-0.3468 0.738659,0.053 -0.134691,0.218 0.09619,0.2571 0.668842,0.1134 0.593936,-0.1491 0.80559,-0.108 0.659641,0.1282 -0.141981,0.2297 0.140416,0.3141 0.832272,0.2487 0.575946,-0.054 0.731069,-0.037 0.34472,0.038 -0.426525,0.083 -0.637664,0.3064 -0.53752,0.5673 0.137181,0.3575 0.309207,0.3545 1.022451,-0.018 0.471636,-0.246 1.28952,-0.4381 1.81752,-0.4268 0.825149,0.018 0.8701,0.059 0.32,0.2955 -0.352,0.1513 -0.995472,0.2851 -1.429936,0.2975 -0.502358,0.014 -1.394624,0.6197 -2.450918,1.6628 l -1.660982,1.6404 -0.506816,-0.9801 z m 1.903708,-0.7632 1.264944,-1.3426 -1.214377,0.8899 c -1.001571,0.7339 -1.299069,0.8195 -1.697677,0.4887 -0.424624,-0.3524 -0.436067,-0.2974 -0.09426,0.4527 0.213971,0.4697 0.408701,0.8539 0.432733,0.8539 0.02403,0 0.612915,-0.6042 1.308633,-1.3426 z m 9.664945,-1.1093 c 0.22,-0.089 0.58,-0.089 0.8,0 0.22,0.089 0.04,0.1614 -0.4,0.1614 -0.44,0 -0.62,-0.073 -0.4,-0.1614 z m -4.669725,-0.4736 c 0.994832,-0.2796 8.599008,-0.2894 9.297517,-0.012 0.301286,0.1196 -1.83609,0.2186 -4.749725,0.2201 -2.913635,0 -4.960141,-0.092 -4.547792,-0.2081 z m 9.869725,-0.2745 c -0.397472,-0.2569 -0.369965,-0.3102 0.16,-0.3102 0.352,0 0.856,0.1396 1.12,0.3102 0.397472,0.2569 0.369964,0.3102 -0.16,0.3102 -0.352,0 -0.856,-0.1396 -1.12,-0.3102 z m 1.6,-0.3508 c -0.367469,-0.261 -0.267408,-0.2944 0.426812,-0.1423 0.638884,0.14 0.839776,0.09 0.679927,-0.1684 -0.158615,-0.2566 -0.01018,-0.2983 0.493261,-0.1385 0.490585,0.1557 0.650348,0.1156 0.501187,-0.1257 -0.211517,-0.3423 0.18248,-0.4873 1.023875,-0.377 0.222787,0.029 0.366787,-0.1112 0.32,-0.3119 -0.106909,-0.4587 0.922627,-1.1644 1.238256,-0.8487 0.128707,0.1287 0.04249,0.4116 -0.191597,0.6286 -0.341184,0.3164 -0.375725,0.3071 -0.174125,-0.047 0.172266,-0.3024 0.11145,-0.3906 -0.193052,-0.28 -0.2445,0.089 -0.406503,0.3296 -0.360007,0.5351 0.0465,0.2055 -0.529504,0.6523 -1.28,0.993 -1.579014,0.7167 -1.832841,0.7456 -2.484537,0.2826 z m -20.684701,-1.0366 c -0.552583,-0.3809 -1.452583,-0.9379 -2,-1.2377 -0.550716,-0.3016 -0.9953,-0.8059 -0.9953,-1.1288 0,-0.7846 0.925479,-2.0652 1.317434,-1.823 0.197027,0.1218 0.17225,0.3642 -0.06663,0.6521 -0.620323,0.7474 -0.633043,2.0019 -0.02019,1.9908 0.291162,-0.01 1.393386,0.3713 2.449386,0.837 1.444259,0.6369 1.644042,0.7931 0.806278,0.6302 -1.00416,-0.1951 -1.071136,-0.1651 -0.680819,0.3052 0.549568,0.6622 0.429367,0.6287 -0.81016,-0.2258 z m 27.446464,-4.8281 c -0.378771,-1.2829 -0.554691,-1.4717 -1.543901,-1.6573 -0.614029,-0.1152 -1.827888,-0.1251 -2.697462,-0.022 -0.970544,0.1149 -1.5081,0.069 -1.392135,-0.1185 0.103904,-0.1681 -0.13936,-0.2698 -0.540579,-0.2261 -0.983738,0.1072 -1.505869,-1.4257 -1.529626,-4.4908 -0.02019,-2.6048 0.49864,-4.2029 1.619338,-4.9879 0.85161,-0.5965 1.562602,-0.6797 1.562602,-0.1829 0,0.1864 -0.142861,0.2506 -0.317466,0.1427 -0.174605,-0.1079 -0.570605,-0.049 -0.88,0.1314 -0.49649,0.2891 -0.468608,0.3346 0.237466,0.3877 0.44,0.033 0.978451,0.054 1.196556,0.046 0.218106,-0.01 0.302484,0.1379 0.187504,0.3239 -0.129945,0.2103 -0.0092,0.2616 0.319181,0.1356 0.329978,-0.1267 0.860103,0.1028 1.412493,0.6114 0.486346,0.4478 0.685584,0.7105 0.442752,0.5838 -0.293856,-0.1533 -0.391958,-0.082 -0.293334,0.2142 0.0815,0.2445 0.321433,0.4445 0.533187,0.4445 0.567577,0 1.014586,0.8716 0.800073,1.5601 -0.125219,0.4019 -0.06572,0.5251 0.180132,0.3732 0.259865,-0.1606 0.302989,0.029 0.147613,0.6476 -0.159613,0.636 -0.115444,0.8103 0.161907,0.6389 0.286749,-0.1773 0.32728,0.1881 0.163321,1.4722 -0.276896,2.1686 -0.451385,2.3771 -0.451385,0.5394 0,-2.4182 -0.815876,-4.5467 -2.233764,-5.8277 -1.544828,-1.3956 -2.839072,-1.8084 -3.267875,-1.0422 -0.163731,0.2926 -0.448272,0.4389 -0.63231,0.3252 -0.213063,-0.1317 -0.259312,0.03 -0.127319,0.4463 0.114016,0.3592 0.05744,0.7458 -0.125715,0.859 -0.553206,0.3419 -0.402966,4.2709 0.202509,5.2958 0.63184,1.0697 1.208835,1.262 3.803312,1.2678 1.068934,0 2.159478,0.1839 2.430602,0.4044 0.579318,0.4712 1.34583,2.2942 1.17727,2.7999 -0.06461,0.1938 -0.30983,-0.2991 -0.544947,-1.0954 z m -2.281763,-9.6132 c 0,-0.082 -0.324,-0.3058 -0.72,-0.4977 -0.691402,-0.335 -0.695325,-0.3291 -0.09884,0.1487 0.652883,0.5231 0.818839,0.5938 0.81884,0.349 z m -4.037901,-0.9879 c 0.109277,-0.2848 0.05563,-0.4132 -0.125763,-0.3011 -0.173984,0.1075 -0.316336,0.331 -0.316336,0.4966 0,0.4603 0.229366,0.3589 0.442099,-0.1955 z m -13.375421,9.4134 c 0.162477,-0.2629 -0.195155,-0.3002 -1.295283,-0.1352 -1.134967,0.1702 -1.460439,0.1319 -1.285533,-0.1511 0.171993,-0.2783 -0.04207,-0.3183 -0.805863,-0.1505 -0.792723,0.1741 -0.981145,0.1331 -0.792304,-0.1725 0.186138,-0.3011 0.03024,-0.3462 -0.62678,-0.1813 -0.591095,0.1483 -0.805303,0.1074 -0.660916,-0.1262 0.143226,-0.2317 -0.08521,-0.282 -0.693187,-0.1526 -0.721136,0.1535 -0.797453,0.1231 -0.37272,-0.1486 0.389079,-0.2489 1.127613,-0.2037 2.72,0.1665 3.145859,0.7311 8.801236,0.7472 9.945908,0.028 0.22,-0.1382 0.4,-0.1142 0.4,0.053 0,0.4362 -0.867261,0.7086 -1.492493,0.4687 -0.366167,-0.1405 -0.457747,-0.083 -0.293191,0.1828 0.175799,0.2845 0.0072,0.329 -0.635232,0.1678 -0.618524,-0.1553 -0.808201,-0.1122 -0.647929,0.1471 0.160873,0.2603 -0.341338,0.3667 -1.731155,0.3667 -1.378833,0 -1.891399,-0.1074 -1.733322,-0.3632 z m 20.037322,-0.3408 c -0.2112,-0.2112 -0.379623,-0.5352 -0.374269,-0.72 0.0053,-0.1848 0.156506,-0.084 0.335901,0.224 0.405699,0.6965 2.120265,0.7416 3.664646,0.096 0.610346,-0.255 1.109722,-0.3916 1.109722,-0.3036 0,0.088 -0.499376,0.3686 -1.109722,0.6236 -1.34792,0.5632 -3.104166,0.6018 -3.626278,0.08 z m -29.664001,-2.0354 c -1.056,-0.6223 -1.590372,-1.041 -1.187495,-0.9305 0.787657,0.2161 0.77153,0.3871 0.214669,-2.2769 -0.123489,-0.5908 -0.06342,-0.7592 0.210408,-0.59 0.271393,0.1678 0.328217,0.027 0.194713,-0.484 -0.235101,-0.8991 0.04221,-1.6851 0.495616,-1.4049 0.215817,0.1334 0.263555,0.01 0.130134,-0.3384 -0.142003,-0.3701 -0.08983,-0.4744 0.16,-0.32 0.249831,0.1544 0.302003,0.05 0.16,-0.32 -0.142003,-0.3701 -0.08983,-0.4744 0.16,-0.32 0.242067,0.1496 0.304698,0.057 0.180477,-0.2667 -0.228714,-0.596 1.328848,-2.1599 1.931478,-1.9393 0.225501,0.083 0.369501,-0.043 0.32,-0.2799 -0.05821,-0.2781 0.170893,-0.4019 0.648589,-0.3505 0.444279,0.048 0.656743,-0.053 0.533187,-0.2528 -0.134553,-0.2177 0.10738,-0.2572 0.701412,-0.1145 1.177612,0.2829 1.34974,0.4478 0.467398,0.4478 -1.751539,0 -3.98009,1.7626 -4.833475,3.8228 -0.220762,0.533 -0.492675,0.9127 -0.60425,0.8438 -0.111573,-0.069 -0.238337,0.6802 -0.281698,1.6647 -0.09113,2.0691 0.525586,2.9969 2.404178,3.6169 0.816157,0.2693 0.994851,0.4404 0.672944,0.6444 -0.608809,0.3856 -0.541872,0.4069 -2.678285,-0.852 z m 0.48,-0.3006 c -0.2191,-0.264 -0.560732,-0.4754 -0.759182,-0.4698 -0.19845,0.01 -0.08129,0.2216 0.260344,0.48 0.797974,0.6035 1.004691,0.5993 0.498838,-0.01 z m 1.28,-8 c 0.41336,-0.44 0.679562,-0.8 0.591562,-0.8 -0.088,0 -0.498202,0.36 -0.911562,0.8 -0.41336,0.44 -0.679561,0.8 -0.591561,0.8 0.088,0 0.498201,-0.36 0.911561,-0.8 z m 12.932349,6.9591 c -0.314336,-1.3635 -0.559356,-2.8124 -0.544492,-3.2199 0.01485,-0.4074 -0.04948,-0.6642 -0.142989,-0.5707 -0.09351,0.093 -0.583379,-0.4007 -1.088605,-1.0981 -0.505226,-0.6974 -1.489226,-1.6814 -2.186666,-2.1867 -0.697443,-0.5052 -1.173814,-1.0128 -1.058605,-1.128 0.11521,-0.1152 -0.06963,-0.1836 -0.410758,-0.1519 -0.34113,0.032 -1.124234,0.02 -1.740234,-0.025 -1.047449,-0.077 -1.068176,-0.099 -0.32,-0.3388 1.178388,-0.3774 1.665956,-0.3656 1.418813,0.034 -0.143929,0.2329 -0.008,0.2873 0.396698,0.1589 1.564749,-0.4967 5.847958,3.7865 5.351325,5.3513 -0.131936,0.4157 -0.07617,0.542 0.171709,0.3888 0.258643,-0.1599 0.308396,0.041 0.1684,0.6799 -0.159984,0.7301 -0.126055,0.8133 0.174115,0.4268 0.298003,-0.3837 0.336275,-0.2681 0.190701,0.5759 -0.1241,0.7195 -0.07081,0.9871 0.167276,0.84 0.241568,-0.1493 0.2789,0.105 0.120964,0.8241 -0.159652,0.7269 -0.121773,0.9742 0.125782,0.8212 0.198826,-0.1229 0.354218,-0.01 0.354218,0.261 0,0.264 -0.129629,0.5602 -0.288068,0.6581 -0.158438,0.098 -0.545251,-0.9376 -0.859584,-2.3011 z m -0.960672,-4.6391 c -0.664704,-1.176 -1.769728,-2.3851 -2.641456,-2.8904 -0.75855,-0.4396 -0.565385,-0.1363 0.842845,1.3233 1.942922,2.0139 2.156211,2.1998 1.798611,1.5671 z m 9.708324,6.297 c -1.222906,-0.6635 -1.109962,-0.9124 0.124355,-0.2741 1.707373,0.883 3.155645,-0.3154 3.155645,-2.6111 0,-0.7597 -0.02662,-0.7691 -0.778541,-0.2764 -0.60361,0.3955 -0.926317,0.431 -1.436221,0.1581 -0.823181,-0.4405 -1.215187,-1.8429 -0.658864,-2.3569 0.316154,-0.2922 0.354368,-0.2828 0.170445,0.042 -0.340509,0.6006 0.04982,1.8775 0.6436,2.1054 0.750029,0.2878 1.734925,-0.3651 1.772249,-1.1749 0.02598,-0.5636 0.09963,-0.5005 0.359834,0.3088 0.463152,1.4404 0.05887,3.1527 -0.927555,3.9286 -0.978042,0.7694 -1.253325,0.7865 -2.424947,0.1509 z m 14.8095038,-2.5517 c 3.1321472,-3.288 5.6574177,-6.9446 8.3388129,-12.0748 1.0321472,-1.9748 1.8800192,-3.4702 1.8841568,-3.3231 0.00413,0.147 -0.7141248,1.6722 -1.596144,3.3893 -2.9117376,5.6686 -7.1515809,11.4942 -10.0763297,13.845 -0.704,0.5659 -0.051725,-0.2605 1.449504,-1.8364 z m -32.8962368,1.5605 c -0.696666,-0.2803 -1.353268,-1.9315 -1.353268,-3.4032 0,-1.0652 0.198234,-1.623 0.812135,-2.2855 0.446675,-0.4819 1.013369,-0.799 1.259325,-0.7047 0.245955,0.094 0.50878,-3e-4 0.584057,-0.2104 0.07527,-0.2101 0.240579,-0.286 0.367341,-0.1687 0.126762,0.1174 -0.06952,0.5134 -0.436192,0.88 -1.539034,1.5391 0.121664,3.8517 1.936598,2.6969 l 0.756736,-0.4815 -0.718832,0.636 c -1.417776,1.2544 -3.422144,-0.3752 -2.726931,-2.217 0.415888,-1.1018 0.04424,-1.1999 -0.861769,-0.2274 -0.901876,0.9681 -0.896144,3.3836 0.01075,4.5365 0.511577,0.6504 0.945299,0.8432 1.89678,0.8432 2.218119,0 3.108276,-2.065 2.103664,-4.88 -0.513529,-1.439 -0.38343,-1.5545 0.288119,-0.2559 1.275293,2.4662 -0.02371,5.4806 -2.340227,5.4306 -0.644356,-0.014 -1.354586,-0.099 -1.578288,-0.1889 z m -8.073268,-0.7558 c 0,-0.1705 0.216,-0.31 0.48,-0.31 0.264,0 0.48,0.057 0.48,0.1258 0,0.069 -0.216,0.2086 -0.48,0.3099 -0.264,0.1013 -0.48,0.045 -0.48,-0.1257 z m 25.729597,-3.75 c 0.335277,-0.396 0.911277,-0.7033 1.28,-0.6829 0.644765,0.036 0.645927,0.043 0.0304,0.1931 -0.352,0.086 -0.928,0.393 -1.28,0.6828 -0.634745,0.5227 -0.634995,0.5211 -0.0304,-0.193 z m -17.169597,-5.4119 c 0.22,-0.089 0.58,-0.089 0.8,0 0.22,0.089 0.04,0.1614 -0.4,0.1614 -0.44,0 -0.62,-0.073 -0.4,-0.1614 z m 17.711898,-4.8323 c 0.01754,-1.3617 0.138947,-2.8358 0.269789,-3.2758 0.130838,-0.44 0.168512,0.532 0.08372,2.16 -0.08479,1.628 -0.05505,2.96 0.0661,2.96 0.121155,0 0.658508,-0.2266 1.194124,-0.5036 0.535616,-0.277 1.029306,-0.4481 1.097088,-0.3803 0.06778,0.068 -0.5216,0.4365 -1.309737,0.8194 l -1.432979,0.6962 z m -19.871898,1.0195 -0.8,-0.482 0.768407,0.2103 c 0.649241,0.1776 0.733744,0.1199 0.544896,-0.3722 -0.122931,-0.3204 -0.289546,-1.237 -0.370256,-2.0369 -0.124624,-1.2352 -0.07722,-1.1534 0.314409,0.5426 0.253636,1.0984 0.550967,2.1424 0.660736,2.32 0.282554,0.4572 -0.183449,0.3814 -1.118192,-0.1818 z m 23.360001,-0.4553 c 0.264,-0.1706 0.624,-0.3102 0.8,-0.3102 0.176,0 0.104,0.1396 -0.16,0.3102 -0.264,0.1706 -0.624,0.3102 -0.8,0.3102 -0.176,0 -0.104,-0.1396 0.16,-0.3102 z m -28.640001,-1.4554 c -2.112,-0.7635 -3.673936,-1.3964 -3.470969,-1.4064 0.430869,-0.021 6.763977,2.1513 7.470969,2.5629 0.936436,0.5452 -0.208211,0.2142 -4,-1.1565 z m 26.252001,0.8348 c -0.102176,-0.1653 -0.09105,-0.8929 0.02474,-1.6169 0.178716,-1.1177 0.524272,-1.5826 2.288681,-3.0795 4.02698,-3.4163 4.416384,-3.4242 4.136314,-0.084 -0.100938,1.204 -0.317808,2.429 -0.481936,2.7223 -0.164125,0.2933 -1.424682,0.9439 -2.801235,1.4457 -2.784692,1.0153 -2.903124,1.0381 -3.166548,0.6119 z m 3.091238,-0.8994 c 1.368736,-0.484 2.572858,-1.096 2.675827,-1.36 0.394989,-1.0127 0.557789,-4.8 0.20633,-4.8 -0.32832,0 -5.02817,3.6351 -5.302848,4.1014 -0.290685,0.4936 -0.559735,2.9386 -0.32336,2.9386 0.140493,0 1.375315,-0.396 2.744051,-0.88 z m 0.927191,0.916 c 1.443436,-0.9398 10.7428412,-2.7896 12.6254716,-2.5114 0.7653025,0.1131 0.6944769,0.1486 -0.373984,0.1875 -2.5779776,0.094 -7.8032546,1.1616 -12.2666596,2.5069 -0.423405,0.1277 -0.421203,0.1011 0.01517,-0.183 z m -29.132005,-1.6265 c -1.309866,-0.4793 -2.567509,-1.1516 -2.794761,-1.4939 -0.427589,-0.6439 -1.099433,-5.6155 -0.727834,-5.3858 0.115287,0.071 0.293896,1.1348 0.396907,2.3636 0.103011,1.2287 0.329451,2.4996 0.503199,2.8243 0.174533,0.3261 1.150113,0.8512 2.179985,1.1733 1.784924,0.5582 3.81375,1.4725 3.144079,1.4168 -0.176,-0.015 -1.391708,-0.4189 -2.701575,-0.8983 z m 3.02179,-0.09 c -0.07683,-0.22 -0.180317,-1.048 -0.229959,-1.84 -0.08842,-1.4107 -0.139657,-1.4725 -2.519224,-3.04 -1.335932,-0.88 -2.703932,-1.7851 -3.04,-2.0112 -0.336067,-0.2262 0.115714,-0.039 1.003958,0.4154 0.888245,0.4547 2.328246,1.365 3.199999,2.0228 1.516064,1.1439 1.592138,1.2755 1.748826,3.0245 0.161027,1.7974 0.112678,2.2196 -0.1636,1.4285 z m -10.672103,-1.0828 c -0.941539,-0.2556 -3.245539,-0.7349 -5.12,-1.0651 -1.874462,-0.3302 -2.994204,-0.612 -2.488317,-0.6263 1.05274,-0.03 8.350567,1.4021 9.509678,1.8655 1.142227,0.4568 0.05651,0.3573 -1.901361,-0.1741 z m 51.8718889,-0.032 c 0.83599999,-0.066 2.204,-0.066 3.04,0 0.836,0.066 0.152,0.1198 -1.52000001,0.1198 -1.67199999,0 -2.35599999,-0.054 -1.51999999,-0.1198 z m -40.1783299,-2.8048 c 0.09689,-1.408 0.230646,-2.62 0.297245,-2.6933 0.215977,-0.2379 0.08119,2.3336 -0.199882,3.8133 -0.205626,1.0825 -0.229795,0.8045 -0.09736,-1.12 z m 14.526966,-0.7905 c -0.07059,-2.9286 0.54433,-9.2288 0.969152,-9.9295 0.207728,-0.3426 0.243757,-0.2511 0.125895,0.32 -0.728487,3.5297 -1.055127,11.52 -0.470935,11.52 0.183012,0 0.897274,-0.288 1.587252,-0.64 0.689977,-0.352 1.36824,-0.6342 1.507251,-0.6272 0.307705,0.016 -1.245168,0.8704 -2.640103,1.4532 l -1.017734,0.4252 z m 6.245687,1.3028 0.197478,-1.0877 -1.235901,0.1986 c -0.843232,0.1356 -1.083395,0.1014 -0.7559,-0.1074 0.697273,-0.4445 1.914032,-0.3837 2.101596,0.1051 0.08883,0.2315 0.01162,0.7715 -0.171619,1.2 -0.292745,0.6846 -0.309193,0.6472 -0.135654,-0.3086 z m -43.788593,0.3758 c 0.575152,-0.071 1.439152,-0.07 1.92,0 0.480848,0.073 0.01027,0.1312 -1.045731,0.1294 -1.056,0 -1.449421,-0.062 -0.874269,-0.1327 z m -7.525731,-0.3254 c 1.188,-0.062 3.132,-0.062 4.32,0 1.188,0.062 0.216,0.1119 -2.16,0.1119 -2.376,0 -3.348,-0.05 -2.16,-0.1119 z m 34.532202,-3.5248 c -1.443661,-2.1548 -2.551869,-3.9179 -2.462685,-3.9179 0.08918,0 1.235642,1.6065 2.54768,3.57 2.280643,3.413 2.394643,3.529 2.592906,2.64 0.481427,-2.159 0.911885,-3.1053 2.221917,-4.8849 1.249808,-1.6977 5.614729,-5.8051 6.169107,-5.8051 0.123581,0 -0.348115,0.4674 -1.048218,1.0387 -4.258198,3.4748 -6.085212,5.901 -6.871005,9.1242 l -0.524867,2.1529 z m -3.515901,-0.5579 c -0.01069,-0.352 0.09972,-1.216 0.245341,-1.92 0.222605,-1.0762 0.264589,-1.1272 0.263699,-0.32 -0.0013,1.1209 -0.479181,3.2241 -0.50904,2.24 z"
         id="path4524"
         sodipodi:nodetypes="ssssssssssscssscsscssssssssssscssscscsccsscssssssscssssscsssssssssssssscscscccsscsscssccccccsssssssssssscccccsssscssssssssssssscssssccccscssscsssssscssscccsscssssssscssscsssssssssssssccsscsssscsscssssssccsssscscccsccssccsscscssscsscscsssssssssssscsssssssscssscccsssssssssssccsccscscccccsssssccssccsccssssscsssscsssscssccssssscsssssssssssssscscsssssssssssssssssscsssssssssssscsssssssscssscsssccssssssssssscscsssscscssssssscsscsssssssscscssscccscssssssssssccsssscssssscssssccssssssssscsscscsssssssssssssssscssscsscssssssscsscsssssssssssscsscsssscccsssssssssssssscssscssssscssssscsscsscsssssssssscscsscssssscccccsssssssssssscsssss" />
    </g>
    <path
       style="line-height:normal;text-indent:0;text-align:start;text-decoration:none;text-decoration-line:none;text-decoration-style:solid;text-decoration-color:#000000;text-transform:none;isolation:auto;mix-blend-mode:normal;fill:#0e6103;fill-opacity:1;stroke-width:84.9798"
       d="m -77.22075,899.87859 -60.08077,60.08074 139.91926,139.91927 -139.91926,139.9192 60.08077,60.0808 200.00848,-200 z"
       font-weight="400"
       font-family="sans-serif"
       white-space="normal"
       overflow="visible"
       id="path1318"
       sodipodi:nodetypes="ccccccc" />
  </g>
</svg>
