<?xml version="1.0" encoding="UTF-8" standalone="no"?>
<svg
   version="1.1"
   id="svg883"
   width="2560"
   height="1440"
   viewBox="0 0 2560 1440"
   sodipodi:docname="defensive-shell-scripting-with-shell-options.svg"
   inkscape:version="1.3 (0e150ed, 2023-07-21)"
   xml:space="preserve"
   xmlns:inkscape="http://www.inkscape.org/namespaces/inkscape"
   xmlns:sodipodi="http://sodipodi.sourceforge.net/DTD/sodipodi-0.dtd"
   xmlns="http://www.w3.org/2000/svg"
   xmlns:svg="http://www.w3.org/2000/svg"
   xmlns:rdf="http://www.w3.org/1999/02/22-rdf-syntax-ns#"
   xmlns:cc="http://creativecommons.org/ns#"
   xmlns:dc="http://purl.org/dc/elements/1.1/"><metadata
     id="metadata889"><rdf:RDF><cc:Work
         rdf:about=""><dc:format>image/svg+xml</dc:format><dc:type
           rdf:resource="http://purl.org/dc/dcmitype/StillImage" /></cc:Work></rdf:RDF></metadata><defs
     id="defs887" /><sodipodi:namedview
     pagecolor="#ffffff"
     bordercolor="#666666"
     borderopacity="1"
     objecttolerance="10"
     gridtolerance="10"
     guidetolerance="10"
     inkscape:pageopacity="0"
     inkscape:pageshadow="2"
     inkscape:window-width="1920"
     inkscape:window-height="1110"
     id="namedview885"
     showgrid="false"
     showguides="true"
     inkscape:guide-bbox="true"
     inkscape:zoom="0.37556274"
     inkscape:cx="1026.4597"
     inkscape:cy="701.6138"
     inkscape:window-x="0"
     inkscape:window-y="39"
     inkscape:window-maximized="0"
     inkscape:current-layer="g891"
     inkscape:document-rotation="0"
     inkscape:showpageshadow="2"
     inkscape:pagecheckerboard="0"
     inkscape:deskcolor="#d1d1d1" /><g
     inkscape:groupmode="layer"
     inkscape:label="Image"
     id="g891"><rect
       style="fill:#343a40;fill-opacity:1;stroke-width:15;stroke-linecap:round;stroke-linejoin:round"
       id="rect1252"
       width="2560"
       height="1440"
       x="0"
       y="0" /><path
       style="line-height:normal;text-indent:0;text-align:start;text-decoration:none;text-decoration-line:none;text-decoration-style:solid;text-decoration-color:#000000;text-transform:none;isolation:auto;mix-blend-mode:normal;fill:#ffffff;fill-opacity:1;stroke-width:94.5841"
       d="m 904.6716,497.39633 -66.871,66.87096 155.73266,155.73268 -155.73266,155.7327 66.871,66.871 222.6132,-222.6037 z"
       font-weight="400"
       font-family="sans-serif"
       white-space="normal"
       overflow="visible"
       id="path1318"
       sodipodi:nodetypes="ccccccc" /><g
       style="fill:#ffffff"
       id="g2"
       transform="matrix(20.256759,0,0,20.256759,1296.8075,477.24326)"><path
         fill-rule="evenodd"
         clip-rule="evenodd"
         d="M 12.7056,1.29136 12.7045,1.29032 12.7023,1.28812 12.6989,1.28483 c -0.0017,-0.0017 -0.0023,-0.0022 -0.0023,-0.0022 l 0.0012,0.00111 c 0.0026,0.00253 0.0052,0.00507 0.0078,0.00762 z M 11.3022,1.28374 C 11.3002,1.28552 11.2961,1.28933 11.2896,1.29508 11.2719,1.31064 11.237,1.34044 11.1829,1.38252 11.0748,1.46665 10.8893,1.60023 10.6105,1.76751 10.0531,2.10195 9.12034,2.57246 7.68377,3.05132 6.21419,3.54118 5.25494,3.77921 4.67888,3.89442 4.39127,3.95194 4.20126,3.97843 4.09269,3.99049 4.0385,3.99651 4.00499,3.9989 3.99011,3.99977 3.98708,3.99995 3.98335,4.00014 3.98335,4.00014 3.43875,4.00903 3,4.45328 3,5 v 7 c 0,3.4464 2.28175,6.2003 4.3415,8.0026 1.05088,0.9195 2.09704,1.6382 2.8785,2.1266 0.4959,0.31 0.9847,0.6162 1.5364,0.7994 0.1581,0.0525 0.3291,0.0525 0.4872,0 0.5517,-0.1832 1.0405,-0.4894 1.5364,-0.7994 0.7815,-0.4884 1.8276,-1.2071 2.8785,-2.1266 C 18.7183,18.2003 21,15.4464 21,12 V 5 c 0,-0.54673 -0.4387,-0.99098 -0.9834,-0.99986 0,0 -0.0037,-1.9e-4 -0.0067,-3.7e-4 C 19.995,3.9989 19.9615,3.99651 19.9073,3.99049 19.7987,3.97843 19.6087,3.95194 19.3211,3.89442 18.7451,3.77921 17.7858,3.54118 16.3162,3.05132 14.8797,2.57246 13.9469,2.10195 13.3895,1.76751 13.1107,1.60023 12.9252,1.46665 12.8171,1.38252 12.763,1.34044 12.7281,1.31064 12.7105,1.29508 12.7039,1.28933 12.6998,1.28552 12.6978,1.28374 c -0.3881,-0.378321 -1.0075,-0.378321 -1.3956,0 z M 12,3.25517 C 11.8933,3.32603 11.7735,3.40211 11.6395,3.48249 10.9469,3.89805 9.87966,4.42754 8.31623,4.94868 6.78581,5.45882 5.74506,5.72079 5.07112,5.85558 5.04695,5.86041 5.02325,5.86509 5,5.8696 V 12 c 0,2.5536 1.71825,4.7997 3.6585,6.4974 0.94912,0.8305 1.903,1.4868 2.6215,1.9359 0.2833,0.177 0.5284,0.3208 0.72,0.4295 0.1916,-0.1087 0.4367,-0.2525 0.72,-0.4295 0.7185,-0.4491 1.6724,-1.1054 2.6215,-1.9359 C 17.2817,16.7997 19,14.5536 19,12 V 5.8696 C 18.9768,5.86509 18.953,5.86041 18.9289,5.85558 18.2549,5.72079 17.2142,5.45882 15.6838,4.94868 14.1203,4.42754 13.0531,3.89805 12.3605,3.48249 12.2265,3.40211 12.1067,3.32603 12,3.25517 Z"
         fill="#000000"
         id="path1-9"
         style="fill:#ffffff" /></g></g></svg>
