<?xml version="1.0" encoding="UTF-8" standalone="no"?>
<svg
   xmlns:dc="http://purl.org/dc/elements/1.1/"
   xmlns:cc="http://creativecommons.org/ns#"
   xmlns:rdf="http://www.w3.org/1999/02/22-rdf-syntax-ns#"
   xmlns:svg="http://www.w3.org/2000/svg"
   xmlns="http://www.w3.org/2000/svg"
   xmlns:sodipodi="http://sodipodi.sourceforge.net/DTD/sodipodi-0.dtd"
   xmlns:inkscape="http://www.inkscape.org/namespaces/inkscape"
   width="1920"
   height="1080"
   viewBox="0 0 508 285.75001"
   version="1.1"
   id="svg8"
   inkscape:version="1.0.1 (c497b03c, 2020-09-10)"
   sodipodi:docname="faking-sequences-in-mysql.svg">
  <defs
     id="defs2">
    <filter
       style="color-interpolation-filters:sRGB;"
       inkscape:label="Brilliance"
       id="filter1007">
      <feColorMatrix
         values="10 -10 -10 0 10 -10 10 -10 0 10 -10 -10 10 0 10 0 0 0 1 0 "
         id="feColorMatrix1005" />
    </filter>
  </defs>
  <sodipodi:namedview
     id="base"
     pagecolor="#ffffff"
     bordercolor="#666666"
     borderopacity="1.0"
     inkscape:pageopacity="0.0"
     inkscape:pageshadow="2"
     inkscape:zoom="0.33589188"
     inkscape:cx="976.50949"
     inkscape:cy="538.18643"
     inkscape:document-units="mm"
     inkscape:current-layer="layer1"
     inkscape:document-rotation="0"
     showgrid="false"
     units="px"
     inkscape:window-width="1792"
     inkscape:window-height="1020"
     inkscape:window-x="0"
     inkscape:window-y="23"
     inkscape:window-maximized="0" />
  <metadata
     id="metadata5">
    <rdf:RDF>
      <cc:Work
         rdf:about="">
        <dc:format>image/svg+xml</dc:format>
        <dc:type
           rdf:resource="http://purl.org/dc/dcmitype/StillImage" />
        <dc:title></dc:title>
      </cc:Work>
    </rdf:RDF>
  </metadata>
  <g
     inkscape:label="Layer 1"
     inkscape:groupmode="layer"
     id="layer1">
    <rect
       style="fill:#1f456d;fill-opacity:1;stroke:none;stroke-width:0.57192;stroke-linecap:square;stroke-linejoin:miter;stroke-miterlimit:4;stroke-dasharray:none;stroke-opacity:1;paint-order:markers stroke fill"
       id="rect902"
       width="508"
       height="285.75"
       x="-7.1054274e-14"
       y="-2.1316282e-14" />
    <g
       id="g1065"
       style="stroke:#ffffff;stroke-width:1.14607014;stroke-linecap:round;stroke-linejoin:round;stroke-miterlimit:4;stroke-dasharray:none;stroke-opacity:1;paint-order:normal"
       transform="matrix(3.4629207,0,0,3.4629207,-88.105116,-346.90334)">
      <path
         d="m 109.67249,119.98221 c -0.28011,0 -0.47766,0.0339 -0.67698,0.0829 v 0.0332 h 0.0321 c 0.13335,0.26352 0.36477,0.44661 0.52846,0.67733 0.133,0.26423 0.24871,0.5274 0.38065,0.79199 0.0162,-0.0162 0.0321,-0.0335 0.0321,-0.0335 0.23284,-0.16439 0.34819,-0.42827 0.34819,-0.82515 -0.0998,-0.11641 -0.11535,-0.23106 -0.19861,-0.34713 -0.0988,-0.16475 -0.31362,-0.2473 -0.44591,-0.37959"
         style="fill:#5b85a4;fill-opacity:1;fill-rule:evenodd;stroke:#ffffff;stroke-width:1.14607014;stroke-linecap:round;stroke-linejoin:round;stroke-miterlimit:4;stroke-dasharray:none;stroke-opacity:1;paint-order:normal"
         id="path1049" />
      <path
         d="M 83.404089,152.57359 H 81.11696 c -0.08061,-3.86045 -0.303424,-7.49046 -0.667914,-10.89092 h -0.02014 l -3.482304,10.89092 H 75.20518 l -3.461208,-10.89092 h -0.02039 c -0.256752,3.26566 -0.418253,6.89571 -0.485352,10.89092 h -2.085375 c 0.134761,-4.85884 0.471946,-9.41352 1.011731,-13.6652 h 2.834782 l 3.299707,10.0408 h 0.02025 l 3.319957,-10.0408 h 2.712403 c 0.593936,4.97942 0.944668,9.53562 1.052406,13.6652"
         style="fill:#2c7493;fill-opacity:1;fill-rule:nonzero;stroke:#ffffff;stroke-width:1.14607014;stroke-linecap:round;stroke-linejoin:round;stroke-miterlimit:4;stroke-dasharray:none;stroke-opacity:1;paint-order:normal"
         id="path1051" />
      <path
         d="m 93.323707,142.49159 c -0.931369,5.05354 -2.159882,8.72585 -3.684658,11.01686 -1.188156,1.76527 -2.489729,2.64788 -3.907014,2.64788 -0.377861,0 -0.843774,-0.11381 -1.396648,-0.33994 v -1.21821 c 0.270087,0.0395 0.587023,0.0606 0.951513,0.0606 0.661211,0 1.194082,-0.18274 1.599494,-0.54747 0.485493,-0.44443 0.728451,-0.94397 0.728451,-1.49754 0,-0.37811 -0.189477,-1.15398 -0.566808,-2.32763 l -2.510085,-7.79459 h 2.246878 l 1.80153,5.82965 c 0.404707,1.32359 0.573511,2.24758 0.505989,2.77425 0.985308,-2.63176 1.673649,-5.49988 2.065267,-8.6039 h 2.166091"
         style="fill:#2c7493;fill-opacity:1;fill-rule:nonzero;stroke:#ffffff;stroke-width:1.14607014;stroke-linecap:round;stroke-linejoin:round;stroke-miterlimit:4;stroke-dasharray:none;stroke-opacity:1;paint-order:normal"
         id="path1053" />
      <path
         d="m 123.76984,152.57359 h -6.49781 v -13.6652 h 2.18651 v 11.98425 h 4.3113 v 1.68095"
         style="fill:#f18513;fill-opacity:1;fill-rule:nonzero;stroke:#ffffff;stroke-width:1.14607014;stroke-linecap:round;stroke-linejoin:round;stroke-miterlimit:4;stroke-dasharray:none;stroke-opacity:1;paint-order:normal"
         id="path1055" />
      <path
         d="m 107.43376,149.83995 c -0.55351,-0.89076 -0.83079,-2.32018 -0.83079,-4.29119 0,-3.44096 1.04634,-5.16269 3.13796,-5.16269 1.09361,0 1.89618,0.41176 2.40947,1.23444 0.5528,0.89119 0.83009,2.30822 0.83009,4.25168 0,3.46851 -1.04634,5.20347 -3.13796,5.20347 -1.09326,0 -1.89618,-0.41134 -2.40877,-1.23571 m 8.13788,3.06313 -2.51178,-1.2386 c 0.22366,-0.18341 0.43603,-0.38128 0.6283,-0.61034 1.06645,-1.25374 1.6002,-3.10938 1.6002,-5.56616 0,-4.52078 -1.77483,-6.78244 -5.32412,-6.78244 -1.74096,0 -3.09775,0.57327 -4.0693,1.72145 -1.0668,1.25525 -1.59949,3.10392 -1.59949,5.5469 0,2.40203 0.47202,4.16416 1.41676,5.28352 0.86395,1.01177 2.1664,1.51832 3.90771,1.51832 0.65017,0 1.24672,-0.08 1.78894,-0.24017 l 3.27096,1.90348 0.89182,-1.53596"
         style="fill:#f18513;fill-opacity:1;fill-rule:evenodd;stroke:#ffffff;stroke-width:1.14607014;stroke-linecap:round;stroke-linejoin:round;stroke-miterlimit:4;stroke-dasharray:none;stroke-opacity:1;paint-order:normal"
         id="path1057" />
      <path
         d="m 103.3426,148.78578 c 0,1.15891 -0.42581,2.11032 -1.27459,2.85471 -0.84949,0.74112 -1.99072,1.11266 -3.419828,1.11266 -1.336675,0 -2.632075,-0.42763 -3.886905,-1.27592 l 0.587022,-1.17384 c 1.079853,0.53979 2.057047,0.80935 2.934406,0.80935 0.82303,0 1.467203,-0.18317 1.933225,-0.54505 0.46496,-0.36449 0.74365,-0.87284 0.74365,-1.51761 0,-0.81139 -0.56585,-1.50495 -1.604078,-2.08679 -0.958497,-0.52599 -2.874081,-1.62415 -2.874081,-1.62415 -1.037872,-0.7571 -1.558219,-1.56944 -1.558219,-2.90791 0,-1.10698 0.388055,-2.00177 1.163108,-2.68249 0.776817,-0.68213 1.779059,-1.0232 3.006373,-1.0232 1.268587,0 2.422167,0.33856 3.461107,1.01325 l -0.52776,1.17274 c -0.889,-0.37691 -1.76565,-0.5661 -2.629959,-0.5661 -0.701322,0 -1.241777,0.16838 -1.618544,0.50712 -0.378883,0.33581 -0.613128,0.76796 -0.613128,1.29466 0,0.8093 0.578203,1.5113 1.645708,2.10439 0.970492,0.52627 2.932993,1.64567 2.932993,1.64567 1.06751,0.75572 1.5995,1.56143 1.5995,2.88851"
         style="fill:#f18513;fill-opacity:1;fill-rule:nonzero;stroke:#ffffff;stroke-width:1.14607014;stroke-linecap:round;stroke-linejoin:round;stroke-miterlimit:4;stroke-dasharray:none;stroke-opacity:1;paint-order:normal"
         id="path1059" />
      <path
         d="m 126.51375,134.33096 c -1.32151,-0.0331 -2.34492,0.0988 -3.20322,0.46235 -0.24765,0.099 -0.64347,0.099 -0.67734,0.41271 0.133,0.13187 0.14887,0.34629 0.26529,0.52874 0.19756,0.3302 0.54363,0.7753 0.85796,1.00708 0.34678,0.2643 0.69356,0.52751 1.05727,0.75861 0.64347,0.39797 1.37019,0.62812 1.99672,1.02457 0.36442,0.23083 0.72637,0.5278 1.09079,0.77612 0.18098,0.13201 0.29563,0.34699 0.52776,0.42869 v -0.05 c -0.11642,-0.14813 -0.14887,-0.36283 -0.26388,-0.52889 -0.16475,-0.16383 -0.3302,-0.31337 -0.49565,-0.47776 -0.47907,-0.64382 -1.07421,-1.20467 -1.71662,-1.66702 -0.52881,-0.36421 -1.68522,-0.85961 -1.899,-1.46868 0,0 -0.0173,-0.0175 -0.0335,-0.0338 0.36337,-0.0335 0.7934,-0.1658 1.13983,-0.26595 0.56056,-0.14817 1.07244,-0.11466 1.65029,-0.26282 0.26459,-0.0665 0.52882,-0.14965 0.79411,-0.23083 v -0.14964 c -0.29881,-0.29655 -0.51259,-0.69342 -0.82621,-0.97385 -0.84137,-0.72623 -1.76706,-1.43566 -2.7245,-2.03098 -0.51259,-0.3303 -1.17299,-0.54391 -1.71803,-0.82528 -0.1972,-0.0992 -0.52705,-0.14813 -0.64311,-0.31419 -0.29739,-0.36311 -0.4632,-0.8413 -0.67734,-1.27127 -0.47836,-0.9071 -0.94156,-1.91392 -1.35361,-2.87313 -0.29703,-0.64346 -0.47871,-1.28693 -0.84208,-1.88171 -1.70144,-2.80741 -3.55,-4.50709 -6.38986,-6.17503 -0.61101,-0.34713 -1.33738,-0.49565 -2.11279,-0.67733 -0.41345,-0.0173 -0.82585,-0.0494 -1.2386,-0.0656 -0.26458,-0.11606 -0.52917,-0.43003 -0.75988,-0.57855 -0.94157,-0.59408 -3.36762,-1.88172 -4.06153,-0.18133 -0.44591,1.07386 0.6604,2.13007 1.04034,2.67512 0.28046,0.37923 0.64417,0.80927 0.84137,1.23789 0.11571,0.28081 0.14888,0.57856 0.26494,0.87524 0.26388,0.72637 0.51117,1.53565 0.85866,2.21298 0.18098,0.34678 0.37888,0.71049 0.60995,1.0227 0.13335,0.18274 0.36372,0.26423 0.41346,0.56233 -0.23036,0.32985 -0.24836,0.82515 -0.3803,1.23825 -0.59407,1.86584 -0.36336,4.17738 0.47908,5.54757 0.26352,0.41272 0.89182,1.32112 1.7339,0.97356 0.74295,-0.29668 0.57785,-1.23786 0.79234,-2.0629 0.0494,-0.19953 0.0162,-0.33045 0.115,-0.46235 v 0.0334 c 0.23107,0.46165 0.46285,0.90632 0.67734,1.37019 0.51258,0.80821 1.40335,1.65047 2.147,2.21132 0.39511,0.29834 0.70909,0.80934 1.20439,0.99152 v -0.0499 h -0.0325 c -0.0995,-0.14816 -0.24765,-0.2147 -0.37994,-0.32977 -0.29704,-0.2974 -0.62653,-0.66079 -0.85866,-0.99082 -0.69321,-0.92424 -1.30493,-1.94853 -1.84856,-3.0051 -0.26493,-0.51304 -0.49565,-1.07389 -0.71049,-1.58542 -0.0988,-0.1972 -0.0988,-0.49526 -0.26423,-0.59407 -0.24836,0.36283 -0.61066,0.67701 -0.79199,1.12144 -0.31397,0.71081 -0.34678,1.5857 -0.4632,2.49425 -0.0656,0.0173 -0.0324,0 -0.0656,0.0328 -0.52776,-0.13201 -0.70944,-0.67677 -0.90805,-1.13756 -0.4953,-1.17384 -0.57856,-3.05601 -0.14852,-4.40997 0.115,-0.34608 0.61171,-1.43581 0.41275,-1.76601 -0.0998,-0.31503 -0.42969,-0.49495 -0.61101,-0.74365 -0.21414,-0.31362 -0.44662,-0.70909 -0.59373,-1.05657 -0.39652,-0.92428 -0.59584,-1.9484 -1.02376,-2.87267 -0.19826,-0.43004 -0.54575,-0.87595 -0.8255,-1.27141 -0.31432,-0.44592 -0.66075,-0.75954 -0.90875,-1.28729 -0.0819,-0.18203 -0.19756,-0.47943 -0.066,-0.67698 0.0324,-0.13229 0.0995,-0.18203 0.23177,-0.2152 0.21343,-0.18168 0.82515,0.049 1.03928,0.14817 0.61137,0.24695 1.12325,0.47943 1.63442,0.8255 0.23143,0.16545 0.47908,0.47907 0.77576,0.56233 h 0.34749 c 0.52811,0.11465 1.12289,0.0321 1.61854,0.18133 0.87454,0.28045 1.66688,0.6932 2.37737,1.13912 2.16218,1.37054 3.94547,3.31928 5.15021,5.64691 0.19861,0.37924 0.28186,0.72637 0.46319,1.12183 0.34678,0.81069 0.77647,1.63619 1.12254,2.42793 0.34643,0.77611 0.67733,1.56795 1.17334,2.21287 0.24695,0.34614 1.2379,0.52779 1.68381,0.70954 0.32949,0.14813 0.84208,0.28042 1.13947,0.46178 0.56127,0.34615 1.12148,0.74302 1.65065,1.12339 0.26352,0.19815 1.08938,0.61045 1.13912,0.94118"
         style="fill:#2c7493;fill-opacity:1;fill-rule:evenodd;stroke:#ffffff;stroke-width:1.14607014;stroke-linecap:round;stroke-linejoin:round;stroke-miterlimit:4;stroke-dasharray:none;stroke-opacity:1;paint-order:normal"
         id="path1061" />
      <path
         d="m 125.33053,152.57221 h 0.3623 v -1.39033 h 0.47414 v -0.28399 h -1.32892 v 0.28399 h 0.49248 z m 2.75696,0 h 0.34149 v -1.67432 h -0.51365 l -0.41804,1.14128 -0.45508,-1.14128 h -0.49495 v 1.67432 h 0.32315 v -1.27427 h 0.0183 l 0.4766,1.27427 h 0.24624 l 0.4759,-1.27427 v 1.27427"
         style="fill:#f18513;fill-opacity:1;fill-rule:nonzero;stroke:#ffffff;stroke-width:1.14607014;stroke-linecap:round;stroke-linejoin:round;stroke-miterlimit:4;stroke-dasharray:none;stroke-opacity:1;paint-order:normal"
         id="path1063" />
    </g>
    <g
       id="g900"
       style="stroke:none;stroke-width:0.76404676;stroke-linecap:round;stroke-linejoin:round;stroke-miterlimit:4;stroke-dasharray:none;stroke-opacity:1;paint-order:markers stroke fill"
       transform="matrix(3.4629207,0,0,3.4629207,-88.105116,-346.90334)">
      <path
         d="m 109.67249,119.98221 c -0.28011,0 -0.47766,0.0339 -0.67698,0.0829 v 0.0332 h 0.0321 c 0.13335,0.26352 0.36477,0.44661 0.52846,0.67733 0.133,0.26423 0.24871,0.5274 0.38065,0.79199 0.0162,-0.0162 0.0321,-0.0335 0.0321,-0.0335 0.23284,-0.16439 0.34819,-0.42827 0.34819,-0.82515 -0.0998,-0.11641 -0.11535,-0.23106 -0.19861,-0.34713 -0.0988,-0.16475 -0.31362,-0.2473 -0.44591,-0.37959"
         style="fill:#5b85a4;fill-opacity:1;fill-rule:evenodd;stroke:none;stroke-width:0.76404676;stroke-linecap:round;stroke-linejoin:round;stroke-miterlimit:4;stroke-dasharray:none;stroke-opacity:1;paint-order:markers stroke fill"
         id="path24" />
      <path
         d="M 83.404089,152.57359 H 81.11696 c -0.08061,-3.86045 -0.303424,-7.49046 -0.667914,-10.89092 h -0.02014 l -3.482304,10.89092 H 75.20518 l -3.461208,-10.89092 h -0.02039 c -0.256752,3.26566 -0.418253,6.89571 -0.485352,10.89092 h -2.085375 c 0.134761,-4.85884 0.471946,-9.41352 1.011731,-13.6652 h 2.834782 l 3.299707,10.0408 h 0.02025 l 3.319957,-10.0408 h 2.712403 c 0.593936,4.97942 0.944668,9.53562 1.052406,13.6652"
         style="fill:#2c7493;fill-opacity:1;fill-rule:nonzero;stroke:none;stroke-width:0.76404676;stroke-linecap:round;stroke-linejoin:round;stroke-miterlimit:4;stroke-dasharray:none;stroke-opacity:1;paint-order:markers stroke fill"
         id="path26" />
      <path
         d="m 93.323707,142.49159 c -0.931369,5.05354 -2.159882,8.72585 -3.684658,11.01686 -1.188156,1.76527 -2.489729,2.64788 -3.907014,2.64788 -0.377861,0 -0.843774,-0.11381 -1.396648,-0.33994 v -1.21821 c 0.270087,0.0395 0.587023,0.0606 0.951513,0.0606 0.661211,0 1.194082,-0.18274 1.599494,-0.54747 0.485493,-0.44443 0.728451,-0.94397 0.728451,-1.49754 0,-0.37811 -0.189477,-1.15398 -0.566808,-2.32763 l -2.510085,-7.79459 h 2.246878 l 1.80153,5.82965 c 0.404707,1.32359 0.573511,2.24758 0.505989,2.77425 0.985308,-2.63176 1.673649,-5.49988 2.065267,-8.6039 h 2.166091"
         style="fill:#2c7493;fill-opacity:1;fill-rule:nonzero;stroke:none;stroke-width:0.76404676;stroke-linecap:round;stroke-linejoin:round;stroke-miterlimit:4;stroke-dasharray:none;stroke-opacity:1;paint-order:markers stroke fill"
         id="path28" />
      <path
         d="m 123.76984,152.57359 h -6.49781 v -13.6652 h 2.18651 v 11.98425 h 4.3113 v 1.68095"
         style="fill:#f18513;fill-opacity:1;fill-rule:nonzero;stroke:none;stroke-width:0.76404676;stroke-linecap:round;stroke-linejoin:round;stroke-miterlimit:4;stroke-dasharray:none;stroke-opacity:1;paint-order:markers stroke fill"
         id="path30" />
      <path
         d="m 107.43376,149.83995 c -0.55351,-0.89076 -0.83079,-2.32018 -0.83079,-4.29119 0,-3.44096 1.04634,-5.16269 3.13796,-5.16269 1.09361,0 1.89618,0.41176 2.40947,1.23444 0.5528,0.89119 0.83009,2.30822 0.83009,4.25168 0,3.46851 -1.04634,5.20347 -3.13796,5.20347 -1.09326,0 -1.89618,-0.41134 -2.40877,-1.23571 m 8.13788,3.06313 -2.51178,-1.2386 c 0.22366,-0.18341 0.43603,-0.38128 0.6283,-0.61034 1.06645,-1.25374 1.6002,-3.10938 1.6002,-5.56616 0,-4.52078 -1.77483,-6.78244 -5.32412,-6.78244 -1.74096,0 -3.09775,0.57327 -4.0693,1.72145 -1.0668,1.25525 -1.59949,3.10392 -1.59949,5.5469 0,2.40203 0.47202,4.16416 1.41676,5.28352 0.86395,1.01177 2.1664,1.51832 3.90771,1.51832 0.65017,0 1.24672,-0.08 1.78894,-0.24017 l 3.27096,1.90348 0.89182,-1.53596"
         style="fill:#f18513;fill-opacity:1;fill-rule:evenodd;stroke:none;stroke-width:0.76404676;stroke-linecap:round;stroke-linejoin:round;stroke-miterlimit:4;stroke-dasharray:none;stroke-opacity:1;paint-order:markers stroke fill"
         id="path32" />
      <path
         d="m 103.3426,148.78578 c 0,1.15891 -0.42581,2.11032 -1.27459,2.85471 -0.84949,0.74112 -1.99072,1.11266 -3.419828,1.11266 -1.336675,0 -2.632075,-0.42763 -3.886905,-1.27592 l 0.587022,-1.17384 c 1.079853,0.53979 2.057047,0.80935 2.934406,0.80935 0.82303,0 1.467203,-0.18317 1.933225,-0.54505 0.46496,-0.36449 0.74365,-0.87284 0.74365,-1.51761 0,-0.81139 -0.56585,-1.50495 -1.604078,-2.08679 -0.958497,-0.52599 -2.874081,-1.62415 -2.874081,-1.62415 -1.037872,-0.7571 -1.558219,-1.56944 -1.558219,-2.90791 0,-1.10698 0.388055,-2.00177 1.163108,-2.68249 0.776817,-0.68213 1.779059,-1.0232 3.006373,-1.0232 1.268587,0 2.422167,0.33856 3.461107,1.01325 l -0.52776,1.17274 c -0.889,-0.37691 -1.76565,-0.5661 -2.629959,-0.5661 -0.701322,0 -1.241777,0.16838 -1.618544,0.50712 -0.378883,0.33581 -0.613128,0.76796 -0.613128,1.29466 0,0.8093 0.578203,1.5113 1.645708,2.10439 0.970492,0.52627 2.932993,1.64567 2.932993,1.64567 1.06751,0.75572 1.5995,1.56143 1.5995,2.88851"
         style="fill:#f18513;fill-opacity:1;fill-rule:nonzero;stroke:none;stroke-width:0.76404676;stroke-linecap:round;stroke-linejoin:round;stroke-miterlimit:4;stroke-dasharray:none;stroke-opacity:1;paint-order:markers stroke fill"
         id="path34" />
      <path
         d="m 126.51375,134.33096 c -1.32151,-0.0331 -2.34492,0.0988 -3.20322,0.46235 -0.24765,0.099 -0.64347,0.099 -0.67734,0.41271 0.133,0.13187 0.14887,0.34629 0.26529,0.52874 0.19756,0.3302 0.54363,0.7753 0.85796,1.00708 0.34678,0.2643 0.69356,0.52751 1.05727,0.75861 0.64347,0.39797 1.37019,0.62812 1.99672,1.02457 0.36442,0.23083 0.72637,0.5278 1.09079,0.77612 0.18098,0.13201 0.29563,0.34699 0.52776,0.42869 v -0.05 c -0.11642,-0.14813 -0.14887,-0.36283 -0.26388,-0.52889 -0.16475,-0.16383 -0.3302,-0.31337 -0.49565,-0.47776 -0.47907,-0.64382 -1.07421,-1.20467 -1.71662,-1.66702 -0.52881,-0.36421 -1.68522,-0.85961 -1.899,-1.46868 0,0 -0.0173,-0.0175 -0.0335,-0.0338 0.36337,-0.0335 0.7934,-0.1658 1.13983,-0.26595 0.56056,-0.14817 1.07244,-0.11466 1.65029,-0.26282 0.26459,-0.0665 0.52882,-0.14965 0.79411,-0.23083 v -0.14964 c -0.29881,-0.29655 -0.51259,-0.69342 -0.82621,-0.97385 -0.84137,-0.72623 -1.76706,-1.43566 -2.7245,-2.03098 -0.51259,-0.3303 -1.17299,-0.54391 -1.71803,-0.82528 -0.1972,-0.0992 -0.52705,-0.14813 -0.64311,-0.31419 -0.29739,-0.36311 -0.4632,-0.8413 -0.67734,-1.27127 -0.47836,-0.9071 -0.94156,-1.91392 -1.35361,-2.87313 -0.29703,-0.64346 -0.47871,-1.28693 -0.84208,-1.88171 -1.70144,-2.80741 -3.55,-4.50709 -6.38986,-6.17503 -0.61101,-0.34713 -1.33738,-0.49565 -2.11279,-0.67733 -0.41345,-0.0173 -0.82585,-0.0494 -1.2386,-0.0656 -0.26458,-0.11606 -0.52917,-0.43003 -0.75988,-0.57855 -0.94157,-0.59408 -3.36762,-1.88172 -4.06153,-0.18133 -0.44591,1.07386 0.6604,2.13007 1.04034,2.67512 0.28046,0.37923 0.64417,0.80927 0.84137,1.23789 0.11571,0.28081 0.14888,0.57856 0.26494,0.87524 0.26388,0.72637 0.51117,1.53565 0.85866,2.21298 0.18098,0.34678 0.37888,0.71049 0.60995,1.0227 0.13335,0.18274 0.36372,0.26423 0.41346,0.56233 -0.23036,0.32985 -0.24836,0.82515 -0.3803,1.23825 -0.59407,1.86584 -0.36336,4.17738 0.47908,5.54757 0.26352,0.41272 0.89182,1.32112 1.7339,0.97356 0.74295,-0.29668 0.57785,-1.23786 0.79234,-2.0629 0.0494,-0.19953 0.0162,-0.33045 0.115,-0.46235 v 0.0334 c 0.23107,0.46165 0.46285,0.90632 0.67734,1.37019 0.51258,0.80821 1.40335,1.65047 2.147,2.21132 0.39511,0.29834 0.70909,0.80934 1.20439,0.99152 v -0.0499 h -0.0325 c -0.0995,-0.14816 -0.24765,-0.2147 -0.37994,-0.32977 -0.29704,-0.2974 -0.62653,-0.66079 -0.85866,-0.99082 -0.69321,-0.92424 -1.30493,-1.94853 -1.84856,-3.0051 -0.26493,-0.51304 -0.49565,-1.07389 -0.71049,-1.58542 -0.0988,-0.1972 -0.0988,-0.49526 -0.26423,-0.59407 -0.24836,0.36283 -0.61066,0.67701 -0.79199,1.12144 -0.31397,0.71081 -0.34678,1.5857 -0.4632,2.49425 -0.0656,0.0173 -0.0324,0 -0.0656,0.0328 -0.52776,-0.13201 -0.70944,-0.67677 -0.90805,-1.13756 -0.4953,-1.17384 -0.57856,-3.05601 -0.14852,-4.40997 0.115,-0.34608 0.61171,-1.43581 0.41275,-1.76601 -0.0998,-0.31503 -0.42969,-0.49495 -0.61101,-0.74365 -0.21414,-0.31362 -0.44662,-0.70909 -0.59373,-1.05657 -0.39652,-0.92428 -0.59584,-1.9484 -1.02376,-2.87267 -0.19826,-0.43004 -0.54575,-0.87595 -0.8255,-1.27141 -0.31432,-0.44592 -0.66075,-0.75954 -0.90875,-1.28729 -0.0819,-0.18203 -0.19756,-0.47943 -0.066,-0.67698 0.0324,-0.13229 0.0995,-0.18203 0.23177,-0.2152 0.21343,-0.18168 0.82515,0.049 1.03928,0.14817 0.61137,0.24695 1.12325,0.47943 1.63442,0.8255 0.23143,0.16545 0.47908,0.47907 0.77576,0.56233 h 0.34749 c 0.52811,0.11465 1.12289,0.0321 1.61854,0.18133 0.87454,0.28045 1.66688,0.6932 2.37737,1.13912 2.16218,1.37054 3.94547,3.31928 5.15021,5.64691 0.19861,0.37924 0.28186,0.72637 0.46319,1.12183 0.34678,0.81069 0.77647,1.63619 1.12254,2.42793 0.34643,0.77611 0.67733,1.56795 1.17334,2.21287 0.24695,0.34614 1.2379,0.52779 1.68381,0.70954 0.32949,0.14813 0.84208,0.28042 1.13947,0.46178 0.56127,0.34615 1.12148,0.74302 1.65065,1.12339 0.26352,0.19815 1.08938,0.61045 1.13912,0.94118"
         style="fill:#2c7493;fill-opacity:1;fill-rule:evenodd;stroke:none;stroke-width:0.76404676;stroke-linecap:round;stroke-linejoin:round;stroke-miterlimit:4;stroke-dasharray:none;stroke-opacity:1;paint-order:markers stroke fill"
         id="path36" />
      <path
         d="m 125.33053,152.57221 h 0.3623 v -1.39033 h 0.47414 v -0.28399 h -1.32892 v 0.28399 h 0.49248 z m 2.75696,0 h 0.34149 v -1.67432 h -0.51365 l -0.41804,1.14128 -0.45508,-1.14128 h -0.49495 v 1.67432 h 0.32315 v -1.27427 h 0.0183 l 0.4766,1.27427 h 0.24624 l 0.4759,-1.27427 v 1.27427"
         style="fill:#f18513;fill-opacity:1;fill-rule:nonzero;stroke:none;stroke-width:0.76404676;stroke-linecap:round;stroke-linejoin:round;stroke-miterlimit:4;stroke-dasharray:none;stroke-opacity:1;paint-order:markers stroke fill"
         id="path38" />
    </g>
    <g
       aria-label="1, 2, 3, 4, 5, 6 ..."
       id="text1011"
       style="font-style:normal;font-weight:normal;font-size:22.5778px;line-height:1.25;font-family:sans-serif;fill:#ffffff;fill-opacity:1;stroke:none;stroke-width:0.264583">
      <path
         d="m 166.05902,228.96068 h -8.8856 v -1.6757 h 3.41754 v -11.00227 h -3.41754 v -1.4993 q 0.69453,0 1.48828,-0.11025 0.79375,-0.12126 1.20165,-0.34175 0.50712,-0.27561 0.79375,-0.69453 0.29766,-0.42995 0.34176,-1.14653 h 1.70876 v 14.79463 h 3.3514 z"
         style="font-style:normal;font-variant:normal;font-weight:normal;font-stretch:normal;font-size:22.5778px;font-family:Verdana;-inkscape-font-specification:Verdana;fill:#ffffff;stroke-width:0.264583"
         id="path1067" />
      <path
         d="m 174.82335,225.81875 -3.10886,7.22093 h -1.60955 l 1.91823,-7.22093 z"
         style="font-style:normal;font-variant:normal;font-weight:normal;font-stretch:normal;font-size:22.5778px;font-family:Verdana;-inkscape-font-specification:Verdana;fill:#ffffff;stroke-width:0.264583"
         id="path1069" />
      <path
         d="m 197.51139,228.96068 h -11.11251 v -2.30408 q 1.15755,-0.99219 2.31511,-1.98438 1.16858,-0.99219 2.17179,-1.97335 2.11667,-2.05053 2.89939,-3.25218 0.78273,-1.21267 0.78273,-2.61276 0,-1.27882 -0.84887,-1.9954 -0.83785,-0.72761 -2.34818,-0.72761 -1.00321,0 -2.17179,0.35278 -1.16858,0.35278 -2.28204,1.08038 h -0.11024 v -2.3151 q 0.78273,-0.38585 2.0836,-0.70556 1.31189,-0.3197 2.53559,-0.3197 2.52457,0 3.95773,1.2237 1.43316,1.21267 1.43316,3.29627 0,0.93706 -0.24253,1.75286 -0.23152,0.80478 -0.69454,1.53238 -0.42994,0.68351 -1.01423,1.34497 -0.57327,0.66146 -1.40009,1.46623 -1.1796,1.15756 -2.43638,2.24896 -1.25677,1.08039 -2.34818,2.00643 h 8.83048 z"
         style="font-style:normal;font-variant:normal;font-weight:normal;font-stretch:normal;font-size:22.5778px;font-family:Verdana;-inkscape-font-specification:Verdana;fill:#ffffff;stroke-width:0.264583"
         id="path1071" />
      <path
         d="m 205.33866,225.81875 -3.10886,7.22093 h -1.60955 l 1.91823,-7.22093 z"
         style="font-style:normal;font-variant:normal;font-weight:normal;font-stretch:normal;font-size:22.5778px;font-family:Verdana;-inkscape-font-specification:Verdana;fill:#ffffff;stroke-width:0.264583"
         id="path1073" />
      <path
         d="m 226.58252,221.05624 q 0.52916,0.47405 0.87092,1.19063 0.34175,0.71658 0.34175,1.85208 0,1.12448 -0.4079,2.06155 -0.4079,0.93707 -1.14653,1.6316 -0.82682,0.7717 -1.9513,1.14653 -1.11346,0.3638 -2.4474,0.3638 -1.36702,0 -2.68993,-0.33073 -1.32292,-0.3197 -2.17179,-0.70555 v -2.30409 h 0.16536 q 0.93707,0.61737 2.20486,1.02527 1.2678,0.4079 2.4474,0.4079 0.69453,0 1.47726,-0.23152 0.78273,-0.23151 1.2678,-0.6835 0.50712,-0.48507 0.74965,-1.06936 0.25356,-0.58429 0.25356,-1.47726 0,-0.88195 -0.28663,-1.45521 -0.27561,-0.58429 -0.7717,-0.91502 -0.4961,-0.34175 -1.20166,-0.46302 -0.70555,-0.13229 -1.52135,-0.13229 h -0.99219 v -1.83004 h 0.7717 q 1.6757,0 2.66789,-0.69453 1.00321,-0.70556 1.00321,-2.05052 0,-0.59532 -0.25356,-1.03629 -0.25356,-0.452 -0.70556,-0.73863 -0.47404,-0.28663 -1.01423,-0.39687 -0.54019,-0.11025 -1.2237,-0.11025 -1.04731,0 -2.22691,0.37483 -1.17961,0.37483 -2.22692,1.05833 h -0.11024 V 213.24 q 0.78273,-0.38585 2.0836,-0.70555 1.31189,-0.33073 2.53559,-0.33073 1.20165,0 2.11667,0.22048 0.91502,0.22049 1.65365,0.70556 0.79375,0.52917 1.20165,1.27882 0.4079,0.74965 0.4079,1.75287 0,1.36701 -0.97014,2.39227 -0.95912,1.01424 -2.27101,1.27882 v 0.15434 q 0.52916,0.0882 1.21267,0.37483 0.68351,0.27561 1.15756,0.69453 z"
         style="font-style:normal;font-variant:normal;font-weight:normal;font-stretch:normal;font-size:22.5778px;font-family:Verdana;-inkscape-font-specification:Verdana;fill:#ffffff;stroke-width:0.264583"
         id="path1075" />
      <path
         d="m 235.85397,225.81875 -3.10886,7.22093 h -1.60955 l 1.91823,-7.22093 z"
         style="font-style:normal;font-variant:normal;font-weight:normal;font-stretch:normal;font-size:22.5778px;font-family:Verdana;-inkscape-font-specification:Verdana;fill:#ffffff;stroke-width:0.264583"
         id="path1077" />
      <path
         d="m 258.91684,224.34149 h -2.43637 v 4.61919 h -2.11667 v -4.61919 h -7.86034 v -2.53559 l 7.94853,-9.26043 h 2.02848 v 10.03213 h 2.43637 z m -4.55304,-1.76389 v -7.40834 l -6.36103,7.40834 z"
         style="font-style:normal;font-variant:normal;font-weight:normal;font-stretch:normal;font-size:22.5778px;font-family:Verdana;-inkscape-font-specification:Verdana;fill:#ffffff;stroke-width:0.264583"
         id="path1079" />
      <path
         d="m 266.36928,225.81875 -3.10886,7.22093 h -1.60955 l 1.91823,-7.22093 z"
         style="font-style:normal;font-variant:normal;font-weight:normal;font-stretch:normal;font-size:22.5778px;font-family:Verdana;-inkscape-font-specification:Verdana;fill:#ffffff;stroke-width:0.264583"
         id="path1081" />
      <path
         d="m 288.92503,223.74618 q 0,1.14653 -0.41893,2.19384 -0.41892,1.04731 -1.14653,1.76389 -0.79375,0.7717 -1.89618,1.19062 -1.09141,0.4079 -2.53559,0.4079 -1.34497,0 -2.59072,-0.28663 -1.24574,-0.27561 -2.10564,-0.67248 v -2.32613 h 0.15434 q 0.90399,0.57326 2.11667,0.98116 1.21267,0.39688 2.38125,0.39688 0.78273,0 1.51033,-0.22049 0.73863,-0.22049 1.3119,-0.7717 0.48507,-0.47405 0.7276,-1.13551 0.25356,-0.66146 0.25356,-1.53238 0,-0.84887 -0.29766,-1.43316 -0.28663,-0.58429 -0.80477,-0.93707 -0.57327,-0.41892 -1.40009,-0.58428 -0.8158,-0.17639 -1.83004,-0.17639 -0.97014,0 -1.87413,0.13229 -0.89297,0.13229 -1.54341,0.26458 v -8.45565 h 9.87779 v 1.92926 h -7.75009 v 4.36563 q 0.47404,-0.0441 0.97014,-0.0661 0.49609,-0.0221 0.85989,-0.0221 1.33395,0 2.33716,0.23151 1.00321,0.22049 1.84106,0.79375 0.88195,0.60634 1.36702,1.56546 0.48507,0.95911 0.48507,2.4033 z"
         style="font-style:normal;font-variant:normal;font-weight:normal;font-stretch:normal;font-size:22.5778px;font-family:Verdana;-inkscape-font-specification:Verdana;fill:#ffffff;stroke-width:0.264583"
         id="path1083" />
      <path
         d="m 296.88459,225.81875 -3.10886,7.22093 h -1.60955 l 1.91823,-7.22093 z"
         style="font-style:normal;font-variant:normal;font-weight:normal;font-stretch:normal;font-size:22.5778px;font-family:Verdana;-inkscape-font-specification:Verdana;fill:#ffffff;stroke-width:0.264583"
         id="path1085" />
      <path
         d="m 319.81516,223.63593 q 0,2.50252 -1.65365,4.09002 -1.64262,1.57648 -4.0349,1.57648 -1.21268,0 -2.20486,-0.37482 -0.99219,-0.37483 -1.75287,-1.11346 -0.94809,-0.91502 -1.46623,-2.42535 -0.50712,-1.51033 -0.50712,-3.63803 0,-2.18281 0.46302,-3.86953 0.47404,-1.68672 1.49931,-2.99861 0.97014,-1.24575 2.50252,-1.94028 1.53238,-0.70556 3.57187,-0.70556 0.65044,0 1.09141,0.0551 0.44097,0.0551 0.89297,0.19844 v 2.10564 h -0.11024 q -0.30868,-0.16536 -0.93707,-0.30868 -0.61736,-0.15434 -1.2678,-0.15434 -2.37022,0 -3.78134,1.48828 -1.41111,1.47726 -1.64262,4.00183 0.92604,-0.56224 1.81901,-0.84887 0.904,-0.29766 2.0836,-0.29766 1.04731,0 1.84106,0.19844 0.80478,0.18741 1.64262,0.7717 0.97014,0.67249 1.45521,1.69775 0.4961,1.02526 0.4961,2.49149 z m -2.23794,0.0882 q 0,-1.02526 -0.30868,-1.69775 -0.29766,-0.67248 -0.99219,-1.16857 -0.50712,-0.35278 -1.12448,-0.46303 -0.61736,-0.11024 -1.28984,-0.11024 -0.93707,0 -1.74185,0.22049 -0.80477,0.22048 -1.65364,0.6835 -0.0221,0.24254 -0.0331,0.47405 -0.011,0.22049 -0.011,0.56224 0,1.74184 0.35278,2.75608 0.3638,1.00321 0.99219,1.5875 0.50711,0.48507 1.0914,0.71658 0.59532,0.22049 1.28985,0.22049 1.59852,0 2.51354,-0.97014 0.91502,-0.98117 0.91502,-2.8112 z"
         style="font-style:normal;font-variant:normal;font-weight:normal;font-stretch:normal;font-size:22.5778px;font-family:Verdana;-inkscape-font-specification:Verdana;fill:#ffffff;stroke-width:0.264583"
         id="path1087" />
      <path
         d="m 334.42238,228.96068 h -2.63481 v -3.14193 h 2.63481 z"
         style="font-style:normal;font-variant:normal;font-weight:normal;font-stretch:normal;font-size:22.5778px;font-family:Verdana;-inkscape-font-specification:Verdana;fill:#ffffff;stroke-width:0.264583"
         id="path1089" />
      <path
         d="m 342.62448,228.96068 h -2.63481 v -3.14193 h 2.63481 z"
         style="font-style:normal;font-variant:normal;font-weight:normal;font-stretch:normal;font-size:22.5778px;font-family:Verdana;-inkscape-font-specification:Verdana;fill:#ffffff;stroke-width:0.264583"
         id="path1091" />
      <path
         d="m 350.82657,228.96068 h -2.63481 v -3.14193 h 2.63481 z"
         style="font-style:normal;font-variant:normal;font-weight:normal;font-stretch:normal;font-size:22.5778px;font-family:Verdana;-inkscape-font-specification:Verdana;fill:#ffffff;stroke-width:0.264583"
         id="path1093" />
    </g>
  </g>
</svg>
