<?xml version="1.0" encoding="UTF-8" standalone="no"?>
<svg
   xmlns:dc="http://purl.org/dc/elements/1.1/"
   xmlns:cc="http://creativecommons.org/ns#"
   xmlns:rdf="http://www.w3.org/1999/02/22-rdf-syntax-ns#"
   xmlns:svg="http://www.w3.org/2000/svg"
   xmlns="http://www.w3.org/2000/svg"
   xmlns:sodipodi="http://sodipodi.sourceforge.net/DTD/sodipodi-0.dtd"
   xmlns:inkscape="http://www.inkscape.org/namespaces/inkscape"
   version="1.1"
   id="svg883"
   width="2560"
   height="1440"
   viewBox="0 0 2560 1440"
   sodipodi:docname="finding-long-running-queries-in-postgresql.svg"
   inkscape:version="1.0.1 (c497b03c, 2020-09-10)">
  <metadata
     id="metadata889">
    <rdf:RDF>
      <cc:Work
         rdf:about="">
        <dc:format>image/svg+xml</dc:format>
        <dc:type
           rdf:resource="http://purl.org/dc/dcmitype/StillImage" />
        <dc:title></dc:title>
      </cc:Work>
    </rdf:RDF>
  </metadata>
  <defs
     id="defs887">
	
</defs>
  <sodipodi:namedview
     pagecolor="#ffffff"
     bordercolor="#666666"
     borderopacity="1"
     objecttolerance="10"
     gridtolerance="10"
     guidetolerance="10"
     inkscape:pageopacity="0"
     inkscape:pageshadow="2"
     inkscape:window-width="1792"
     inkscape:window-height="1005"
     id="namedview885"
     showgrid="false"
     showguides="true"
     inkscape:guide-bbox="true"
     inkscape:zoom="0.35355339"
     inkscape:cx="1333.736"
     inkscape:cy="620.97861"
     inkscape:window-x="0"
     inkscape:window-y="25"
     inkscape:window-maximized="0"
     inkscape:current-layer="g891"
     inkscape:document-rotation="0" />
  <g
     inkscape:groupmode="layer"
     inkscape:label="Image"
     id="g891">
    <rect
       style="fill:#336791;fill-opacity:1;stroke-width:15;stroke-linecap:round;stroke-linejoin:round"
       id="rect1252"
       width="2560"
       height="1440"
       x="0"
       y="0" />
    <g
       id="g1155"
       transform="matrix(1.1233025,0,0,1.1233025,1268.1493,470.00025)"
       style="fill:#336791;fill-opacity:1">
      <g
         id="orginal"
         style="clip-rule:nonzero;fill:#336791;fill-opacity:1;fill-rule:nonzero;stroke:#000000;stroke-miterlimit:4">
	</g>
      <g
         id="Layer_x0020_3"
         style="clip-rule:nonzero;fill:#336791;fill-opacity:1;fill-rule:nonzero;stroke:#ffffff;stroke-width:12.4651;stroke-linecap:round;stroke-linejoin:round;stroke-miterlimit:4">
<path
   style="fill:#336791;fill-opacity:1;stroke:#000000;stroke-width:37.3953;stroke-linecap:butt;stroke-linejoin:miter"
   d="m 323.205,324.227 c 2.833,-23.601 1.984,-27.062 19.563,-23.239 l 4.463,0.392 c 13.517,0.615 31.199,-2.174 41.587,-7 22.362,-10.376 35.622,-27.7 13.572,-23.148 -50.297,10.376 -53.755,-6.655 -53.755,-6.655 C 401.746,185.774 423.948,85.741 404.784,61.255 352.514,-5.534 262.036,26.049 260.522,26.869 l -0.482,0.089 c -9.938,-2.062 -21.06,-3.294 -33.554,-3.496 -22.761,-0.374 -40.032,5.967 -53.133,15.904 0,0 -161.408,-66.498 -153.899,83.628 1.597,31.936 45.777,241.655 98.47,178.31 19.259,-23.163 37.871,-42.748 37.871,-42.748 9.242,6.14 20.307,9.272 31.912,8.147 l 0.897,-0.765 c -0.281,2.876 -0.157,5.689 0.359,9.019 -13.572,15.167 -9.584,17.83 -36.723,23.416 -27.457,5.659 -11.326,15.734 -0.797,18.367 12.768,3.193 42.305,7.716 62.268,-20.224 l -0.795,3.188 c 5.325,4.26 4.965,30.619 5.72,49.452 0.756,18.834 2.017,36.409 5.856,46.771 3.839,10.36 8.369,37.05 44.036,29.406 29.809,-6.388 52.6,-15.582 54.677,-101.107"
   id="path1108" />

<path
   style="fill:#336791;fill-opacity:1;stroke:none"
   d="m 402.395,271.23 c -50.302,10.376 -53.76,-6.655 -53.76,-6.655 53.111,-78.808 75.313,-178.843 56.153,-203.326 -52.27,-66.785 -142.752,-35.2 -144.262,-34.38 l -0.486,0.087 c -9.938,-2.063 -21.06,-3.292 -33.56,-3.496 -22.761,-0.373 -40.026,5.967 -53.127,15.902 0,0 -161.411,-66.495 -153.904,83.63 1.597,31.938 45.776,241.657 98.471,178.312 19.26,-23.163 37.869,-42.748 37.869,-42.748 9.243,6.14 20.308,9.272 31.908,8.147 l 0.901,-0.765 c -0.28,2.876 -0.152,5.689 0.361,9.019 -13.575,15.167 -9.586,17.83 -36.723,23.416 -27.459,5.659 -11.328,15.734 -0.796,18.367 12.768,3.193 42.307,7.716 62.266,-20.224 l -0.796,3.188 c 5.319,4.26 9.054,27.711 8.428,48.969 -0.626,21.259 -1.044,35.854 3.147,47.254 4.191,11.4 8.368,37.05 44.042,29.406 29.809,-6.388 45.256,-22.942 47.405,-50.555 1.525,-19.631 4.976,-16.729 5.194,-34.28 l 2.768,-8.309 c 3.192,-26.611 0.507,-35.196 18.872,-31.203 l 4.463,0.392 c 13.517,0.615 31.208,-2.174 41.591,-7 22.358,-10.376 35.618,-27.7 13.573,-23.148 z"
   id="path1110" />

<path
   d="m 215.866,286.484 c -1.385,49.516 0.348,99.377 5.193,111.495 4.848,12.118 15.223,35.688 50.9,28.045 29.806,-6.39 40.651,-18.756 45.357,-46.051 3.466,-20.082 10.148,-75.854 11.005,-87.281"
   id="path1112"
   style="fill:#336791;fill-opacity:1" />

<path
   d="m 173.104,38.256 c 0,0 -161.521,-66.016 -154.012,84.109 1.597,31.938 45.779,241.664 98.473,178.316 19.256,-23.166 36.671,-41.335 36.671,-41.335"
   id="path1114"
   style="fill:#336791;fill-opacity:1" />

<path
   d="m 260.349,26.207 c -5.591,1.753 89.848,-34.889 144.087,34.417 19.159,24.484 -3.043,124.519 -56.153,203.329"
   id="path1116"
   style="fill:#336791;fill-opacity:1" />

<path
   style="fill:#336791;fill-opacity:1;stroke-linejoin:bevel"
   d="m 348.282,263.953 c 0,0 3.461,17.036 53.764,6.653 22.04,-4.552 8.776,12.774 -13.577,23.155 -18.345,8.514 -59.474,10.696 -60.146,-1.069 -1.729,-30.355 21.647,-21.133 19.96,-28.739 -1.525,-6.85 -11.979,-13.573 -18.894,-30.338 -6.037,-14.633 -82.796,-126.849 21.287,-110.183 3.813,-0.789 -27.146,-99.002 -124.553,-100.599 -97.385,-1.597 -94.19,119.762 -94.19,119.762"
   id="path1118" />

<path
   d="m 188.604,274.334 c -13.577,15.166 -9.584,17.829 -36.723,23.417 -27.459,5.66 -11.326,15.733 -0.797,18.365 12.768,3.195 42.307,7.718 62.266,-20.229 6.078,-8.509 -0.036,-22.086 -8.385,-25.547 -4.034,-1.671 -9.428,-3.765 -16.361,3.994 z"
   id="path1120"
   style="fill:#336791;fill-opacity:1" />

<path
   d="m 187.715,274.069 c -1.368,-8.917 2.93,-19.528 7.536,-31.942 6.922,-18.626 22.893,-37.255 10.117,-96.339 -9.523,-44.029 -73.396,-9.163 -73.436,-3.193 -0.039,5.968 2.889,30.26 -1.067,58.548 -5.162,36.913 23.488,68.132 56.479,64.938"
   id="path1122"
   style="fill:#336791;fill-opacity:1" />

<path
   style="fill:#336791;fill-opacity:1;stroke-width:4.155;stroke-linecap:butt;stroke-linejoin:miter"
   d="m 172.517,141.7 c -0.288,2.039 3.733,7.48 8.976,8.207 5.234,0.73 9.714,-3.522 9.998,-5.559 0.284,-2.039 -3.732,-4.285 -8.977,-5.015 -5.237,-0.731 -9.719,0.333 -9.996,2.367 z"
   id="path1124" />

<path
   style="fill:#336791;fill-opacity:1;stroke-width:2.0775;stroke-linecap:butt;stroke-linejoin:miter"
   d="m 331.941,137.543 c 0.284,2.039 -3.732,7.48 -8.976,8.207 -5.238,0.73 -9.718,-3.522 -10.005,-5.559 -0.277,-2.039 3.74,-4.285 8.979,-5.015 5.239,-0.73 9.718,0.333 10.002,2.368 z"
   id="path1126" />

<path
   d="m 350.676,123.432 c 0.863,15.994 -3.445,26.888 -3.988,43.914 -0.804,24.748 11.799,53.074 -7.191,81.435"
   id="path1128"
   style="fill:#336791;fill-opacity:1" />

<path
   style="fill:#336791;fill-opacity:1;stroke-width:3"
   d="M 0,60.232"
   id="path1130" />

</g>
    </g>
    <g
       id="g1207"
       transform="translate(883.46249,317.77707)">
</g>
    <g
       id="g1209"
       transform="translate(883.46249,317.77707)">
</g>
    <g
       id="g1211"
       transform="translate(883.46249,317.77707)">
</g>
    <g
       id="g1213"
       transform="translate(883.46249,317.77707)">
</g>
    <g
       id="g1215"
       transform="translate(883.46249,317.77707)">
</g>
    <g
       id="g1217"
       transform="translate(883.46249,317.77707)">
</g>
    <g
       id="g1219"
       transform="translate(883.46249,317.77707)">
</g>
    <g
       id="g1221"
       transform="translate(883.46249,317.77707)">
</g>
    <g
       id="g1223"
       transform="translate(883.46249,317.77707)">
</g>
    <g
       id="g1225"
       transform="translate(883.46249,317.77707)">
</g>
    <g
       id="g1227"
       transform="translate(883.46249,317.77707)">
</g>
    <g
       id="g1229"
       transform="translate(883.46249,317.77707)">
</g>
    <g
       id="g1231"
       transform="translate(883.46249,317.77707)">
</g>
    <g
       id="g1233"
       transform="translate(883.46249,317.77707)">
</g>
    <g
       id="g1235"
       transform="translate(883.46249,317.77707)">
</g>
    <g
       id="g1480"
       transform="matrix(0.41997749,0,0,0.41997749,778.45653,520)"
       style="fill:#ffffff">
      <g
         id="g1422"
         style="fill:#ffffff">
	<g
   id="g1420"
   style="fill:#ffffff">
		<path
   d="m 316.54,164.3 c -48.849,20.661 -92.713,50.232 -130.373,87.893 -37.66,37.661 -67.231,81.524 -87.893,130.375 -21.399,50.592 -32.249,104.313 -32.249,159.675 0,55.36 10.85,109.083 32.249,159.675 20.661,48.849 50.232,92.713 87.893,130.373 37.661,37.66 81.524,67.23 130.373,87.893 50.592,21.398 104.314,32.248 159.675,32.248 55.361,0 109.083,-10.85 159.675,-32.249 48.85,-20.661 92.713,-50.231 130.373,-87.893 37.66,-37.662 67.23,-81.524 87.893,-130.373 21.398,-50.592 32.25,-104.314 32.25,-159.675 0,-55.361 -10.852,-109.083 -32.25,-159.676 -20.66,-48.85 -50.232,-92.713 -87.893,-130.374 -0.438,-0.438 -0.889,-0.86 -1.328,-1.297 l 18.656,-19.75 34.818,29.539 43.99,-51.854 -118.792,-100.783 -43.992,51.854 32.051,27.19 -18.875,19.982 C 688.85,190.138 663.146,175.829 635.891,164.3 615.86,155.827 595.336,149.015 574.414,143.868 V 68 h 54.727 V 0 H 323.289 v 68 h 54.727 v 75.868 c -20.921,5.147 -41.445,11.959 -61.476,20.432 z m 501.864,377.941 c 0,91.401 -35.594,177.333 -100.225,241.965 -64.631,64.631 -150.562,100.225 -241.964,100.225 -91.402,0 -177.333,-35.594 -241.965,-100.225 -64.631,-64.632 -100.225,-150.562 -100.225,-241.965 0,-91.403 35.594,-177.334 100.225,-241.965 40.77,-40.77 90.019,-69.97 143.766,-85.985 22.003,-6.557 44.76,-10.89 68,-12.909 9.986,-0.867 20.057,-1.331 30.199,-1.331 10.142,0 20.212,0.464 30.199,1.331 23.24,2.02 45.998,6.353 68,12.909 53.748,16.016 102.996,45.216 143.766,85.985 64.63,64.631 100.224,150.563 100.224,241.965 z M 446.016,70.112 h 60.398 v 63.029 c -10.006,-0.724 -20.074,-1.091 -30.199,-1.091 -10.124,0 -20.193,0.367 -30.199,1.091 z"
   id="path1416"
   style="fill:#ffffff" />

		<path
   d="m 476.215,237.782 v 34 32.855 1.145 c 7.832,0 15.603,0.381 23.298,1.128 54.359,5.282 104.779,29.005 143.902,68.129 44.662,44.662 69.258,104.042 69.258,167.202 0,11.352 -0.805,22.576 -2.375,33.645 l -40.271,-11.887 -95.836,-28.288 c -3.373,-51.114 -46.023,-91.669 -97.976,-91.669 -54.147,0 -98.199,44.052 -98.199,98.199 0,54.146 44.052,98.197 98.199,98.197 32.167,0 60.771,-15.547 78.693,-39.52 l 199.729,58.954 2.096,0.887 c 15.887,-37.556 23.939,-77.432 23.939,-118.521 0,-81.323 -31.668,-157.779 -89.174,-215.285 -33.518,-33.518 -73.48,-58.238 -117.084,-73.046 -31.207,-10.594 -64.276,-16.125 -98.199,-16.125 z m 0,334.657 c -2.969,0 -5.835,-0.438 -8.547,-1.238 -12.501,-3.696 -21.652,-15.276 -21.652,-28.959 0,-16.652 13.547,-30.199 30.199,-30.199 2.968,0 5.835,0.438 8.548,1.239 12.5,3.695 21.65,15.275 21.65,28.96 10e-4,16.651 -13.546,30.197 -30.198,30.197 z"
   id="path1418"
   style="fill:#ffffff" />

	</g>

</g>
      <g
         id="g1424"
         style="fill:#ffffff">
</g>
      <g
         id="g1426"
         style="fill:#ffffff">
</g>
      <g
         id="g1428"
         style="fill:#ffffff">
</g>
      <g
         id="g1430"
         style="fill:#ffffff">
</g>
      <g
         id="g1432"
         style="fill:#ffffff">
</g>
      <g
         id="g1434"
         style="fill:#ffffff">
</g>
      <g
         id="g1436"
         style="fill:#ffffff">
</g>
      <g
         id="g1438"
         style="fill:#ffffff">
</g>
      <g
         id="g1440"
         style="fill:#ffffff">
</g>
      <g
         id="g1442"
         style="fill:#ffffff">
</g>
      <g
         id="g1444"
         style="fill:#ffffff">
</g>
      <g
         id="g1446"
         style="fill:#ffffff">
</g>
      <g
         id="g1448"
         style="fill:#ffffff">
</g>
      <g
         id="g1450"
         style="fill:#ffffff">
</g>
      <g
         id="g1452"
         style="fill:#ffffff">
</g>
    </g>
  </g>
  <style
     type="text/css"
     id="style1157">
	.st0{fill:#212120;}
</style>
</svg>
