<?xml version="1.0" encoding="UTF-8" standalone="no"?>
<svg
   xmlns:dc="http://purl.org/dc/elements/1.1/"
   xmlns:cc="http://creativecommons.org/ns#"
   xmlns:rdf="http://www.w3.org/1999/02/22-rdf-syntax-ns#"
   xmlns:svg="http://www.w3.org/2000/svg"
   xmlns="http://www.w3.org/2000/svg"
   xmlns:sodipodi="http://sodipodi.sourceforge.net/DTD/sodipodi-0.dtd"
   xmlns:inkscape="http://www.inkscape.org/namespaces/inkscape"
   width="1920"
   height="1080"
   viewBox="0 0 508 285.75001"
   version="1.1"
   id="svg8"
   inkscape:version="1.0.1 (c497b03c, 2020-09-10)"
   sodipodi:docname="generating-v4-uuids-in-mysql.svg">
  <defs
     id="defs2">
    <filter
       style="color-interpolation-filters:sRGB;"
       inkscape:label="Brilliance"
       id="filter1007">
      <feColorMatrix
         values="10 -10 -10 0 10 -10 10 -10 0 10 -10 -10 10 0 10 0 0 0 1 0 "
         id="feColorMatrix1005" />
    </filter>
  </defs>
  <sodipodi:namedview
     id="base"
     pagecolor="#ffffff"
     bordercolor="#666666"
     borderopacity="1.0"
     inkscape:pageopacity="0.0"
     inkscape:pageshadow="2"
     inkscape:zoom="0.33589188"
     inkscape:cx="976.50949"
     inkscape:cy="538.18643"
     inkscape:document-units="mm"
     inkscape:current-layer="text969"
     inkscape:document-rotation="0"
     showgrid="false"
     units="px"
     inkscape:window-width="2560"
     inkscape:window-height="1340"
     inkscape:window-x="1080"
     inkscape:window-y="191"
     inkscape:window-maximized="0" />
  <metadata
     id="metadata5">
    <rdf:RDF>
      <cc:Work
         rdf:about="">
        <dc:format>image/svg+xml</dc:format>
        <dc:type
           rdf:resource="http://purl.org/dc/dcmitype/StillImage" />
        <dc:title />
      </cc:Work>
    </rdf:RDF>
  </metadata>
  <g
     inkscape:label="Layer 1"
     inkscape:groupmode="layer"
     id="layer1">
    <rect
       style="fill:#1f456d;fill-opacity:1;stroke:none;stroke-width:0.57192;stroke-linecap:square;stroke-linejoin:miter;stroke-miterlimit:4;stroke-dasharray:none;stroke-opacity:1;paint-order:markers stroke fill"
       id="rect902"
       width="508"
       height="285.75"
       x="-7.1054274e-14"
       y="-2.1316282e-14" />
    <g
       id="g1065"
       style="stroke:#ffffff;stroke-width:1.14607014;stroke-linecap:round;stroke-linejoin:round;stroke-miterlimit:4;stroke-dasharray:none;stroke-opacity:1;paint-order:normal"
       transform="matrix(3.4629207,0,0,3.4629207,-88.105116,-346.90334)">
      <path
         d="m 109.67249,119.98221 c -0.28011,0 -0.47766,0.0339 -0.67698,0.0829 v 0.0332 h 0.0321 c 0.13335,0.26352 0.36477,0.44661 0.52846,0.67733 0.133,0.26423 0.24871,0.5274 0.38065,0.79199 0.0162,-0.0162 0.0321,-0.0335 0.0321,-0.0335 0.23284,-0.16439 0.34819,-0.42827 0.34819,-0.82515 -0.0998,-0.11641 -0.11535,-0.23106 -0.19861,-0.34713 -0.0988,-0.16475 -0.31362,-0.2473 -0.44591,-0.37959"
         style="fill:#5b85a4;fill-opacity:1;fill-rule:evenodd;stroke:#ffffff;stroke-width:1.14607014;stroke-linecap:round;stroke-linejoin:round;stroke-miterlimit:4;stroke-dasharray:none;stroke-opacity:1;paint-order:normal"
         id="path1049" />
      <path
         d="M 83.404089,152.57359 H 81.11696 c -0.08061,-3.86045 -0.303424,-7.49046 -0.667914,-10.89092 h -0.02014 l -3.482304,10.89092 H 75.20518 l -3.461208,-10.89092 h -0.02039 c -0.256752,3.26566 -0.418253,6.89571 -0.485352,10.89092 h -2.085375 c 0.134761,-4.85884 0.471946,-9.41352 1.011731,-13.6652 h 2.834782 l 3.299707,10.0408 h 0.02025 l 3.319957,-10.0408 h 2.712403 c 0.593936,4.97942 0.944668,9.53562 1.052406,13.6652"
         style="fill:#2c7493;fill-opacity:1;fill-rule:nonzero;stroke:#ffffff;stroke-width:1.14607014;stroke-linecap:round;stroke-linejoin:round;stroke-miterlimit:4;stroke-dasharray:none;stroke-opacity:1;paint-order:normal"
         id="path1051" />
      <path
         d="m 93.323707,142.49159 c -0.931369,5.05354 -2.159882,8.72585 -3.684658,11.01686 -1.188156,1.76527 -2.489729,2.64788 -3.907014,2.64788 -0.377861,0 -0.843774,-0.11381 -1.396648,-0.33994 v -1.21821 c 0.270087,0.0395 0.587023,0.0606 0.951513,0.0606 0.661211,0 1.194082,-0.18274 1.599494,-0.54747 0.485493,-0.44443 0.728451,-0.94397 0.728451,-1.49754 0,-0.37811 -0.189477,-1.15398 -0.566808,-2.32763 l -2.510085,-7.79459 h 2.246878 l 1.80153,5.82965 c 0.404707,1.32359 0.573511,2.24758 0.505989,2.77425 0.985308,-2.63176 1.673649,-5.49988 2.065267,-8.6039 h 2.166091"
         style="fill:#2c7493;fill-opacity:1;fill-rule:nonzero;stroke:#ffffff;stroke-width:1.14607014;stroke-linecap:round;stroke-linejoin:round;stroke-miterlimit:4;stroke-dasharray:none;stroke-opacity:1;paint-order:normal"
         id="path1053" />
      <path
         d="m 123.76984,152.57359 h -6.49781 v -13.6652 h 2.18651 v 11.98425 h 4.3113 v 1.68095"
         style="fill:#f18513;fill-opacity:1;fill-rule:nonzero;stroke:#ffffff;stroke-width:1.14607014;stroke-linecap:round;stroke-linejoin:round;stroke-miterlimit:4;stroke-dasharray:none;stroke-opacity:1;paint-order:normal"
         id="path1055" />
      <path
         d="m 107.43376,149.83995 c -0.55351,-0.89076 -0.83079,-2.32018 -0.83079,-4.29119 0,-3.44096 1.04634,-5.16269 3.13796,-5.16269 1.09361,0 1.89618,0.41176 2.40947,1.23444 0.5528,0.89119 0.83009,2.30822 0.83009,4.25168 0,3.46851 -1.04634,5.20347 -3.13796,5.20347 -1.09326,0 -1.89618,-0.41134 -2.40877,-1.23571 m 8.13788,3.06313 -2.51178,-1.2386 c 0.22366,-0.18341 0.43603,-0.38128 0.6283,-0.61034 1.06645,-1.25374 1.6002,-3.10938 1.6002,-5.56616 0,-4.52078 -1.77483,-6.78244 -5.32412,-6.78244 -1.74096,0 -3.09775,0.57327 -4.0693,1.72145 -1.0668,1.25525 -1.59949,3.10392 -1.59949,5.5469 0,2.40203 0.47202,4.16416 1.41676,5.28352 0.86395,1.01177 2.1664,1.51832 3.90771,1.51832 0.65017,0 1.24672,-0.08 1.78894,-0.24017 l 3.27096,1.90348 0.89182,-1.53596"
         style="fill:#f18513;fill-opacity:1;fill-rule:evenodd;stroke:#ffffff;stroke-width:1.14607014;stroke-linecap:round;stroke-linejoin:round;stroke-miterlimit:4;stroke-dasharray:none;stroke-opacity:1;paint-order:normal"
         id="path1057" />
      <path
         d="m 103.3426,148.78578 c 0,1.15891 -0.42581,2.11032 -1.27459,2.85471 -0.84949,0.74112 -1.99072,1.11266 -3.419828,1.11266 -1.336675,0 -2.632075,-0.42763 -3.886905,-1.27592 l 0.587022,-1.17384 c 1.079853,0.53979 2.057047,0.80935 2.934406,0.80935 0.82303,0 1.467203,-0.18317 1.933225,-0.54505 0.46496,-0.36449 0.74365,-0.87284 0.74365,-1.51761 0,-0.81139 -0.56585,-1.50495 -1.604078,-2.08679 -0.958497,-0.52599 -2.874081,-1.62415 -2.874081,-1.62415 -1.037872,-0.7571 -1.558219,-1.56944 -1.558219,-2.90791 0,-1.10698 0.388055,-2.00177 1.163108,-2.68249 0.776817,-0.68213 1.779059,-1.0232 3.006373,-1.0232 1.268587,0 2.422167,0.33856 3.461107,1.01325 l -0.52776,1.17274 c -0.889,-0.37691 -1.76565,-0.5661 -2.629959,-0.5661 -0.701322,0 -1.241777,0.16838 -1.618544,0.50712 -0.378883,0.33581 -0.613128,0.76796 -0.613128,1.29466 0,0.8093 0.578203,1.5113 1.645708,2.10439 0.970492,0.52627 2.932993,1.64567 2.932993,1.64567 1.06751,0.75572 1.5995,1.56143 1.5995,2.88851"
         style="fill:#f18513;fill-opacity:1;fill-rule:nonzero;stroke:#ffffff;stroke-width:1.14607014;stroke-linecap:round;stroke-linejoin:round;stroke-miterlimit:4;stroke-dasharray:none;stroke-opacity:1;paint-order:normal"
         id="path1059" />
      <path
         d="m 126.51375,134.33096 c -1.32151,-0.0331 -2.34492,0.0988 -3.20322,0.46235 -0.24765,0.099 -0.64347,0.099 -0.67734,0.41271 0.133,0.13187 0.14887,0.34629 0.26529,0.52874 0.19756,0.3302 0.54363,0.7753 0.85796,1.00708 0.34678,0.2643 0.69356,0.52751 1.05727,0.75861 0.64347,0.39797 1.37019,0.62812 1.99672,1.02457 0.36442,0.23083 0.72637,0.5278 1.09079,0.77612 0.18098,0.13201 0.29563,0.34699 0.52776,0.42869 v -0.05 c -0.11642,-0.14813 -0.14887,-0.36283 -0.26388,-0.52889 -0.16475,-0.16383 -0.3302,-0.31337 -0.49565,-0.47776 -0.47907,-0.64382 -1.07421,-1.20467 -1.71662,-1.66702 -0.52881,-0.36421 -1.68522,-0.85961 -1.899,-1.46868 0,0 -0.0173,-0.0175 -0.0335,-0.0338 0.36337,-0.0335 0.7934,-0.1658 1.13983,-0.26595 0.56056,-0.14817 1.07244,-0.11466 1.65029,-0.26282 0.26459,-0.0665 0.52882,-0.14965 0.79411,-0.23083 v -0.14964 c -0.29881,-0.29655 -0.51259,-0.69342 -0.82621,-0.97385 -0.84137,-0.72623 -1.76706,-1.43566 -2.7245,-2.03098 -0.51259,-0.3303 -1.17299,-0.54391 -1.71803,-0.82528 -0.1972,-0.0992 -0.52705,-0.14813 -0.64311,-0.31419 -0.29739,-0.36311 -0.4632,-0.8413 -0.67734,-1.27127 -0.47836,-0.9071 -0.94156,-1.91392 -1.35361,-2.87313 -0.29703,-0.64346 -0.47871,-1.28693 -0.84208,-1.88171 -1.70144,-2.80741 -3.55,-4.50709 -6.38986,-6.17503 -0.61101,-0.34713 -1.33738,-0.49565 -2.11279,-0.67733 -0.41345,-0.0173 -0.82585,-0.0494 -1.2386,-0.0656 -0.26458,-0.11606 -0.52917,-0.43003 -0.75988,-0.57855 -0.94157,-0.59408 -3.36762,-1.88172 -4.06153,-0.18133 -0.44591,1.07386 0.6604,2.13007 1.04034,2.67512 0.28046,0.37923 0.64417,0.80927 0.84137,1.23789 0.11571,0.28081 0.14888,0.57856 0.26494,0.87524 0.26388,0.72637 0.51117,1.53565 0.85866,2.21298 0.18098,0.34678 0.37888,0.71049 0.60995,1.0227 0.13335,0.18274 0.36372,0.26423 0.41346,0.56233 -0.23036,0.32985 -0.24836,0.82515 -0.3803,1.23825 -0.59407,1.86584 -0.36336,4.17738 0.47908,5.54757 0.26352,0.41272 0.89182,1.32112 1.7339,0.97356 0.74295,-0.29668 0.57785,-1.23786 0.79234,-2.0629 0.0494,-0.19953 0.0162,-0.33045 0.115,-0.46235 v 0.0334 c 0.23107,0.46165 0.46285,0.90632 0.67734,1.37019 0.51258,0.80821 1.40335,1.65047 2.147,2.21132 0.39511,0.29834 0.70909,0.80934 1.20439,0.99152 v -0.0499 h -0.0325 c -0.0995,-0.14816 -0.24765,-0.2147 -0.37994,-0.32977 -0.29704,-0.2974 -0.62653,-0.66079 -0.85866,-0.99082 -0.69321,-0.92424 -1.30493,-1.94853 -1.84856,-3.0051 -0.26493,-0.51304 -0.49565,-1.07389 -0.71049,-1.58542 -0.0988,-0.1972 -0.0988,-0.49526 -0.26423,-0.59407 -0.24836,0.36283 -0.61066,0.67701 -0.79199,1.12144 -0.31397,0.71081 -0.34678,1.5857 -0.4632,2.49425 -0.0656,0.0173 -0.0324,0 -0.0656,0.0328 -0.52776,-0.13201 -0.70944,-0.67677 -0.90805,-1.13756 -0.4953,-1.17384 -0.57856,-3.05601 -0.14852,-4.40997 0.115,-0.34608 0.61171,-1.43581 0.41275,-1.76601 -0.0998,-0.31503 -0.42969,-0.49495 -0.61101,-0.74365 -0.21414,-0.31362 -0.44662,-0.70909 -0.59373,-1.05657 -0.39652,-0.92428 -0.59584,-1.9484 -1.02376,-2.87267 -0.19826,-0.43004 -0.54575,-0.87595 -0.8255,-1.27141 -0.31432,-0.44592 -0.66075,-0.75954 -0.90875,-1.28729 -0.0819,-0.18203 -0.19756,-0.47943 -0.066,-0.67698 0.0324,-0.13229 0.0995,-0.18203 0.23177,-0.2152 0.21343,-0.18168 0.82515,0.049 1.03928,0.14817 0.61137,0.24695 1.12325,0.47943 1.63442,0.8255 0.23143,0.16545 0.47908,0.47907 0.77576,0.56233 h 0.34749 c 0.52811,0.11465 1.12289,0.0321 1.61854,0.18133 0.87454,0.28045 1.66688,0.6932 2.37737,1.13912 2.16218,1.37054 3.94547,3.31928 5.15021,5.64691 0.19861,0.37924 0.28186,0.72637 0.46319,1.12183 0.34678,0.81069 0.77647,1.63619 1.12254,2.42793 0.34643,0.77611 0.67733,1.56795 1.17334,2.21287 0.24695,0.34614 1.2379,0.52779 1.68381,0.70954 0.32949,0.14813 0.84208,0.28042 1.13947,0.46178 0.56127,0.34615 1.12148,0.74302 1.65065,1.12339 0.26352,0.19815 1.08938,0.61045 1.13912,0.94118"
         style="fill:#2c7493;fill-opacity:1;fill-rule:evenodd;stroke:#ffffff;stroke-width:1.14607014;stroke-linecap:round;stroke-linejoin:round;stroke-miterlimit:4;stroke-dasharray:none;stroke-opacity:1;paint-order:normal"
         id="path1061" />
      <path
         d="m 125.33053,152.57221 h 0.3623 v -1.39033 h 0.47414 v -0.28399 h -1.32892 v 0.28399 h 0.49248 z m 2.75696,0 h 0.34149 v -1.67432 h -0.51365 l -0.41804,1.14128 -0.45508,-1.14128 h -0.49495 v 1.67432 h 0.32315 v -1.27427 h 0.0183 l 0.4766,1.27427 h 0.24624 l 0.4759,-1.27427 v 1.27427"
         style="fill:#f18513;fill-opacity:1;fill-rule:nonzero;stroke:#ffffff;stroke-width:1.14607014;stroke-linecap:round;stroke-linejoin:round;stroke-miterlimit:4;stroke-dasharray:none;stroke-opacity:1;paint-order:normal"
         id="path1063" />
    </g>
    <g
       id="g900"
       style="stroke:none;stroke-width:0.76404676;stroke-linecap:round;stroke-linejoin:round;stroke-miterlimit:4;stroke-dasharray:none;stroke-opacity:1;paint-order:markers stroke fill"
       transform="matrix(3.4629207,0,0,3.4629207,-88.105116,-346.90334)">
      <path
         d="m 109.67249,119.98221 c -0.28011,0 -0.47766,0.0339 -0.67698,0.0829 v 0.0332 h 0.0321 c 0.13335,0.26352 0.36477,0.44661 0.52846,0.67733 0.133,0.26423 0.24871,0.5274 0.38065,0.79199 0.0162,-0.0162 0.0321,-0.0335 0.0321,-0.0335 0.23284,-0.16439 0.34819,-0.42827 0.34819,-0.82515 -0.0998,-0.11641 -0.11535,-0.23106 -0.19861,-0.34713 -0.0988,-0.16475 -0.31362,-0.2473 -0.44591,-0.37959"
         style="fill:#5b85a4;fill-opacity:1;fill-rule:evenodd;stroke:none;stroke-width:0.76404676;stroke-linecap:round;stroke-linejoin:round;stroke-miterlimit:4;stroke-dasharray:none;stroke-opacity:1;paint-order:markers stroke fill"
         id="path24" />
      <path
         d="M 83.404089,152.57359 H 81.11696 c -0.08061,-3.86045 -0.303424,-7.49046 -0.667914,-10.89092 h -0.02014 l -3.482304,10.89092 H 75.20518 l -3.461208,-10.89092 h -0.02039 c -0.256752,3.26566 -0.418253,6.89571 -0.485352,10.89092 h -2.085375 c 0.134761,-4.85884 0.471946,-9.41352 1.011731,-13.6652 h 2.834782 l 3.299707,10.0408 h 0.02025 l 3.319957,-10.0408 h 2.712403 c 0.593936,4.97942 0.944668,9.53562 1.052406,13.6652"
         style="fill:#2c7493;fill-opacity:1;fill-rule:nonzero;stroke:none;stroke-width:0.76404676;stroke-linecap:round;stroke-linejoin:round;stroke-miterlimit:4;stroke-dasharray:none;stroke-opacity:1;paint-order:markers stroke fill"
         id="path26" />
      <path
         d="m 93.323707,142.49159 c -0.931369,5.05354 -2.159882,8.72585 -3.684658,11.01686 -1.188156,1.76527 -2.489729,2.64788 -3.907014,2.64788 -0.377861,0 -0.843774,-0.11381 -1.396648,-0.33994 v -1.21821 c 0.270087,0.0395 0.587023,0.0606 0.951513,0.0606 0.661211,0 1.194082,-0.18274 1.599494,-0.54747 0.485493,-0.44443 0.728451,-0.94397 0.728451,-1.49754 0,-0.37811 -0.189477,-1.15398 -0.566808,-2.32763 l -2.510085,-7.79459 h 2.246878 l 1.80153,5.82965 c 0.404707,1.32359 0.573511,2.24758 0.505989,2.77425 0.985308,-2.63176 1.673649,-5.49988 2.065267,-8.6039 h 2.166091"
         style="fill:#2c7493;fill-opacity:1;fill-rule:nonzero;stroke:none;stroke-width:0.76404676;stroke-linecap:round;stroke-linejoin:round;stroke-miterlimit:4;stroke-dasharray:none;stroke-opacity:1;paint-order:markers stroke fill"
         id="path28" />
      <path
         d="m 123.76984,152.57359 h -6.49781 v -13.6652 h 2.18651 v 11.98425 h 4.3113 v 1.68095"
         style="fill:#f18513;fill-opacity:1;fill-rule:nonzero;stroke:none;stroke-width:0.76404676;stroke-linecap:round;stroke-linejoin:round;stroke-miterlimit:4;stroke-dasharray:none;stroke-opacity:1;paint-order:markers stroke fill"
         id="path30" />
      <path
         d="m 107.43376,149.83995 c -0.55351,-0.89076 -0.83079,-2.32018 -0.83079,-4.29119 0,-3.44096 1.04634,-5.16269 3.13796,-5.16269 1.09361,0 1.89618,0.41176 2.40947,1.23444 0.5528,0.89119 0.83009,2.30822 0.83009,4.25168 0,3.46851 -1.04634,5.20347 -3.13796,5.20347 -1.09326,0 -1.89618,-0.41134 -2.40877,-1.23571 m 8.13788,3.06313 -2.51178,-1.2386 c 0.22366,-0.18341 0.43603,-0.38128 0.6283,-0.61034 1.06645,-1.25374 1.6002,-3.10938 1.6002,-5.56616 0,-4.52078 -1.77483,-6.78244 -5.32412,-6.78244 -1.74096,0 -3.09775,0.57327 -4.0693,1.72145 -1.0668,1.25525 -1.59949,3.10392 -1.59949,5.5469 0,2.40203 0.47202,4.16416 1.41676,5.28352 0.86395,1.01177 2.1664,1.51832 3.90771,1.51832 0.65017,0 1.24672,-0.08 1.78894,-0.24017 l 3.27096,1.90348 0.89182,-1.53596"
         style="fill:#f18513;fill-opacity:1;fill-rule:evenodd;stroke:none;stroke-width:0.76404676;stroke-linecap:round;stroke-linejoin:round;stroke-miterlimit:4;stroke-dasharray:none;stroke-opacity:1;paint-order:markers stroke fill"
         id="path32" />
      <path
         d="m 103.3426,148.78578 c 0,1.15891 -0.42581,2.11032 -1.27459,2.85471 -0.84949,0.74112 -1.99072,1.11266 -3.419828,1.11266 -1.336675,0 -2.632075,-0.42763 -3.886905,-1.27592 l 0.587022,-1.17384 c 1.079853,0.53979 2.057047,0.80935 2.934406,0.80935 0.82303,0 1.467203,-0.18317 1.933225,-0.54505 0.46496,-0.36449 0.74365,-0.87284 0.74365,-1.51761 0,-0.81139 -0.56585,-1.50495 -1.604078,-2.08679 -0.958497,-0.52599 -2.874081,-1.62415 -2.874081,-1.62415 -1.037872,-0.7571 -1.558219,-1.56944 -1.558219,-2.90791 0,-1.10698 0.388055,-2.00177 1.163108,-2.68249 0.776817,-0.68213 1.779059,-1.0232 3.006373,-1.0232 1.268587,0 2.422167,0.33856 3.461107,1.01325 l -0.52776,1.17274 c -0.889,-0.37691 -1.76565,-0.5661 -2.629959,-0.5661 -0.701322,0 -1.241777,0.16838 -1.618544,0.50712 -0.378883,0.33581 -0.613128,0.76796 -0.613128,1.29466 0,0.8093 0.578203,1.5113 1.645708,2.10439 0.970492,0.52627 2.932993,1.64567 2.932993,1.64567 1.06751,0.75572 1.5995,1.56143 1.5995,2.88851"
         style="fill:#f18513;fill-opacity:1;fill-rule:nonzero;stroke:none;stroke-width:0.76404676;stroke-linecap:round;stroke-linejoin:round;stroke-miterlimit:4;stroke-dasharray:none;stroke-opacity:1;paint-order:markers stroke fill"
         id="path34" />
      <path
         d="m 126.51375,134.33096 c -1.32151,-0.0331 -2.34492,0.0988 -3.20322,0.46235 -0.24765,0.099 -0.64347,0.099 -0.67734,0.41271 0.133,0.13187 0.14887,0.34629 0.26529,0.52874 0.19756,0.3302 0.54363,0.7753 0.85796,1.00708 0.34678,0.2643 0.69356,0.52751 1.05727,0.75861 0.64347,0.39797 1.37019,0.62812 1.99672,1.02457 0.36442,0.23083 0.72637,0.5278 1.09079,0.77612 0.18098,0.13201 0.29563,0.34699 0.52776,0.42869 v -0.05 c -0.11642,-0.14813 -0.14887,-0.36283 -0.26388,-0.52889 -0.16475,-0.16383 -0.3302,-0.31337 -0.49565,-0.47776 -0.47907,-0.64382 -1.07421,-1.20467 -1.71662,-1.66702 -0.52881,-0.36421 -1.68522,-0.85961 -1.899,-1.46868 0,0 -0.0173,-0.0175 -0.0335,-0.0338 0.36337,-0.0335 0.7934,-0.1658 1.13983,-0.26595 0.56056,-0.14817 1.07244,-0.11466 1.65029,-0.26282 0.26459,-0.0665 0.52882,-0.14965 0.79411,-0.23083 v -0.14964 c -0.29881,-0.29655 -0.51259,-0.69342 -0.82621,-0.97385 -0.84137,-0.72623 -1.76706,-1.43566 -2.7245,-2.03098 -0.51259,-0.3303 -1.17299,-0.54391 -1.71803,-0.82528 -0.1972,-0.0992 -0.52705,-0.14813 -0.64311,-0.31419 -0.29739,-0.36311 -0.4632,-0.8413 -0.67734,-1.27127 -0.47836,-0.9071 -0.94156,-1.91392 -1.35361,-2.87313 -0.29703,-0.64346 -0.47871,-1.28693 -0.84208,-1.88171 -1.70144,-2.80741 -3.55,-4.50709 -6.38986,-6.17503 -0.61101,-0.34713 -1.33738,-0.49565 -2.11279,-0.67733 -0.41345,-0.0173 -0.82585,-0.0494 -1.2386,-0.0656 -0.26458,-0.11606 -0.52917,-0.43003 -0.75988,-0.57855 -0.94157,-0.59408 -3.36762,-1.88172 -4.06153,-0.18133 -0.44591,1.07386 0.6604,2.13007 1.04034,2.67512 0.28046,0.37923 0.64417,0.80927 0.84137,1.23789 0.11571,0.28081 0.14888,0.57856 0.26494,0.87524 0.26388,0.72637 0.51117,1.53565 0.85866,2.21298 0.18098,0.34678 0.37888,0.71049 0.60995,1.0227 0.13335,0.18274 0.36372,0.26423 0.41346,0.56233 -0.23036,0.32985 -0.24836,0.82515 -0.3803,1.23825 -0.59407,1.86584 -0.36336,4.17738 0.47908,5.54757 0.26352,0.41272 0.89182,1.32112 1.7339,0.97356 0.74295,-0.29668 0.57785,-1.23786 0.79234,-2.0629 0.0494,-0.19953 0.0162,-0.33045 0.115,-0.46235 v 0.0334 c 0.23107,0.46165 0.46285,0.90632 0.67734,1.37019 0.51258,0.80821 1.40335,1.65047 2.147,2.21132 0.39511,0.29834 0.70909,0.80934 1.20439,0.99152 v -0.0499 h -0.0325 c -0.0995,-0.14816 -0.24765,-0.2147 -0.37994,-0.32977 -0.29704,-0.2974 -0.62653,-0.66079 -0.85866,-0.99082 -0.69321,-0.92424 -1.30493,-1.94853 -1.84856,-3.0051 -0.26493,-0.51304 -0.49565,-1.07389 -0.71049,-1.58542 -0.0988,-0.1972 -0.0988,-0.49526 -0.26423,-0.59407 -0.24836,0.36283 -0.61066,0.67701 -0.79199,1.12144 -0.31397,0.71081 -0.34678,1.5857 -0.4632,2.49425 -0.0656,0.0173 -0.0324,0 -0.0656,0.0328 -0.52776,-0.13201 -0.70944,-0.67677 -0.90805,-1.13756 -0.4953,-1.17384 -0.57856,-3.05601 -0.14852,-4.40997 0.115,-0.34608 0.61171,-1.43581 0.41275,-1.76601 -0.0998,-0.31503 -0.42969,-0.49495 -0.61101,-0.74365 -0.21414,-0.31362 -0.44662,-0.70909 -0.59373,-1.05657 -0.39652,-0.92428 -0.59584,-1.9484 -1.02376,-2.87267 -0.19826,-0.43004 -0.54575,-0.87595 -0.8255,-1.27141 -0.31432,-0.44592 -0.66075,-0.75954 -0.90875,-1.28729 -0.0819,-0.18203 -0.19756,-0.47943 -0.066,-0.67698 0.0324,-0.13229 0.0995,-0.18203 0.23177,-0.2152 0.21343,-0.18168 0.82515,0.049 1.03928,0.14817 0.61137,0.24695 1.12325,0.47943 1.63442,0.8255 0.23143,0.16545 0.47908,0.47907 0.77576,0.56233 h 0.34749 c 0.52811,0.11465 1.12289,0.0321 1.61854,0.18133 0.87454,0.28045 1.66688,0.6932 2.37737,1.13912 2.16218,1.37054 3.94547,3.31928 5.15021,5.64691 0.19861,0.37924 0.28186,0.72637 0.46319,1.12183 0.34678,0.81069 0.77647,1.63619 1.12254,2.42793 0.34643,0.77611 0.67733,1.56795 1.17334,2.21287 0.24695,0.34614 1.2379,0.52779 1.68381,0.70954 0.32949,0.14813 0.84208,0.28042 1.13947,0.46178 0.56127,0.34615 1.12148,0.74302 1.65065,1.12339 0.26352,0.19815 1.08938,0.61045 1.13912,0.94118"
         style="fill:#2c7493;fill-opacity:1;fill-rule:evenodd;stroke:none;stroke-width:0.76404676;stroke-linecap:round;stroke-linejoin:round;stroke-miterlimit:4;stroke-dasharray:none;stroke-opacity:1;paint-order:markers stroke fill"
         id="path36" />
      <path
         d="m 125.33053,152.57221 h 0.3623 v -1.39033 h 0.47414 v -0.28399 h -1.32892 v 0.28399 h 0.49248 z m 2.75696,0 h 0.34149 v -1.67432 h -0.51365 l -0.41804,1.14128 -0.45508,-1.14128 h -0.49495 v 1.67432 h 0.32315 v -1.27427 h 0.0183 l 0.4766,1.27427 h 0.24624 l 0.4759,-1.27427 v 1.27427"
         style="fill:#f18513;fill-opacity:1;fill-rule:nonzero;stroke:none;stroke-width:0.76404676;stroke-linecap:round;stroke-linejoin:round;stroke-miterlimit:4;stroke-dasharray:none;stroke-opacity:1;paint-order:markers stroke fill"
         id="path38" />
    </g>
    <g
       aria-label="bdffcd96-a52e-40ed-8c3f-806899e5b6b4"
       id="text969"
       style="font-style:normal;font-weight:normal;font-size:19.7556px;line-height:1.25;font-family:sans-serif;fill:#000000;fill-opacity:1;stroke:none;stroke-width:0.0700042">
      <path
         d="m 58.720521,222.96467 q 0,1.35048 -0.385852,2.43086 -0.376205,1.08039 -1.022506,1.8135 -0.684887,0.76206 -1.504821,1.14791 -0.819935,0.37621 -1.803856,0.37621 -0.916398,0 -1.601284,-0.22187 -0.684887,-0.21222 -1.350481,-0.57877 l -0.115755,0.5016 h -1.697747 v -15.00962 h 1.813502 v 5.36333 q 0.762057,-0.62701 1.620577,-1.0225 0.858519,-0.40515 1.929257,-0.40515 1.909966,0 3.009643,1.46624 1.109323,1.46623 1.109323,4.13826 z m -1.87138,0.0482 q 0,-1.92926 -0.636655,-2.92283 -0.636655,-1.00321 -2.05466,-1.00321 -0.790996,0 -1.601284,0.34726 -0.810288,0.33762 -1.504821,0.87782 v 6.17362 q 0.771703,0.34727 1.321542,0.48232 0.559484,0.13504 1.263664,0.13504 1.504821,0 2.353694,-0.98392 0.85852,-0.99356 0.85852,-3.1061 z"
         style="font-style:normal;font-variant:normal;font-weight:normal;font-stretch:normal;font-size:19.7556px;font-family:Verdana;-inkscape-font-specification:Verdana;fill:#ffffff;stroke-width:0.0700042"
         id="path987" />
      <path
         d="M 70.286422,228.43411 H 68.47292 v -1.12861 q -0.78135,0.67524 -1.630223,1.05144 -0.848874,0.37621 -1.842442,0.37621 -1.929257,0 -3.067519,-1.48553 -1.128616,-1.48553 -1.128616,-4.11897 0,-1.36977 0.385851,-2.44051 0.395498,-1.07074 1.061092,-1.82315 0.655948,-0.73311 1.524114,-1.11897 0.877812,-0.38585 1.813502,-0.38585 0.848874,0 1.504821,0.18328 0.655948,0.17364 1.37942,0.54984 v -4.6688 h 1.813502 z m -1.813502,-2.65273 v -6.18327 q -0.733118,-0.32797 -1.311896,-0.45337 -0.578777,-0.12541 -1.263664,-0.12541 -1.524113,0 -2.372987,1.0611 -0.848873,1.06109 -0.848873,3.00964 0,1.91961 0.655947,2.92282 0.655948,0.99357 2.102891,0.99357 0.771704,0 1.562699,-0.33762 0.790996,-0.34726 1.475883,-0.88746 z"
         style="font-style:normal;font-variant:normal;font-weight:normal;font-stretch:normal;font-size:19.7556px;font-family:Verdana;-inkscape-font-specification:Verdana;fill:#ffffff;stroke-width:0.0700042"
         id="path989" />
      <path
         d="m 79.652969,215.18011 h -0.09646 q -0.299035,-0.0868 -0.781349,-0.17363 -0.482315,-0.0965 -0.848874,-0.0965 -1.167201,0 -1.697747,0.52089 -0.520899,0.51126 -0.520899,1.86174 v 0.36656 h 3.270092 v 1.52411 h -3.212214 v 9.25079 h -1.813503 v -9.25079 h -1.225079 v -1.52411 h 1.225079 v -0.35692 q 0,-1.91961 0.954983,-2.94211 0.954982,-1.03216 2.758838,-1.03216 0.607717,0 1.090031,0.0579 0.491961,0.0579 0.897105,0.13505 z"
         style="font-style:normal;font-variant:normal;font-weight:normal;font-stretch:normal;font-size:19.7556px;font-family:Verdana;-inkscape-font-specification:Verdana;fill:#ffffff;stroke-width:0.0700042"
         id="path991" />
      <path
         d="m 86.598297,215.18011 h -0.09646 q -0.299035,-0.0868 -0.78135,-0.17363 -0.482314,-0.0965 -0.848873,-0.0965 -1.167201,0 -1.697747,0.52089 -0.520899,0.51126 -0.520899,1.86174 v 0.36656 h 3.270092 v 1.52411 h -3.212215 v 9.25079 H 80.89734 v -9.25079 h -1.225079 v -1.52411 h 1.225079 v -0.35692 q 0,-1.91961 0.954983,-2.94211 0.954982,-1.03216 2.758838,-1.03216 0.607716,0 1.090031,0.0579 0.491961,0.0579 0.897105,0.13505 z"
         style="font-style:normal;font-variant:normal;font-weight:normal;font-stretch:normal;font-size:19.7556px;font-family:Verdana;-inkscape-font-specification:Verdana;fill:#ffffff;stroke-width:0.0700042"
         id="path993" />
      <path
         d="m 95.714041,227.75887 q -0.906751,0.43409 -1.726685,0.67524 -0.810289,0.24116 -1.726686,0.24116 -1.167201,0 -2.141476,-0.33762 -0.974275,-0.34727 -1.668808,-1.0418 -0.704179,-0.69453 -1.090031,-1.75562 -0.385851,-1.0611 -0.385851,-2.4791 0,-2.64308 1.446943,-4.1479 1.45659,-1.50483 3.839223,-1.50483 0.926044,0 1.813502,0.26045 0.897105,0.26045 1.639869,0.63666 v 2.01607 h -0.09646 q -0.829581,-0.6463 -1.71704,-0.99356 -0.877812,-0.34727 -1.717039,-0.34727 -1.543407,0 -2.440511,1.0418 -0.887459,1.03215 -0.887459,3.03858 0,1.94855 0.868166,3 0.877812,1.04179 2.459804,1.04179 0.549838,0 1.118969,-0.14469 0.569131,-0.14469 1.022507,-0.3762 0.395498,-0.20258 0.742764,-0.42444 0.347266,-0.23151 0.549839,-0.3955 h 0.09646 z"
         style="font-style:normal;font-variant:normal;font-weight:normal;font-stretch:normal;font-size:19.7556px;font-family:Verdana;-inkscape-font-specification:Verdana;fill:#ffffff;stroke-width:0.0700042"
         id="path995" />
      <path
         d="m 106.78798,228.43411 h -1.8135 v -1.12861 q -0.78135,0.67524 -1.63023,1.05144 -0.84887,0.37621 -1.84244,0.37621 -1.929255,0 -3.067517,-1.48553 -1.128616,-1.48553 -1.128616,-4.11897 0,-1.36977 0.385852,-2.44051 0.395497,-1.07074 1.061091,-1.82315 0.655948,-0.73311 1.52411,-1.11897 0.87782,-0.38585 1.81351,-0.38585 0.84887,0 1.50482,0.18328 0.65595,0.17364 1.37942,0.54984 v -4.6688 h 1.8135 z m -1.8135,-2.65273 v -6.18327 q -0.73312,-0.32797 -1.3119,-0.45337 -0.57878,-0.12541 -1.26366,-0.12541 -1.52412,0 -2.37299,1.0611 -0.848873,1.06109 -0.848873,3.00964 0,1.91961 0.655948,2.92282 0.655945,0.99357 2.102895,0.99357 0.7717,0 1.56269,-0.33762 0.791,-0.34726 1.47589,-0.88746 z"
         style="font-style:normal;font-variant:normal;font-weight:normal;font-stretch:normal;font-size:19.7556px;font-family:Verdana;-inkscape-font-specification:Verdana;fill:#ffffff;stroke-width:0.0700042"
         id="path997" />
      <path
         d="m 119.82976,220.38911 q 0,1.88102 -0.43408,3.41478 -0.42444,1.53376 -1.2926,2.61415 -0.87781,1.09968 -2.19936,1.69775 -1.32154,0.59806 -3.1061,0.59806 -0.50161,0 -0.94534,-0.0579 -0.44373,-0.0482 -0.79099,-0.16399 v -1.84244 h 0.0965 q 0.27974,0.14469 0.791,0.27974 0.51125,0.1254 1.13826,0.1254 2.13183,0 3.33761,-1.27331 1.21544,-1.28295 1.40836,-3.53054 -0.8971,0.54019 -1.6881,0.7717 -0.79099,0.23152 -1.72668,0.23152 -0.88746,0 -1.61094,-0.17364 -0.71382,-0.17363 -1.43729,-0.67524 -0.84888,-0.58842 -1.28296,-1.49517 -0.42444,-0.90675 -0.42444,-2.17042 0,-2.19935 1.44695,-3.57877 1.44694,-1.37942 3.53054,-1.37942 1.0418,0 1.92926,0.32797 0.88746,0.31833 1.55305,0.96463 0.81993,0.80064 1.26366,2.06431 0.44373,1.25402 0.44373,3.2508 z m -1.94855,-0.41479 q 0,-1.49518 -0.30868,-2.40193 -0.30868,-0.90675 -0.84887,-1.40836 -0.45338,-0.43408 -0.97428,-0.61736 -0.5209,-0.19293 -1.12861,-0.19293 -1.38907,0 -2.19936,0.86817 -0.80064,0.86817 -0.80064,2.44051 0,0.9164 0.26045,1.49518 0.26045,0.57877 0.87781,1.01286 0.43409,0.29903 0.95499,0.40514 0.5209,0.0965 1.15755,0.0965 0.75241,0 1.52411,-0.20257 0.77171,-0.20257 1.44695,-0.58842 0.01,-0.20257 0.0193,-0.3955 0.0193,-0.20257 0.0193,-0.51125 z"
         style="font-style:normal;font-variant:normal;font-weight:normal;font-stretch:normal;font-size:19.7556px;font-family:Verdana;-inkscape-font-specification:Verdana;fill:#ffffff;stroke-width:0.0700042"
         id="path999" />
      <path
         d="m 132.64003,223.77495 q 0,2.18971 -1.44694,3.57878 -1.4373,1.37942 -3.53054,1.37942 -1.06109,0 -1.92926,-0.32798 -0.86817,-0.32797 -1.53376,-0.97427 -0.82958,-0.80064 -1.28296,-2.12219 -0.44373,-1.32154 -0.44373,-3.18327 0,-1.90997 0.40515,-3.38585 0.41479,-1.47588 1.31189,-2.62379 0.84888,-1.09003 2.18971,-1.69775 1.34084,-0.61736 3.1254,-0.61736 0.56913,0 0.95498,0.0482 0.38585,0.0482 0.78135,0.17364 v 1.84244 h -0.0965 q -0.2701,-0.1447 -0.81994,-0.2701 -0.54019,-0.13505 -1.10932,-0.13505 -2.07395,0 -3.30868,1.30225 -1.23472,1.29261 -1.43729,3.50161 0.81028,-0.49197 1.59163,-0.74277 0.791,-0.26045 1.82315,-0.26045 0.9164,0 1.61093,0.17363 0.70418,0.16399 1.4373,0.67525 0.84887,0.58842 1.27331,1.48552 0.43408,0.89711 0.43408,2.18006 z m -1.95819,0.0772 q 0,-0.89711 -0.2701,-1.48553 -0.26045,-0.58843 -0.86817,-1.02251 -0.44373,-0.30868 -0.98392,-0.40514 -0.54019,-0.0965 -1.12861,-0.0965 -0.81994,0 -1.52412,0.19293 -0.70418,0.19292 -1.44694,0.59807 -0.0193,0.21222 -0.0289,0.41479 -0.01,0.19292 -0.01,0.49196 0,1.52411 0.30869,2.41157 0.31832,0.87781 0.86816,1.38907 0.44373,0.42443 0.95498,0.62701 0.5209,0.19292 1.12862,0.19292 1.39871,0 2.19935,-0.84887 0.80065,-0.85852 0.80065,-2.4598 z"
         style="font-style:normal;font-variant:normal;font-weight:normal;font-stretch:normal;font-size:19.7556px;font-family:Verdana;-inkscape-font-specification:Verdana;fill:#ffffff;stroke-width:0.0700042"
         id="path1001" />
      <path
         d="m 141.22523,223.02254 h -6.01928 v -1.74597 h 6.01928 z"
         style="font-style:normal;font-variant:normal;font-weight:normal;font-stretch:normal;font-size:19.7556px;font-family:Verdana;-inkscape-font-specification:Verdana;fill:#ffffff;stroke-width:0.0700042"
         id="path1003" />
      <path
         d="m 152.87795,228.43411 h -1.80385 v -1.14791 q -0.24116,0.16399 -0.65595,0.46303 -0.40515,0.28938 -0.791,0.46302 -0.45337,0.22186 -1.0418,0.36656 -0.58842,0.15434 -1.37942,0.15434 -1.45659,0 -2.46945,-0.96463 -1.01286,-0.96463 -1.01286,-2.45981 0,-1.22507 0.5209,-1.97748 0.53055,-0.76206 1.50482,-1.19614 0.98393,-0.43409 2.36334,-0.58843 1.37942,-0.15434 2.96142,-0.23151 v -0.27974 q 0,-0.61736 -0.22187,-1.02251 -0.21222,-0.40514 -0.61736,-0.63665 -0.38585,-0.22187 -0.92605,-0.29904 -0.54019,-0.0772 -1.12861,-0.0772 -0.71383,0 -1.59164,0.19293 -0.87781,0.18328 -1.8135,0.54019 h -0.0965 v -1.84244 q 0.53054,-0.1447 1.53376,-0.31833 1.00321,-0.17363 1.97749,-0.17363 1.13826,0 1.97748,0.19292 0.84888,0.18328 1.46624,0.63666 0.60772,0.44373 0.92604,1.14791 0.31833,0.70418 0.31833,1.74598 z m -1.80385,-2.65273 v -2.99999 q -0.82959,0.0482 -1.9582,0.14469 -1.11897,0.0965 -1.77492,0.27974 -0.78135,0.22187 -1.26366,0.69454 -0.48232,0.46302 -0.48232,1.28295 0,0.92605 0.55949,1.39872 0.55948,0.46302 1.70739,0.46302 0.95498,0 1.74598,-0.36656 0.791,-0.37621 1.46624,-0.89711 z"
         style="font-style:normal;font-variant:normal;font-weight:normal;font-stretch:normal;font-size:19.7556px;font-family:Verdana;-inkscape-font-specification:Verdana;fill:#ffffff;stroke-width:0.0700042"
         id="path1005" />
      <path
         d="m 165.76539,223.87142 q 0,1.00321 -0.36656,1.91961 -0.36656,0.9164 -1.00321,1.54341 -0.69454,0.67524 -1.65916,1.04179 -0.95499,0.35692 -2.21865,0.35692 -1.17685,0 -2.26688,-0.25081 -1.09003,-0.24115 -1.84244,-0.58842 v -2.03537 h 0.13505 q 0.79099,0.50161 1.85208,0.85852 1.0611,0.34727 2.0836,0.34727 0.68489,0 1.32154,-0.19293 0.64631,-0.19292 1.14791,-0.67524 0.42444,-0.41479 0.63666,-0.99356 0.22186,-0.57878 0.22186,-1.34084 0,-0.74276 -0.26045,-1.25402 -0.2508,-0.51125 -0.70418,-0.81993 -0.5016,-0.36656 -1.22507,-0.51125 -0.71383,-0.15434 -1.60129,-0.15434 -0.84887,0 -1.63987,0.11575 -0.78135,0.11576 -1.35048,0.23151 v -7.3987 h 8.64308 v 1.6881 h -6.78134 v 3.81993 q 0.41479,-0.0386 0.84887,-0.0579 0.43408,-0.0193 0.75241,-0.0193 1.1672,0 2.04501,0.20257 0.87782,0.19293 1.61093,0.69453 0.77171,0.53055 1.19614,1.36978 0.42444,0.83922 0.42444,2.10289 z"
         style="font-style:normal;font-variant:normal;font-weight:normal;font-stretch:normal;font-size:19.7556px;font-family:Verdana;-inkscape-font-specification:Verdana;fill:#ffffff;stroke-width:0.0700042"
         id="path1007" />
      <path
         d="m 178.45991,228.43411 h -9.72346 v -2.01607 q 1.01286,-0.86817 2.02572,-1.73633 1.02251,-0.86817 1.90032,-1.72669 1.85209,-1.79421 2.53698,-2.84565 0.68488,-1.0611 0.68488,-2.28618 0,-1.11896 -0.74276,-1.74597 -0.73312,-0.63666 -2.05466,-0.63666 -0.87781,0 -1.90032,0.30868 -1.02251,0.30868 -1.99678,0.94534 h -0.0965 v -2.02572 q 0.68489,-0.33762 1.82315,-0.61736 1.14791,-0.27975 2.21865,-0.27975 2.209,0 3.46302,1.07074 1.25401,1.06109 1.25401,2.88424 0,0.81994 -0.21221,1.53376 -0.20258,0.70418 -0.60772,1.34084 -0.3762,0.59807 -0.88746,1.17684 -0.50161,0.57878 -1.22508,1.28296 -1.03215,1.01286 -2.13183,1.96784 -1.09967,0.94534 -2.05466,1.75563 h 7.72668 z"
         style="font-style:normal;font-variant:normal;font-weight:normal;font-stretch:normal;font-size:19.7556px;font-family:Verdana;-inkscape-font-specification:Verdana;fill:#ffffff;stroke-width:0.0700042"
         id="path1009" />
      <path
         d="m 190.566,223.23476 h -7.93889 q 0,0.99357 0.29903,1.73633 0.29904,0.73312 0.81993,1.20579 0.50161,0.46302 1.1865,0.69453 0.69453,0.23151 1.52411,0.23151 1.09968,0 2.209,-0.43408 1.11897,-0.44373 1.59164,-0.86816 h 0.0965 v 1.97748 q -0.91639,0.38586 -1.87138,0.64631 -0.95498,0.26045 -2.00643,0.26045 -2.68166,0 -4.18648,-1.44695 -1.50483,-1.45659 -1.50483,-4.12861 0,-2.64308 1.4373,-4.19613 1.44694,-1.55306 3.80064,-1.55306 2.18006,0 3.35691,1.27331 1.18649,1.27331 1.18649,3.61736 z m -1.76527,-1.38906 q -0.01,-1.42765 -0.72347,-2.209 -0.70418,-0.78135 -2.15112,-0.78135 -1.45659,0 -2.32476,0.85852 -0.85852,0.85852 -0.97427,2.13183 z"
         style="font-style:normal;font-variant:normal;font-weight:normal;font-stretch:normal;font-size:19.7556px;font-family:Verdana;-inkscape-font-specification:Verdana;fill:#ffffff;stroke-width:0.0700042"
         id="path1011" />
      <path
         d="m 199.0258,223.02254 h -6.01928 v -1.74597 h 6.01928 z"
         style="font-style:normal;font-variant:normal;font-weight:normal;font-stretch:normal;font-size:19.7556px;font-family:Verdana;-inkscape-font-specification:Verdana;fill:#ffffff;stroke-width:0.0700042"
         id="path1013" />
      <path
         d="m 212.12546,224.39232 h -2.13183 v 4.04179 h -1.85208 v -4.04179 h -6.87781 v -2.21865 l 6.95498,-8.10288 h 1.77491 v 8.77812 h 2.13183 z m -3.98391,-1.54341 v -6.48231 l -5.56591,6.48231 z"
         style="font-style:normal;font-variant:normal;font-weight:normal;font-stretch:normal;font-size:19.7556px;font-family:Verdana;-inkscape-font-specification:Verdana;fill:#ffffff;stroke-width:0.0700042"
         id="path1015" />
      <path
         d="m 224.35695,221.24763 q 0,3.86816 -1.21544,5.68166 -1.20578,1.80386 -3.7524,1.80386 -2.58521,0 -3.78135,-1.8328 -1.18649,-1.83279 -1.18649,-5.63343 0,-3.82958 1.20579,-5.65273 1.20578,-1.83279 3.76205,-1.83279 2.5852,0 3.7717,1.86173 1.19614,1.85209 1.19614,5.6045 z m -2.53698,4.37941 q 0.33762,-0.78135 0.45338,-1.83279 0.1254,-1.06109 0.1254,-2.54662 0,-1.46624 -0.1254,-2.54662 -0.11576,-1.08039 -0.46302,-1.8328 -0.33762,-0.74276 -0.92605,-1.11897 -0.57877,-0.3762 -1.49517,-0.3762 -0.90675,0 -1.50482,0.3762 -0.58843,0.37621 -0.93569,1.13826 -0.32798,0.71383 -0.45338,1.86174 -0.11575,1.14791 -0.11575,2.51768 0,1.50482 0.10611,2.51768 0.1061,1.01286 0.45337,1.8135 0.31833,0.75241 0.89711,1.14791 0.58842,0.3955 1.55305,0.3955 0.90675,0 1.50482,-0.37621 0.59807,-0.3762 0.92604,-1.13826 z"
         style="font-style:normal;font-variant:normal;font-weight:normal;font-stretch:normal;font-size:19.7556px;font-family:Verdana;-inkscape-font-specification:Verdana;fill:#ffffff;stroke-width:0.0700042"
         id="path1017" />
      <path
         d="m 236.48234,223.23476 h -7.9389 q 0,0.99357 0.29904,1.73633 0.29903,0.73312 0.81993,1.20579 0.50161,0.46302 1.18649,0.69453 0.69454,0.23151 1.52412,0.23151 1.09968,0 2.209,-0.43408 1.11897,-0.44373 1.59164,-0.86816 h 0.0965 v 1.97748 q -0.9164,0.38586 -1.87138,0.64631 -0.95498,0.26045 -2.00643,0.26045 -2.68167,0 -4.18649,-1.44695 -1.50482,-1.45659 -1.50482,-4.12861 0,-2.64308 1.4373,-4.19613 1.44694,-1.55306 3.80064,-1.55306 2.18006,0 3.3569,1.27331 1.1865,1.27331 1.1865,3.61736 z m -1.76527,-1.38906 q -0.01,-1.42765 -0.72348,-2.209 -0.70417,-0.78135 -2.15112,-0.78135 -1.45659,0 -2.32475,0.85852 -0.85852,0.85852 -0.97428,2.13183 z"
         style="font-style:normal;font-variant:normal;font-weight:normal;font-stretch:normal;font-size:19.7556px;font-family:Verdana;-inkscape-font-specification:Verdana;fill:#ffffff;stroke-width:0.0700042"
         id="path1019" />
      <path
         d="m 247.97107,228.43411 h -1.8135 v -1.12861 q -0.78135,0.67524 -1.63022,1.05144 -0.84888,0.37621 -1.84244,0.37621 -1.92926,0 -3.06752,-1.48553 -1.12862,-1.48553 -1.12862,-4.11897 0,-1.36977 0.38585,-2.44051 0.3955,-1.07074 1.06109,-1.82315 0.65595,-0.73311 1.52412,-1.11897 0.87781,-0.38585 1.8135,-0.38585 0.84887,0 1.50482,0.18328 0.65595,0.17364 1.37942,0.54984 v -4.6688 h 1.8135 z m -1.8135,-2.65273 v -6.18327 q -0.73312,-0.32797 -1.31189,-0.45337 -0.57878,-0.12541 -1.26367,-0.12541 -1.52411,0 -2.37299,1.0611 -0.84887,1.06109 -0.84887,3.00964 0,1.91961 0.65595,2.92282 0.65595,0.99357 2.10289,0.99357 0.7717,0 1.5627,-0.33762 0.79099,-0.34726 1.47588,-0.88746 z"
         style="font-style:normal;font-variant:normal;font-weight:normal;font-stretch:normal;font-size:19.7556px;font-family:Verdana;-inkscape-font-specification:Verdana;fill:#ffffff;stroke-width:0.0700042"
         id="path1021" />
      <path
         d="m 257.25079,223.02254 h -6.01928 v -1.74597 h 6.01928 z"
         style="font-style:normal;font-variant:normal;font-weight:normal;font-stretch:normal;font-size:19.7556px;font-family:Verdana;-inkscape-font-specification:Verdana;fill:#ffffff;stroke-width:0.0700042"
         id="path1023" />
      <path
         d="m 270.12859,224.4309 q 0,1.86174 -1.45659,3.09646 -1.44694,1.23473 -3.6463,1.23473 -2.3344,0 -3.72347,-1.20579 -1.37941,-1.20579 -1.37941,-3.08681 0,-1.19614 0.69453,-2.16077 0.69453,-0.97428 1.95819,-1.54341 v -0.0579 q -1.15755,-0.61737 -1.71703,-1.35049 -0.54984,-0.73311 -0.54984,-1.83279 0,-1.62058 1.33118,-2.70096 1.33119,-1.08039 3.38585,-1.08039 2.15112,0 3.43408,1.03216 1.28296,1.03215 1.28296,2.62379 0,0.97427 -0.60772,1.91961 -0.60772,0.93569 -1.78456,1.46624 v 0.0579 q 1.35048,0.57878 2.0643,1.42765 0.71383,0.84888 0.71383,2.16077 z m -2.28617,-7.01285 q 0,-1.03215 -0.80064,-1.63987 -0.791,-0.61736 -2.02572,-0.61736 -1.21544,0 -1.99679,0.57878 -0.7717,0.57877 -0.7717,1.56269 0,0.69454 0.38585,1.20579 0.3955,0.50161 1.1865,0.89711 0.35691,0.17363 1.0225,0.45337 0.67524,0.27974 1.3119,0.46302 0.95498,-0.63665 1.32154,-1.32154 0.36656,-0.68488 0.36656,-1.58199 z m 0.29903,7.19613 q 0,-0.88746 -0.39549,-1.418 -0.38586,-0.54019 -1.52412,-1.08039 -0.45337,-0.21222 -0.99357,-0.39549 -0.54019,-0.18328 -1.43729,-0.51126 -0.86817,0.47267 -1.39871,1.28296 -0.5209,0.81029 -0.5209,1.83279 0,1.30225 0.8971,2.15113 0.89711,0.84887 2.27652,0.84887 1.40836,0 2.24759,-0.72347 0.84887,-0.72347 0.84887,-1.98714 z"
         style="font-style:normal;font-variant:normal;font-weight:normal;font-stretch:normal;font-size:19.7556px;font-family:Verdana;-inkscape-font-specification:Verdana;fill:#ffffff;stroke-width:0.0700042"
         id="path1025" />
      <path
         d="m 281.07713,227.75887 q -0.90675,0.43409 -1.72668,0.67524 -0.81029,0.24116 -1.72669,0.24116 -1.1672,0 -2.14148,-0.33762 -0.97427,-0.34727 -1.6688,-1.0418 -0.70418,-0.69453 -1.09003,-1.75562 -0.38586,-1.0611 -0.38586,-2.4791 0,-2.64308 1.44695,-4.1479 1.45659,-1.50483 3.83922,-1.50483 0.92604,0 1.8135,0.26045 0.89711,0.26045 1.63987,0.63666 v 2.01607 h -0.0965 q -0.82958,-0.6463 -1.71704,-0.99356 -0.87781,-0.34727 -1.71704,-0.34727 -1.54341,0 -2.44051,1.0418 -0.88746,1.03215 -0.88746,3.03858 0,1.94855 0.86817,3 0.87781,1.04179 2.4598,1.04179 0.54984,0 1.11897,-0.14469 0.56913,-0.14469 1.02251,-0.3762 0.39549,-0.20258 0.74276,-0.42444 0.34727,-0.23151 0.54984,-0.3955 h 0.0965 z"
         style="font-style:normal;font-variant:normal;font-weight:normal;font-stretch:normal;font-size:19.7556px;font-family:Verdana;-inkscape-font-specification:Verdana;fill:#ffffff;stroke-width:0.0700042"
         id="path1027" />
      <path
         d="m 291.63981,221.51772 q 0.46302,0.41479 0.76206,1.0418 0.29903,0.62701 0.29903,1.62058 0,0.98392 -0.35691,1.80386 -0.35691,0.81993 -1.00321,1.42765 -0.72347,0.67524 -1.7074,1.00321 -0.97427,0.31833 -2.14147,0.31833 -1.19614,0 -2.3537,-0.28939 -1.15755,-0.27974 -1.90032,-0.61736 v -2.01608 h 0.1447 q 0.81993,0.54019 1.92926,0.89711 1.10932,0.35691 2.14147,0.35691 0.60772,0 1.29261,-0.20257 0.68488,-0.20257 1.10932,-0.59807 0.44373,-0.42444 0.65595,-0.93569 0.22186,-0.51126 0.22186,-1.29261 0,-0.7717 -0.2508,-1.27331 -0.24116,-0.51125 -0.67524,-0.80064 -0.43409,-0.29903 -1.05145,-0.40514 -0.61736,-0.11576 -1.33119,-0.11576 h -0.86816 v -1.60128 h 0.67524 q 1.46623,0 2.3344,-0.60772 0.87781,-0.61736 0.87781,-1.79421 0,-0.5209 -0.22186,-0.90675 -0.22187,-0.3955 -0.61736,-0.6463 -0.41479,-0.2508 -0.88746,-0.34727 -0.47267,-0.0965 -1.07074,-0.0965 -0.9164,0 -1.94855,0.32798 -1.03215,0.32797 -1.94855,0.92604 h -0.0965 v -2.01608 q 0.68488,-0.33762 1.82314,-0.61736 1.14791,-0.28939 2.21865,-0.28939 1.05145,0 1.85209,0.19293 0.80064,0.19292 1.44694,0.61736 0.69453,0.46302 1.05145,1.11897 0.35691,0.65595 0.35691,1.53376 0,1.19614 -0.84887,2.09325 -0.83923,0.88745 -1.98714,1.11897 v 0.13504 q 0.46302,0.0772 1.06109,0.32798 0.59807,0.24115 1.01286,0.60771 z"
         style="font-style:normal;font-variant:normal;font-weight:normal;font-stretch:normal;font-size:19.7556px;font-family:Verdana;-inkscape-font-specification:Verdana;fill:#ffffff;stroke-width:0.0700042"
         id="path1029" />
      <path
         d="m 301.78771,215.18011 h -0.0965 q -0.29903,-0.0868 -0.78135,-0.17363 -0.48231,-0.0965 -0.84887,-0.0965 -1.1672,0 -1.69775,0.52089 -0.5209,0.51126 -0.5209,1.86174 v 0.36656 h 3.27009 v 1.52411 h -3.21221 v 9.25079 h -1.8135 v -9.25079 h -1.22508 v -1.52411 h 1.22508 v -0.35692 q 0,-1.91961 0.95498,-2.94211 0.95498,-1.03216 2.75884,-1.03216 0.60771,0 1.09003,0.0579 0.49196,0.0579 0.8971,0.13505 z"
         style="font-style:normal;font-variant:normal;font-weight:normal;font-stretch:normal;font-size:19.7556px;font-family:Verdana;-inkscape-font-specification:Verdana;fill:#ffffff;stroke-width:0.0700042"
         id="path1031" />
      <path
         d="m 308.64622,223.02254 h -6.01928 v -1.74597 h 6.01928 z"
         style="font-style:normal;font-variant:normal;font-weight:normal;font-stretch:normal;font-size:19.7556px;font-family:Verdana;-inkscape-font-specification:Verdana;fill:#ffffff;stroke-width:0.0700042"
         id="path1033" />
      <path
         d="m 321.52402,224.4309 q 0,1.86174 -1.45659,3.09646 -1.44694,1.23473 -3.6463,1.23473 -2.3344,0 -3.72346,-1.20579 -1.37942,-1.20579 -1.37942,-3.08681 0,-1.19614 0.69453,-2.16077 0.69453,-0.97428 1.9582,-1.54341 v -0.0579 q -1.15756,-0.61737 -1.71704,-1.35049 -0.54984,-0.73311 -0.54984,-1.83279 0,-1.62058 1.33119,-2.70096 1.33118,-1.08039 3.38584,-1.08039 2.15113,0 3.43408,1.03216 1.28296,1.03215 1.28296,2.62379 0,0.97427 -0.60772,1.91961 -0.60771,0.93569 -1.78456,1.46624 v 0.0579 q 1.35048,0.57878 2.06431,1.42765 0.71382,0.84888 0.71382,2.16077 z m -2.28617,-7.01285 q 0,-1.03215 -0.80064,-1.63987 -0.791,-0.61736 -2.02572,-0.61736 -1.21544,0 -1.99678,0.57878 -0.77171,0.57877 -0.77171,1.56269 0,0.69454 0.38585,1.20579 0.3955,0.50161 1.1865,0.89711 0.35691,0.17363 1.0225,0.45337 0.67524,0.27974 1.3119,0.46302 0.95498,-0.63665 1.32154,-1.32154 0.36656,-0.68488 0.36656,-1.58199 z m 0.29903,7.19613 q 0,-0.88746 -0.39549,-1.418 -0.38585,-0.54019 -1.52412,-1.08039 -0.45337,-0.21222 -0.99356,-0.39549 -0.5402,-0.18328 -1.4373,-0.51126 -0.86817,0.47267 -1.39871,1.28296 -0.5209,0.81029 -0.5209,1.83279 0,1.30225 0.8971,2.15113 0.89711,0.84887 2.27653,0.84887 1.40835,0 2.24758,-0.72347 0.84887,-0.72347 0.84887,-1.98714 z"
         style="font-style:normal;font-variant:normal;font-weight:normal;font-stretch:normal;font-size:19.7556px;font-family:Verdana;-inkscape-font-specification:Verdana;fill:#ffffff;stroke-width:0.0700042"
         id="path1035" />
      <path
         d="m 333.97738,221.24763 q 0,3.86816 -1.21543,5.68166 -1.20578,1.80386 -3.7524,1.80386 -2.58521,0 -3.78135,-1.8328 -1.18649,-1.83279 -1.18649,-5.63343 0,-3.82958 1.20578,-5.65273 1.20579,-1.83279 3.76206,-1.83279 2.5852,0 3.77169,1.86173 1.19614,1.85209 1.19614,5.6045 z m -2.53697,4.37941 q 0.33762,-0.78135 0.45338,-1.83279 0.1254,-1.06109 0.1254,-2.54662 0,-1.46624 -0.1254,-2.54662 -0.11576,-1.08039 -0.46303,-1.8328 -0.33762,-0.74276 -0.92604,-1.11897 -0.57878,-0.3762 -1.49517,-0.3762 -0.90676,0 -1.50483,0.3762 -0.58842,0.37621 -0.93569,1.13826 -0.32797,0.71383 -0.45337,1.86174 -0.11576,1.14791 -0.11576,2.51768 0,1.50482 0.10611,2.51768 0.10611,1.01286 0.45338,1.8135 0.31833,0.75241 0.8971,1.14791 0.58843,0.3955 1.55306,0.3955 0.90675,0 1.50482,-0.37621 0.59807,-0.3762 0.92604,-1.13826 z"
         style="font-style:normal;font-variant:normal;font-weight:normal;font-stretch:normal;font-size:19.7556px;font-family:Verdana;-inkscape-font-specification:Verdana;fill:#ffffff;stroke-width:0.0700042"
         id="path1037" />
      <path
         d="m 346.78766,223.77495 q 0,2.18971 -1.44694,3.57878 -1.4373,1.37942 -3.53054,1.37942 -1.0611,0 -1.92926,-0.32798 -0.86817,-0.32797 -1.53376,-0.97427 -0.82958,-0.80064 -1.28296,-2.12219 -0.44373,-1.32154 -0.44373,-3.18327 0,-1.90997 0.40515,-3.38585 0.41479,-1.47588 1.31189,-2.62379 0.84888,-1.09003 2.18971,-1.69775 1.34083,-0.61736 3.1254,-0.61736 0.56913,0 0.95498,0.0482 0.38585,0.0482 0.78135,0.17364 v 1.84244 h -0.0965 q -0.2701,-0.1447 -0.81994,-0.2701 -0.54019,-0.13505 -1.10932,-0.13505 -2.07395,0 -3.30868,1.30225 -1.23472,1.29261 -1.4373,3.50161 0.81029,-0.49197 1.59164,-0.74277 0.791,-0.26045 1.82315,-0.26045 0.9164,0 1.61093,0.17363 0.70418,0.16399 1.4373,0.67525 0.84887,0.58842 1.27331,1.48552 0.43408,0.89711 0.43408,2.18006 z m -1.9582,0.0772 q 0,-0.89711 -0.27009,-1.48553 -0.26045,-0.58843 -0.86817,-1.02251 -0.44373,-0.30868 -0.98392,-0.40514 -0.54019,-0.0965 -1.12861,-0.0965 -0.81994,0 -1.52412,0.19293 -0.70418,0.19292 -1.44694,0.59807 -0.0193,0.21222 -0.0289,0.41479 -0.01,0.19292 -0.01,0.49196 0,1.52411 0.30868,2.41157 0.31833,0.87781 0.86817,1.38907 0.44373,0.42443 0.95498,0.62701 0.5209,0.19292 1.12862,0.19292 1.39871,0 2.19935,-0.84887 0.80064,-0.85852 0.80064,-2.4598 z"
         style="font-style:normal;font-variant:normal;font-weight:normal;font-stretch:normal;font-size:19.7556px;font-family:Verdana;-inkscape-font-specification:Verdana;fill:#ffffff;stroke-width:0.0700042"
         id="path1039" />
      <path
         d="m 359.26032,224.4309 q 0,1.86174 -1.45659,3.09646 -1.44694,1.23473 -3.6463,1.23473 -2.3344,0 -3.72347,-1.20579 -1.37942,-1.20579 -1.37942,-3.08681 0,-1.19614 0.69454,-2.16077 0.69453,-0.97428 1.95819,-1.54341 v -0.0579 q -1.15755,-0.61737 -1.71704,-1.35049 -0.54983,-0.73311 -0.54983,-1.83279 0,-1.62058 1.33118,-2.70096 1.33119,-1.08039 3.38585,-1.08039 2.15112,0 3.43408,1.03216 1.28296,1.03215 1.28296,2.62379 0,0.97427 -0.60772,1.91961 -0.60772,0.93569 -1.78456,1.46624 v 0.0579 q 1.35048,0.57878 2.0643,1.42765 0.71383,0.84888 0.71383,2.16077 z m -2.28617,-7.01285 q 0,-1.03215 -0.80064,-1.63987 -0.791,-0.61736 -2.02573,-0.61736 -1.21543,0 -1.99678,0.57878 -0.7717,0.57877 -0.7717,1.56269 0,0.69454 0.38585,1.20579 0.3955,0.50161 1.1865,0.89711 0.35691,0.17363 1.0225,0.45337 0.67524,0.27974 1.3119,0.46302 0.95498,-0.63665 1.32154,-1.32154 0.36656,-0.68488 0.36656,-1.58199 z m 0.29903,7.19613 q 0,-0.88746 -0.3955,-1.418 -0.38585,-0.54019 -1.52411,-1.08039 -0.45337,-0.21222 -0.99357,-0.39549 -0.54019,-0.18328 -1.43729,-0.51126 -0.86817,0.47267 -1.39872,1.28296 -0.5209,0.81029 -0.5209,1.83279 0,1.30225 0.89711,2.15113 0.8971,0.84887 2.27652,0.84887 1.40836,0 2.24759,-0.72347 0.84887,-0.72347 0.84887,-1.98714 z"
         style="font-style:normal;font-variant:normal;font-weight:normal;font-stretch:normal;font-size:19.7556px;font-family:Verdana;-inkscape-font-specification:Verdana;fill:#ffffff;stroke-width:0.0700042"
         id="path1041" />
      <path
         d="m 371.71365,220.38911 q 0,1.88102 -0.43408,3.41478 -0.42444,1.53376 -1.2926,2.61415 -0.87782,1.09968 -2.19936,1.69775 -1.32154,0.59806 -3.1061,0.59806 -0.50161,0 -0.94534,-0.0579 -0.44373,-0.0482 -0.791,-0.16399 v -1.84244 h 0.0965 q 0.27974,0.14469 0.79099,0.27974 0.51126,0.1254 1.13827,0.1254 2.13183,0 3.33761,-1.27331 1.21543,-1.28295 1.40836,-3.53054 -0.89711,0.54019 -1.6881,0.7717 -0.791,0.23152 -1.72669,0.23152 -0.88746,0 -1.61093,-0.17364 -0.71382,-0.17363 -1.43729,-0.67524 -0.84888,-0.58842 -1.28296,-1.49517 -0.42444,-0.90675 -0.42444,-2.17042 0,-2.19935 1.44695,-3.57877 1.44694,-1.37942 3.53054,-1.37942 1.0418,0 1.92926,0.32797 0.88745,0.31833 1.55305,0.96463 0.81993,0.80064 1.26366,2.06431 0.44373,1.25402 0.44373,3.2508 z m -1.94855,-0.41479 q 0,-1.49518 -0.30868,-2.40193 -0.30868,-0.90675 -0.84887,-1.40836 -0.45338,-0.43408 -0.97428,-0.61736 -0.5209,-0.19293 -1.12861,-0.19293 -1.38907,0 -2.19936,0.86817 -0.80064,0.86817 -0.80064,2.44051 0,0.9164 0.26045,1.49518 0.26045,0.57877 0.87781,1.01286 0.43408,0.29903 0.95498,0.40514 0.5209,0.0965 1.15756,0.0965 0.75241,0 1.52411,-0.20257 0.77171,-0.20257 1.44695,-0.58842 0.01,-0.20257 0.0193,-0.3955 0.0193,-0.20257 0.0193,-0.51125 z"
         style="font-style:normal;font-variant:normal;font-weight:normal;font-stretch:normal;font-size:19.7556px;font-family:Verdana;-inkscape-font-specification:Verdana;fill:#ffffff;stroke-width:0.0700042"
         id="path1043" />
      <path
         d="m 384.29242,220.38911 q 0,1.88102 -0.43409,3.41478 -0.42443,1.53376 -1.2926,2.61415 -0.87781,1.09968 -2.19935,1.69775 -1.32154,0.59806 -3.10611,0.59806 -0.5016,0 -0.94533,-0.0579 -0.44373,-0.0482 -0.791,-0.16399 v -1.84244 h 0.0965 q 0.27975,0.14469 0.791,0.27974 0.51125,0.1254 1.13826,0.1254 2.13183,0 3.33762,-1.27331 1.21543,-1.28295 1.40836,-3.53054 -0.89711,0.54019 -1.6881,0.7717 -0.791,0.23152 -1.72669,0.23152 -0.88746,0 -1.61093,-0.17364 -0.71383,-0.17363 -1.4373,-0.67524 -0.84887,-0.58842 -1.28295,-1.49517 -0.42444,-0.90675 -0.42444,-2.17042 0,-2.19935 1.44694,-3.57877 1.44695,-1.37942 3.53054,-1.37942 1.0418,0 1.92926,0.32797 0.88746,0.31833 1.55305,0.96463 0.81994,0.80064 1.26367,2.06431 0.44373,1.25402 0.44373,3.2508 z m -1.94855,-0.41479 q 0,-1.49518 -0.30868,-2.40193 -0.30869,-0.90675 -0.84888,-1.40836 -0.45337,-0.43408 -0.97427,-0.61736 -0.5209,-0.19293 -1.12862,-0.19293 -1.38906,0 -2.19935,0.86817 -0.80064,0.86817 -0.80064,2.44051 0,0.9164 0.26045,1.49518 0.26045,0.57877 0.87781,1.01286 0.43408,0.29903 0.95498,0.40514 0.5209,0.0965 1.15755,0.0965 0.75242,0 1.52412,-0.20257 0.7717,-0.20257 1.44694,-0.58842 0.01,-0.20257 0.0193,-0.3955 0.0193,-0.20257 0.0193,-0.51125 z"
         style="font-style:normal;font-variant:normal;font-weight:normal;font-stretch:normal;font-size:19.7556px;font-family:Verdana;-inkscape-font-specification:Verdana;fill:#ffffff;stroke-width:0.0700042"
         id="path1045" />
      <path
         d="m 396.41781,223.23476 h -7.9389 q 0,0.99357 0.29904,1.73633 0.29903,0.73312 0.81993,1.20579 0.50161,0.46302 1.1865,0.69453 0.69453,0.23151 1.52411,0.23151 1.09968,0 2.209,-0.43408 1.11897,-0.44373 1.59164,-0.86816 h 0.0965 v 1.97748 q -0.9164,0.38586 -1.87138,0.64631 -0.95498,0.26045 -2.00643,0.26045 -2.68167,0 -4.18649,-1.44695 -1.50482,-1.45659 -1.50482,-4.12861 0,-2.64308 1.4373,-4.19613 1.44694,-1.55306 3.80064,-1.55306 2.18006,0 3.3569,1.27331 1.1865,1.27331 1.1865,3.61736 z m -1.76527,-1.38906 q -0.01,-1.42765 -0.72347,-2.209 -0.70418,-0.78135 -2.15113,-0.78135 -1.45659,0 -2.32475,0.85852 -0.85852,0.85852 -0.97428,2.13183 z"
         style="font-style:normal;font-variant:normal;font-weight:normal;font-stretch:normal;font-size:19.7556px;font-family:Verdana;-inkscape-font-specification:Verdana;fill:#ffffff;stroke-width:0.0700042"
         id="path1047" />
      <path
         d="m 408.54318,223.87142 q 0,1.00321 -0.36656,1.91961 -0.36655,0.9164 -1.00321,1.54341 -0.69453,0.67524 -1.65916,1.04179 -0.95498,0.35692 -2.21865,0.35692 -1.17684,0 -2.26688,-0.25081 -1.09003,-0.24115 -1.84244,-0.58842 v -2.03537 h 0.13505 q 0.791,0.50161 1.85209,0.85852 1.06109,0.34727 2.0836,0.34727 0.68488,0 1.32154,-0.19293 0.6463,-0.19292 1.14791,-0.67524 0.42443,-0.41479 0.63665,-0.99356 0.22187,-0.57878 0.22187,-1.34084 0,-0.74276 -0.26045,-1.25402 -0.25081,-0.51125 -0.70418,-0.81993 -0.50161,-0.36656 -1.22508,-0.51125 -0.71383,-0.15434 -1.60128,-0.15434 -0.84888,0 -1.63987,0.11575 -0.78135,0.11576 -1.35048,0.23151 v -7.3987 h 8.64307 v 1.6881 h -6.78134 v 3.81993 q 0.41479,-0.0386 0.84887,-0.0579 0.43409,-0.0193 0.75241,-0.0193 1.1672,0 2.04502,0.20257 0.87781,0.19293 1.61093,0.69453 0.7717,0.53055 1.19614,1.36978 0.42443,0.83922 0.42443,2.10289 z"
         style="font-style:normal;font-variant:normal;font-weight:normal;font-stretch:normal;font-size:19.7556px;font-family:Verdana;-inkscape-font-specification:Verdana;fill:#ffffff;stroke-width:0.0700042"
         id="path1050" />
      <path
         d="m 421.22806,222.96467 q 0,1.35048 -0.38585,2.43086 -0.37621,1.08039 -1.02251,1.8135 -0.68489,0.76206 -1.50482,1.14791 -0.81994,0.37621 -1.80386,0.37621 -0.91639,0 -1.60128,-0.22187 -0.68489,-0.21222 -1.35048,-0.57877 l -0.11576,0.5016 h -1.69774 v -15.00962 h 1.8135 v 5.36333 q 0.76206,-0.62701 1.62058,-1.0225 0.85852,-0.40515 1.92925,-0.40515 1.90997,0 3.00965,1.46624 1.10932,1.46623 1.10932,4.13826 z m -1.87138,0.0482 q 0,-1.92926 -0.63666,-2.92283 -0.63665,-1.00321 -2.05466,-1.00321 -0.79099,0 -1.60128,0.34726 -0.81029,0.33762 -1.50482,0.87782 v 6.17362 q 0.7717,0.34727 1.32154,0.48232 0.55949,0.13504 1.26366,0.13504 1.50483,0 2.3537,-0.98392 0.85852,-0.99356 0.85852,-3.1061 z"
         style="font-style:normal;font-variant:normal;font-weight:normal;font-stretch:normal;font-size:19.7556px;font-family:Verdana;-inkscape-font-specification:Verdana;fill:#ffffff;stroke-width:0.0700042"
         id="path1052" />
      <path
         d="m 433.75861,223.77495 q 0,2.18971 -1.44694,3.57878 -1.4373,1.37942 -3.53055,1.37942 -1.06109,0 -1.92925,-0.32798 -0.86817,-0.32797 -1.53376,-0.97427 -0.82959,-0.80064 -1.28296,-2.12219 -0.44373,-1.32154 -0.44373,-3.18327 0,-1.90997 0.40514,-3.38585 0.41479,-1.47588 1.3119,-2.62379 0.84887,-1.09003 2.18971,-1.69775 1.34083,-0.61736 3.12539,-0.61736 0.56914,0 0.95499,0.0482 0.38585,0.0482 0.78135,0.17364 v 1.84244 h -0.0965 q -0.27009,-0.1447 -0.81993,-0.2701 -0.54019,-0.13505 -1.10932,-0.13505 -2.07396,0 -3.30868,1.30225 -1.23473,1.29261 -1.4373,3.50161 0.81029,-0.49197 1.59164,-0.74277 0.791,-0.26045 1.82315,-0.26045 0.9164,0 1.61093,0.17363 0.70418,0.16399 1.4373,0.67525 0.84887,0.58842 1.27331,1.48552 0.43408,0.89711 0.43408,2.18006 z m -1.9582,0.0772 q 0,-0.89711 -0.27009,-1.48553 -0.26045,-0.58843 -0.86817,-1.02251 -0.44373,-0.30868 -0.98392,-0.40514 -0.54019,-0.0965 -1.12862,-0.0965 -0.81993,0 -1.52411,0.19293 -0.70418,0.19292 -1.44694,0.59807 -0.0193,0.21222 -0.0289,0.41479 -0.01,0.19292 -0.01,0.49196 0,1.52411 0.30868,2.41157 0.31833,0.87781 0.86817,1.38907 0.44373,0.42443 0.95498,0.62701 0.5209,0.19292 1.12862,0.19292 1.39871,0 2.19935,-0.84887 0.80064,-0.85852 0.80064,-2.4598 z"
         style="font-style:normal;font-variant:normal;font-weight:normal;font-stretch:normal;font-size:19.7556px;font-family:Verdana;-inkscape-font-specification:Verdana;fill:#ffffff;stroke-width:0.0700042"
         id="path1054" />
      <path
         d="m 446.11548,222.96467 q 0,1.35048 -0.38585,2.43086 -0.37621,1.08039 -1.02251,1.8135 -0.68489,0.76206 -1.50482,1.14791 -0.81993,0.37621 -1.80386,0.37621 -0.91639,0 -1.60128,-0.22187 -0.68489,-0.21222 -1.35048,-0.57877 l -0.11576,0.5016 h -1.69774 v -15.00962 h 1.8135 v 5.36333 q 0.76206,-0.62701 1.62058,-1.0225 0.85852,-0.40515 1.92925,-0.40515 1.90997,0 3.00965,1.46624 1.10932,1.46623 1.10932,4.13826 z m -1.87138,0.0482 q 0,-1.92926 -0.63666,-2.92283 -0.63665,-1.00321 -2.05466,-1.00321 -0.79099,0 -1.60128,0.34726 -0.81029,0.33762 -1.50482,0.87782 v 6.17362 q 0.7717,0.34727 1.32154,0.48232 0.55949,0.13504 1.26367,0.13504 1.50482,0 2.35369,-0.98392 0.85852,-0.99356 0.85852,-3.1061 z"
         style="font-style:normal;font-variant:normal;font-weight:normal;font-stretch:normal;font-size:19.7556px;font-family:Verdana;-inkscape-font-specification:Verdana;fill:#ffffff;stroke-width:0.0700042"
         id="path1056" />
      <path
         d="m 458.76178,224.39232 h -2.13183 v 4.04179 h -1.85208 v -4.04179 h -6.87781 v -2.21865 l 6.95498,-8.10288 h 1.77491 v 8.77812 h 2.13183 z m -3.98391,-1.54341 v -6.48231 l -5.56591,6.48231 z"
         style="font-style:normal;font-variant:normal;font-weight:normal;font-stretch:normal;font-size:19.7556px;font-family:Verdana;-inkscape-font-specification:Verdana;fill:#ffffff;stroke-width:0.0700042"
         id="path1058" />
    </g>
  </g>
</svg>
