<?xml version="1.0" encoding="UTF-8" standalone="no"?>
<svg
   version="1.1"
   id="svg883"
   width="2560"
   height="1440"
   viewBox="0 0 2560 1440"
   sodipodi:docname="installing-old-homebrew-formula-versions.svg"
   inkscape:version="1.3 (0e150ed, 2023-07-21)"
   xml:space="preserve"
   xmlns:inkscape="http://www.inkscape.org/namespaces/inkscape"
   xmlns:sodipodi="http://sodipodi.sourceforge.net/DTD/sodipodi-0.dtd"
   xmlns="http://www.w3.org/2000/svg"
   xmlns:svg="http://www.w3.org/2000/svg"
   xmlns:rdf="http://www.w3.org/1999/02/22-rdf-syntax-ns#"
   xmlns:cc="http://creativecommons.org/ns#"
   xmlns:dc="http://purl.org/dc/elements/1.1/"
   xmlns:serif="http://www.serif.com/"><metadata
     id="metadata889"><rdf:RDF><cc:Work
         rdf:about=""><dc:format>image/svg+xml</dc:format><dc:type
           rdf:resource="http://purl.org/dc/dcmitype/StillImage" /></cc:Work></rdf:RDF></metadata><defs
     id="defs887" /><sodipodi:namedview
     pagecolor="#ffffff"
     bordercolor="#666666"
     borderopacity="1"
     objecttolerance="10"
     gridtolerance="10"
     guidetolerance="10"
     inkscape:pageopacity="0"
     inkscape:pageshadow="2"
     inkscape:window-width="1920"
     inkscape:window-height="1110"
     id="namedview885"
     showgrid="false"
     showguides="true"
     inkscape:guide-bbox="true"
     inkscape:zoom="0.33745759"
     inkscape:cx="1148.2924"
     inkscape:cy="825.28888"
     inkscape:window-x="0"
     inkscape:window-y="43"
     inkscape:window-maximized="1"
     inkscape:current-layer="g891"
     inkscape:document-rotation="0"
     inkscape:showpageshadow="2"
     inkscape:pagecheckerboard="0"
     inkscape:deskcolor="#d1d1d1" /><g
     inkscape:groupmode="layer"
     inkscape:label="Image"
     id="g891"><rect
       style="fill:#2e2a24;fill-opacity:1;stroke-width:15;stroke-linecap:round;stroke-linejoin:round"
       id="rect1252"
       width="2560"
       height="1440"
       x="0"
       y="0" /><g
       style="clip-rule:evenodd;fill-rule:evenodd;stroke-linejoin:round"
       id="g4"
       transform="matrix(1.865032,0,0,1.865032,1407.8345,467.28809)"><g
         id="Group"
         transform="translate(5.782,3.414)">&#10;        <g
   id="Path"
   transform="translate(13)">&#10;            <g
   transform="translate(24)"
   id="g1">&#10;                <path
   d="M 31.758,46.916 C 32.498,23.429 24.586,9.582 1.841,0.435 -4.624,23.049 22.066,43.9 31.758,46.916 Z"
   style="fill:#d1d3d4;stroke:#000000;stroke-width:4.79px"
   id="path1" />&#10;            </g>&#10;            <path
   d="M 117.441,86.72 C 118.181,67.434 113.31,59.65 109.654,54.084 105.945,48.892 97.045,40.732 86.11,40.39 75.769,40.066 73.282,45.782 63.742,46.127 62.178,28.755 75.289,19.222 75.289,19.222 c 0,0 -3.585,-5.067 -6.551,-6.305 C 64.472,16.708 52.73,29.353 55.447,45.625 46.669,43.947 40.473,38.923 31.252,40.737 18.69,43.209 8.335,50.804 2.433,67.47 c -5.901,16.667 2.083,36.111 3.819,41.664 1.737,5.558 14.584,29.164 24.653,32.638 10.067,3.475 10.07,1.909 15.452,-0.173 5.383,-2.083 13.54,-5.902 25.522,-1.561 11.975,4.339 13.537,5.379 21,0.519 7.469,-4.859 17.188,-19.962 19.443,-24.303 2.257,-4.339 3.473,-6.597 4.17,-8.853 7.256,-3.621 0.283,-3.397 0.949,-20.681 z"
   style="fill:#d1d3d4;stroke:#000000;stroke-width:4.79px"
   id="path2" />&#10;        </g>&#10;        <g
   transform="translate(4,112)"
   id="g3">&#10;            <path
   id="Shape"
   d="m 145.932,115.67 c 4.785,0.017 9.38,-1.871 12.769,-5.248 3.39,-3.377 5.295,-7.965 5.295,-12.75 0.002,-18.273 0.002,-46.51 0.002,-64.833 0,-4.774 -1.896,-9.352 -5.272,-12.728 -3.376,-3.376 -7.954,-5.272 -12.728,-5.272 H 131.16 c -2.209,0 -4,-1.791 -4,-4 V 1.409 H 10.13 c 0,0 0.258,120.539 0.295,138.213 0.003,1.363 0.7,2.632 1.85,3.365 5.212,3.018 21.921,8.75 57.004,8.75 35.825,0 51.839,-7.674 56.424,-11.139 0.911,-0.756 1.438,-1.878 1.438,-3.062 0.019,-3.825 0.019,-12.688 0.019,-17.924 0,-1.075 0.433,-2.105 1.201,-2.857 0.768,-0.753 1.807,-1.164 2.882,-1.142 4.401,0.062 9.674,0.071 14.689,0.057 z M 127.16,35.864 c 0,-1.326 0.527,-2.598 1.464,-3.536 0.938,-0.937 2.21,-1.464 3.536,-1.464 h 12.738 c 1.326,0 2.598,0.527 3.536,1.464 0.937,0.938 1.464,2.21 1.464,3.536 v 58.185 c 0,1.326 -0.527,2.598 -1.464,3.536 -0.938,0.937 -2.21,1.464 -3.536,1.464 H 132.16 c -1.326,0 -2.598,-0.527 -3.536,-1.464 -0.937,-0.938 -1.464,-2.21 -1.464,-3.536 z"
   style="fill:#ffffff;fill-rule:nonzero;stroke:#000000;stroke-width:4.79px" />&#10;            <path
   id="Path1"
   serif:id="Path"
   d="m 21.667,0.249 v 123.986 c 0,1.431 0.764,2.753 2.003,3.467 5.061,2.412 19.743,8.169 45.484,8.169 25.912,0 40.158,-6.995 44.928,-9.878 1.139,-0.734 1.827,-1.997 1.827,-3.351 C 115.92,106.201 115.92,0.249 115.92,0.249 Z"
   style="fill:#fbb040" />&#10;            <g
   id="Path2"
   serif:id="Path"
   transform="matrix(1,0,0,0.849312,0,21.0375)">&#10;                <path
   d="M 35.521,0.249 V 113.065"
   style="fill:none;stroke:#ffdb96;stroke-width:11.96px;stroke-linecap:round;stroke-linejoin:miter"
   id="path3" />&#10;            </g>&#10;        </g>&#10;        <g
   id="Path3"
   serif:id="Path"
   transform="translate(-2,-2)">&#10;            <path
   d="m 94.773,139.692 c 0,-2 -1.177,-4.388 -3.11,-5.587 -3.145,-1.903 -5.604,-4.822 -6.942,-8.3 -25.591,0.861 -48.949,-3.633 -60.716,-6.806 -3.021,-0.856 -6.081,-1.567 -9.171,-2.13 -7.043,-1.397 -12.396,-7.582 -12.396,-15.018 0,-8.185 6.494,-14.836 14.608,-15.127 1.565,-8.657 9.121,-15.229 18.229,-15.229 10.242,0 18.544,8.304 18.544,18.545 0,2.155 -0.389,4.218 -1.064,6.144 l 0.055,0.009 c 2.287,-7.153 8.983,-12.336 16.896,-12.336 7.862,0 14.522,5.122 16.848,12.208 -0.067,-0.639 -0.101,-1.289 -0.101,-1.947 0,-10.652 8.634,-19.286 19.284,-19.286 8.622,0 15.919,5.659 18.388,13.462 l 1.681,-0.438 c 2.198,-1.239 4.729,-1.955 7.432,-1.955 8.369,0 15.154,6.785 15.151,15.152 0,7.666 -5.691,14.001 -13.079,15.012 -1.673,0.237 -3.314,0.663 -4.891,1.27 -4.391,1.655 -8.881,3.027 -13.417,4.159 -0.226,2.236 -0.892,4.342 -1.909,6.231 -1.84,3.452 -2.665,7.355 -2.38,11.257 -0.002,0.236 0.007,1.472 0.007,1.71 0,4.956 -4.016,7.972 -8.976,7.972 -4.953,0 -8.971,-4.015 -8.971,-8.972 z"
   style="fill:#ffffff;stroke:#000000;stroke-width:4.79px;stroke-linecap:round"
   id="path4" />&#10;        </g>&#10;    </g></g><g
       style="fill:none;stroke:#ffffff"
       id="g5"
       transform="matrix(38.095233,0,0,38.095233,547.40306,281.90479)"><path
         d="m 8.22673,13.3292 c 0.28819,0.8179 0.83443,1.5201 1.5564,2.0006 0.72197,0.4805 1.58057,0.7134 2.44647,0.6636 0.8658,-0.0498 1.692,-0.3797 2.3541,-0.9399 0.6621,-0.5602 1.1241,-1.3203 1.3166,-2.1659 0.1924,-0.8456 0.1048,-1.7309 -0.2496,-2.5224 C 15.2962,9.57374 14.6941,8.91887 13.9351,8.4993 13.176,8.07974 12.3012,7.91819 11.4424,8.03902 10.0777,8.23101 9.0827,9.23345 8,10 m 0,0 V 7 m 0,3 h 3"
         stroke="#000000"
         stroke-width="1.5"
         stroke-linecap="round"
         stroke-linejoin="round"
         id="path1-8"
         style="stroke:#ffffff" /></g></g></svg>
