<?xml version="1.0" encoding="UTF-8" standalone="no"?>
<svg
   version="1.1"
   id="svg883"
   width="2560"
   height="1440"
   viewBox="0 0 2560 1440"
   sodipodi:docname="installing-old-homebrew-cask-versions.svg"
   inkscape:version="1.3 (0e150ed, 2023-07-21)"
   xml:space="preserve"
   xmlns:inkscape="http://www.inkscape.org/namespaces/inkscape"
   xmlns:sodipodi="http://sodipodi.sourceforge.net/DTD/sodipodi-0.dtd"
   xmlns="http://www.w3.org/2000/svg"
   xmlns:svg="http://www.w3.org/2000/svg"
   xmlns:rdf="http://www.w3.org/1999/02/22-rdf-syntax-ns#"
   xmlns:cc="http://creativecommons.org/ns#"
   xmlns:dc="http://purl.org/dc/elements/1.1/"
   xmlns:serif="http://www.serif.com/"><metadata
     id="metadata889"><rdf:RDF><cc:Work
         rdf:about=""><dc:format>image/svg+xml</dc:format><dc:type
           rdf:resource="http://purl.org/dc/dcmitype/StillImage" /></cc:Work></rdf:RDF></metadata><defs
     id="defs887" /><sodipodi:namedview
     pagecolor="#ffffff"
     bordercolor="#666666"
     borderopacity="1"
     objecttolerance="10"
     gridtolerance="10"
     guidetolerance="10"
     inkscape:pageopacity="0"
     inkscape:pageshadow="2"
     inkscape:window-width="1920"
     inkscape:window-height="1110"
     id="namedview885"
     showgrid="false"
     showguides="true"
     inkscape:guide-bbox="true"
     inkscape:zoom="0.3775506"
     inkscape:cx="1471.326"
     inkscape:cy="933.64969"
     inkscape:window-x="0"
     inkscape:window-y="43"
     inkscape:window-maximized="1"
     inkscape:current-layer="g891"
     inkscape:document-rotation="0"
     inkscape:showpageshadow="2"
     inkscape:pagecheckerboard="0"
     inkscape:deskcolor="#d1d1d1" /><g
     inkscape:groupmode="layer"
     inkscape:label="Image"
     id="g891"><rect
       style="fill:#2e2a24;fill-opacity:1;stroke-width:15;stroke-linecap:round;stroke-linejoin:round"
       id="rect1252"
       width="2560"
       height="1440"
       x="0"
       y="0" /><g
       style="clip-rule:evenodd;fill-rule:evenodd;stroke-linejoin:round"
       id="g4"
       transform="matrix(1.865032,0,0,1.865032,787.52647,447.28809)"><g
         id="Group"
         transform="translate(5.782,3.414)">&#10;        <g
   id="Path"
   transform="translate(13)">&#10;            <g
   transform="translate(24)"
   id="g1">&#10;                <path
   d="M 31.758,46.916 C 32.498,23.429 24.586,9.582 1.841,0.435 -4.624,23.049 22.066,43.9 31.758,46.916 Z"
   style="fill:#d1d3d4;stroke:#000000;stroke-width:4.79px"
   id="path1" />&#10;            </g>&#10;            <path
   d="M 117.441,86.72 C 118.181,67.434 113.31,59.65 109.654,54.084 105.945,48.892 97.045,40.732 86.11,40.39 75.769,40.066 73.282,45.782 63.742,46.127 62.178,28.755 75.289,19.222 75.289,19.222 c 0,0 -3.585,-5.067 -6.551,-6.305 C 64.472,16.708 52.73,29.353 55.447,45.625 46.669,43.947 40.473,38.923 31.252,40.737 18.69,43.209 8.335,50.804 2.433,67.47 c -5.901,16.667 2.083,36.111 3.819,41.664 1.737,5.558 14.584,29.164 24.653,32.638 10.067,3.475 10.07,1.909 15.452,-0.173 5.383,-2.083 13.54,-5.902 25.522,-1.561 11.975,4.339 13.537,5.379 21,0.519 7.469,-4.859 17.188,-19.962 19.443,-24.303 2.257,-4.339 3.473,-6.597 4.17,-8.853 7.256,-3.621 0.283,-3.397 0.949,-20.681 z"
   style="fill:#d1d3d4;stroke:#000000;stroke-width:4.79px"
   id="path2" />&#10;        </g>&#10;        <g
   transform="translate(4,112)"
   id="g3">&#10;            <path
   id="Shape"
   d="m 145.932,115.67 c 4.785,0.017 9.38,-1.871 12.769,-5.248 3.39,-3.377 5.295,-7.965 5.295,-12.75 0.002,-18.273 0.002,-46.51 0.002,-64.833 0,-4.774 -1.896,-9.352 -5.272,-12.728 -3.376,-3.376 -7.954,-5.272 -12.728,-5.272 H 131.16 c -2.209,0 -4,-1.791 -4,-4 V 1.409 H 10.13 c 0,0 0.258,120.539 0.295,138.213 0.003,1.363 0.7,2.632 1.85,3.365 5.212,3.018 21.921,8.75 57.004,8.75 35.825,0 51.839,-7.674 56.424,-11.139 0.911,-0.756 1.438,-1.878 1.438,-3.062 0.019,-3.825 0.019,-12.688 0.019,-17.924 0,-1.075 0.433,-2.105 1.201,-2.857 0.768,-0.753 1.807,-1.164 2.882,-1.142 4.401,0.062 9.674,0.071 14.689,0.057 z M 127.16,35.864 c 0,-1.326 0.527,-2.598 1.464,-3.536 0.938,-0.937 2.21,-1.464 3.536,-1.464 h 12.738 c 1.326,0 2.598,0.527 3.536,1.464 0.937,0.938 1.464,2.21 1.464,3.536 v 58.185 c 0,1.326 -0.527,2.598 -1.464,3.536 -0.938,0.937 -2.21,1.464 -3.536,1.464 H 132.16 c -1.326,0 -2.598,-0.527 -3.536,-1.464 -0.937,-0.938 -1.464,-2.21 -1.464,-3.536 z"
   style="fill:#ffffff;fill-rule:nonzero;stroke:#000000;stroke-width:4.79px" />&#10;            <path
   id="Path1"
   serif:id="Path"
   d="m 21.667,0.249 v 123.986 c 0,1.431 0.764,2.753 2.003,3.467 5.061,2.412 19.743,8.169 45.484,8.169 25.912,0 40.158,-6.995 44.928,-9.878 1.139,-0.734 1.827,-1.997 1.827,-3.351 C 115.92,106.201 115.92,0.249 115.92,0.249 Z"
   style="fill:#fbb040" />&#10;            <g
   id="Path2"
   serif:id="Path"
   transform="matrix(1,0,0,0.849312,0,21.0375)">&#10;                <path
   d="M 35.521,0.249 V 113.065"
   style="fill:none;stroke:#ffdb96;stroke-width:11.96px;stroke-linecap:round;stroke-linejoin:miter"
   id="path3" />&#10;            </g>&#10;        </g>&#10;        <g
   id="Path3"
   serif:id="Path"
   transform="translate(-2,-2)">&#10;            <path
   d="m 94.773,139.692 c 0,-2 -1.177,-4.388 -3.11,-5.587 -3.145,-1.903 -5.604,-4.822 -6.942,-8.3 -25.591,0.861 -48.949,-3.633 -60.716,-6.806 -3.021,-0.856 -6.081,-1.567 -9.171,-2.13 -7.043,-1.397 -12.396,-7.582 -12.396,-15.018 0,-8.185 6.494,-14.836 14.608,-15.127 1.565,-8.657 9.121,-15.229 18.229,-15.229 10.242,0 18.544,8.304 18.544,18.545 0,2.155 -0.389,4.218 -1.064,6.144 l 0.055,0.009 c 2.287,-7.153 8.983,-12.336 16.896,-12.336 7.862,0 14.522,5.122 16.848,12.208 -0.067,-0.639 -0.101,-1.289 -0.101,-1.947 0,-10.652 8.634,-19.286 19.284,-19.286 8.622,0 15.919,5.659 18.388,13.462 l 1.681,-0.438 c 2.198,-1.239 4.729,-1.955 7.432,-1.955 8.369,0 15.154,6.785 15.151,15.152 0,7.666 -5.691,14.001 -13.079,15.012 -1.673,0.237 -3.314,0.663 -4.891,1.27 -4.391,1.655 -8.881,3.027 -13.417,4.159 -0.226,2.236 -0.892,4.342 -1.909,6.231 -1.84,3.452 -2.665,7.355 -2.38,11.257 -0.002,0.236 0.007,1.472 0.007,1.71 0,4.956 -4.016,7.972 -8.976,7.972 -4.953,0 -8.971,-4.015 -8.971,-8.972 z"
   style="fill:#ffffff;stroke:#000000;stroke-width:4.79px;stroke-linecap:round"
   id="path4" />&#10;        </g>&#10;    </g></g><g
       style="fill:#f9f9f9"
       id="g5"
       transform="matrix(0.54032441,0,0,0.54032441,1462.7036,613.24)"><path
         d="m 364.204,305.151 c 12.082,-33.33 18.455,-70.27 18.455,-107.571 0,-37.294 -6.373,-74.23 -18.454,-107.56 2.395,-0.087 4.614,-1.305 5.956,-3.304 1.393,-2.076 1.66,-4.709 0.712,-7.022 L 355.844,43.01 c -1.154,-2.817 -3.896,-4.657 -6.94,-4.657 h -9.872 C 330.599,25.035 321.13,12.904 310.819,2.277 309.406,0.822 307.465,0 305.436,0 H 89.745 C 87.715,0 85.772,0.823 84.36,2.28 74.06,12.906 64.592,25.036 56.151,38.353 h -9.883 c -3.044,0 -5.786,1.84 -6.94,4.657 L 24.3,79.693 c -0.947,2.313 -0.68,4.946 0.712,7.022 1.342,1.999 3.559,3.216 5.954,3.304 -12.082,33.33 -18.455,70.266 -18.455,107.561 0,37.301 6.373,74.241 18.455,107.571 -2.394,0.088 -4.612,1.305 -5.954,3.304 -1.393,2.076 -1.66,4.708 -0.712,7.022 l 15.027,36.682 c 1.154,2.817 3.896,4.657 6.94,4.657 h 9.883 c 8.441,13.317 17.909,25.447 28.209,36.074 1.413,1.458 3.355,2.28 5.385,2.28 h 215.691 c 2.028,0 3.97,-0.822 5.383,-2.277 10.311,-10.627 19.78,-22.758 28.213,-36.077 h 9.872 c 3.044,0 5.786,-1.84 6.94,-4.657 l 15.027,-36.682 c 0.948,-2.313 0.681,-4.946 -0.712,-7.022 -1.34,-1.999 -3.559,-3.217 -5.954,-3.304 z m -16.002,-0.017 h -27.006 c 8.878,-33.287 13.562,-70.234 13.562,-107.554 0,-37.314 -4.684,-74.258 -13.562,-107.543 h 27.006 c 12.73,33.001 19.456,70.059 19.456,107.543 0,37.491 -6.726,74.553 -19.456,107.554 z m -258.687,0 C 80.285,272.116 75.412,235.069 75.412,197.58 c 0,-37.483 4.873,-74.526 14.103,-107.543 h 53.433 c -3.08,27.859 -4.9,57.75 -5.414,89.07 -13.415,4.317 -23.152,16.913 -23.152,31.745 0,15.12 10.119,27.913 23.938,31.985 0.905,21.668 2.452,42.566 4.628,62.298 H 89.515 Z m 58.211,-75.938 c -10.115,0 -18.344,-8.229 -18.344,-18.344 0,-10.115 8.229,-18.344 18.344,-18.344 10.115,0 18.344,8.229 18.344,18.344 0,10.115 -8.228,18.344 -18.344,18.344 z m 10.321,75.938 c -2.185,-19.426 -3.754,-40.024 -4.679,-61.425 15.707,-2.689 27.703,-16.395 27.703,-32.857 0,-16.746 -12.409,-30.642 -28.514,-32.99 0.55,-30.929 2.39,-60.406 5.481,-87.825 h 79.094 c 3.712,33.042 5.667,70.061 5.667,107.543 0,37.489 -1.955,74.511 -5.667,107.554 z M 252.219,90.036 h 53.435 c 9.23,33.018 14.103,70.061 14.103,107.543 0,37.489 -4.873,74.536 -14.103,107.554 h -53.435 c 3.653,-33.169 5.58,-70.144 5.58,-107.554 0,-37.403 -1.927,-74.375 -5.58,-107.543 z m 68.819,-51.682 h -18.38 C 298.802,30.089 294.635,22.287 290.204,15 h 12.023 c 6.68,7.119 12.967,14.944 18.811,23.354 z m -35.045,0 H 244.56 C 242.955,30.062 241.225,22.253 239.386,15 h 33.026 c 4.83,7.145 9.37,14.968 13.581,23.354 z M 223.893,15 c 1.91,7.175 3.711,14.989 5.383,23.354 h -63.383 c 1.672,-8.365 3.473,-16.179 5.383,-23.354 z m -68.11,0 c -1.839,7.253 -3.569,15.062 -5.174,23.354 H 109.181 C 113.407,29.945 117.947,22.122 122.765,15 Z m -62.826,0 h 12.015 C 100.55,22.269 96.383,30.071 92.515,38.354 H 74.15 C 79.997,29.944 86.283,22.119 92.957,15 Z M 51.301,53.354 h 292.571 l 8.882,21.683 H 42.418 Z m -4.333,36.682 h 27.006 c -8.878,33.286 -13.561,70.23 -13.561,107.543 0,37.32 4.684,74.268 13.561,107.554 H 46.968 C 34.238,272.132 27.512,235.07 27.512,197.579 27.511,160.095 34.238,123.037 46.968,90.036 Z m 27.181,266.78 h 18.365 c 3.869,8.283 8.036,16.085 12.458,23.354 H 92.957 c -6.674,-7.119 -12.96,-14.945 -18.808,-23.354 z m 35.032,0 h 41.428 c 1.605,8.292 3.335,16.101 5.174,23.354 h -33.018 c -4.817,-7.121 -9.358,-14.944 -13.584,-23.354 z m 62.096,23.354 c -1.91,-7.175 -3.711,-14.989 -5.383,-23.354 h 63.383 c -1.672,8.365 -3.473,16.179 -5.383,23.354 z m 68.11,0 c 1.839,-7.253 3.569,-15.062 5.174,-23.354 h 41.433 c -4.212,8.386 -8.752,16.209 -13.581,23.354 z m 62.839,0 h -12.023 c 4.432,-7.287 8.598,-15.089 12.455,-23.354 h 18.38 c -5.844,8.409 -12.131,16.235 -18.812,23.354 z m 41.646,-38.354 H 51.3 l -8.882,-21.682 h 310.336 z"
         id="path1-6"
         style="fill:#f9f9f9" /></g><path
       sodipodi:nodetypes="ssscccccsscccccsccss"
       inkscape:connector-curvature="0"
       d="m 1565.7868,520.00052 c 88.0683,0.18839 168.7368,59.03857 192.6698,148.11094 28.63,106.55392 -34.6738,216.37522 -141.2279,245.00544 -106.5532,28.62992 -216.3751,-34.67407 -245.0053,-141.22791 -1.3246,-4.66584 1.424,-9.51332 6.1082,-10.77191 3.3107,-0.88957 6.677,0.26326 8.791,2.672 19.2942,83.13783 92.7022,141.92003 177.2319,141.92011 64.1556,-2.2e-4 123.5741,-34.11592 156.4013,-89.79894 25.4857,-41.30955 34.5153,-92.64154 20.9074,-143.28658 -26.1913,-97.47788 -126.2212,-155.13847 -223.6997,-128.94685 -52.2548,14.0404 -92.9715,49.33768 -115.5647,94.06882 l 0.063,-0.017 c -5.501,9.63057 -10.1066,20.04382 -15.3291,22.12331 -4.6369,1.24547 -9.4057,-1.50319 -10.6521,-6.14 l -22.5602,-83.96413 c -1.3247,-4.66588 1.4239,-9.51333 6.1081,-10.77194 4.6841,-1.25859 9.4929,1.55917 10.6851,6.26069 l 16.9727,63.16938 c 24.9063,-48.26822 69.2308,-86.33214 125.7652,-101.52244 17.4815,-4.69714 35.0511,-6.92004 52.3355,-6.88307 z"
       style="line-height:normal;text-indent:0;text-align:start;text-decoration:none;text-decoration-line:none;text-decoration-style:solid;text-decoration-color:#000000;text-transform:none;isolation:auto;mix-blend-mode:normal;fill:#ffffff;stroke-width:8.69416"
       id="path857" /></g></svg>
