<?xml version="1.0" encoding="UTF-8" standalone="no"?>
<svg
   version="1.1"
   id="svg883"
   width="2560"
   height="1440"
   viewBox="0 0 2560 1440"
   sodipodi:docname="nodejs-github.svg"
   inkscape:version="1.2.2 (b0a8486, 2022-12-01)"
   xmlns:inkscape="http://www.inkscape.org/namespaces/inkscape"
   xmlns:sodipodi="http://sodipodi.sourceforge.net/DTD/sodipodi-0.dtd"
   xmlns="http://www.w3.org/2000/svg"
   xmlns:svg="http://www.w3.org/2000/svg"
   xmlns:rdf="http://www.w3.org/1999/02/22-rdf-syntax-ns#"
   xmlns:cc="http://creativecommons.org/ns#"
   xmlns:dc="http://purl.org/dc/elements/1.1/">
  <metadata
     id="metadata889">
    <rdf:RDF>
      <cc:Work
         rdf:about="">
        <dc:format>image/svg+xml</dc:format>
        <dc:type
           rdf:resource="http://purl.org/dc/dcmitype/StillImage" />
      </cc:Work>
    </rdf:RDF>
  </metadata>
  <defs
     id="defs887" />
  <sodipodi:namedview
     pagecolor="#ffffff"
     bordercolor="#666666"
     borderopacity="1"
     objecttolerance="10"
     gridtolerance="10"
     guidetolerance="10"
     inkscape:pageopacity="0"
     inkscape:pageshadow="2"
     inkscape:window-width="1792"
     inkscape:window-height="1019"
     id="namedview885"
     showgrid="false"
     showguides="true"
     inkscape:guide-bbox="true"
     inkscape:zoom="229.80185"
     inkscape:cx="1677.0905"
     inkscape:cy="719.50467"
     inkscape:window-x="2167"
     inkscape:window-y="162"
     inkscape:window-maximized="0"
     inkscape:current-layer="g891"
     inkscape:document-rotation="0"
     inkscape:showpageshadow="2"
     inkscape:pagecheckerboard="0"
     inkscape:deskcolor="#d1d1d1">
    <sodipodi:guide
       position="-5085.6997,719.99659"
       orientation="0,-1"
       id="guide2524"
       inkscape:locked="false" />
    <sodipodi:guide
       position="640,3678.5859"
       orientation="1,0"
       id="guide3207"
       inkscape:locked="false" />
    <sodipodi:guide
       position="1920,1222.9258"
       orientation="1,0"
       id="guide3211"
       inkscape:locked="false" />
  </sodipodi:namedview>
  <g
     inkscape:groupmode="layer"
     inkscape:label="Image"
     id="g891">
    <rect
       style="fill:#222222;fill-opacity:1;stroke-width:31.4462;stroke-linecap:round;stroke-linejoin:round"
       id="rect897"
       width="2844.9871"
       height="1784.9825"
       x="-1606.4944"
       y="-3252.4751"
       transform="matrix(-0.50074198,0.8655966,-0.8483303,-0.52946738,0,0)" />
    <rect
       style="fill:#333333;fill-opacity:1;stroke-width:31.4462;stroke-linecap:round;stroke-linejoin:round"
       id="rect897-0"
       width="2844.9871"
       height="1784.9825"
       x="-1293.6959"
       y="-1470.439"
       transform="matrix(-0.50074198,0.8655966,-0.8483303,-0.52946738,0,0)" />
    <g
       id="g2903"
       transform="matrix(4.3113036,0,0,-4.3113036,-640.29841,1666.6048)"
       style="fill:#8cc84b;fill-opacity:1">
      <g
         id="g2075"
         transform="translate(296.9532,165.0556)"
         style="fill:#8cc84b;fill-opacity:1">
        <path
           d="m 0,0 c -1.46,0 -2.912,0.381 -4.19,1.121 l -13.338,7.892 c -1.991,1.114 -1.019,1.509 -0.362,1.738 2.657,0.922 3.195,1.135 6.031,2.743 0.295,0.167 0.687,0.103 0.992,-0.076 L -0.62,7.335 c 0.371,-0.206 0.895,-0.206 1.237,0 l 39.95,23.058 c 0.372,0.212 0.61,0.64 0.61,1.081 v 46.104 c 0,0.451 -0.238,0.872 -0.62,1.101 L 0.624,101.717 c -0.369,0.216 -0.859,0.216 -1.231,0 L -40.53,78.672 c -0.388,-0.222 -0.634,-0.657 -0.634,-1.094 V 31.474 c 0,-0.441 0.246,-0.859 0.63,-1.068 l 10.944,-6.323 c 5.938,-2.969 9.574,0.528 9.574,4.041 v 45.519 c 0,0.644 0.517,1.151 1.161,1.151 h 5.065 c 0.634,0 1.158,-0.507 1.158,-1.151 V 28.124 c 0,-7.925 -4.316,-12.47 -11.829,-12.47 -2.309,0 -4.127,0 -9.202,2.501 l -10.476,6.031 c -2.588,1.496 -4.19,4.293 -4.19,7.288 v 46.104 c 0,2.995 1.602,5.792 4.19,7.281 l 39.949,23.085 c 2.528,1.429 5.888,1.429 8.396,0 L 44.153,84.859 c 2.587,-1.496 4.196,-4.286 4.196,-7.281 V 31.474 c 0,-2.995 -1.609,-5.782 -4.196,-7.288 L 4.206,1.121 C 2.929,0.381 1.48,0 0,0"
           style="fill:#8cc84b;fill-opacity:1;fill-rule:nonzero;stroke:none"
           id="path2077" />
      </g>
      <g
         id="g2079"
         transform="translate(309.2934,196.8184)"
         style="fill:#8cc84b;fill-opacity:1">
        <path
           d="m 0,0 c -17.482,0 -21.144,8.024 -21.144,14.755 0,0.64 0.514,1.151 1.154,1.151 h 5.165 c 0.577,0 1.058,-0.415 1.148,-0.978 0.78,-5.258 3.105,-7.912 13.677,-7.912 8.416,0 11.999,1.904 11.999,6.369 0,2.574 -1.016,4.485 -14.095,5.766 -10.931,1.081 -17.692,3.496 -17.692,12.24 0,8.061 6.794,12.868 18.186,12.868 12.798,0 19.131,-4.442 19.933,-13.972 0.03,-0.329 -0.086,-0.644 -0.305,-0.889 -0.219,-0.229 -0.524,-0.369 -0.846,-0.369 h -5.185 c -0.537,0 -1.012,0.382 -1.121,0.903 -1.244,5.533 -4.269,7.301 -12.476,7.301 -9.189,0 -10.257,-3.201 -10.257,-5.6 0,-2.906 1.26,-3.751 13.667,-5.393 C 14.085,24.617 19.917,22.319 19.917,13.69 19.917,4.986 12.659,0 0,0"
           style="fill:#8cc84b;fill-opacity:1;fill-rule:nonzero;stroke:none"
           id="path2081" />
      </g>
    </g>
    <g
       id="g1395"
       transform="matrix(2.992544,0,0,2.992544,1248.3801,-1592.6189)">
      <path
         d="m 224.43238,694.26635 c -44.46266,0 -80.51733,36.04666 -80.51733,80.516 0,35.57466 23.07067,65.75599 55.06267,76.40293 4.024,0.7452 5.50133,-1.74694 5.50133,-3.8736 0,-1.92 -0.0747,-8.26267 -0.10933,-14.99067 -22.4,4.87067 -27.12667,-9.5 -27.12667,-9.5 -3.66266,-9.30667 -8.94,-11.78133 -8.94,-11.78133 -7.30533,-4.99734 0.55067,-4.89467 0.55067,-4.89467 8.08533,0.56667 12.34267,8.29733 12.34267,8.29733 7.18133,12.30934 18.836,8.75067 23.43066,6.69334 0.72267,-5.20267 2.80934,-8.75734 5.112,-10.76667 -17.884,-2.036 -36.684,-8.94 -36.684,-39.792 0,-8.79066 3.14534,-15.97333 8.296,-21.612 -0.836,-2.02933 -3.592,-10.21733 0.78,-21.308 0,0 6.76134,-2.164 22.148,8.25334 6.42267,-1.784 13.31067,-2.67867 20.15333,-2.70934 6.84267,0.0307 13.736,0.92534 20.17067,2.70934 15.368,-10.41734 22.12,-8.25334 22.12,-8.25334 4.38267,11.09067 1.62533,19.27867 0.78933,21.308 5.16267,5.63867 8.28667,12.82134 8.28667,21.612 0,30.92533 -18.836,37.73467 -36.76533,39.728 2.888,2.49867 5.46133,7.39867 5.46133,14.91067 0,10.772 -0.0933,19.44266 -0.0933,22.096 0,2.14266 1.44933,4.6532 5.53066,3.86266 31.97467,-10.65866 55.016,-40.82933 55.016,-76.39199 0,-44.46934 -36.04933,-80.516 -80.516,-80.516"
         style="fill:#ffffff;fill-opacity:1;fill-rule:evenodd;stroke:none;stroke-width:0.133333"
         id="path1024" />
      <path
         d="m 174.41105,804.89478 c -0.17733,0.40134 -0.80666,0.52 -1.38,0.24534 -0.584,-0.26267 -0.912,-0.808 -0.72266,-1.20934 0.17333,-0.412 0.804,-0.52533 1.38666,-0.252 0.58534,0.264 0.91867,0.81467 0.716,1.216 v 0"
         style="fill:#ffffff;fill-opacity:1;fill-rule:nonzero;stroke:none;stroke-width:0.133333"
         id="path1026" />
      <path
         d="m 177.67239,808.53212 c -0.384,0.356 -1.13467,0.19066 -1.644,-0.372 -0.52667,-0.56134 -0.62534,-1.312 -0.236,-1.67334 0.396,-0.356 1.124,-0.18933 1.652,0.372 0.52666,0.568 0.62933,1.31334 0.228,1.67334 v 0"
         style="fill:#ffffff;fill-opacity:1;fill-rule:nonzero;stroke:none;stroke-width:0.133333"
         id="path1028" />
      <path
         d="m 180.84705,813.16945 c -0.49333,0.34267 -1.3,0.0213 -1.79866,-0.69467 -0.49334,-0.716 -0.49334,-1.57466 0.0107,-1.91866 0.5,-0.344 1.29467,-0.0347 1.8,0.676 0.492,0.72666 0.492,1.58666 -0.012,1.93733 v 0"
         style="fill:#ffffff;fill-opacity:1;fill-rule:nonzero;stroke:none;stroke-width:0.133333"
         id="path1030" />
      <path
         d="m 185.19639,817.64945 c -0.44134,0.48667 -1.38134,0.356 -2.06934,-0.308 -0.704,-0.64933 -0.9,-1.57067 -0.45733,-2.05733 0.44667,-0.488 1.392,-0.35067 2.08533,0.308 0.69867,0.648 0.912,1.576 0.44134,2.05733 v 0"
         style="fill:#ffffff;fill-opacity:1;fill-rule:nonzero;stroke:none;stroke-width:0.133333"
         id="path1032" />
      <path
         d="m 191.19639,820.25078 c -0.19467,0.63067 -1.1,0.91734 -2.012,0.64934 -0.91067,-0.276 -1.50667,-1.01467 -1.32267,-1.652 0.18933,-0.63467 1.09867,-0.93334 2.01733,-0.64667 0.90934,0.27467 1.50667,1.008 1.31734,1.64933 v 0"
         style="fill:#ffffff;fill-opacity:1;fill-rule:nonzero;stroke:none;stroke-width:0.133333"
         id="path1034" />
      <path
         d="m 197.78572,820.73345 c 0.0227,0.664 -0.75067,1.21467 -1.708,1.22533 -0.96267,0.0227 -1.74133,-0.51466 -1.752,-1.168 0,-0.67066 0.756,-1.216 1.71867,-1.232 0.95733,-0.0187 1.74133,0.51467 1.74133,1.17467 v 0"
         style="fill:#ffffff;fill-opacity:1;fill-rule:nonzero;stroke:none;stroke-width:0.133333"
         id="path1036" />
      <path
         d="m 203.91772,819.68945 c 0.11467,0.648 -0.55067,1.31333 -1.50133,1.48933 -0.93467,0.172 -1.8,-0.228 -1.91867,-0.87066 -0.116,-0.664 0.56133,-1.32934 1.49467,-1.50134 0.952,-0.16533 1.804,0.224 1.92533,0.88267 v 0"
         style="fill:#ffffff;fill-opacity:1;fill-rule:nonzero;stroke:none;stroke-width:0.133333"
         id="path1038" />
    </g>
  </g>
</svg>
