<?xml version="1.0" encoding="UTF-8" standalone="no"?>
<svg
   version="1.1"
   id="svg883"
   width="2560"
   height="1440"
   viewBox="0 0 2560 1440"
   sodipodi:docname="examining-locks-in-mysql.svg"
   inkscape:version="1.1.2 (b8e25be8, 2022-02-05)"
   xmlns:inkscape="http://www.inkscape.org/namespaces/inkscape"
   xmlns:sodipodi="http://sodipodi.sourceforge.net/DTD/sodipodi-0.dtd"
   xmlns="http://www.w3.org/2000/svg"
   xmlns:svg="http://www.w3.org/2000/svg"
   xmlns:rdf="http://www.w3.org/1999/02/22-rdf-syntax-ns#"
   xmlns:cc="http://creativecommons.org/ns#"
   xmlns:dc="http://purl.org/dc/elements/1.1/">
  <metadata
     id="metadata889">
    <rdf:RDF>
      <cc:Work
         rdf:about="">
        <dc:format>image/svg+xml</dc:format>
        <dc:type
           rdf:resource="http://purl.org/dc/dcmitype/StillImage" />
      </cc:Work>
    </rdf:RDF>
  </metadata>
  <defs
     id="defs887" />
  <sodipodi:namedview
     pagecolor="#ffffff"
     bordercolor="#666666"
     borderopacity="1"
     objecttolerance="10"
     gridtolerance="10"
     guidetolerance="10"
     inkscape:pageopacity="0"
     inkscape:pageshadow="2"
     inkscape:window-width="2560"
     inkscape:window-height="1325"
     id="namedview885"
     showgrid="false"
     showguides="true"
     inkscape:guide-bbox="true"
     inkscape:zoom="0.67178375"
     inkscape:cx="1205.0009"
     inkscape:cy="718.23708"
     inkscape:window-x="1792"
     inkscape:window-y="25"
     inkscape:window-maximized="1"
     inkscape:current-layer="g891"
     inkscape:document-rotation="0"
     inkscape:pagecheckerboard="0" />
  <g
     inkscape:groupmode="layer"
     inkscape:label="Image"
     id="g891">
    <rect
       style="fill:#1f456d;fill-opacity:1;stroke-width:15;stroke-linecap:round;stroke-linejoin:round"
       id="rect1252"
       width="2560"
       height="1440"
       x="0"
       y="0" />
    <g
       id="g1207"
       transform="translate(883.46249,317.77707)" />
    <g
       id="g1209"
       transform="translate(883.46249,317.77707)" />
    <g
       id="g1211"
       transform="translate(883.46249,317.77707)" />
    <g
       id="g1213"
       transform="translate(883.46249,317.77707)" />
    <g
       id="g1215"
       transform="translate(883.46249,317.77707)" />
    <g
       id="g1217"
       transform="translate(883.46249,317.77707)" />
    <g
       id="g1219"
       transform="translate(883.46249,317.77707)" />
    <g
       id="g1221"
       transform="translate(883.46249,317.77707)" />
    <g
       id="g1223"
       transform="translate(883.46249,317.77707)" />
    <g
       id="g1225"
       transform="translate(883.46249,317.77707)" />
    <g
       id="g1227"
       transform="translate(883.46249,317.77707)" />
    <g
       id="g1229"
       transform="translate(883.46249,317.77707)" />
    <g
       id="g1231"
       transform="translate(883.46249,317.77707)" />
    <g
       id="g1233"
       transform="translate(883.46249,317.77707)" />
    <g
       id="g1235"
       transform="translate(883.46249,317.77707)" />
    <g
       id="g900"
       style="stroke:#ffffff;stroke-width:0.410221;stroke-linecap:round;stroke-linejoin:round;stroke-miterlimit:4;stroke-dasharray:none;stroke-opacity:1;paint-order:normal"
       transform="matrix(12.188541,0,0,12.188541,279.18301,-937.97768)">
      <path
         d="m 109.67249,119.98221 c -0.28011,0 -0.47766,0.0339 -0.67698,0.0829 v 0.0332 h 0.0321 c 0.13335,0.26352 0.36477,0.44661 0.52846,0.67733 0.133,0.26423 0.24871,0.5274 0.38065,0.79199 0.0162,-0.0162 0.0321,-0.0335 0.0321,-0.0335 0.23284,-0.16439 0.34819,-0.42827 0.34819,-0.82515 -0.0998,-0.11641 -0.11535,-0.23106 -0.19861,-0.34713 -0.0988,-0.16475 -0.31362,-0.2473 -0.44591,-0.37959"
         style="fill:#5b85a4;fill-opacity:1;fill-rule:evenodd;stroke:#ffffff;stroke-width:0.410221;stroke-linecap:round;stroke-linejoin:round;stroke-miterlimit:4;stroke-dasharray:none;stroke-opacity:1;paint-order:normal"
         id="path24" />
      <path
         d="M 83.404089,152.57359 H 81.11696 c -0.08061,-3.86045 -0.303424,-7.49046 -0.667914,-10.89092 h -0.02014 l -3.482304,10.89092 H 75.20518 l -3.461208,-10.89092 h -0.02039 c -0.256752,3.26566 -0.418253,6.89571 -0.485352,10.89092 h -2.085375 c 0.134761,-4.85884 0.471946,-9.41352 1.011731,-13.6652 h 2.834782 l 3.299707,10.0408 h 0.02025 l 3.319957,-10.0408 h 2.712403 c 0.593936,4.97942 0.944668,9.53562 1.052406,13.6652"
         style="fill:#2c7493;fill-opacity:1;fill-rule:nonzero;stroke:#ffffff;stroke-width:0.410221;stroke-linecap:round;stroke-linejoin:round;stroke-miterlimit:4;stroke-dasharray:none;stroke-opacity:1;paint-order:normal"
         id="path26" />
      <path
         d="m 93.323707,142.49159 c -0.931369,5.05354 -2.159882,8.72585 -3.684658,11.01686 -1.188156,1.76527 -2.489729,2.64788 -3.907014,2.64788 -0.377861,0 -0.843774,-0.11381 -1.396648,-0.33994 v -1.21821 c 0.270087,0.0395 0.587023,0.0606 0.951513,0.0606 0.661211,0 1.194082,-0.18274 1.599494,-0.54747 0.485493,-0.44443 0.728451,-0.94397 0.728451,-1.49754 0,-0.37811 -0.189477,-1.15398 -0.566808,-2.32763 l -2.510085,-7.79459 h 2.246878 l 1.80153,5.82965 c 0.404707,1.32359 0.573511,2.24758 0.505989,2.77425 0.985308,-2.63176 1.673649,-5.49988 2.065267,-8.6039 h 2.166091"
         style="fill:#2c7493;fill-opacity:1;fill-rule:nonzero;stroke:#ffffff;stroke-width:0.410221;stroke-linecap:round;stroke-linejoin:round;stroke-miterlimit:4;stroke-dasharray:none;stroke-opacity:1;paint-order:normal"
         id="path28" />
      <path
         d="m 123.76984,152.57359 h -6.49781 v -13.6652 h 2.18651 v 11.98425 h 4.3113 v 1.68095"
         style="fill:#f18513;fill-opacity:1;fill-rule:nonzero;stroke:#ffffff;stroke-width:0.410221;stroke-linecap:round;stroke-linejoin:round;stroke-miterlimit:4;stroke-dasharray:none;stroke-opacity:1;paint-order:normal"
         id="path30" />
      <path
         d="m 107.43376,149.83995 c -0.55351,-0.89076 -0.83079,-2.32018 -0.83079,-4.29119 0,-3.44096 1.04634,-5.16269 3.13796,-5.16269 1.09361,0 1.89618,0.41176 2.40947,1.23444 0.5528,0.89119 0.83009,2.30822 0.83009,4.25168 0,3.46851 -1.04634,5.20347 -3.13796,5.20347 -1.09326,0 -1.89618,-0.41134 -2.40877,-1.23571 m 8.13788,3.06313 -2.51178,-1.2386 c 0.22366,-0.18341 0.43603,-0.38128 0.6283,-0.61034 1.06645,-1.25374 1.6002,-3.10938 1.6002,-5.56616 0,-4.52078 -1.77483,-6.78244 -5.32412,-6.78244 -1.74096,0 -3.09775,0.57327 -4.0693,1.72145 -1.0668,1.25525 -1.59949,3.10392 -1.59949,5.5469 0,2.40203 0.47202,4.16416 1.41676,5.28352 0.86395,1.01177 2.1664,1.51832 3.90771,1.51832 0.65017,0 1.24672,-0.08 1.78894,-0.24017 l 3.27096,1.90348 0.89182,-1.53596"
         style="fill:#f18513;fill-opacity:1;fill-rule:evenodd;stroke:#ffffff;stroke-width:0.410221;stroke-linecap:round;stroke-linejoin:round;stroke-miterlimit:4;stroke-dasharray:none;stroke-opacity:1;paint-order:normal"
         id="path32" />
      <path
         d="m 103.3426,148.78578 c 0,1.15891 -0.42581,2.11032 -1.27459,2.85471 -0.84949,0.74112 -1.99072,1.11266 -3.419828,1.11266 -1.336675,0 -2.632075,-0.42763 -3.886905,-1.27592 l 0.587022,-1.17384 c 1.079853,0.53979 2.057047,0.80935 2.934406,0.80935 0.82303,0 1.467203,-0.18317 1.933225,-0.54505 0.46496,-0.36449 0.74365,-0.87284 0.74365,-1.51761 0,-0.81139 -0.56585,-1.50495 -1.604078,-2.08679 -0.958497,-0.52599 -2.874081,-1.62415 -2.874081,-1.62415 -1.037872,-0.7571 -1.558219,-1.56944 -1.558219,-2.90791 0,-1.10698 0.388055,-2.00177 1.163108,-2.68249 0.776817,-0.68213 1.779059,-1.0232 3.006373,-1.0232 1.268587,0 2.422167,0.33856 3.461107,1.01325 l -0.52776,1.17274 c -0.889,-0.37691 -1.76565,-0.5661 -2.629959,-0.5661 -0.701322,0 -1.241777,0.16838 -1.618544,0.50712 -0.378883,0.33581 -0.613128,0.76796 -0.613128,1.29466 0,0.8093 0.578203,1.5113 1.645708,2.10439 0.970492,0.52627 2.932993,1.64567 2.932993,1.64567 1.06751,0.75572 1.5995,1.56143 1.5995,2.88851"
         style="fill:#f18513;fill-opacity:1;fill-rule:nonzero;stroke:#ffffff;stroke-width:0.410221;stroke-linecap:round;stroke-linejoin:round;stroke-miterlimit:4;stroke-dasharray:none;stroke-opacity:1;paint-order:normal"
         id="path34" />
      <path
         d="m 126.51375,134.33096 c -1.32151,-0.0331 -2.34492,0.0988 -3.20322,0.46235 -0.24765,0.099 -0.64347,0.099 -0.67734,0.41271 0.133,0.13187 0.14887,0.34629 0.26529,0.52874 0.19756,0.3302 0.54363,0.7753 0.85796,1.00708 0.34678,0.2643 0.69356,0.52751 1.05727,0.75861 0.64347,0.39797 1.37019,0.62812 1.99672,1.02457 0.36442,0.23083 0.72637,0.5278 1.09079,0.77612 0.18098,0.13201 0.29563,0.34699 0.52776,0.42869 v -0.05 c -0.11642,-0.14813 -0.14887,-0.36283 -0.26388,-0.52889 -0.16475,-0.16383 -0.3302,-0.31337 -0.49565,-0.47776 -0.47907,-0.64382 -1.07421,-1.20467 -1.71662,-1.66702 -0.52881,-0.36421 -1.68522,-0.85961 -1.899,-1.46868 0,0 -0.0173,-0.0175 -0.0335,-0.0338 0.36337,-0.0335 0.7934,-0.1658 1.13983,-0.26595 0.56056,-0.14817 1.07244,-0.11466 1.65029,-0.26282 0.26459,-0.0665 0.52882,-0.14965 0.79411,-0.23083 v -0.14964 c -0.29881,-0.29655 -0.51259,-0.69342 -0.82621,-0.97385 -0.84137,-0.72623 -1.76706,-1.43566 -2.7245,-2.03098 -0.51259,-0.3303 -1.17299,-0.54391 -1.71803,-0.82528 -0.1972,-0.0992 -0.52705,-0.14813 -0.64311,-0.31419 -0.29739,-0.36311 -0.4632,-0.8413 -0.67734,-1.27127 -0.47836,-0.9071 -0.94156,-1.91392 -1.35361,-2.87313 -0.29703,-0.64346 -0.47871,-1.28693 -0.84208,-1.88171 -1.70144,-2.80741 -3.55,-4.50709 -6.38986,-6.17503 -0.61101,-0.34713 -1.33738,-0.49565 -2.11279,-0.67733 -0.41345,-0.0173 -0.82585,-0.0494 -1.2386,-0.0656 -0.26458,-0.11606 -0.52917,-0.43003 -0.75988,-0.57855 -0.94157,-0.59408 -3.36762,-1.88172 -4.06153,-0.18133 -0.44591,1.07386 0.6604,2.13007 1.04034,2.67512 0.28046,0.37923 0.64417,0.80927 0.84137,1.23789 0.11571,0.28081 0.14888,0.57856 0.26494,0.87524 0.26388,0.72637 0.51117,1.53565 0.85866,2.21298 0.18098,0.34678 0.37888,0.71049 0.60995,1.0227 0.13335,0.18274 0.36372,0.26423 0.41346,0.56233 -0.23036,0.32985 -0.24836,0.82515 -0.3803,1.23825 -0.59407,1.86584 -0.36336,4.17738 0.47908,5.54757 0.26352,0.41272 0.89182,1.32112 1.7339,0.97356 0.74295,-0.29668 0.57785,-1.23786 0.79234,-2.0629 0.0494,-0.19953 0.0162,-0.33045 0.115,-0.46235 v 0.0334 c 0.23107,0.46165 0.46285,0.90632 0.67734,1.37019 0.51258,0.80821 1.40335,1.65047 2.147,2.21132 0.39511,0.29834 0.70909,0.80934 1.20439,0.99152 v -0.0499 h -0.0325 c -0.0995,-0.14816 -0.24765,-0.2147 -0.37994,-0.32977 -0.29704,-0.2974 -0.62653,-0.66079 -0.85866,-0.99082 -0.69321,-0.92424 -1.30493,-1.94853 -1.84856,-3.0051 -0.26493,-0.51304 -0.49565,-1.07389 -0.71049,-1.58542 -0.0988,-0.1972 -0.0988,-0.49526 -0.26423,-0.59407 -0.24836,0.36283 -0.61066,0.67701 -0.79199,1.12144 -0.31397,0.71081 -0.34678,1.5857 -0.4632,2.49425 -0.0656,0.0173 -0.0324,0 -0.0656,0.0328 -0.52776,-0.13201 -0.70944,-0.67677 -0.90805,-1.13756 -0.4953,-1.17384 -0.57856,-3.05601 -0.14852,-4.40997 0.115,-0.34608 0.61171,-1.43581 0.41275,-1.76601 -0.0998,-0.31503 -0.42969,-0.49495 -0.61101,-0.74365 -0.21414,-0.31362 -0.44662,-0.70909 -0.59373,-1.05657 -0.39652,-0.92428 -0.59584,-1.9484 -1.02376,-2.87267 -0.19826,-0.43004 -0.54575,-0.87595 -0.8255,-1.27141 -0.31432,-0.44592 -0.66075,-0.75954 -0.90875,-1.28729 -0.0819,-0.18203 -0.19756,-0.47943 -0.066,-0.67698 0.0324,-0.13229 0.0995,-0.18203 0.23177,-0.2152 0.21343,-0.18168 0.82515,0.049 1.03928,0.14817 0.61137,0.24695 1.12325,0.47943 1.63442,0.8255 0.23143,0.16545 0.47908,0.47907 0.77576,0.56233 h 0.34749 c 0.52811,0.11465 1.12289,0.0321 1.61854,0.18133 0.87454,0.28045 1.66688,0.6932 2.37737,1.13912 2.16218,1.37054 3.94547,3.31928 5.15021,5.64691 0.19861,0.37924 0.28186,0.72637 0.46319,1.12183 0.34678,0.81069 0.77647,1.63619 1.12254,2.42793 0.34643,0.77611 0.67733,1.56795 1.17334,2.21287 0.24695,0.34614 1.2379,0.52779 1.68381,0.70954 0.32949,0.14813 0.84208,0.28042 1.13947,0.46178 0.56127,0.34615 1.12148,0.74302 1.65065,1.12339 0.26352,0.19815 1.08938,0.61045 1.13912,0.94118"
         style="fill:#2c7493;fill-opacity:1;fill-rule:evenodd;stroke:#ffffff;stroke-width:0.410221;stroke-linecap:round;stroke-linejoin:round;stroke-miterlimit:4;stroke-dasharray:none;stroke-opacity:1;paint-order:normal"
         id="path36" />
      <path
         d="m 125.33053,152.57221 h 0.3623 v -1.39033 h 0.47414 v -0.28399 h -1.32892 v 0.28399 h 0.49248 z m 2.75696,0 h 0.34149 v -1.67432 h -0.51365 l -0.41804,1.14128 -0.45508,-1.14128 h -0.49495 v 1.67432 h 0.32315 v -1.27427 h 0.0183 l 0.4766,1.27427 h 0.24624 l 0.4759,-1.27427 v 1.27427"
         style="fill:#f18513;fill-opacity:1;fill-rule:nonzero;stroke:#ffffff;stroke-width:0.410221;stroke-linecap:round;stroke-linejoin:round;stroke-miterlimit:4;stroke-dasharray:none;stroke-opacity:1;paint-order:normal"
         id="path38" />
    </g>
    <g
       id="g1317"
       transform="matrix(13.333333,0,0,13.333333,526.28844,386.66668)"
       style="fill:#ffffff">
      <path
         d="m 34,23 h -2 v -4 c 0,-3.9 -3.1,-7 -7,-7 -3.9,0 -7,3.1 -7,7 v 4 h -2 v -4 c 0,-5 4,-9 9,-9 5,0 9,4 9,9 z"
         id="path1299"
         style="fill:#ffffff" />
      <path
         d="M 33,40 H 17 c -1.7,0 -3,-1.3 -3,-3 V 25 c 0,-1.7 1.3,-3 3,-3 h 16 c 1.7,0 3,1.3 3,3 v 12 c 0,1.7 -1.3,3 -3,3 z M 17,24 c -0.6,0 -1,0.4 -1,1 v 12 c 0,0.6 0.4,1 1,1 h 16 c 0.6,0 1,-0.4 1,-1 V 25 c 0,-0.6 -0.4,-1 -1,-1 z"
         id="path1301"
         style="fill:#ffffff" />
      <circle
         cx="25"
         cy="28"
         r="2"
         id="circle1303"
         style="fill:#ffffff" />
      <path
         d="m 25.5,28 h -1 l -1,6 h 3 z"
         id="path1305"
         style="fill:#ffffff" />
    </g>
  </g>
  <style
     type="text/css"
     id="style1157">
	.st0{fill:#212120;}
</style>
</svg>
