<?xml version="1.0" encoding="UTF-8" standalone="no"?>
<svg
   xmlns:dc="http://purl.org/dc/elements/1.1/"
   xmlns:cc="http://creativecommons.org/ns#"
   xmlns:rdf="http://www.w3.org/1999/02/22-rdf-syntax-ns#"
   xmlns:svg="http://www.w3.org/2000/svg"
   xmlns="http://www.w3.org/2000/svg"
   xmlns:sodipodi="http://sodipodi.sourceforge.net/DTD/sodipodi-0.dtd"
   xmlns:inkscape="http://www.inkscape.org/namespaces/inkscape"
   width="1920"
   height="1080"
   viewBox="0 0 508 285.75001"
   version="1.1"
   id="svg8"
   inkscape:version="1.0.1 (c497b03c, 2020-09-10)"
   sodipodi:docname="making-uuids-more-performant-in-mysql.svg">
  <defs
     id="defs2">
    <filter
       style="color-interpolation-filters:sRGB;"
       inkscape:label="Brilliance"
       id="filter1007">
      <feColorMatrix
         values="10 -10 -10 0 10 -10 10 -10 0 10 -10 -10 10 0 10 0 0 0 1 0 "
         id="feColorMatrix1005" />
    </filter>
  </defs>
  <sodipodi:namedview
     id="base"
     pagecolor="#ffffff"
     bordercolor="#666666"
     borderopacity="1.0"
     inkscape:pageopacity="0.0"
     inkscape:pageshadow="2"
     inkscape:zoom="0.54660447"
     inkscape:cx="993.17614"
     inkscape:cy="538.18643"
     inkscape:document-units="mm"
     inkscape:current-layer="layer1"
     inkscape:document-rotation="0"
     showgrid="false"
     units="px"
     inkscape:window-width="1792"
     inkscape:window-height="1021"
     inkscape:window-x="0"
     inkscape:window-y="23"
     inkscape:window-maximized="0" />
  <metadata
     id="metadata5">
    <rdf:RDF>
      <cc:Work
         rdf:about="">
        <dc:format>image/svg+xml</dc:format>
        <dc:type
           rdf:resource="http://purl.org/dc/dcmitype/StillImage" />
        <dc:title />
      </cc:Work>
    </rdf:RDF>
  </metadata>
  <g
     inkscape:label="Layer 1"
     inkscape:groupmode="layer"
     id="layer1">
    <rect
       style="fill:#1f456d;fill-opacity:1;stroke:none;stroke-width:0.57192;stroke-linecap:square;stroke-linejoin:miter;stroke-miterlimit:4;stroke-dasharray:none;stroke-opacity:1;paint-order:markers stroke fill"
       id="rect902"
       width="508"
       height="285.75"
       x="-7.1054274e-14"
       y="-2.1316282e-14" />
    <g
       id="g1065"
       style="stroke:#ffffff;stroke-width:1.14607014;stroke-linecap:round;stroke-linejoin:round;stroke-miterlimit:4;stroke-dasharray:none;stroke-opacity:1;paint-order:normal"
       transform="matrix(3.4629207,0,0,3.4629207,-88.105116,-346.90334)">
      <path
         d="m 109.67249,119.98221 c -0.28011,0 -0.47766,0.0339 -0.67698,0.0829 v 0.0332 h 0.0321 c 0.13335,0.26352 0.36477,0.44661 0.52846,0.67733 0.133,0.26423 0.24871,0.5274 0.38065,0.79199 0.0162,-0.0162 0.0321,-0.0335 0.0321,-0.0335 0.23284,-0.16439 0.34819,-0.42827 0.34819,-0.82515 -0.0998,-0.11641 -0.11535,-0.23106 -0.19861,-0.34713 -0.0988,-0.16475 -0.31362,-0.2473 -0.44591,-0.37959"
         style="fill:#5b85a4;fill-opacity:1;fill-rule:evenodd;stroke:#ffffff;stroke-width:1.14607014;stroke-linecap:round;stroke-linejoin:round;stroke-miterlimit:4;stroke-dasharray:none;stroke-opacity:1;paint-order:normal"
         id="path1049" />
      <path
         d="M 83.404089,152.57359 H 81.11696 c -0.08061,-3.86045 -0.303424,-7.49046 -0.667914,-10.89092 h -0.02014 l -3.482304,10.89092 H 75.20518 l -3.461208,-10.89092 h -0.02039 c -0.256752,3.26566 -0.418253,6.89571 -0.485352,10.89092 h -2.085375 c 0.134761,-4.85884 0.471946,-9.41352 1.011731,-13.6652 h 2.834782 l 3.299707,10.0408 h 0.02025 l 3.319957,-10.0408 h 2.712403 c 0.593936,4.97942 0.944668,9.53562 1.052406,13.6652"
         style="fill:#2c7493;fill-opacity:1;fill-rule:nonzero;stroke:#ffffff;stroke-width:1.14607014;stroke-linecap:round;stroke-linejoin:round;stroke-miterlimit:4;stroke-dasharray:none;stroke-opacity:1;paint-order:normal"
         id="path1051" />
      <path
         d="m 93.323707,142.49159 c -0.931369,5.05354 -2.159882,8.72585 -3.684658,11.01686 -1.188156,1.76527 -2.489729,2.64788 -3.907014,2.64788 -0.377861,0 -0.843774,-0.11381 -1.396648,-0.33994 v -1.21821 c 0.270087,0.0395 0.587023,0.0606 0.951513,0.0606 0.661211,0 1.194082,-0.18274 1.599494,-0.54747 0.485493,-0.44443 0.728451,-0.94397 0.728451,-1.49754 0,-0.37811 -0.189477,-1.15398 -0.566808,-2.32763 l -2.510085,-7.79459 h 2.246878 l 1.80153,5.82965 c 0.404707,1.32359 0.573511,2.24758 0.505989,2.77425 0.985308,-2.63176 1.673649,-5.49988 2.065267,-8.6039 h 2.166091"
         style="fill:#2c7493;fill-opacity:1;fill-rule:nonzero;stroke:#ffffff;stroke-width:1.14607014;stroke-linecap:round;stroke-linejoin:round;stroke-miterlimit:4;stroke-dasharray:none;stroke-opacity:1;paint-order:normal"
         id="path1053" />
      <path
         d="m 123.76984,152.57359 h -6.49781 v -13.6652 h 2.18651 v 11.98425 h 4.3113 v 1.68095"
         style="fill:#f18513;fill-opacity:1;fill-rule:nonzero;stroke:#ffffff;stroke-width:1.14607014;stroke-linecap:round;stroke-linejoin:round;stroke-miterlimit:4;stroke-dasharray:none;stroke-opacity:1;paint-order:normal"
         id="path1055" />
      <path
         d="m 107.43376,149.83995 c -0.55351,-0.89076 -0.83079,-2.32018 -0.83079,-4.29119 0,-3.44096 1.04634,-5.16269 3.13796,-5.16269 1.09361,0 1.89618,0.41176 2.40947,1.23444 0.5528,0.89119 0.83009,2.30822 0.83009,4.25168 0,3.46851 -1.04634,5.20347 -3.13796,5.20347 -1.09326,0 -1.89618,-0.41134 -2.40877,-1.23571 m 8.13788,3.06313 -2.51178,-1.2386 c 0.22366,-0.18341 0.43603,-0.38128 0.6283,-0.61034 1.06645,-1.25374 1.6002,-3.10938 1.6002,-5.56616 0,-4.52078 -1.77483,-6.78244 -5.32412,-6.78244 -1.74096,0 -3.09775,0.57327 -4.0693,1.72145 -1.0668,1.25525 -1.59949,3.10392 -1.59949,5.5469 0,2.40203 0.47202,4.16416 1.41676,5.28352 0.86395,1.01177 2.1664,1.51832 3.90771,1.51832 0.65017,0 1.24672,-0.08 1.78894,-0.24017 l 3.27096,1.90348 0.89182,-1.53596"
         style="fill:#f18513;fill-opacity:1;fill-rule:evenodd;stroke:#ffffff;stroke-width:1.14607014;stroke-linecap:round;stroke-linejoin:round;stroke-miterlimit:4;stroke-dasharray:none;stroke-opacity:1;paint-order:normal"
         id="path1057" />
      <path
         d="m 103.3426,148.78578 c 0,1.15891 -0.42581,2.11032 -1.27459,2.85471 -0.84949,0.74112 -1.99072,1.11266 -3.419828,1.11266 -1.336675,0 -2.632075,-0.42763 -3.886905,-1.27592 l 0.587022,-1.17384 c 1.079853,0.53979 2.057047,0.80935 2.934406,0.80935 0.82303,0 1.467203,-0.18317 1.933225,-0.54505 0.46496,-0.36449 0.74365,-0.87284 0.74365,-1.51761 0,-0.81139 -0.56585,-1.50495 -1.604078,-2.08679 -0.958497,-0.52599 -2.874081,-1.62415 -2.874081,-1.62415 -1.037872,-0.7571 -1.558219,-1.56944 -1.558219,-2.90791 0,-1.10698 0.388055,-2.00177 1.163108,-2.68249 0.776817,-0.68213 1.779059,-1.0232 3.006373,-1.0232 1.268587,0 2.422167,0.33856 3.461107,1.01325 l -0.52776,1.17274 c -0.889,-0.37691 -1.76565,-0.5661 -2.629959,-0.5661 -0.701322,0 -1.241777,0.16838 -1.618544,0.50712 -0.378883,0.33581 -0.613128,0.76796 -0.613128,1.29466 0,0.8093 0.578203,1.5113 1.645708,2.10439 0.970492,0.52627 2.932993,1.64567 2.932993,1.64567 1.06751,0.75572 1.5995,1.56143 1.5995,2.88851"
         style="fill:#f18513;fill-opacity:1;fill-rule:nonzero;stroke:#ffffff;stroke-width:1.14607014;stroke-linecap:round;stroke-linejoin:round;stroke-miterlimit:4;stroke-dasharray:none;stroke-opacity:1;paint-order:normal"
         id="path1059" />
      <path
         d="m 126.51375,134.33096 c -1.32151,-0.0331 -2.34492,0.0988 -3.20322,0.46235 -0.24765,0.099 -0.64347,0.099 -0.67734,0.41271 0.133,0.13187 0.14887,0.34629 0.26529,0.52874 0.19756,0.3302 0.54363,0.7753 0.85796,1.00708 0.34678,0.2643 0.69356,0.52751 1.05727,0.75861 0.64347,0.39797 1.37019,0.62812 1.99672,1.02457 0.36442,0.23083 0.72637,0.5278 1.09079,0.77612 0.18098,0.13201 0.29563,0.34699 0.52776,0.42869 v -0.05 c -0.11642,-0.14813 -0.14887,-0.36283 -0.26388,-0.52889 -0.16475,-0.16383 -0.3302,-0.31337 -0.49565,-0.47776 -0.47907,-0.64382 -1.07421,-1.20467 -1.71662,-1.66702 -0.52881,-0.36421 -1.68522,-0.85961 -1.899,-1.46868 0,0 -0.0173,-0.0175 -0.0335,-0.0338 0.36337,-0.0335 0.7934,-0.1658 1.13983,-0.26595 0.56056,-0.14817 1.07244,-0.11466 1.65029,-0.26282 0.26459,-0.0665 0.52882,-0.14965 0.79411,-0.23083 v -0.14964 c -0.29881,-0.29655 -0.51259,-0.69342 -0.82621,-0.97385 -0.84137,-0.72623 -1.76706,-1.43566 -2.7245,-2.03098 -0.51259,-0.3303 -1.17299,-0.54391 -1.71803,-0.82528 -0.1972,-0.0992 -0.52705,-0.14813 -0.64311,-0.31419 -0.29739,-0.36311 -0.4632,-0.8413 -0.67734,-1.27127 -0.47836,-0.9071 -0.94156,-1.91392 -1.35361,-2.87313 -0.29703,-0.64346 -0.47871,-1.28693 -0.84208,-1.88171 -1.70144,-2.80741 -3.55,-4.50709 -6.38986,-6.17503 -0.61101,-0.34713 -1.33738,-0.49565 -2.11279,-0.67733 -0.41345,-0.0173 -0.82585,-0.0494 -1.2386,-0.0656 -0.26458,-0.11606 -0.52917,-0.43003 -0.75988,-0.57855 -0.94157,-0.59408 -3.36762,-1.88172 -4.06153,-0.18133 -0.44591,1.07386 0.6604,2.13007 1.04034,2.67512 0.28046,0.37923 0.64417,0.80927 0.84137,1.23789 0.11571,0.28081 0.14888,0.57856 0.26494,0.87524 0.26388,0.72637 0.51117,1.53565 0.85866,2.21298 0.18098,0.34678 0.37888,0.71049 0.60995,1.0227 0.13335,0.18274 0.36372,0.26423 0.41346,0.56233 -0.23036,0.32985 -0.24836,0.82515 -0.3803,1.23825 -0.59407,1.86584 -0.36336,4.17738 0.47908,5.54757 0.26352,0.41272 0.89182,1.32112 1.7339,0.97356 0.74295,-0.29668 0.57785,-1.23786 0.79234,-2.0629 0.0494,-0.19953 0.0162,-0.33045 0.115,-0.46235 v 0.0334 c 0.23107,0.46165 0.46285,0.90632 0.67734,1.37019 0.51258,0.80821 1.40335,1.65047 2.147,2.21132 0.39511,0.29834 0.70909,0.80934 1.20439,0.99152 v -0.0499 h -0.0325 c -0.0995,-0.14816 -0.24765,-0.2147 -0.37994,-0.32977 -0.29704,-0.2974 -0.62653,-0.66079 -0.85866,-0.99082 -0.69321,-0.92424 -1.30493,-1.94853 -1.84856,-3.0051 -0.26493,-0.51304 -0.49565,-1.07389 -0.71049,-1.58542 -0.0988,-0.1972 -0.0988,-0.49526 -0.26423,-0.59407 -0.24836,0.36283 -0.61066,0.67701 -0.79199,1.12144 -0.31397,0.71081 -0.34678,1.5857 -0.4632,2.49425 -0.0656,0.0173 -0.0324,0 -0.0656,0.0328 -0.52776,-0.13201 -0.70944,-0.67677 -0.90805,-1.13756 -0.4953,-1.17384 -0.57856,-3.05601 -0.14852,-4.40997 0.115,-0.34608 0.61171,-1.43581 0.41275,-1.76601 -0.0998,-0.31503 -0.42969,-0.49495 -0.61101,-0.74365 -0.21414,-0.31362 -0.44662,-0.70909 -0.59373,-1.05657 -0.39652,-0.92428 -0.59584,-1.9484 -1.02376,-2.87267 -0.19826,-0.43004 -0.54575,-0.87595 -0.8255,-1.27141 -0.31432,-0.44592 -0.66075,-0.75954 -0.90875,-1.28729 -0.0819,-0.18203 -0.19756,-0.47943 -0.066,-0.67698 0.0324,-0.13229 0.0995,-0.18203 0.23177,-0.2152 0.21343,-0.18168 0.82515,0.049 1.03928,0.14817 0.61137,0.24695 1.12325,0.47943 1.63442,0.8255 0.23143,0.16545 0.47908,0.47907 0.77576,0.56233 h 0.34749 c 0.52811,0.11465 1.12289,0.0321 1.61854,0.18133 0.87454,0.28045 1.66688,0.6932 2.37737,1.13912 2.16218,1.37054 3.94547,3.31928 5.15021,5.64691 0.19861,0.37924 0.28186,0.72637 0.46319,1.12183 0.34678,0.81069 0.77647,1.63619 1.12254,2.42793 0.34643,0.77611 0.67733,1.56795 1.17334,2.21287 0.24695,0.34614 1.2379,0.52779 1.68381,0.70954 0.32949,0.14813 0.84208,0.28042 1.13947,0.46178 0.56127,0.34615 1.12148,0.74302 1.65065,1.12339 0.26352,0.19815 1.08938,0.61045 1.13912,0.94118"
         style="fill:#2c7493;fill-opacity:1;fill-rule:evenodd;stroke:#ffffff;stroke-width:1.14607014;stroke-linecap:round;stroke-linejoin:round;stroke-miterlimit:4;stroke-dasharray:none;stroke-opacity:1;paint-order:normal"
         id="path1061" />
      <path
         d="m 125.33053,152.57221 h 0.3623 v -1.39033 h 0.47414 v -0.28399 h -1.32892 v 0.28399 h 0.49248 z m 2.75696,0 h 0.34149 v -1.67432 h -0.51365 l -0.41804,1.14128 -0.45508,-1.14128 h -0.49495 v 1.67432 h 0.32315 v -1.27427 h 0.0183 l 0.4766,1.27427 h 0.24624 l 0.4759,-1.27427 v 1.27427"
         style="fill:#f18513;fill-opacity:1;fill-rule:nonzero;stroke:#ffffff;stroke-width:1.14607014;stroke-linecap:round;stroke-linejoin:round;stroke-miterlimit:4;stroke-dasharray:none;stroke-opacity:1;paint-order:normal"
         id="path1063" />
    </g>
    <g
       id="g900"
       style="stroke:none;stroke-width:0.76404676;stroke-linecap:round;stroke-linejoin:round;stroke-miterlimit:4;stroke-dasharray:none;stroke-opacity:1;paint-order:markers stroke fill"
       transform="matrix(3.4629207,0,0,3.4629207,-88.105116,-346.90334)">
      <path
         d="m 109.67249,119.98221 c -0.28011,0 -0.47766,0.0339 -0.67698,0.0829 v 0.0332 h 0.0321 c 0.13335,0.26352 0.36477,0.44661 0.52846,0.67733 0.133,0.26423 0.24871,0.5274 0.38065,0.79199 0.0162,-0.0162 0.0321,-0.0335 0.0321,-0.0335 0.23284,-0.16439 0.34819,-0.42827 0.34819,-0.82515 -0.0998,-0.11641 -0.11535,-0.23106 -0.19861,-0.34713 -0.0988,-0.16475 -0.31362,-0.2473 -0.44591,-0.37959"
         style="fill:#5b85a4;fill-opacity:1;fill-rule:evenodd;stroke:none;stroke-width:0.76404676;stroke-linecap:round;stroke-linejoin:round;stroke-miterlimit:4;stroke-dasharray:none;stroke-opacity:1;paint-order:markers stroke fill"
         id="path24" />
      <path
         d="M 83.404089,152.57359 H 81.11696 c -0.08061,-3.86045 -0.303424,-7.49046 -0.667914,-10.89092 h -0.02014 l -3.482304,10.89092 H 75.20518 l -3.461208,-10.89092 h -0.02039 c -0.256752,3.26566 -0.418253,6.89571 -0.485352,10.89092 h -2.085375 c 0.134761,-4.85884 0.471946,-9.41352 1.011731,-13.6652 h 2.834782 l 3.299707,10.0408 h 0.02025 l 3.319957,-10.0408 h 2.712403 c 0.593936,4.97942 0.944668,9.53562 1.052406,13.6652"
         style="fill:#2c7493;fill-opacity:1;fill-rule:nonzero;stroke:none;stroke-width:0.76404676;stroke-linecap:round;stroke-linejoin:round;stroke-miterlimit:4;stroke-dasharray:none;stroke-opacity:1;paint-order:markers stroke fill"
         id="path26" />
      <path
         d="m 93.323707,142.49159 c -0.931369,5.05354 -2.159882,8.72585 -3.684658,11.01686 -1.188156,1.76527 -2.489729,2.64788 -3.907014,2.64788 -0.377861,0 -0.843774,-0.11381 -1.396648,-0.33994 v -1.21821 c 0.270087,0.0395 0.587023,0.0606 0.951513,0.0606 0.661211,0 1.194082,-0.18274 1.599494,-0.54747 0.485493,-0.44443 0.728451,-0.94397 0.728451,-1.49754 0,-0.37811 -0.189477,-1.15398 -0.566808,-2.32763 l -2.510085,-7.79459 h 2.246878 l 1.80153,5.82965 c 0.404707,1.32359 0.573511,2.24758 0.505989,2.77425 0.985308,-2.63176 1.673649,-5.49988 2.065267,-8.6039 h 2.166091"
         style="fill:#2c7493;fill-opacity:1;fill-rule:nonzero;stroke:none;stroke-width:0.76404676;stroke-linecap:round;stroke-linejoin:round;stroke-miterlimit:4;stroke-dasharray:none;stroke-opacity:1;paint-order:markers stroke fill"
         id="path28" />
      <path
         d="m 123.76984,152.57359 h -6.49781 v -13.6652 h 2.18651 v 11.98425 h 4.3113 v 1.68095"
         style="fill:#f18513;fill-opacity:1;fill-rule:nonzero;stroke:none;stroke-width:0.76404676;stroke-linecap:round;stroke-linejoin:round;stroke-miterlimit:4;stroke-dasharray:none;stroke-opacity:1;paint-order:markers stroke fill"
         id="path30" />
      <path
         d="m 107.43376,149.83995 c -0.55351,-0.89076 -0.83079,-2.32018 -0.83079,-4.29119 0,-3.44096 1.04634,-5.16269 3.13796,-5.16269 1.09361,0 1.89618,0.41176 2.40947,1.23444 0.5528,0.89119 0.83009,2.30822 0.83009,4.25168 0,3.46851 -1.04634,5.20347 -3.13796,5.20347 -1.09326,0 -1.89618,-0.41134 -2.40877,-1.23571 m 8.13788,3.06313 -2.51178,-1.2386 c 0.22366,-0.18341 0.43603,-0.38128 0.6283,-0.61034 1.06645,-1.25374 1.6002,-3.10938 1.6002,-5.56616 0,-4.52078 -1.77483,-6.78244 -5.32412,-6.78244 -1.74096,0 -3.09775,0.57327 -4.0693,1.72145 -1.0668,1.25525 -1.59949,3.10392 -1.59949,5.5469 0,2.40203 0.47202,4.16416 1.41676,5.28352 0.86395,1.01177 2.1664,1.51832 3.90771,1.51832 0.65017,0 1.24672,-0.08 1.78894,-0.24017 l 3.27096,1.90348 0.89182,-1.53596"
         style="fill:#f18513;fill-opacity:1;fill-rule:evenodd;stroke:none;stroke-width:0.76404676;stroke-linecap:round;stroke-linejoin:round;stroke-miterlimit:4;stroke-dasharray:none;stroke-opacity:1;paint-order:markers stroke fill"
         id="path32" />
      <path
         d="m 103.3426,148.78578 c 0,1.15891 -0.42581,2.11032 -1.27459,2.85471 -0.84949,0.74112 -1.99072,1.11266 -3.419828,1.11266 -1.336675,0 -2.632075,-0.42763 -3.886905,-1.27592 l 0.587022,-1.17384 c 1.079853,0.53979 2.057047,0.80935 2.934406,0.80935 0.82303,0 1.467203,-0.18317 1.933225,-0.54505 0.46496,-0.36449 0.74365,-0.87284 0.74365,-1.51761 0,-0.81139 -0.56585,-1.50495 -1.604078,-2.08679 -0.958497,-0.52599 -2.874081,-1.62415 -2.874081,-1.62415 -1.037872,-0.7571 -1.558219,-1.56944 -1.558219,-2.90791 0,-1.10698 0.388055,-2.00177 1.163108,-2.68249 0.776817,-0.68213 1.779059,-1.0232 3.006373,-1.0232 1.268587,0 2.422167,0.33856 3.461107,1.01325 l -0.52776,1.17274 c -0.889,-0.37691 -1.76565,-0.5661 -2.629959,-0.5661 -0.701322,0 -1.241777,0.16838 -1.618544,0.50712 -0.378883,0.33581 -0.613128,0.76796 -0.613128,1.29466 0,0.8093 0.578203,1.5113 1.645708,2.10439 0.970492,0.52627 2.932993,1.64567 2.932993,1.64567 1.06751,0.75572 1.5995,1.56143 1.5995,2.88851"
         style="fill:#f18513;fill-opacity:1;fill-rule:nonzero;stroke:none;stroke-width:0.76404676;stroke-linecap:round;stroke-linejoin:round;stroke-miterlimit:4;stroke-dasharray:none;stroke-opacity:1;paint-order:markers stroke fill"
         id="path34" />
      <path
         d="m 126.51375,134.33096 c -1.32151,-0.0331 -2.34492,0.0988 -3.20322,0.46235 -0.24765,0.099 -0.64347,0.099 -0.67734,0.41271 0.133,0.13187 0.14887,0.34629 0.26529,0.52874 0.19756,0.3302 0.54363,0.7753 0.85796,1.00708 0.34678,0.2643 0.69356,0.52751 1.05727,0.75861 0.64347,0.39797 1.37019,0.62812 1.99672,1.02457 0.36442,0.23083 0.72637,0.5278 1.09079,0.77612 0.18098,0.13201 0.29563,0.34699 0.52776,0.42869 v -0.05 c -0.11642,-0.14813 -0.14887,-0.36283 -0.26388,-0.52889 -0.16475,-0.16383 -0.3302,-0.31337 -0.49565,-0.47776 -0.47907,-0.64382 -1.07421,-1.20467 -1.71662,-1.66702 -0.52881,-0.36421 -1.68522,-0.85961 -1.899,-1.46868 0,0 -0.0173,-0.0175 -0.0335,-0.0338 0.36337,-0.0335 0.7934,-0.1658 1.13983,-0.26595 0.56056,-0.14817 1.07244,-0.11466 1.65029,-0.26282 0.26459,-0.0665 0.52882,-0.14965 0.79411,-0.23083 v -0.14964 c -0.29881,-0.29655 -0.51259,-0.69342 -0.82621,-0.97385 -0.84137,-0.72623 -1.76706,-1.43566 -2.7245,-2.03098 -0.51259,-0.3303 -1.17299,-0.54391 -1.71803,-0.82528 -0.1972,-0.0992 -0.52705,-0.14813 -0.64311,-0.31419 -0.29739,-0.36311 -0.4632,-0.8413 -0.67734,-1.27127 -0.47836,-0.9071 -0.94156,-1.91392 -1.35361,-2.87313 -0.29703,-0.64346 -0.47871,-1.28693 -0.84208,-1.88171 -1.70144,-2.80741 -3.55,-4.50709 -6.38986,-6.17503 -0.61101,-0.34713 -1.33738,-0.49565 -2.11279,-0.67733 -0.41345,-0.0173 -0.82585,-0.0494 -1.2386,-0.0656 -0.26458,-0.11606 -0.52917,-0.43003 -0.75988,-0.57855 -0.94157,-0.59408 -3.36762,-1.88172 -4.06153,-0.18133 -0.44591,1.07386 0.6604,2.13007 1.04034,2.67512 0.28046,0.37923 0.64417,0.80927 0.84137,1.23789 0.11571,0.28081 0.14888,0.57856 0.26494,0.87524 0.26388,0.72637 0.51117,1.53565 0.85866,2.21298 0.18098,0.34678 0.37888,0.71049 0.60995,1.0227 0.13335,0.18274 0.36372,0.26423 0.41346,0.56233 -0.23036,0.32985 -0.24836,0.82515 -0.3803,1.23825 -0.59407,1.86584 -0.36336,4.17738 0.47908,5.54757 0.26352,0.41272 0.89182,1.32112 1.7339,0.97356 0.74295,-0.29668 0.57785,-1.23786 0.79234,-2.0629 0.0494,-0.19953 0.0162,-0.33045 0.115,-0.46235 v 0.0334 c 0.23107,0.46165 0.46285,0.90632 0.67734,1.37019 0.51258,0.80821 1.40335,1.65047 2.147,2.21132 0.39511,0.29834 0.70909,0.80934 1.20439,0.99152 v -0.0499 h -0.0325 c -0.0995,-0.14816 -0.24765,-0.2147 -0.37994,-0.32977 -0.29704,-0.2974 -0.62653,-0.66079 -0.85866,-0.99082 -0.69321,-0.92424 -1.30493,-1.94853 -1.84856,-3.0051 -0.26493,-0.51304 -0.49565,-1.07389 -0.71049,-1.58542 -0.0988,-0.1972 -0.0988,-0.49526 -0.26423,-0.59407 -0.24836,0.36283 -0.61066,0.67701 -0.79199,1.12144 -0.31397,0.71081 -0.34678,1.5857 -0.4632,2.49425 -0.0656,0.0173 -0.0324,0 -0.0656,0.0328 -0.52776,-0.13201 -0.70944,-0.67677 -0.90805,-1.13756 -0.4953,-1.17384 -0.57856,-3.05601 -0.14852,-4.40997 0.115,-0.34608 0.61171,-1.43581 0.41275,-1.76601 -0.0998,-0.31503 -0.42969,-0.49495 -0.61101,-0.74365 -0.21414,-0.31362 -0.44662,-0.70909 -0.59373,-1.05657 -0.39652,-0.92428 -0.59584,-1.9484 -1.02376,-2.87267 -0.19826,-0.43004 -0.54575,-0.87595 -0.8255,-1.27141 -0.31432,-0.44592 -0.66075,-0.75954 -0.90875,-1.28729 -0.0819,-0.18203 -0.19756,-0.47943 -0.066,-0.67698 0.0324,-0.13229 0.0995,-0.18203 0.23177,-0.2152 0.21343,-0.18168 0.82515,0.049 1.03928,0.14817 0.61137,0.24695 1.12325,0.47943 1.63442,0.8255 0.23143,0.16545 0.47908,0.47907 0.77576,0.56233 h 0.34749 c 0.52811,0.11465 1.12289,0.0321 1.61854,0.18133 0.87454,0.28045 1.66688,0.6932 2.37737,1.13912 2.16218,1.37054 3.94547,3.31928 5.15021,5.64691 0.19861,0.37924 0.28186,0.72637 0.46319,1.12183 0.34678,0.81069 0.77647,1.63619 1.12254,2.42793 0.34643,0.77611 0.67733,1.56795 1.17334,2.21287 0.24695,0.34614 1.2379,0.52779 1.68381,0.70954 0.32949,0.14813 0.84208,0.28042 1.13947,0.46178 0.56127,0.34615 1.12148,0.74302 1.65065,1.12339 0.26352,0.19815 1.08938,0.61045 1.13912,0.94118"
         style="fill:#2c7493;fill-opacity:1;fill-rule:evenodd;stroke:none;stroke-width:0.76404676;stroke-linecap:round;stroke-linejoin:round;stroke-miterlimit:4;stroke-dasharray:none;stroke-opacity:1;paint-order:markers stroke fill"
         id="path36" />
      <path
         d="m 125.33053,152.57221 h 0.3623 v -1.39033 h 0.47414 v -0.28399 h -1.32892 v 0.28399 h 0.49248 z m 2.75696,0 h 0.34149 v -1.67432 h -0.51365 l -0.41804,1.14128 -0.45508,-1.14128 h -0.49495 v 1.67432 h 0.32315 v -1.27427 h 0.0183 l 0.4766,1.27427 h 0.24624 l 0.4759,-1.27427 v 1.27427"
         style="fill:#f18513;fill-opacity:1;fill-rule:nonzero;stroke:none;stroke-width:0.76404676;stroke-linecap:round;stroke-linejoin:round;stroke-miterlimit:4;stroke-dasharray:none;stroke-opacity:1;paint-order:markers stroke fill"
         id="path38" />
    </g>
    <g
       aria-label="0xF7C26694AAC6433391C972C4441430E2"
       id="text995"
       style="font-style:normal;font-weight:normal;font-size:19.7556px;line-height:1.25;font-family:sans-serif;fill:#000000;fill-opacity:1;stroke:none;stroke-width:0.0185219">
      <path
         d="m 49.112825,220.89988 q 0,3.86816 -1.215432,5.68166 -1.205786,1.80386 -3.752406,1.80386 -2.585206,0 -3.781346,-1.8328 -1.186493,-1.83279 -1.186493,-5.63343 0,-3.82957 1.205786,-5.65272 1.205786,-1.8328 3.762053,-1.8328 2.585205,0 3.771699,1.86174 1.196139,1.85208 1.196139,5.60449 z m -2.536974,4.37941 q 0.33762,-0.78134 0.453376,-1.83279 0.125402,-1.06109 0.125402,-2.54662 0,-1.46624 -0.125402,-2.54662 -0.115756,-1.08039 -0.463022,-1.8328 -0.33762,-0.74276 -0.926044,-1.11897 -0.578777,-0.3762 -1.495174,-0.3762 -0.906752,0 -1.504822,0.3762 -0.588423,0.37621 -0.93569,1.13827 -0.327973,0.71382 -0.453375,1.86173 -0.115756,1.14791 -0.115756,2.51768 0,1.50482 0.10611,2.51768 0.106109,1.01286 0.453375,1.81351 0.318328,0.75241 0.897105,1.1479 0.588424,0.3955 1.553053,0.3955 0.906751,0 1.504821,-0.3762 0.59807,-0.37621 0.926043,-1.13827 z"
         style="font-style:normal;font-variant:normal;font-weight:normal;font-stretch:normal;font-size:19.7556px;font-family:Verdana;-inkscape-font-specification:Verdana;fill:#ffffff;stroke-width:0.0185219"
         id="path1050" />
      <path
         d="m 61.546892,228.08636 h -2.28617 l -3.057874,-4.13825 -3.077166,4.13825 h -2.112537 l 4.205782,-5.37298 -4.167197,-5.40192 h 2.28617 l 3.038581,4.07073 3.048228,-4.07073 h 2.122183 l -4.234721,5.30546 z"
         style="font-style:normal;font-variant:normal;font-weight:normal;font-stretch:normal;font-size:19.7556px;font-family:Verdana;-inkscape-font-specification:Verdana;fill:#ffffff;stroke-width:0.0185219"
         id="path1052" />
      <path
         d="m 73.228548,215.42079 h -7.263655 v 4.05144 h 6.241149 v 1.69775 h -6.241149 v 6.91638 h -1.909966 v -14.36332 h 9.173621 z"
         style="font-style:normal;font-variant:normal;font-weight:normal;font-stretch:normal;font-size:19.7556px;font-family:Verdana;-inkscape-font-specification:Verdana;fill:#ffffff;stroke-width:0.0185219"
         id="path1054" />
      <path
         d="m 84.784801,215.87416 -6.501599,12.2122 h -2.064306 l 6.916389,-12.67522 h -8.180053 v -1.6881 h 9.829569 z"
         style="font-style:normal;font-variant:normal;font-weight:normal;font-stretch:normal;font-size:19.7556px;font-family:Verdana;-inkscape-font-specification:Verdana;fill:#ffffff;stroke-width:0.0185219"
         id="path1056" />
      <path
         d="m 99.070956,227.04457 q -0.530546,0.23151 -0.964629,0.43408 -0.424437,0.20257 -1.118969,0.42444 -0.588424,0.18327 -1.282957,0.30868 -0.684886,0.13504 -1.514467,0.13504 -1.562699,0 -2.845656,-0.43408 -1.27331,-0.44373 -2.218646,-1.37942 -0.926044,-0.9164 -1.446943,-2.32475 -0.5209,-1.41801 -0.5209,-3.28939 0,-1.77492 0.501607,-3.17363 0.501607,-1.39871 1.446943,-2.36334 0.916398,-0.93569 2.209001,-1.42765 1.302249,-0.49196 2.88424,-0.49196 1.157555,0 2.305463,0.27974 1.157555,0.27975 2.565913,0.98392 v 2.26688 h -0.144694 q -1.186494,-0.99357 -2.353695,-1.44694 -1.167201,-0.45338 -2.498389,-0.45338 -1.09003,0 -1.967843,0.35692 -0.868166,0.34726 -1.553052,1.09003 -0.665594,0.72347 -1.0418,1.83279 -0.366558,1.09968 -0.366558,2.54662 0,1.51447 0.405144,2.6045 0.41479,1.09003 1.061091,1.77492 0.675241,0.71382 1.572346,1.06109 0.906751,0.33762 1.909965,0.33762 1.379419,0 2.585205,-0.47267 1.205786,-0.47267 2.257232,-1.418 h 0.135048 z"
         style="font-style:normal;font-variant:normal;font-weight:normal;font-stretch:normal;font-size:19.7556px;font-family:Verdana;-inkscape-font-specification:Verdana;fill:#ffffff;stroke-width:0.0185219"
         id="path1058" />
      <path
         d="m 111.13847,228.08636 h -9.72346 v -2.01607 q 1.01286,-0.86817 2.02572,-1.73633 1.0225,-0.86817 1.90032,-1.72669 1.85208,-1.79421 2.53697,-2.84565 0.68489,-1.06109 0.68489,-2.28617 0,-1.11897 -0.74277,-1.74598 -0.73312,-0.63666 -2.05466,-0.63666 -0.87781,0 -1.90032,0.30868 -1.0225,0.30869 -1.99678,0.94534 h -0.0965 v -2.02572 q 0.68489,-0.33762 1.82315,-0.61736 1.14791,-0.27974 2.21864,-0.27974 2.209,0 3.46302,1.07073 1.25402,1.0611 1.25402,2.88424 0,0.81994 -0.21222,1.53376 -0.20257,0.70418 -0.60772,1.34084 -0.3762,0.59807 -0.88745,1.17685 -0.50161,0.57877 -1.22508,1.28295 -1.03216,1.01286 -2.13183,1.96784 -1.09968,0.94534 -2.05466,1.75563 h 7.72668 z"
         style="font-style:normal;font-variant:normal;font-weight:normal;font-stretch:normal;font-size:19.7556px;font-family:Verdana;-inkscape-font-specification:Verdana;fill:#ffffff;stroke-width:0.0185219"
         id="path1060" />
      <path
         d="m 123.92944,223.42721 q 0,2.1897 -1.44694,3.57877 -1.4373,1.37942 -3.53054,1.37942 -1.06109,0 -1.92926,-0.32797 -0.86817,-0.32798 -1.53376,-0.97428 -0.82958,-0.80064 -1.28296,-2.12218 -0.44373,-1.32154 -0.44373,-3.18328 0,-1.90996 0.40515,-3.38585 0.41479,-1.47588 1.31189,-2.62379 0.84888,-1.09003 2.18971,-1.69774 1.34083,-0.61737 3.1254,-0.61737 0.56913,0 0.95498,0.0482 0.38585,0.0482 0.78135,0.17363 v 1.84244 h -0.0965 q -0.2701,-0.14469 -0.81994,-0.2701 -0.54019,-0.13504 -1.10932,-0.13504 -2.07395,0 -3.30868,1.30224 -1.23472,1.29261 -1.43729,3.50161 0.81028,-0.49196 1.59163,-0.74277 0.791,-0.26045 1.82315,-0.26045 0.9164,0 1.61093,0.17364 0.70418,0.16398 1.4373,0.67524 0.84887,0.58842 1.27331,1.48553 0.43408,0.8971 0.43408,2.18006 z m -1.95819,0.0772 q 0,-0.89711 -0.2701,-1.48553 -0.26045,-0.58842 -0.86817,-1.02251 -0.44373,-0.30868 -0.98392,-0.40514 -0.54019,-0.0965 -1.12861,-0.0965 -0.81994,0 -1.52412,0.19292 -0.70418,0.19293 -1.44694,0.59807 -0.0193,0.21222 -0.0289,0.41479 -0.01,0.19293 -0.01,0.49196 0,1.52412 0.30869,2.41157 0.31832,0.87782 0.86816,1.38907 0.44373,0.42444 0.95498,0.62701 0.5209,0.19292 1.12862,0.19292 1.39871,0 2.19935,-0.84887 0.80065,-0.85852 0.80065,-2.4598 z"
         style="font-style:normal;font-variant:normal;font-weight:normal;font-stretch:normal;font-size:19.7556px;font-family:Verdana;-inkscape-font-specification:Verdana;fill:#ffffff;stroke-width:0.0185219"
         id="path1062" />
      <path
         d="m 136.50821,223.42721 q 0,2.1897 -1.44695,3.57877 -1.43729,1.37942 -3.53054,1.37942 -1.06109,0 -1.92925,-0.32797 -0.86817,-0.32798 -1.53376,-0.97428 -0.82959,-0.80064 -1.28296,-2.12218 -0.44373,-1.32154 -0.44373,-3.18328 0,-1.90996 0.40514,-3.38585 0.41479,-1.47588 1.3119,-2.62379 0.84887,-1.09003 2.18971,-1.69774 1.34083,-0.61737 3.12539,-0.61737 0.56914,0 0.95499,0.0482 0.38585,0.0482 0.78135,0.17363 v 1.84244 h -0.0965 q -0.27009,-0.14469 -0.81993,-0.2701 -0.54019,-0.13504 -1.10932,-0.13504 -2.07396,0 -3.30868,1.30224 -1.23473,1.29261 -1.4373,3.50161 0.81029,-0.49196 1.59164,-0.74277 0.79099,-0.26045 1.82315,-0.26045 0.9164,0 1.61093,0.17364 0.70418,0.16398 1.43729,0.67524 0.84888,0.58842 1.27332,1.48553 0.43408,0.8971 0.43408,2.18006 z m -1.9582,0.0772 q 0,-0.89711 -0.27009,-1.48553 -0.26045,-0.58842 -0.86817,-1.02251 -0.44373,-0.30868 -0.98392,-0.40514 -0.54019,-0.0965 -1.12862,-0.0965 -0.81993,0 -1.52411,0.19292 -0.70418,0.19293 -1.44695,0.59807 -0.0193,0.21222 -0.0289,0.41479 -0.01,0.19293 -0.01,0.49196 0,1.52412 0.30868,2.41157 0.31833,0.87782 0.86817,1.38907 0.44373,0.42444 0.95498,0.62701 0.5209,0.19292 1.12862,0.19292 1.39871,0 2.19935,-0.84887 0.80064,-0.85852 0.80064,-2.4598 z"
         style="font-style:normal;font-variant:normal;font-weight:normal;font-stretch:normal;font-size:19.7556px;font-family:Verdana;-inkscape-font-specification:Verdana;fill:#ffffff;stroke-width:0.0185219"
         id="path1064" />
      <path
         d="m 148.85546,220.04136 q 0,1.88103 -0.43409,3.41479 -0.42443,1.53376 -1.2926,2.61414 -0.87781,1.09968 -2.19935,1.69775 -1.32155,0.59807 -3.10611,0.59807 -0.50161,0 -0.94534,-0.0579 -0.44372,-0.0482 -0.79099,-0.16399 v -1.84244 h 0.0965 q 0.27974,0.1447 0.791,0.27974 0.51125,0.12541 1.13826,0.12541 2.13183,0 3.33762,-1.27331 1.21543,-1.28296 1.40835,-3.53055 -0.8971,0.5402 -1.6881,0.77171 -0.79099,0.23151 -1.72668,0.23151 -0.88746,0 -1.61093,-0.17364 -0.71383,-0.17363 -1.4373,-0.67524 -0.84887,-0.58842 -1.28296,-1.49517 -0.42443,-0.90675 -0.42443,-2.17042 0,-2.19935 1.44694,-3.57877 1.44694,-1.37942 3.53054,-1.37942 1.0418,0 1.92926,0.32798 0.88746,0.31832 1.55305,0.96462 0.81994,0.80065 1.26367,2.06431 0.44373,1.25402 0.44373,3.2508 z m -1.94855,-0.41479 q 0,-1.49518 -0.30869,-2.40193 -0.30868,-0.90675 -0.84887,-1.40835 -0.45338,-0.43409 -0.97427,-0.61737 -0.5209,-0.19292 -1.12862,-0.19292 -1.38907,0 -2.19935,0.86816 -0.80065,0.86817 -0.80065,2.44051 0,0.9164 0.26045,1.49518 0.26045,0.57878 0.87782,1.01286 0.43408,0.29903 0.95498,0.40514 0.5209,0.0965 1.15755,0.0965 0.75241,0 1.52412,-0.20258 0.7717,-0.20257 1.44694,-0.58842 0.01,-0.20257 0.0193,-0.3955 0.0193,-0.20257 0.0193,-0.51125 z"
         style="font-style:normal;font-variant:normal;font-weight:normal;font-stretch:normal;font-size:19.7556px;font-family:Verdana;-inkscape-font-specification:Verdana;fill:#ffffff;stroke-width:0.0185219"
         id="path1066" />
      <path
         d="m 161.78148,224.04457 h -2.13183 v 4.04179 h -1.85209 v -4.04179 h -6.8778 v -2.21865 l 6.95497,-8.10288 h 1.77492 v 8.77812 h 2.13183 z m -3.98392,-1.54341 v -6.4823 l -5.56591,6.4823 z"
         style="font-style:normal;font-variant:normal;font-weight:normal;font-stretch:normal;font-size:19.7556px;font-family:Verdana;-inkscape-font-specification:Verdana;fill:#ffffff;stroke-width:0.0185219"
         id="path1068" />
      <path
         d="m 176.00976,228.08636 h -2.03537 l -1.40835,-4.00321 h -6.21221 l -1.40836,4.00321 h -1.93891 l 5.22829,-14.36332 h 2.54662 z m -4.03215,-5.64307 -2.51768,-7.05144 -2.52733,7.05144 z"
         style="font-style:normal;font-variant:normal;font-weight:normal;font-stretch:normal;font-size:19.7556px;font-family:Verdana;-inkscape-font-specification:Verdana;fill:#ffffff;stroke-width:0.0185219"
         id="path1070" />
      <path
         d="m 189.51456,228.08636 h -2.03537 l -1.40835,-4.00321 h -6.21222 l -1.40835,4.00321 h -1.93891 l 5.22829,-14.36332 h 2.54662 z m -4.03215,-5.64307 -2.51768,-7.05144 -2.52733,7.05144 z"
         style="font-style:normal;font-variant:normal;font-weight:normal;font-stretch:normal;font-size:19.7556px;font-family:Verdana;-inkscape-font-specification:Verdana;fill:#ffffff;stroke-width:0.0185219"
         id="path1072" />
      <path
         d="m 202.78786,227.04457 q -0.53055,0.23151 -0.96463,0.43408 -0.42444,0.20257 -1.11897,0.42444 -0.58843,0.18327 -1.28296,0.30868 -0.68489,0.13504 -1.51447,0.13504 -1.5627,0 -2.84565,-0.43408 -1.27331,-0.44373 -2.21865,-1.37942 -0.92604,-0.9164 -1.44694,-2.32475 -0.5209,-1.41801 -0.5209,-3.28939 0,-1.77492 0.50161,-3.17363 0.5016,-1.39871 1.44694,-2.36334 0.9164,-0.93569 2.209,-1.42765 1.30225,-0.49196 2.88424,-0.49196 1.15755,0 2.30546,0.27974 1.15756,0.27975 2.56592,0.98392 v 2.26688 h -0.1447 q -1.18649,-0.99357 -2.35369,-1.44694 -1.1672,-0.45338 -2.49839,-0.45338 -1.09003,0 -1.96784,0.35692 -0.86817,0.34726 -1.55306,1.09003 -0.66559,0.72347 -1.0418,1.83279 -0.36656,1.09968 -0.36656,2.54662 0,1.51447 0.40515,2.6045 0.41479,1.09003 1.06109,1.77492 0.67524,0.71382 1.57235,1.06109 0.90675,0.33762 1.90996,0.33762 1.37942,0 2.58521,-0.47267 1.20578,-0.47267 2.25723,-1.418 h 0.13505 z"
         style="font-style:normal;font-variant:normal;font-weight:normal;font-stretch:normal;font-size:19.7556px;font-family:Verdana;-inkscape-font-specification:Verdana;fill:#ffffff;stroke-width:0.0185219"
         id="path1074" />
      <path
         d="m 215.06759,223.42721 q 0,2.1897 -1.44695,3.57877 -1.43729,1.37942 -3.53054,1.37942 -1.06109,0 -1.92926,-0.32797 -0.86816,-0.32798 -1.53376,-0.97428 -0.82958,-0.80064 -1.28295,-2.12218 -0.44373,-1.32154 -0.44373,-3.18328 0,-1.90996 0.40514,-3.38585 0.41479,-1.47588 1.3119,-2.62379 0.84887,-1.09003 2.18971,-1.69774 1.34083,-0.61737 3.12539,-0.61737 0.56913,0 0.95499,0.0482 0.38585,0.0482 0.78135,0.17363 v 1.84244 h -0.0965 q -0.27009,-0.14469 -0.81993,-0.2701 -0.54019,-0.13504 -1.10932,-0.13504 -2.07396,0 -3.30868,1.30224 -1.23473,1.29261 -1.4373,3.50161 0.81029,-0.49196 1.59164,-0.74277 0.79099,-0.26045 1.82315,-0.26045 0.91639,0 1.61093,0.17364 0.70418,0.16398 1.43729,0.67524 0.84888,0.58842 1.27331,1.48553 0.43409,0.8971 0.43409,2.18006 z m -1.9582,0.0772 q 0,-0.89711 -0.2701,-1.48553 -0.26044,-0.58842 -0.86816,-1.02251 -0.44373,-0.30868 -0.98392,-0.40514 -0.54019,-0.0965 -1.12862,-0.0965 -0.81993,0 -1.52411,0.19292 -0.70418,0.19293 -1.44695,0.59807 -0.0193,0.21222 -0.0289,0.41479 -0.01,0.19293 -0.01,0.49196 0,1.52412 0.30868,2.41157 0.31833,0.87782 0.86817,1.38907 0.44373,0.42444 0.95498,0.62701 0.5209,0.19292 1.12862,0.19292 1.39871,0 2.19935,-0.84887 0.80064,-0.85852 0.80064,-2.4598 z"
         style="font-style:normal;font-variant:normal;font-weight:normal;font-stretch:normal;font-size:19.7556px;font-family:Verdana;-inkscape-font-specification:Verdana;fill:#ffffff;stroke-width:0.0185219"
         id="path1076" />
      <path
         d="m 227.76209,224.04457 h -2.13183 v 4.04179 h -1.85208 v -4.04179 h -6.87781 v -2.21865 l 6.95498,-8.10288 h 1.77491 v 8.77812 h 2.13183 z m -3.98391,-1.54341 v -6.4823 l -5.56591,6.4823 z"
         style="font-style:normal;font-variant:normal;font-weight:normal;font-stretch:normal;font-size:19.7556px;font-family:Verdana;-inkscape-font-specification:Verdana;fill:#ffffff;stroke-width:0.0185219"
         id="path1078" />
      <path
         d="m 238.74922,221.16998 q 0.46302,0.41479 0.76206,1.04179 0.29903,0.62701 0.29903,1.62058 0,0.98392 -0.35691,1.80386 -0.35691,0.81993 -1.00321,1.42765 -0.72347,0.67524 -1.7074,1.00321 -0.97427,0.31833 -2.14147,0.31833 -1.19614,0 -2.3537,-0.28939 -1.15755,-0.27974 -1.90032,-0.61736 v -2.01608 h 0.1447 q 0.81993,0.5402 1.92926,0.89711 1.10932,0.35691 2.14147,0.35691 0.60772,0 1.29261,-0.20257 0.68488,-0.20257 1.10932,-0.59807 0.44373,-0.42444 0.65595,-0.93569 0.22186,-0.51125 0.22186,-1.2926 0,-0.77171 -0.2508,-1.27331 -0.24116,-0.51126 -0.67524,-0.80065 -0.43409,-0.29903 -1.05145,-0.40514 -0.61736,-0.11575 -1.33119,-0.11575 h -0.86816 v -1.60129 h 0.67524 q 1.46623,0 2.3344,-0.60772 0.87781,-0.61736 0.87781,-1.7942 0,-0.5209 -0.22186,-0.90676 -0.22187,-0.39549 -0.61737,-0.6463 -0.41479,-0.2508 -0.88745,-0.34726 -0.47267,-0.0965 -1.07074,-0.0965 -0.9164,0 -1.94855,0.32798 -1.03216,0.32797 -1.94855,0.92604 h -0.0965 v -2.01607 q 0.68489,-0.33762 1.82315,-0.61737 1.14791,-0.28938 2.21865,-0.28938 1.05145,0 1.85209,0.19292 0.80064,0.19293 1.44694,0.61736 0.69453,0.46303 1.05145,1.11897 0.35691,0.65595 0.35691,1.53376 0,1.19614 -0.84887,2.09325 -0.83923,0.88746 -1.98714,1.11897 v 0.13505 q 0.46302,0.0772 1.06109,0.32797 0.59807,0.24116 1.01286,0.60772 z"
         style="font-style:normal;font-variant:normal;font-weight:normal;font-stretch:normal;font-size:19.7556px;font-family:Verdana;-inkscape-font-specification:Verdana;fill:#ffffff;stroke-width:0.0185219"
         id="path1080" />
      <path
         d="m 251.32799,221.16998 q 0.46302,0.41479 0.76205,1.04179 0.29904,0.62701 0.29904,1.62058 0,0.98392 -0.35691,1.80386 -0.35692,0.81993 -1.00322,1.42765 -0.72347,0.67524 -1.70739,1.00321 -0.97428,0.31833 -2.14148,0.31833 -1.19614,0 -2.35369,-0.28939 -1.15756,-0.27974 -1.90032,-0.61736 v -2.01608 h 0.14469 q 0.81994,0.5402 1.92926,0.89711 1.10933,0.35691 2.14148,0.35691 0.60771,0 1.2926,-0.20257 0.68489,-0.20257 1.10932,-0.59807 0.44373,-0.42444 0.65595,-0.93569 0.22187,-0.51125 0.22187,-1.2926 0,-0.77171 -0.25081,-1.27331 -0.24115,-0.51126 -0.67524,-0.80065 -0.43408,-0.29903 -1.05144,-0.40514 -0.61737,-0.11575 -1.33119,-0.11575 h -0.86817 v -1.60129 h 0.67524 q 1.46624,0 2.33441,-0.60772 0.87781,-0.61736 0.87781,-1.7942 0,-0.5209 -0.22187,-0.90676 -0.22186,-0.39549 -0.61736,-0.6463 -0.41479,-0.2508 -0.88746,-0.34726 -0.47267,-0.0965 -1.07074,-0.0965 -0.91639,0 -1.94855,0.32798 -1.03215,0.32797 -1.94855,0.92604 h -0.0965 v -2.01607 q 0.68489,-0.33762 1.82315,-0.61737 1.14791,-0.28938 2.21865,-0.28938 1.05144,0 1.85208,0.19292 0.80065,0.19293 1.44695,0.61736 0.69453,0.46303 1.05144,1.11897 0.35691,0.65595 0.35691,1.53376 0,1.19614 -0.84887,2.09325 -0.83923,0.88746 -1.98713,1.11897 v 0.13505 q 0.46302,0.0772 1.06109,0.32797 0.59807,0.24116 1.01286,0.60772 z"
         style="font-style:normal;font-variant:normal;font-weight:normal;font-stretch:normal;font-size:19.7556px;font-family:Verdana;-inkscape-font-specification:Verdana;fill:#ffffff;stroke-width:0.0185219"
         id="path1082" />
      <path
         d="m 263.90675,221.16998 q 0.46303,0.41479 0.76206,1.04179 0.29904,0.62701 0.29904,1.62058 0,0.98392 -0.35692,1.80386 -0.35691,0.81993 -1.00321,1.42765 -0.72347,0.67524 -1.70739,1.00321 -0.97428,0.31833 -2.14148,0.31833 -1.19614,0 -2.3537,-0.28939 -1.15755,-0.27974 -1.90031,-0.61736 v -2.01608 h 0.14469 q 0.81993,0.5402 1.92926,0.89711 1.10932,0.35691 2.14147,0.35691 0.60772,0 1.29261,-0.20257 0.68488,-0.20257 1.10932,-0.59807 0.44373,-0.42444 0.65595,-0.93569 Q 263,224.46901 263,223.68766 q 0,-0.77171 -0.2508,-1.27331 -0.24116,-0.51126 -0.67524,-0.80065 -0.43408,-0.29903 -1.05145,-0.40514 -0.61736,-0.11575 -1.33118,-0.11575 h -0.86817 v -1.60129 h 0.67524 q 1.46624,0 2.3344,-0.60772 0.87781,-0.61736 0.87781,-1.7942 0,-0.5209 -0.22186,-0.90676 -0.22187,-0.39549 -0.61736,-0.6463 -0.41479,-0.2508 -0.88746,-0.34726 -0.47267,-0.0965 -1.07074,-0.0965 -0.9164,0 -1.94855,0.32798 -1.03215,0.32797 -1.94855,0.92604 h -0.0965 v -2.01607 q 0.68488,-0.33762 1.82314,-0.61737 1.14791,-0.28938 2.21865,-0.28938 1.05145,0 1.85209,0.19292 0.80064,0.19293 1.44694,0.61736 0.69454,0.46303 1.05145,1.11897 0.35691,0.65595 0.35691,1.53376 0,1.19614 -0.84887,2.09325 -0.83923,0.88746 -1.98714,1.11897 v 0.13505 q 0.46302,0.0772 1.06109,0.32797 0.59807,0.24116 1.01286,0.60772 z"
         style="font-style:normal;font-variant:normal;font-weight:normal;font-stretch:normal;font-size:19.7556px;font-family:Verdana;-inkscape-font-specification:Verdana;fill:#ffffff;stroke-width:0.0185219"
         id="path1084" />
      <path
         d="m 277.72988,220.04136 q 0,1.88103 -0.43409,3.41479 -0.42443,1.53376 -1.2926,2.61414 -0.87781,1.09968 -2.19935,1.69775 -1.32155,0.59807 -3.10611,0.59807 -0.50161,0 -0.94534,-0.0579 -0.44372,-0.0482 -0.79099,-0.16399 v -1.84244 h 0.0965 q 0.27974,0.1447 0.791,0.27974 0.51125,0.12541 1.13826,0.12541 2.13183,0 3.33762,-1.27331 1.21543,-1.28296 1.40835,-3.53055 -0.8971,0.5402 -1.6881,0.77171 -0.79099,0.23151 -1.72668,0.23151 -0.88746,0 -1.61093,-0.17364 -0.71383,-0.17363 -1.4373,-0.67524 -0.84887,-0.58842 -1.28296,-1.49517 -0.42443,-0.90675 -0.42443,-2.17042 0,-2.19935 1.44694,-3.57877 1.44694,-1.37942 3.53054,-1.37942 1.0418,0 1.92926,0.32798 0.88746,0.31832 1.55305,0.96462 0.81994,0.80065 1.26367,2.06431 0.44373,1.25402 0.44373,3.2508 z m -1.94855,-0.41479 q 0,-1.49518 -0.30869,-2.40193 -0.30868,-0.90675 -0.84887,-1.40835 -0.45338,-0.43409 -0.97427,-0.61737 -0.5209,-0.19292 -1.12862,-0.19292 -1.38907,0 -2.19935,0.86816 -0.80065,0.86817 -0.80065,2.44051 0,0.9164 0.26045,1.49518 0.26045,0.57878 0.87782,1.01286 0.43408,0.29903 0.95498,0.40514 0.5209,0.0965 1.15755,0.0965 0.75241,0 1.52412,-0.20258 0.7717,-0.20257 1.44694,-0.58842 0.01,-0.20257 0.0193,-0.3955 0.0193,-0.20257 0.0193,-0.51125 z"
         style="font-style:normal;font-variant:normal;font-weight:normal;font-stretch:normal;font-size:19.7556px;font-family:Verdana;-inkscape-font-specification:Verdana;fill:#ffffff;stroke-width:0.0185219"
         id="path1086" />
      <path
         d="m 289.508,228.08636 h -7.77491 v -1.46623 h 2.99035 v -9.627 h -2.99035 v -1.31189 q 0.60772,0 1.30225,-0.0965 0.69453,-0.10611 1.05145,-0.29903 0.44372,-0.24116 0.69453,-0.60772 0.26045,-0.3762 0.29903,-1.00321 h 1.49518 v 12.94532 h 2.93247 z"
         style="font-style:normal;font-variant:normal;font-weight:normal;font-stretch:normal;font-size:19.7556px;font-family:Verdana;-inkscape-font-specification:Verdana;fill:#ffffff;stroke-width:0.0185219"
         id="path1088" />
      <path
         d="m 304.65268,227.04457 q -0.53055,0.23151 -0.96463,0.43408 -0.42444,0.20257 -1.11897,0.42444 -0.58842,0.18327 -1.28296,0.30868 -0.68488,0.13504 -1.51446,0.13504 -1.5627,0 -2.84566,-0.43408 -1.27331,-0.44373 -2.21865,-1.37942 -0.92604,-0.9164 -1.44694,-2.32475 -0.5209,-1.41801 -0.5209,-3.28939 0,-1.77492 0.50161,-3.17363 0.50161,-1.39871 1.44694,-2.36334 0.9164,-0.93569 2.209,-1.42765 1.30225,-0.49196 2.88424,-0.49196 1.15756,0 2.30547,0.27974 1.15755,0.27975 2.56591,0.98392 v 2.26688 h -0.1447 q -1.18649,-0.99357 -2.35369,-1.44694 -1.1672,-0.45338 -2.49839,-0.45338 -1.09003,0 -1.96784,0.35692 -0.86817,0.34726 -1.55306,1.09003 -0.66559,0.72347 -1.04179,1.83279 -0.36656,1.09968 -0.36656,2.54662 0,1.51447 0.40514,2.6045 0.41479,1.09003 1.06109,1.77492 0.67524,0.71382 1.57235,1.06109 0.90675,0.33762 1.90996,0.33762 1.37942,0 2.58521,-0.47267 1.20578,-0.47267 2.25723,-1.418 h 0.13505 z"
         style="font-style:normal;font-variant:normal;font-weight:normal;font-stretch:normal;font-size:19.7556px;font-family:Verdana;-inkscape-font-specification:Verdana;fill:#ffffff;stroke-width:0.0185219"
         id="path1090" />
      <path
         d="m 316.7009,220.04136 q 0,1.88103 -0.43408,3.41479 -0.42444,1.53376 -1.29261,2.61414 -0.87781,1.09968 -2.19935,1.69775 -1.32154,0.59807 -3.10611,0.59807 -0.5016,0 -0.94533,-0.0579 -0.44373,-0.0482 -0.791,-0.16399 v -1.84244 h 0.0965 q 0.27974,0.1447 0.79099,0.27974 0.51125,0.12541 1.13826,0.12541 2.13183,0 3.33762,-1.27331 1.21543,-1.28296 1.40836,-3.53055 -0.89711,0.5402 -1.6881,0.77171 -0.791,0.23151 -1.72669,0.23151 -0.88746,0 -1.61093,-0.17364 -0.71382,-0.17363 -1.4373,-0.67524 -0.84887,-0.58842 -1.28295,-1.49517 -0.42444,-0.90675 -0.42444,-2.17042 0,-2.19935 1.44694,-3.57877 1.44695,-1.37942 3.53055,-1.37942 1.04179,0 1.92925,0.32798 0.88746,0.31832 1.55306,0.96462 0.81993,0.80065 1.26366,2.06431 0.44373,1.25402 0.44373,3.2508 z m -1.94855,-0.41479 q 0,-1.49518 -0.30868,-2.40193 -0.30868,-0.90675 -0.84888,-1.40835 -0.45337,-0.43409 -0.97427,-0.61737 -0.5209,-0.19292 -1.12862,-0.19292 -1.38906,0 -2.19935,0.86816 -0.80064,0.86817 -0.80064,2.44051 0,0.9164 0.26045,1.49518 0.26045,0.57878 0.87781,1.01286 0.43408,0.29903 0.95498,0.40514 0.5209,0.0965 1.15756,0.0965 0.75241,0 1.52411,-0.20258 0.7717,-0.20257 1.44694,-0.58842 0.01,-0.20257 0.0193,-0.3955 0.0193,-0.20257 0.0193,-0.51125 z"
         style="font-style:normal;font-variant:normal;font-weight:normal;font-stretch:normal;font-size:19.7556px;font-family:Verdana;-inkscape-font-specification:Verdana;fill:#ffffff;stroke-width:0.0185219"
         id="path1092" />
      <path
         d="m 329.33751,215.87416 -6.5016,12.2122 h -2.0643 l 6.91639,-12.67522 h -8.18006 v -1.6881 h 9.82957 z"
         style="font-style:normal;font-variant:normal;font-weight:normal;font-stretch:normal;font-size:19.7556px;font-family:Verdana;-inkscape-font-specification:Verdana;fill:#ffffff;stroke-width:0.0185219"
         id="path1094" />
      <path
         d="m 341.87769,228.08636 h -9.72346 v -2.01607 q 1.01286,-0.86817 2.02572,-1.73633 1.02251,-0.86817 1.90032,-1.72669 1.85209,-1.79421 2.53698,-2.84565 0.68488,-1.06109 0.68488,-2.28617 0,-1.11897 -0.74276,-1.74598 -0.73312,-0.63666 -2.05466,-0.63666 -0.87781,0 -1.90032,0.30868 -1.02251,0.30869 -1.99678,0.94534 h -0.0965 v -2.02572 q 0.68488,-0.33762 1.82314,-0.61736 1.14791,-0.27974 2.21865,-0.27974 2.209,0 3.46302,1.07073 1.25402,1.0611 1.25402,2.88424 0,0.81994 -0.21222,1.53376 -0.20257,0.70418 -0.60772,1.34084 -0.3762,0.59807 -0.88746,1.17685 -0.5016,0.57877 -1.22508,1.28295 -1.03215,1.01286 -2.13183,1.96784 -1.09967,0.94534 -2.05465,1.75563 h 7.72667 z"
         style="font-style:normal;font-variant:normal;font-weight:normal;font-stretch:normal;font-size:19.7556px;font-family:Verdana;-inkscape-font-specification:Verdana;fill:#ffffff;stroke-width:0.0185219"
         id="path1096" />
      <path
         d="m 356.20244,227.04457 q -0.53055,0.23151 -0.96463,0.43408 -0.42444,0.20257 -1.11897,0.42444 -0.58842,0.18327 -1.28296,0.30868 -0.68488,0.13504 -1.51447,0.13504 -1.56269,0 -2.84565,-0.43408 -1.27331,-0.44373 -2.21865,-1.37942 -0.92604,-0.9164 -1.44694,-2.32475 -0.5209,-1.41801 -0.5209,-3.28939 0,-1.77492 0.50161,-3.17363 0.5016,-1.39871 1.44694,-2.36334 0.9164,-0.93569 2.209,-1.42765 1.30225,-0.49196 2.88424,-0.49196 1.15756,0 2.30546,0.27974 1.15756,0.27975 2.56592,0.98392 v 2.26688 h -0.1447 q -1.18649,-0.99357 -2.35369,-1.44694 -1.1672,-0.45338 -2.49839,-0.45338 -1.09003,0 -1.96784,0.35692 -0.86817,0.34726 -1.55306,1.09003 -0.66559,0.72347 -1.0418,1.83279 -0.36655,1.09968 -0.36655,2.54662 0,1.51447 0.40514,2.6045 0.41479,1.09003 1.06109,1.77492 0.67524,0.71382 1.57235,1.06109 0.90675,0.33762 1.90996,0.33762 1.37942,0 2.58521,-0.47267 1.20578,-0.47267 2.25723,-1.418 h 0.13505 z"
         style="font-style:normal;font-variant:normal;font-weight:normal;font-stretch:normal;font-size:19.7556px;font-family:Verdana;-inkscape-font-specification:Verdana;fill:#ffffff;stroke-width:0.0185219"
         id="path1098" />
      <path
         d="m 368.59791,224.04457 h -2.13183 v 4.04179 h -1.85209 v -4.04179 h -6.8778 v -2.21865 l 6.95497,-8.10288 h 1.77492 v 8.77812 h 2.13183 z m -3.98392,-1.54341 v -6.4823 l -5.56591,6.4823 z"
         style="font-style:normal;font-variant:normal;font-weight:normal;font-stretch:normal;font-size:19.7556px;font-family:Verdana;-inkscape-font-specification:Verdana;fill:#ffffff;stroke-width:0.0185219"
         id="path1100" />
      <path
         d="m 381.17668,224.04457 h -2.13183 v 4.04179 h -1.85209 v -4.04179 h -6.87781 v -2.21865 l 6.95498,-8.10288 h 1.77492 v 8.77812 h 2.13183 z m -3.98392,-1.54341 v -6.4823 l -5.56591,6.4823 z"
         style="font-style:normal;font-variant:normal;font-weight:normal;font-stretch:normal;font-size:19.7556px;font-family:Verdana;-inkscape-font-specification:Verdana;fill:#ffffff;stroke-width:0.0185219"
         id="path1102" />
      <path
         d="m 393.75544,224.04457 h -2.13183 v 4.04179 h -1.85209 v -4.04179 h -6.8778 v -2.21865 l 6.95497,-8.10288 h 1.77492 v 8.77812 h 2.13183 z m -3.98392,-1.54341 v -6.4823 l -5.56591,6.4823 z"
         style="font-style:normal;font-variant:normal;font-weight:normal;font-stretch:normal;font-size:19.7556px;font-family:Verdana;-inkscape-font-specification:Verdana;fill:#ffffff;stroke-width:0.0185219"
         id="path1104" />
      <path
         d="m 405.1863,228.08636 h -7.77491 v -1.46623 h 2.99035 v -9.627 h -2.99035 v -1.31189 q 0.60772,0 1.30225,-0.0965 0.69453,-0.10611 1.05144,-0.29903 0.44373,-0.24116 0.69454,-0.60772 0.26045,-0.3762 0.29903,-1.00321 h 1.49518 v 12.94532 h 2.93247 z"
         style="font-style:normal;font-variant:normal;font-weight:normal;font-stretch:normal;font-size:19.7556px;font-family:Verdana;-inkscape-font-specification:Verdana;fill:#ffffff;stroke-width:0.0185219"
         id="path1106" />
      <path
         d="m 418.91297,224.04457 h -2.13183 v 4.04179 h -1.85208 v -4.04179 h -6.87781 v -2.21865 l 6.95498,-8.10288 h 1.77491 v 8.77812 h 2.13183 z m -3.98391,-1.54341 v -6.4823 l -5.56591,6.4823 z"
         style="font-style:normal;font-variant:normal;font-weight:normal;font-stretch:normal;font-size:19.7556px;font-family:Verdana;-inkscape-font-specification:Verdana;fill:#ffffff;stroke-width:0.0185219"
         id="path1108" />
      <path
         d="m 429.9001,221.16998 q 0.46302,0.41479 0.76206,1.04179 0.29903,0.62701 0.29903,1.62058 0,0.98392 -0.35691,1.80386 -0.35691,0.81993 -1.00321,1.42765 -0.72348,0.67524 -1.7074,1.00321 -0.97427,0.31833 -2.14147,0.31833 -1.19614,0 -2.3537,-0.28939 -1.15755,-0.27974 -1.90032,-0.61736 v -2.01608 h 0.1447 q 0.81993,0.5402 1.92926,0.89711 1.10932,0.35691 2.14147,0.35691 0.60772,0 1.2926,-0.20257 0.68489,-0.20257 1.10933,-0.59807 0.44373,-0.42444 0.65595,-0.93569 0.22186,-0.51125 0.22186,-1.2926 0,-0.77171 -0.2508,-1.27331 -0.24116,-0.51126 -0.67524,-0.80065 -0.43409,-0.29903 -1.05145,-0.40514 -0.61736,-0.11575 -1.33119,-0.11575 h -0.86816 v -1.60129 h 0.67524 q 1.46623,0 2.3344,-0.60772 0.87781,-0.61736 0.87781,-1.7942 0,-0.5209 -0.22186,-0.90676 -0.22187,-0.39549 -0.61737,-0.6463 -0.41479,-0.2508 -0.88745,-0.34726 -0.47267,-0.0965 -1.07074,-0.0965 -0.9164,0 -1.94855,0.32798 -1.03216,0.32797 -1.94855,0.92604 h -0.0965 v -2.01607 q 0.68489,-0.33762 1.82315,-0.61737 1.14791,-0.28938 2.21865,-0.28938 1.05144,0 1.85209,0.19292 0.80064,0.19293 1.44694,0.61736 0.69453,0.46303 1.05144,1.11897 0.35692,0.65595 0.35692,1.53376 0,1.19614 -0.84888,2.09325 -0.83922,0.88746 -1.98713,1.11897 v 0.13505 q 0.46302,0.0772 1.06109,0.32797 0.59807,0.24116 1.01286,0.60772 z"
         style="font-style:normal;font-variant:normal;font-weight:normal;font-stretch:normal;font-size:19.7556px;font-family:Verdana;-inkscape-font-specification:Verdana;fill:#ffffff;stroke-width:0.0185219"
         id="path1110" />
      <path
         d="m 443.72324,220.89988 q 0,3.86816 -1.21543,5.68166 -1.20579,1.80386 -3.75241,1.80386 -2.58521,0 -3.78135,-1.8328 -1.18649,-1.83279 -1.18649,-5.63343 0,-3.82957 1.20579,-5.65272 1.20578,-1.8328 3.76205,-1.8328 2.5852,0 3.7717,1.86174 1.19614,1.85208 1.19614,5.60449 z m -2.53698,4.37941 q 0.33762,-0.78134 0.45338,-1.83279 0.1254,-1.06109 0.1254,-2.54662 0,-1.46624 -0.1254,-2.54662 -0.11576,-1.08039 -0.46302,-1.8328 -0.33762,-0.74276 -0.92605,-1.11897 -0.57877,-0.3762 -1.49517,-0.3762 -0.90675,0 -1.50482,0.3762 -0.58843,0.37621 -0.93569,1.13827 -0.32798,0.71382 -0.45338,1.86173 -0.11575,1.14791 -0.11575,2.51768 0,1.50482 0.10611,2.51768 0.10611,1.01286 0.45337,1.81351 0.31833,0.75241 0.89711,1.1479 0.58842,0.3955 1.55305,0.3955 0.90675,0 1.50482,-0.3762 0.59807,-0.37621 0.92604,-1.13827 z"
         style="font-style:normal;font-variant:normal;font-weight:normal;font-stretch:normal;font-size:19.7556px;font-family:Verdana;-inkscape-font-specification:Verdana;fill:#ffffff;stroke-width:0.0185219"
         id="path1112" />
      <path
         d="m 456.43702,228.08636 h -9.46301 v -14.36332 h 9.46301 v 1.69775 h -7.55304 v 3.93568 h 7.55304 v 1.69775 h -7.55304 v 5.3344 h 7.55304 z"
         style="font-style:normal;font-variant:normal;font-weight:normal;font-stretch:normal;font-size:19.7556px;font-family:Verdana;-inkscape-font-specification:Verdana;fill:#ffffff;stroke-width:0.0185219"
         id="path1114" />
      <path
         d="m 468.82285,228.08636 h -9.72346 v -2.01607 q 1.01286,-0.86817 2.02572,-1.73633 1.02251,-0.86817 1.90032,-1.72669 1.85209,-1.79421 2.53698,-2.84565 0.68488,-1.06109 0.68488,-2.28617 0,-1.11897 -0.74276,-1.74598 -0.73312,-0.63666 -2.05466,-0.63666 -0.87781,0 -1.90032,0.30868 -1.02251,0.30869 -1.99678,0.94534 h -0.0965 v -2.02572 q 0.68488,-0.33762 1.82314,-0.61736 1.14791,-0.27974 2.21865,-0.27974 2.209,0 3.46302,1.07073 1.25402,1.0611 1.25402,2.88424 0,0.81994 -0.21222,1.53376 -0.20257,0.70418 -0.60772,1.34084 -0.3762,0.59807 -0.88746,1.17685 -0.5016,0.57877 -1.22508,1.28295 -1.03215,1.01286 -2.13183,1.96784 -1.09967,0.94534 -2.05465,1.75563 h 7.72667 z"
         style="font-style:normal;font-variant:normal;font-weight:normal;font-stretch:normal;font-size:19.7556px;font-family:Verdana;-inkscape-font-specification:Verdana;fill:#ffffff;stroke-width:0.0185219"
         id="path1116" />
    </g>
  </g>
</svg>
