<?xml version="1.0" encoding="UTF-8" standalone="no"?>
<svg
   version="1.1"
   id="svg883"
   width="2560"
   height="1440"
   viewBox="0 0 2560 1440"
   sodipodi:docname="pin-your-github-actions-to-protect-against-mutability.svg"
   inkscape:version="1.3 (0e150ed, 2023-07-21)"
   xml:space="preserve"
   xmlns:inkscape="http://www.inkscape.org/namespaces/inkscape"
   xmlns:sodipodi="http://sodipodi.sourceforge.net/DTD/sodipodi-0.dtd"
   xmlns="http://www.w3.org/2000/svg"
   xmlns:svg="http://www.w3.org/2000/svg"
   xmlns:rdf="http://www.w3.org/1999/02/22-rdf-syntax-ns#"
   xmlns:cc="http://creativecommons.org/ns#"
   xmlns:dc="http://purl.org/dc/elements/1.1/"><metadata
     id="metadata889"><rdf:RDF><cc:Work
         rdf:about=""><dc:format>image/svg+xml</dc:format><dc:type
           rdf:resource="http://purl.org/dc/dcmitype/StillImage" /></cc:Work></rdf:RDF></metadata><defs
     id="defs887" /><sodipodi:namedview
     pagecolor="#ffffff"
     bordercolor="#666666"
     borderopacity="1"
     objecttolerance="10"
     gridtolerance="10"
     guidetolerance="10"
     inkscape:pageopacity="0"
     inkscape:pageshadow="2"
     inkscape:window-width="1920"
     inkscape:window-height="1110"
     id="namedview885"
     showgrid="false"
     showguides="true"
     inkscape:guide-bbox="true"
     inkscape:zoom="0.32286015"
     inkscape:cx="1045.3443"
     inkscape:cy="775.87773"
     inkscape:window-x="0"
     inkscape:window-y="43"
     inkscape:window-maximized="1"
     inkscape:current-layer="g891"
     inkscape:document-rotation="0"
     inkscape:showpageshadow="2"
     inkscape:pagecheckerboard="0"
     inkscape:deskcolor="#d1d1d1"><sodipodi:guide
       position="-5085.6997,719.99659"
       orientation="0,-1"
       id="guide2524"
       inkscape:locked="false" /><sodipodi:guide
       position="640,3678.5859"
       orientation="1,0"
       id="guide3207"
       inkscape:locked="false" /><sodipodi:guide
       position="1920,1222.9258"
       orientation="1,0"
       id="guide3211"
       inkscape:locked="false" /></sodipodi:namedview><g
     inkscape:groupmode="layer"
     inkscape:label="Image"
     id="g891"><rect
       style="fill:#222222;fill-opacity:1;stroke:none;stroke-width:3.56535;stroke-linecap:round;stroke-linejoin:round;paint-order:markers fill stroke"
       id="rect2275"
       width="2560"
       height="1440"
       x="0"
       y="0" /><g
       id="g1395"
       transform="matrix(2.992544,0,0,2.992544,287.26445,-1592.6226)"><path
         d="m 224.43238,694.26635 c -44.46266,0 -80.51733,36.04666 -80.51733,80.516 0,35.57466 23.07067,65.75599 55.06267,76.40293 4.024,0.7452 5.50133,-1.74694 5.50133,-3.8736 0,-1.92 -0.0747,-8.26267 -0.10933,-14.99067 -22.4,4.87067 -27.12667,-9.5 -27.12667,-9.5 -3.66266,-9.30667 -8.94,-11.78133 -8.94,-11.78133 -7.30533,-4.99734 0.55067,-4.89467 0.55067,-4.89467 8.08533,0.56667 12.34267,8.29733 12.34267,8.29733 7.18133,12.30934 18.836,8.75067 23.43066,6.69334 0.72267,-5.20267 2.80934,-8.75734 5.112,-10.76667 -17.884,-2.036 -36.684,-8.94 -36.684,-39.792 0,-8.79066 3.14534,-15.97333 8.296,-21.612 -0.836,-2.02933 -3.592,-10.21733 0.78,-21.308 0,0 6.76134,-2.164 22.148,8.25334 6.42267,-1.784 13.31067,-2.67867 20.15333,-2.70934 6.84267,0.0307 13.736,0.92534 20.17067,2.70934 15.368,-10.41734 22.12,-8.25334 22.12,-8.25334 4.38267,11.09067 1.62533,19.27867 0.78933,21.308 5.16267,5.63867 8.28667,12.82134 8.28667,21.612 0,30.92533 -18.836,37.73467 -36.76533,39.728 2.888,2.49867 5.46133,7.39867 5.46133,14.91067 0,10.772 -0.0933,19.44266 -0.0933,22.096 0,2.14266 1.44933,4.6532 5.53066,3.86266 31.97467,-10.65866 55.016,-40.82933 55.016,-76.39199 0,-44.46934 -36.04933,-80.516 -80.516,-80.516"
         style="fill:#ffffff;fill-opacity:1;fill-rule:evenodd;stroke:none;stroke-width:0.133333"
         id="path1024" /><path
         d="m 174.41105,804.89478 c -0.17733,0.40134 -0.80666,0.52 -1.38,0.24534 -0.584,-0.26267 -0.912,-0.808 -0.72266,-1.20934 0.17333,-0.412 0.804,-0.52533 1.38666,-0.252 0.58534,0.264 0.91867,0.81467 0.716,1.216 v 0"
         style="fill:#ffffff;fill-opacity:1;fill-rule:nonzero;stroke:none;stroke-width:0.133333"
         id="path1026" /><path
         d="m 177.67239,808.53212 c -0.384,0.356 -1.13467,0.19066 -1.644,-0.372 -0.52667,-0.56134 -0.62534,-1.312 -0.236,-1.67334 0.396,-0.356 1.124,-0.18933 1.652,0.372 0.52666,0.568 0.62933,1.31334 0.228,1.67334 v 0"
         style="fill:#ffffff;fill-opacity:1;fill-rule:nonzero;stroke:none;stroke-width:0.133333"
         id="path1028" /><path
         d="m 180.84705,813.16945 c -0.49333,0.34267 -1.3,0.0213 -1.79866,-0.69467 -0.49334,-0.716 -0.49334,-1.57466 0.0107,-1.91866 0.5,-0.344 1.29467,-0.0347 1.8,0.676 0.492,0.72666 0.492,1.58666 -0.012,1.93733 v 0"
         style="fill:#ffffff;fill-opacity:1;fill-rule:nonzero;stroke:none;stroke-width:0.133333"
         id="path1030" /><path
         d="m 185.19639,817.64945 c -0.44134,0.48667 -1.38134,0.356 -2.06934,-0.308 -0.704,-0.64933 -0.9,-1.57067 -0.45733,-2.05733 0.44667,-0.488 1.392,-0.35067 2.08533,0.308 0.69867,0.648 0.912,1.576 0.44134,2.05733 v 0"
         style="fill:#ffffff;fill-opacity:1;fill-rule:nonzero;stroke:none;stroke-width:0.133333"
         id="path1032" /><path
         d="m 191.19639,820.25078 c -0.19467,0.63067 -1.1,0.91734 -2.012,0.64934 -0.91067,-0.276 -1.50667,-1.01467 -1.32267,-1.652 0.18933,-0.63467 1.09867,-0.93334 2.01733,-0.64667 0.90934,0.27467 1.50667,1.008 1.31734,1.64933 v 0"
         style="fill:#ffffff;fill-opacity:1;fill-rule:nonzero;stroke:none;stroke-width:0.133333"
         id="path1034" /><path
         d="m 197.78572,820.73345 c 0.0227,0.664 -0.75067,1.21467 -1.708,1.22533 -0.96267,0.0227 -1.74133,-0.51466 -1.752,-1.168 0,-0.67066 0.756,-1.216 1.71867,-1.232 0.95733,-0.0187 1.74133,0.51467 1.74133,1.17467 v 0"
         style="fill:#ffffff;fill-opacity:1;fill-rule:nonzero;stroke:none;stroke-width:0.133333"
         id="path1036" /><path
         d="m 203.91772,819.68945 c 0.11467,0.648 -0.55067,1.31333 -1.50133,1.48933 -0.93467,0.172 -1.8,-0.228 -1.91867,-0.87066 -0.116,-0.664 0.56133,-1.32934 1.49467,-1.50134 0.952,-0.16533 1.804,0.224 1.92533,0.88267 v 0"
         style="fill:#ffffff;fill-opacity:1;fill-rule:nonzero;stroke:none;stroke-width:0.133333"
         id="path1038" /></g><g
       style="fill:#f9f9f9"
       id="g4"
       transform="matrix(12.504668,0,0,12.504668,1441.8846,519.92565)"><path
         d="M 31.714,11.864 20.209,0.301 C 19.961,0.052 19.604,-0.049 19.261,0.035 18.92,0.118 18.648,0.374 18.544,0.709 17.852,2.937 17.771,4.954 18.3,6.793 18.251,6.827 18.205,6.863 18.162,6.906 l -5.347,5.346 c -1.725,-0.8 -3.579,-1.233 -5.428,-1.233 -1.175,0 -2.327,0.174 -3.424,0.515 -0.334,0.104 -0.59,0.375 -0.674,0.714 -0.084,0.339 0.014,0.698 0.261,0.947 l 6.843,6.887 -9.568,9.72 -0.832,2.192 2.011,-0.777 9.793,-9.72 6.932,6.977 c 0.189,0.192 0.447,0.295 0.709,0.295 0.079,0 0.159,-0.01 0.238,-0.029 0.341,-0.084 0.613,-0.34 0.717,-0.675 0.905,-2.913 0.64,-6.042 -0.636,-8.848 l 5.459,-5.46 c 0.02,-0.02 0.033,-0.041 0.051,-0.063 0.824,0.236 1.678,0.361 2.564,0.361 1.101,0 2.268,-0.158 3.468,-0.531 0.334,-0.104 0.59,-0.375 0.674,-0.714 0.084,-0.339 -0.015,-0.697 -0.262,-0.945 z M 18.849,25.755 6.262,13.086 c 3.23,-0.377 6.714,0.925 9.236,3.447 2.51,2.509 3.735,5.978 3.351,9.221 z m -0.092,-8.363 c -0.526,-0.804 -1.14,-1.568 -1.845,-2.274 -0.702,-0.702 -1.469,-1.321 -2.28,-1.854 l 4.504,-4.503 c 0.459,0.799 1.052,1.563 1.782,2.291 0.745,0.745 1.534,1.348 2.363,1.814 z M 22.332,9.639 C 20.409,7.716 19.668,5.572 20.061,2.986 l 8.966,9.012 c -2.583,0.37 -4.738,-0.403 -6.695,-2.36 z"
         id="path1-4"
         style="fill:#f9f9f9" /></g></g></svg>
