<?xml version="1.0" encoding="UTF-8" standalone="no"?>
<svg
   xmlns:dc="http://purl.org/dc/elements/1.1/"
   xmlns:cc="http://creativecommons.org/ns#"
   xmlns:rdf="http://www.w3.org/1999/02/22-rdf-syntax-ns#"
   xmlns:svg="http://www.w3.org/2000/svg"
   xmlns="http://www.w3.org/2000/svg"
   xmlns:sodipodi="http://sodipodi.sourceforge.net/DTD/sodipodi-0.dtd"
   xmlns:inkscape="http://www.inkscape.org/namespaces/inkscape"
   width="1920"
   height="960"
   id="svg2"
   version="1.1"
   inkscape:version="1.0beta2 (2b71d25, 2019-12-03)"
   sodipodi:docname="port-forwarding-to-kubernetes.svg"
   inkscape:export-filename="/Users/christianemmer/Resilio Sync/Development/www/src/static/img/blog/port-forwarding-to-kubernetes.png"
   inkscape:export-xdpi="96"
   inkscape:export-ydpi="96">
  <defs
     id="defs4" />
  <sodipodi:namedview
     id="base"
     pagecolor="#ffffff"
     bordercolor="#666666"
     borderopacity="1.0"
     inkscape:pageopacity="0.0"
     inkscape:pageshadow="2"
     inkscape:zoom="0.5"
     inkscape:cx="933.26406"
     inkscape:cy="545.04667"
     inkscape:document-units="px"
     inkscape:current-layer="layer1"
     showgrid="false"
     inkscape:window-width="1680"
     inkscape:window-height="953"
     inkscape:window-x="0"
     inkscape:window-y="23"
     inkscape:window-maximized="0"
     inkscape:snap-global="false"
     fit-margin-top="0"
     fit-margin-left="0"
     fit-margin-right="0"
     fit-margin-bottom="0"
     inkscape:document-rotation="0"
     lock-margins="true" />
  <metadata
     id="metadata7">
    <rdf:RDF>
      <cc:Work
         rdf:about="">
        <dc:format>image/svg+xml</dc:format>
        <dc:type
           rdf:resource="http://purl.org/dc/dcmitype/StillImage" />
        <dc:title></dc:title>
      </cc:Work>
    </rdf:RDF>
  </metadata>
  <g
     inkscape:label="Layer 1"
     inkscape:groupmode="layer"
     id="layer1"
     transform="translate(769.34052,-559.8786)">
    <rect
       style="fill:#326ce5;fill-opacity:1;fill-rule:evenodd;stroke:none;stroke-width:4.10839"
       id="rect18"
       width="1920"
       height="1080"
       x="-769.34052"
       y="499.8786"
       inkscape:export-xdpi="96"
       inkscape:export-ydpi="96" />
    <g
       inkscape:export-ydpi="96"
       inkscape:export-xdpi="96"
       id="g885"
       stroke="#000"
       fill-rule="evenodd"
       transform="matrix(2.948031,0,0,2.948031,-758.54164,292.16524)">
      <g
         style="fill:none;stroke:#ffffff;stroke-opacity:1"
         id="g875"
         fill="none">
        <g
           style="fill:none;stroke:#ffffff;stroke-opacity:1"
           id="g867"
           stroke-width="3.75">
          <path
             style="fill:none;stroke:#ffffff;stroke-opacity:1"
             id="path853"
             fill-opacity=".75"
             d="m 251.73,169.6 -33.062,57.183 v 116.56 h 206.62 V 226.783 L 393.226,169.6 h -141.5 z"
             inkscape:connector-curvature="0" />
          <path
             style="fill:none;stroke:#ffffff;stroke-opacity:1"
             id="path855"
             d="m 219.21,321.43 h 83.408 V 300.053 H 219.21"
             inkscape:connector-curvature="0" />
          <path
             style="fill:none;stroke:#ffffff;stroke-opacity:1"
             id="path857"
             d="m 219.93,279.7 h 85.208 V 258.323 H 219.93"
             inkscape:connector-curvature="0" />
          <path
             style="fill:none;stroke:#ffffff;stroke-opacity:1"
             id="path859"
             d="m 220.17,227.78 84.998,26.466 -5.5837,-11.608 -65.163,-41.834"
             inkscape:connector-curvature="0" />
          <path
             style="fill:none;stroke:#ffffff;stroke-opacity:1"
             id="path861"
             d="M 425.79,321.43 H 342.382 V 300.053 H 425.79"
             inkscape:connector-curvature="0" />
          <path
             style="fill:none;stroke:#ffffff;stroke-opacity:1"
             id="path863"
             d="M 425.07,279.7 H 339.862 V 258.323 H 425.07"
             inkscape:connector-curvature="0" />
          <path
             style="fill:none;stroke:#ffffff;stroke-opacity:1"
             id="path865"
             d="m 424.84,227.78 -84.998,26.466 5.5837,-11.608 65.163,-41.834"
             inkscape:connector-curvature="0" />
        </g>
        <g
           style="fill:none;stroke:#ffffff;stroke-opacity:1"
           id="g873"
           stroke-width="3.846">
          <path
             style="fill:none;stroke:#ffffff;stroke-opacity:1"
             id="path869"
             d="m 392.85,168.36 -35.27,48.462 -11.157,-11.358 20.154,-36.57"
             inkscape:connector-curvature="0" />
          <path
             style="fill:none;stroke:#ffffff;stroke-opacity:1"
             id="path871"
             d="m 252.15,168.36 35.27,48.462 11.157,-11.358 -20.154,-37.079"
             inkscape:connector-curvature="0" />
        </g>
      </g>
      <g
         style="fill:#ffffff;stroke:#326ce5;stroke-opacity:1"
         id="g881"
         stroke-width="3.75"
         fill="#fff">
        <path
           style="fill:#326ce5;fill-opacity:1;stroke:#ffffff;stroke-opacity:1"
           id="path877"
           d="m 249.19,342.83 h 146.06 l -1.0625,-93.656 c -0.88831,-36.092 -32.772,-65.156 -71.969,-65.156 -39.196,0 -71.017,29.065 -71.906,65.156 l -1.125,93.656 z"
           inkscape:connector-curvature="0" />
        <path
           style="fill:#ffffff;stroke:#326ce5;stroke-opacity:1"
           id="path879"
           d="m 306.14,163.92 3.599,23.753 c 7.7378,-1.6795 17.275,-1.7395 24.833,0.35989 l 5.0386,-24.113 h -33.47 z"
           inkscape:connector-curvature="0" />
      </g>
      <path
         style="fill:#326ce5;fill-opacity:1;stroke:#ffffff;stroke-opacity:1"
         id="path883"
         stroke-width="3.023"
         d="m 381.11,340.65 -0.8567,-91.228 c -0.71619,-29.099 -26.423,-52.533 -58.026,-52.533 -31.602,0 -57.258,23.434 -57.975,52.533 l -0.907,91.228"
         inkscape:connector-curvature="0" />
    </g>
    <g
       id="g851"
       transform="matrix(0.36726755,0,0,0.36726755,54.043538,889.40854)"
       style="opacity:1"
       inkscape:export-xdpi="96"
       inkscape:export-ydpi="96">
      <path
         inkscape:export-ydpi="250.55"
         inkscape:export-xdpi="250.55"
         inkscape:export-filename="new.png"
         inkscape:connector-curvature="0"
         id="path3055"
         d="m 370.20305,270.49046 a 34.006871,33.728573 0 0 0 -13.03244,3.29791 l -177.837,84.97238 a 34.006871,33.728573 0 0 0 -18.40007,22.88068 l -43.87359,190.86943 a 34.006871,33.728573 0 0 0 4.61708,25.86017 34.006871,33.728573 0 0 0 1.93325,2.68382 l 123.09169,153.04581 a 34.006871,33.728573 0 0 0 26.58799,12.69127 l 197.39702,-0.0455 a 34.006871,33.728573 0 0 0 26.58798,-12.66852 l 123.0462,-153.06856 a 34.006871,33.728573 0 0 0 6.57307,-28.54398 L 582.95241,381.59594 A 34.006871,33.728573 0 0 0 564.55235,358.71526 L 386.6926,273.78837 a 34.006871,33.728573 0 0 0 -16.48955,-3.29791 z"
         style="fill:#326ce5;fill-opacity:1;stroke:none;stroke-width:0;stroke-miterlimit:4;stroke-dasharray:none;stroke-opacity:1" />
      <path
         inkscape:connector-curvature="0"
         id="path3054-2-9"
         d="m 370.10757,256.66956 a 35.900129,35.606334 0 0 0 -13.7375,3.50261 L 168.61659,349.8526 a 35.900129,35.606334 0 0 0 -19.42356,24.15435 l -46.30722,201.49098 a 35.900129,35.606334 0 0 0 4.86726,27.3158 35.900129,35.606334 0 0 0 2.04698,2.82028 L 239.73774,767.2089 a 35.900129,35.606334 0 0 0 28.06636,13.39634 l 208.38248,-0.0455 a 35.900129,35.606334 0 0 0 28.06636,-13.3736 l 129.8922,-161.59763 a 35.900129,35.606334 0 0 0 6.93698,-30.11334 L 594.70667,373.96146 A 35.900129,35.606334 0 0 0 575.28311,349.82985 L 387.52964,260.14942 a 35.900129,35.606334 0 0 0 -17.42207,-3.47986 z m 0.091,13.82848 a 34.006871,33.728573 0 0 1 16.48955,3.29791 l 177.85975,84.92689 a 34.006871,33.728573 0 0 1 18.40006,22.88068 l 43.94182,190.86943 a 34.006871,33.728573 0 0 1 -6.57308,28.54399 L 497.27046,754.08549 a 34.006871,33.728573 0 0 1 -26.58798,12.66853 l -197.39702,0.0455 A 34.006871,33.728573 0 0 1 246.69747,754.10824 L 123.60579,601.06243 a 34.006871,33.728573 0 0 1 -1.93326,-2.68382 34.006871,33.728573 0 0 1 -4.61707,-25.86017 l 43.87358,-190.86943 a 34.006871,33.728573 0 0 1 18.40007,-22.88068 l 177.837,-84.97238 a 34.006871,33.728573 0 0 1 13.03244,-3.29791 z"
         style="color:#000000;font-style:normal;font-variant:normal;font-weight:normal;font-stretch:normal;font-size:medium;line-height:normal;font-family:Sans;-inkscape-font-specification:Sans;text-indent:0;text-align:start;text-decoration:none;text-decoration-line:none;letter-spacing:normal;word-spacing:normal;text-transform:none;writing-mode:lr-tb;direction:ltr;baseline-shift:baseline;text-anchor:start;display:inline;overflow:visible;visibility:visible;fill:#ffffff;fill-opacity:1;fill-rule:nonzero;stroke:none;stroke-width:0;stroke-miterlimit:4;stroke-dasharray:none;marker:none;enable-background:accumulate" />
      <path
         inkscape:export-ydpi="250.55"
         inkscape:export-xdpi="250.55"
         inkscape:export-filename="./path3059.png"
         sodipodi:nodetypes="ccccccccsccccscssccsccccccccscccsccccccccccccccscccscsccsccccscscsccccccccscccscsccccsccccscscscccccccccccccccscccsccccccccccccscccccscccccccccccccccccccccccscccscccccccccscccscccc"
         style="color:#000000;font-style:normal;font-variant:normal;font-weight:normal;font-stretch:normal;font-size:medium;line-height:normal;font-family:Sans;-inkscape-font-specification:Sans;text-indent:0;text-align:start;text-decoration:none;text-decoration-line:none;letter-spacing:normal;word-spacing:normal;text-transform:none;writing-mode:lr-tb;direction:ltr;baseline-shift:baseline;text-anchor:start;display:inline;overflow:visible;visibility:visible;fill:#ffffff;fill-opacity:1;stroke:none;stroke-width:0;stroke-miterlimit:4;stroke-dasharray:none;stroke-opacity:1;marker:none;enable-background:accumulate"
         d="m 371.9652,335.44585 c -5.87854,5.9e-4 -10.64499,5.29551 -10.6443,11.82698 1e-5,0.10024 0.0205,0.19603 0.0227,0.29567 -0.009,0.88747 -0.0515,1.95663 -0.0227,2.72931 0.1402,3.76717 0.96137,6.6504 1.45563,10.12117 0.89542,7.42856 1.64572,13.58638 1.1827,19.30984 -0.45029,2.15826 -2.03997,4.1321 -3.45712,5.5041 l -0.25018,4.50335 c -6.3879,0.52925 -12.81853,1.49839 -19.24161,2.95675 -27.63848,6.27535 -51.43473,20.51206 -69.5518,39.73414 -1.17558,-0.802 -3.23225,-2.27743 -3.84381,-2.7293 -1.90045,0.25664 -3.82118,0.84302 -6.32289,-0.6141 -4.76348,-3.20648 -9.10196,-7.63254 -14.3516,-12.9642 -2.40541,-2.5504 -4.14732,-4.97899 -7.00522,-7.43736 -0.649,-0.55828 -1.63946,-1.31337 -2.36539,-1.88777 -2.23431,-1.78137 -4.86959,-2.71039 -7.41462,-2.79753 -3.27217,-0.11204 -6.42219,1.1673 -8.48359,3.75279 -3.6647,4.59643 -2.4914,11.62178 2.61559,15.69351 0.0518,0.0413 0.107,0.0734 0.15921,0.11372 0.70177,0.56887 1.56113,1.29779 2.20618,1.77405 3.03271,2.23916 5.80302,3.38539 8.82476,5.16293 6.36619,3.93152 11.64385,7.19144 15.82997,11.12192 1.63469,1.74252 1.9204,4.81298 2.13796,6.14094 l 3.41163,3.04773 c -18.26336,27.48496 -26.7158,61.43445 -21.72069,96.02606 l -4.45786,1.29642 c -1.17492,1.51721 -2.83514,3.90454 -4.57163,4.61708 -5.4769,1.72507 -11.64084,2.35855 -19.08239,3.1387 -3.49374,0.29051 -6.50825,0.11714 -10.21215,0.81879 -0.81521,0.15443 -1.95107,0.45035 -2.84303,0.65958 -0.031,0.007 -0.06,0.0157 -0.091,0.0227 -0.0486,0.0113 -0.11249,0.0349 -0.15921,0.0455 -6.27386,1.51588 -10.30421,7.28251 -9.0067,12.9642 1.29781,5.68302 7.42599,9.139 13.7375,7.77852 0.0456,-0.0104 0.11172,-0.0122 0.15921,-0.0227 0.0713,-0.0163 0.13398,-0.0509 0.2047,-0.0682 0.87982,-0.19314 1.9824,-0.40802 2.75205,-0.6141 3.6415,-0.975 6.27881,-2.40758 9.55257,-3.66182 7.04302,-2.52607 12.8763,-4.63634 18.55927,-5.45861 2.37354,-0.18589 4.87426,1.46448 6.1182,2.1607 l 4.63982,-0.79604 c 10.67717,33.10307 33.05309,59.85914 61.38663,76.64799 l -1.93326,4.63982 c 0.69682,1.80165 1.46539,4.23931 0.94632,6.01854 -2.06603,5.35759 -5.60488,11.01254 -9.63461,17.31703 -1.95116,2.91265 -3.94805,5.17302 -5.7088,8.50633 -0.42133,0.79761 -0.95793,2.02283 -1.36465,2.86577 -2.73574,5.85335 -0.72901,12.59498 4.5261,15.1249 5.28812,2.54581 11.85208,-0.13926 14.69276,-6.00447 0.004,-0.008 0.0187,-0.0144 0.0227,-0.0227 0.003,-0.007 -0.003,-0.0164 0,-0.0227 0.40461,-0.83157 0.97784,-1.92462 1.31916,-2.70657 1.50813,-3.45495 2.00994,-6.41573 3.07047,-9.75726 2.81637,-7.07446 4.36374,-14.49737 8.24074,-19.12269 1.06165,-1.26656 2.79249,-1.75367 4.587,-2.23413 l 2.41088,-4.36689 c 24.70076,9.4811 52.34929,12.02529 79.96866,5.75429 6.30067,-1.43057 12.38336,-3.28205 18.2636,-5.5041 0.67758,1.20186 1.93681,3.51221 2.27442,4.09396 1.8236,0.5933 3.81407,0.89968 5.43587,3.29791 2.90062,4.95567 4.88429,10.81835 7.30089,17.89969 1.0607,3.34148 1.5849,6.30239 3.09321,9.75727 0.34378,0.78746 0.91414,1.89586 1.31917,2.72931 2.8347,5.88426 9.41946,8.57851 14.7155,6.02721 5.25446,-2.53126 7.2634,-9.27229 4.5261,-15.1249 -0.40677,-0.84291 -0.96603,-2.06819 -1.3874,-2.86577 -1.76092,-3.33322 -3.75749,-5.57104 -5.70879,-8.48359 -4.03007,-6.30427 -7.37254,-11.54147 -9.43885,-16.89895 -0.864,-2.7632 0.14576,-4.4817 0.81879,-6.2774 -0.40305,-0.462 -1.26553,-3.07145 -1.77405,-4.29866 29.4455,-17.38616 51.16433,-45.14001 61.36389,-77.19386 1.37731,0.21647 3.7712,0.64001 4.54884,0.79605 1.60086,-1.05584 3.07279,-2.43346 5.95898,-2.20619 5.68301,0.82197 11.51613,2.9329 18.55928,5.45861 3.27382,1.25407 5.91102,2.70975 9.55257,3.68456 0.76966,0.20604 1.87222,0.39826 2.75205,0.59135 0.0707,0.0173 0.13341,0.052 0.2047,0.0682 0.0475,0.0106 0.11365,0.0123 0.15921,0.0227 6.31187,1.35879 12.44115,-2.09517 13.7375,-7.77852 1.29605,-5.68202 -2.73243,-11.44999 -9.00671,-12.9642 -0.91263,-0.20753 -2.20691,-0.55997 -3.09321,-0.72782 -3.70394,-0.70145 -6.7184,-0.52847 -10.21215,-0.81879 -7.44159,-0.77977 -13.60541,-1.41392 -19.0824,-3.1387 -2.23312,-0.86631 -3.82177,-3.52353 -4.59436,-4.61708 l -4.29866,-1.25093 c 2.22876,-16.12431 1.62779,-32.90548 -2.22893,-49.6961 -3.89264,-16.94696 -10.77193,-32.4466 -19.94668,-46.10252 1.10268,-1.00242 3.18506,-2.84642 3.77554,-3.38889 0.17261,-1.90991 0.0243,-3.91239 2.00149,-6.02722 4.18591,-3.9307 9.46399,-7.19007 15.82998,-11.12192 3.02164,-1.7777 5.8149,-2.92362 8.84749,-5.16293 0.68579,-0.50639 1.62223,-1.30832 2.34266,-1.88777 5.1059,-4.0731 6.28146,-11.09803 2.61558,-15.69351 -3.66588,-4.59548 -10.76956,-5.02835 -15.87546,-0.95526 -0.72676,0.57559 -1.71293,1.32646 -2.3654,1.88777 -2.85776,2.45853 -4.62268,4.88683 -7.02796,7.43736 -5.24936,5.33193 -9.58828,9.78021 -14.3516,12.98694 -2.06409,1.20167 -5.08739,0.78588 -6.45939,0.70508 l -4.04847,2.88851 c -23.08541,-24.20753 -54.51672,-39.68444 -88.36112,-42.69092 -0.0947,-1.41831 -0.21867,-3.982 -0.25019,-4.75354 -1.38554,-1.32583 -3.05931,-2.45773 -3.47986,-5.32215 -0.46302,-5.72346 0.31003,-11.88128 1.20544,-19.30984 0.49426,-3.47077 1.31544,-6.354 1.45563,-10.12117 0.0319,-0.85637 -0.0193,-2.09903 -0.0227,-3.02498 -6.9e-4,-6.53147 -4.76576,-11.82758 -10.64429,-11.82698 z m -13.32811,82.56148 -3.16145,55.83704 -0.22744,0.11372 c -0.21204,4.99525 -4.32319,8.98397 -9.37062,8.98397 -2.06758,0 -3.976,-0.66398 -5.52684,-1.79679 l -0.091,0.0455 -45.7841,-32.45599 c 14.07132,-13.83659 32.06964,-24.06184 52.81206,-28.77143 3.789,-0.8603 7.57631,-1.49864 11.34937,-1.956 z m 26.67896,0 c 24.21692,2.97845 46.61291,13.94407 63.77477,30.75018 l -45.48842,32.25129 -0.15921,-0.0682 c -4.03752,2.94888 -9.72611,2.21721 -12.87323,-1.72856 -1.28919,-1.61644 -1.96562,-3.51708 -2.04698,-5.43586 l -0.0455,-0.0227 z m -107.44366,51.58388 41.80386,37.39148 -0.0455,0.22744 c 3.77326,3.28024 4.32969,8.97246 1.1827,12.91872 -1.2891,1.61651 -3.01467,2.70073 -4.86726,3.20693 l -0.0455,0.18195 -53.58536,15.46607 c -2.72733,-24.9387 3.15038,-49.1811 15.55704,-69.39259 z m 187.88994,0.0227 c 6.21124,10.06755 10.91471,21.31198 13.71476,33.50223 2.76647,12.04408 3.46075,24.06663 2.31991,35.68567 l -53.8583,-15.51155 -0.0455,-0.22745 c -4.82287,-1.3181 -7.78684,-6.22399 -6.66406,-11.14466 0.46,-2.01577 1.53003,-3.72106 2.97949,-4.98098 l -0.0227,-0.11372 41.57643,-37.20954 z m -102.3717,40.25726 h 17.12639 l 10.64429,13.30536 -3.82103,16.60328 -15.37508,7.39187 -15.42058,-7.41461 -3.82103,-16.60328 z m 54.90453,45.53391 c 0.72779,-0.0367 1.45241,0.0288 2.1607,0.15921 l 0.091,-0.11372 55.42765,9.37062 c -8.11186,22.79014 -23.63419,42.53363 -44.37396,55.74606 l -21.51602,-51.97052 0.0682,-0.091 c -1.97646,-4.5925 10e-4,-9.97802 4.54885,-12.16815 1.16424,-0.56072 2.3806,-0.8712 3.59358,-0.93252 z m -93.09207,0.22745 c 4.22987,0.0593 8.02389,2.99514 9.00671,7.30089 0.46012,2.01574 0.23618,4.01299 -0.52311,5.77703 l 0.15921,0.2047 -21.28859,51.44741 C 292.65364,607.59042 276.8003,588.46678 268.31982,565.00318 l 54.95002,-9.32513 0.091,0.11372 c 0.61465,-0.11311 1.23802,-0.16769 1.84228,-0.15921 z m 46.42094,22.53955 c 1.47343,-0.0542 2.9685,0.24817 4.38964,0.93251 1.86285,0.89705 3.3019,2.30949 4.20768,4.00298 h 0.20469 l 27.08836,48.94555 c -3.51556,1.1785 -7.12974,2.18568 -10.82624,3.02498 -20.71691,4.70379 -41.36799,3.27856 -60.06747,-3.09322 l 27.02012,-48.85456 h 0.0455 c 1.62133,-3.03092 4.69621,-4.83915 7.93773,-4.95824 z"
         id="path3059"
         inkscape:connector-curvature="0" />
    </g>
  </g>
</svg>
