<?xml version="1.0" encoding="UTF-8" standalone="no"?>
<svg
   xmlns:dc="http://purl.org/dc/elements/1.1/"
   xmlns:cc="http://creativecommons.org/ns#"
   xmlns:rdf="http://www.w3.org/1999/02/22-rdf-syntax-ns#"
   xmlns:svg="http://www.w3.org/2000/svg"
   xmlns="http://www.w3.org/2000/svg"
   xmlns:sodipodi="http://sodipodi.sourceforge.net/DTD/sodipodi-0.dtd"
   xmlns:inkscape="http://www.inkscape.org/namespaces/inkscape"
   version="1.1"
   id="svg883"
   width="2560"
   height="1440"
   viewBox="0 0 2560 1440"
   sodipodi:docname="publishing-docker-images-with-github-actions.svg"
   inkscape:version="1.0.1 (c497b03c, 2020-09-10)">
  <metadata
     id="metadata889">
    <rdf:RDF>
      <cc:Work
         rdf:about="">
        <dc:format>image/svg+xml</dc:format>
        <dc:type
           rdf:resource="http://purl.org/dc/dcmitype/StillImage" />
        <dc:title></dc:title>
      </cc:Work>
    </rdf:RDF>
  </metadata>
  <defs
     id="defs887" />
  <sodipodi:namedview
     pagecolor="#ffffff"
     bordercolor="#666666"
     borderopacity="1"
     objecttolerance="10"
     gridtolerance="10"
     guidetolerance="10"
     inkscape:pageopacity="0"
     inkscape:pageshadow="2"
     inkscape:window-width="1792"
     inkscape:window-height="1019"
     id="namedview885"
     showgrid="false"
     showguides="true"
     inkscape:guide-bbox="true"
     inkscape:zoom="0.35455254"
     inkscape:cx="362.51424"
     inkscape:cy="800.07039"
     inkscape:window-x="0"
     inkscape:window-y="23"
     inkscape:window-maximized="0"
     inkscape:current-layer="g891"
     inkscape:document-rotation="0">
    <sodipodi:guide
       position="-5085.6997,719.99659"
       orientation="0,-1"
       id="guide2524" />
    <sodipodi:guide
       position="640,3678.5859"
       orientation="1,0"
       id="guide3207" />
    <sodipodi:guide
       position="1920,1222.9258"
       orientation="1,0"
       id="guide3211" />
  </sodipodi:namedview>
  <g
     inkscape:groupmode="layer"
     inkscape:label="Image"
     id="g891">
    <rect
       style="fill:#2396ed;fill-opacity:1;stroke-width:31.4462;stroke-linecap:round;stroke-linejoin:round"
       id="rect897"
       width="2844.9871"
       height="1784.9825"
       x="-1606.4944"
       y="-3252.4751"
       transform="matrix(-0.50074198,0.8655966,-0.8483303,-0.52946738,0,0)" />
    <rect
       style="fill:#222222;fill-opacity:1;stroke-width:31.4462;stroke-linecap:round;stroke-linejoin:round"
       id="rect897-0"
       width="2844.9871"
       height="1784.9825"
       x="-1293.6959"
       y="-1470.439"
       transform="matrix(-0.50074198,0.8655966,-0.8483303,-0.52946738,0,0)" />
    <g
       id="g2445"
       transform="matrix(3.0146598,0,0,3.0146598,1579.7898,-251.47412)"
       style="fill:#ffffff">
      <path
         d="m 234.4,303.4 c -0.6,-0.5 -6,-4.6 -17.6,-4.6 -3,0 -6.1,0.3 -9.1,0.8 -2.2,-15.3 -14.9,-22.7 -15.4,-23.1 l -3.1,-1.8 -2,2.9 c -2.5,3.9 -4.4,8.3 -5.5,12.8 -2.1,8.7 -0.8,16.9 3.6,23.9 -5.3,3 -13.9,3.7 -15.7,3.8 h -142 c -3.7,0 -6.7,3 -6.7,6.7 -0.2,12.4 1.9,24.8 6.2,36.5 4.9,12.8 12.2,22.3 21.6,28.1 10.6,6.5 27.9,10.2 47.4,10.2 8.8,0 17.6,-0.8 26.3,-2.4 12.1,-2.2 23.7,-6.4 34.4,-12.5 8.8,-5.1 16.7,-11.6 23.4,-19.2 11.3,-12.7 18,-26.9 22.9,-39.5 h 2 c 12.3,0 19.9,-4.9 24.1,-9.1 2.8,-2.6 4.9,-5.8 6.4,-9.4 l 0.9,-2.6 z"
         id="path1865"
         style="fill:#ffffff"
         sodipodi:nodetypes="cscccccccscccsccccscccc" />
      <path
         d="m 40.8,314 h 19 c 0.9,0 1.7,-0.7 1.7,-1.7 v -17 c 0,-0.9 -0.7,-1.7 -1.7,-1.7 h -19 c -0.9,0 -1.7,0.7 -1.7,1.7 v 17 c 0.1,1 0.8,1.7 1.7,1.7 z m 26.2,0 h 19 c 0.9,0 1.7,-0.7 1.7,-1.7 v -17 c 0,-0.9 -0.7,-1.7 -1.7,-1.7 H 67 c -0.9,0 -1.7,0.7 -1.7,1.7 v 17 c 0.1,1 0.8,1.7 1.7,1.7 m 26.7,0 h 19 c 0.9,0 1.7,-0.7 1.7,-1.7 v -17 c 0,-0.9 -0.7,-1.7 -1.7,-1.7 h -19 c -0.9,0 -1.7,0.7 -1.7,1.7 v 17 c 0,1 0.7,1.7 1.7,1.7 z m 26.3,0 h 19 c 0.9,0 1.7,-0.7 1.7,-1.7 v -17 c 0,-0.9 -0.7,-1.7 -1.7,-1.7 h -19 c -0.9,0 -1.7,0.7 -1.7,1.7 v 17 c 0,1 0.8,1.7 1.7,1.7 z M 67,289.7 h 19 c 0.9,0 1.7,-0.8 1.7,-1.7 v -17 c 0,-0.9 -0.7,-1.7 -1.7,-1.7 H 67 c -0.9,0 -1.7,0.7 -1.7,1.7 v 17 c 0.1,0.9 0.8,1.7 1.7,1.7 m 26.7,0 h 19 c 0.9,0 1.7,-0.8 1.7,-1.7 v -17 c 0,-0.9 -0.7,-1.7 -1.7,-1.7 h -19 c -0.9,0 -1.7,0.7 -1.7,1.7 v 17 c 0,0.9 0.7,1.7 1.7,1.7 m 26.3,0 h 19 c 0.9,0 1.7,-0.8 1.7,-1.7 v -17 c 0,-0.9 -0.8,-1.7 -1.7,-1.7 h -19 c -0.9,0 -1.7,0.7 -1.7,1.7 v 17 c 0,0.9 0.8,1.7 1.7,1.7 m 0,-24.4 h 19 c 0.9,0 1.7,-0.7 1.7,-1.7 v -17 c 0,-0.9 -0.8,-1.7 -1.7,-1.7 h -19 c -0.9,0 -1.7,0.7 -1.7,1.7 v 17 c 0,0.9 0.8,1.7 1.7,1.7 m 26.5,48.7 h 19 c 0.9,0 1.7,-0.7 1.7,-1.7 v -17 c 0,-0.9 -0.7,-1.7 -1.7,-1.7 h -19 c -0.9,0 -1.7,0.7 -1.7,1.7 v 17 c 0.1,1 0.8,1.7 1.7,1.7"
         id="path1867"
         style="fill:#ffffff" />
    </g>
    <g
       id="g1395"
       transform="matrix(2.992544,0,0,2.992544,-31.623772,-1577.733)">
      <path
         d="m 224.43238,689.29079 c -44.46266,0 -80.51733,36.04666 -80.51733,80.516 0,35.57466 23.07067,65.75599 55.06267,76.40293 4.024,0.7452 5.50133,-1.74694 5.50133,-3.8736 0,-1.92 -0.0747,-8.26267 -0.10933,-14.99067 -22.4,4.87067 -27.12667,-9.5 -27.12667,-9.5 -3.66266,-9.30667 -8.94,-11.78133 -8.94,-11.78133 -7.30533,-4.99734 0.55067,-4.89467 0.55067,-4.89467 8.08533,0.56667 12.34267,8.29733 12.34267,8.29733 7.18133,12.30934 18.836,8.75067 23.43066,6.69334 0.72267,-5.20267 2.80934,-8.75734 5.112,-10.76667 -17.884,-2.036 -36.684,-8.94 -36.684,-39.792 0,-8.79066 3.14534,-15.97333 8.296,-21.612 -0.836,-2.02933 -3.592,-10.21733 0.78,-21.308 0,0 6.76134,-2.164 22.148,8.25334 6.42267,-1.784 13.31067,-2.67867 20.15333,-2.70934 6.84267,0.0307 13.736,0.92534 20.17067,2.70934 15.368,-10.41734 22.12,-8.25334 22.12,-8.25334 4.38267,11.09067 1.62533,19.27867 0.78933,21.308 5.16267,5.63867 8.28667,12.82134 8.28667,21.612 0,30.92533 -18.836,37.73467 -36.76533,39.728 2.888,2.49867 5.46133,7.39867 5.46133,14.91067 0,10.772 -0.0933,19.44266 -0.0933,22.096 0,2.14266 1.44933,4.6532 5.53066,3.86266 31.97467,-10.65866 55.016,-40.82933 55.016,-76.39199 0,-44.46934 -36.04933,-80.516 -80.516,-80.516"
         style="fill:#ffffff;fill-opacity:1;fill-rule:evenodd;stroke:none;stroke-width:0.133333"
         id="path1024" />
      <path
         d="m 174.41105,804.89478 c -0.17733,0.40134 -0.80666,0.52 -1.38,0.24534 -0.584,-0.26267 -0.912,-0.808 -0.72266,-1.20934 0.17333,-0.412 0.804,-0.52533 1.38666,-0.252 0.58534,0.264 0.91867,0.81467 0.716,1.216 v 0"
         style="fill:#ffffff;fill-opacity:1;fill-rule:nonzero;stroke:none;stroke-width:0.133333"
         id="path1026" />
      <path
         d="m 177.67239,808.53212 c -0.384,0.356 -1.13467,0.19066 -1.644,-0.372 -0.52667,-0.56134 -0.62534,-1.312 -0.236,-1.67334 0.396,-0.356 1.124,-0.18933 1.652,0.372 0.52666,0.568 0.62933,1.31334 0.228,1.67334 v 0"
         style="fill:#ffffff;fill-opacity:1;fill-rule:nonzero;stroke:none;stroke-width:0.133333"
         id="path1028" />
      <path
         d="m 180.84705,813.16945 c -0.49333,0.34267 -1.3,0.0213 -1.79866,-0.69467 -0.49334,-0.716 -0.49334,-1.57466 0.0107,-1.91866 0.5,-0.344 1.29467,-0.0347 1.8,0.676 0.492,0.72666 0.492,1.58666 -0.012,1.93733 v 0"
         style="fill:#ffffff;fill-opacity:1;fill-rule:nonzero;stroke:none;stroke-width:0.133333"
         id="path1030" />
      <path
         d="m 185.19639,817.64945 c -0.44134,0.48667 -1.38134,0.356 -2.06934,-0.308 -0.704,-0.64933 -0.9,-1.57067 -0.45733,-2.05733 0.44667,-0.488 1.392,-0.35067 2.08533,0.308 0.69867,0.648 0.912,1.576 0.44134,2.05733 v 0"
         style="fill:#ffffff;fill-opacity:1;fill-rule:nonzero;stroke:none;stroke-width:0.133333"
         id="path1032" />
      <path
         d="m 191.19639,820.25078 c -0.19467,0.63067 -1.1,0.91734 -2.012,0.64934 -0.91067,-0.276 -1.50667,-1.01467 -1.32267,-1.652 0.18933,-0.63467 1.09867,-0.93334 2.01733,-0.64667 0.90934,0.27467 1.50667,1.008 1.31734,1.64933 v 0"
         style="fill:#ffffff;fill-opacity:1;fill-rule:nonzero;stroke:none;stroke-width:0.133333"
         id="path1034" />
      <path
         d="m 197.78572,820.73345 c 0.0227,0.664 -0.75067,1.21467 -1.708,1.22533 -0.96267,0.0227 -1.74133,-0.51466 -1.752,-1.168 0,-0.67066 0.756,-1.216 1.71867,-1.232 0.95733,-0.0187 1.74133,0.51467 1.74133,1.17467 v 0"
         style="fill:#ffffff;fill-opacity:1;fill-rule:nonzero;stroke:none;stroke-width:0.133333"
         id="path1036" />
      <path
         d="m 203.91772,819.68945 c 0.11467,0.648 -0.55067,1.31333 -1.50133,1.48933 -0.93467,0.172 -1.8,-0.228 -1.91867,-0.87066 -0.116,-0.664 0.56133,-1.32934 1.49467,-1.50134 0.952,-0.16533 1.804,0.224 1.92533,0.88267 v 0"
         style="fill:#ffffff;fill-opacity:1;fill-rule:nonzero;stroke:none;stroke-width:0.133333"
         id="path1038" />
    </g>
  </g>
</svg>
