<?xml version="1.0" encoding="UTF-8" standalone="no"?>
<svg
   xmlns:dc="http://purl.org/dc/elements/1.1/"
   xmlns:cc="http://creativecommons.org/ns#"
   xmlns:rdf="http://www.w3.org/1999/02/22-rdf-syntax-ns#"
   xmlns:svg="http://www.w3.org/2000/svg"
   xmlns="http://www.w3.org/2000/svg"
   xmlns:sodipodi="http://sodipodi.sourceforge.net/DTD/sodipodi-0.dtd"
   xmlns:inkscape="http://www.inkscape.org/namespaces/inkscape"
   version="1.1"
   id="svg883"
   width="2560"
   height="1440"
   viewBox="0 0 2560 1440"
   sodipodi:docname="publishing-docker-images-with-circleci.svg"
   inkscape:version="1.0.1 (c497b03c, 2020-09-10)">
  <metadata
     id="metadata889">
    <rdf:RDF>
      <cc:Work
         rdf:about="">
        <dc:format>image/svg+xml</dc:format>
        <dc:type
           rdf:resource="http://purl.org/dc/dcmitype/StillImage" />
        <dc:title></dc:title>
      </cc:Work>
    </rdf:RDF>
  </metadata>
  <defs
     id="defs887" />
  <sodipodi:namedview
     pagecolor="#ffffff"
     bordercolor="#666666"
     borderopacity="1"
     objecttolerance="10"
     gridtolerance="10"
     guidetolerance="10"
     inkscape:pageopacity="0"
     inkscape:pageshadow="2"
     inkscape:window-width="1926"
     inkscape:window-height="1108"
     id="namedview885"
     showgrid="false"
     showguides="true"
     inkscape:guide-bbox="true"
     inkscape:zoom="0.30648378"
     inkscape:cx="1501.8762"
     inkscape:cy="689.13467"
     inkscape:window-x="1219"
     inkscape:window-y="279"
     inkscape:window-maximized="0"
     inkscape:current-layer="g891">
    <sodipodi:guide
       position="-5085.6997,719.99659"
       orientation="0,-1"
       id="guide2524" />
    <sodipodi:guide
       position="640,3678.5859"
       orientation="1,0"
       id="guide3207" />
    <sodipodi:guide
       position="1920,1222.9258"
       orientation="1,0"
       id="guide3211" />
  </sodipodi:namedview>
  <g
     inkscape:groupmode="layer"
     inkscape:label="Image"
     id="g891">
    <rect
       style="fill:#2396ed;fill-opacity:1;stroke-width:31.4462;stroke-linecap:round;stroke-linejoin:round"
       id="rect897"
       width="2844.9871"
       height="1784.9825"
       x="-1606.4944"
       y="-3252.4751"
       transform="matrix(-0.50074198,0.8655966,-0.8483303,-0.52946738,0,0)" />
    <rect
       style="fill:#161616;fill-opacity:1;stroke-width:31.4462;stroke-linecap:round;stroke-linejoin:round"
       id="rect897-0"
       width="2844.9871"
       height="1784.9825"
       x="-1293.6959"
       y="-1470.439"
       transform="matrix(-0.50074198,0.8655966,-0.8483303,-0.52946738,0,0)" />
    <g
       id="g2445"
       transform="matrix(3.0146598,0,0,3.0146598,1579.7898,-251.47412)"
       style="fill:#ffffff">
      <path
         d="m 234.4,303.4 c -0.6,-0.5 -6,-4.6 -17.6,-4.6 -3,0 -6.1,0.3 -9.1,0.8 -2.2,-15.3 -14.9,-22.7 -15.4,-23.1 l -3.1,-1.8 -2,2.9 c -2.5,3.9 -4.4,8.3 -5.5,12.8 -2.1,8.7 -0.8,16.9 3.6,23.9 -5.3,3 -13.9,3.7 -15.7,3.8 h -142 c -3.7,0 -6.7,3 -6.7,6.7 -0.2,12.4 1.9,24.8 6.2,36.5 4.9,12.8 12.2,22.3 21.6,28.1 10.6,6.5 27.9,10.2 47.4,10.2 8.8,0 17.6,-0.8 26.3,-2.4 12.1,-2.2 23.7,-6.4 34.4,-12.5 8.8,-5.1 16.7,-11.6 23.4,-19.2 11.3,-12.7 18,-26.9 22.9,-39.5 h 2 c 12.3,0 19.9,-4.9 24.1,-9.1 2.8,-2.6 4.9,-5.8 6.4,-9.4 l 0.9,-2.6 z"
         id="path1865"
         style="fill:#ffffff"
         sodipodi:nodetypes="cscccccccscccsccccscccc" />
      <path
         d="m 40.8,314 h 19 c 0.9,0 1.7,-0.7 1.7,-1.7 v -17 c 0,-0.9 -0.7,-1.7 -1.7,-1.7 h -19 c -0.9,0 -1.7,0.7 -1.7,1.7 v 17 c 0.1,1 0.8,1.7 1.7,1.7 z m 26.2,0 h 19 c 0.9,0 1.7,-0.7 1.7,-1.7 v -17 c 0,-0.9 -0.7,-1.7 -1.7,-1.7 H 67 c -0.9,0 -1.7,0.7 -1.7,1.7 v 17 c 0.1,1 0.8,1.7 1.7,1.7 m 26.7,0 h 19 c 0.9,0 1.7,-0.7 1.7,-1.7 v -17 c 0,-0.9 -0.7,-1.7 -1.7,-1.7 h -19 c -0.9,0 -1.7,0.7 -1.7,1.7 v 17 c 0,1 0.7,1.7 1.7,1.7 z m 26.3,0 h 19 c 0.9,0 1.7,-0.7 1.7,-1.7 v -17 c 0,-0.9 -0.7,-1.7 -1.7,-1.7 h -19 c -0.9,0 -1.7,0.7 -1.7,1.7 v 17 c 0,1 0.8,1.7 1.7,1.7 z M 67,289.7 h 19 c 0.9,0 1.7,-0.8 1.7,-1.7 v -17 c 0,-0.9 -0.7,-1.7 -1.7,-1.7 H 67 c -0.9,0 -1.7,0.7 -1.7,1.7 v 17 c 0.1,0.9 0.8,1.7 1.7,1.7 m 26.7,0 h 19 c 0.9,0 1.7,-0.8 1.7,-1.7 v -17 c 0,-0.9 -0.7,-1.7 -1.7,-1.7 h -19 c -0.9,0 -1.7,0.7 -1.7,1.7 v 17 c 0,0.9 0.7,1.7 1.7,1.7 m 26.3,0 h 19 c 0.9,0 1.7,-0.8 1.7,-1.7 v -17 c 0,-0.9 -0.8,-1.7 -1.7,-1.7 h -19 c -0.9,0 -1.7,0.7 -1.7,1.7 v 17 c 0,0.9 0.8,1.7 1.7,1.7 m 0,-24.4 h 19 c 0.9,0 1.7,-0.7 1.7,-1.7 v -17 c 0,-0.9 -0.8,-1.7 -1.7,-1.7 h -19 c -0.9,0 -1.7,0.7 -1.7,1.7 v 17 c 0,0.9 0.8,1.7 1.7,1.7 m 26.5,48.7 h 19 c 0.9,0 1.7,-0.7 1.7,-1.7 v -17 c 0,-0.9 -0.7,-1.7 -1.7,-1.7 h -19 c -0.9,0 -1.7,0.7 -1.7,1.7 v 17 c 0.1,1 0.8,1.7 1.7,1.7"
         id="path1867"
         style="fill:#ffffff" />
    </g>
    <path
       style="fill:#ffffff;stroke-width:4.46768"
       inkscape:connector-curvature="0"
       id="path7"
       d="m 583.67889,720 c 0,-30.82699 25.01901,-55.846 55.846,-55.846 30.82701,0 55.84602,25.01901 55.84602,55.846 0,30.82699 -25.01901,55.846 -55.84602,55.846 -30.82699,0.44677 -55.846,-25.01901 -55.846,-55.846 z m 55.846,-235 c -109.90494,0 -201.93911,75.05703 -227.85167,176.92015 0,0.89354 -0.4468,1.3403 -0.4468,2.23385 0,6.25475 4.91444,11.1692 11.16916,11.1692 h 94.71488 c 4.46766,0 8.48858,-2.68062 10.27566,-6.70152 v 0 c 19.65778,-42.44297 62.10075,-71.92966 112.13877,-71.92966 67.90876,0 123.308,55.39923 123.308,123.30798 0,67.90875 -55.39924,123.30798 -123.308,123.30798 -49.59124,0 -92.48099,-29.48669 -112.13877,-71.92966 v 0 c -1.78708,-4.0209 -5.808,-6.70152 -10.27566,-6.70152 h -94.71488 c -6.25472,0 -11.16916,4.91445 -11.16916,11.1692 0,0.89355 0,1.34031 0.4468,2.23385 C 437.58578,879.94297 529.61995,955 639.52489,955 769.5344,955 874.97167,849.56273 874.97167,719.55323 874.97167,589.99049 769.5344,485 639.52489,485 Z" />
  </g>
</svg>
