<?xml version="1.0" encoding="UTF-8" standalone="no"?>
<svg
   version="1.1"
   id="svg883"
   width="2560"
   height="1440"
   viewBox="0 0 2560 1440"
   sodipodi:docname="reliably-detecting-command-existence-in-bash.svg"
   inkscape:version="1.3 (0e150ed, 2023-07-21)"
   xmlns:inkscape="http://www.inkscape.org/namespaces/inkscape"
   xmlns:sodipodi="http://sodipodi.sourceforge.net/DTD/sodipodi-0.dtd"
   xmlns="http://www.w3.org/2000/svg"
   xmlns:svg="http://www.w3.org/2000/svg"
   xmlns:rdf="http://www.w3.org/1999/02/22-rdf-syntax-ns#"
   xmlns:cc="http://creativecommons.org/ns#"
   xmlns:dc="http://purl.org/dc/elements/1.1/">
  <metadata
     id="metadata889">
    <rdf:RDF>
      <cc:Work
         rdf:about="">
        <dc:format>image/svg+xml</dc:format>
        <dc:type
           rdf:resource="http://purl.org/dc/dcmitype/StillImage" />
      </cc:Work>
    </rdf:RDF>
  </metadata>
  <defs
     id="defs887" />
  <sodipodi:namedview
     pagecolor="#ffffff"
     bordercolor="#666666"
     borderopacity="1"
     objecttolerance="10"
     gridtolerance="10"
     guidetolerance="10"
     inkscape:pageopacity="0"
     inkscape:pageshadow="2"
     inkscape:window-width="1792"
     inkscape:window-height="1005"
     id="namedview885"
     showgrid="false"
     showguides="true"
     inkscape:guide-bbox="true"
     inkscape:zoom="0.35455254"
     inkscape:cx="1215.6167"
     inkscape:cy="885.62333"
     inkscape:window-x="0"
     inkscape:window-y="43"
     inkscape:window-maximized="0"
     inkscape:current-layer="g891"
     inkscape:document-rotation="0"
     inkscape:showpageshadow="0"
     inkscape:pagecheckerboard="0"
     inkscape:deskcolor="#505050" />
  <g
     inkscape:groupmode="layer"
     inkscape:label="Image"
     id="g891">
    <rect
       style="fill:#343a40;fill-opacity:1;stroke-width:15;stroke-linecap:round;stroke-linejoin:round"
       id="rect1252"
       width="2560"
       height="1440"
       x="0"
       y="0" />
    <path
       style="line-height:normal;text-indent:0;text-align:start;text-decoration:none;text-decoration-line:none;text-decoration-style:solid;text-decoration-color:#000000;text-transform:none;isolation:auto;mix-blend-mode:normal;fill:#ffffff;fill-opacity:1;stroke-width:94.5841"
       d="m 952.90962,497.39633 -66.871,66.87096 155.73268,155.73268 -155.73268,155.7327 66.871,66.871 222.61308,-222.6037 z"
       font-weight="400"
       font-family="sans-serif"
       white-space="normal"
       overflow="visible"
       id="path1318"
       sodipodi:nodetypes="ccccccc" />
    <g
       id="g1045"
       transform="matrix(29.148,0,0,29.148,1295.8563,486.816)"
       style="fill:#ffffff">
      <path
         fill="#444444"
         d="M 9,11 H 6 C 6,8 7.6,7 8.7,6.4 9.1,6.2 9.4,6 9.6,5.8 10.1,5.3 9.9,4.6 9.8,4.4 9.5,3.7 8.8,3 7.5,3 5.4,3 5,4.9 5,5.3 L 2,4.9 C 2.2,3.2 3.7,0 7.5,0 9.8,0 11.8,1.3 12.6,3.2 13.3,4.9 13,6.7 11.8,7.9 11.3,8.4 10.7,8.7 10.2,9 9.3,9.5 9,10 9,11 Z"
         id="path1031"
         style="fill:#ffffff" />
      <path
         fill="#444444"
         d="m 9.5,14 c 0,1.105 -0.895,2 -2,2 -1.105,0 -2,-0.895 -2,-2 0,-1.105 0.895,-2 2,-2 1.105,0 2,0.895 2,2 z"
         id="path1033"
         style="fill:#ffffff" />
    </g>
  </g>
</svg>
