<?xml version="1.0" encoding="UTF-8" standalone="no"?>
<svg
   xmlns:dc="http://purl.org/dc/elements/1.1/"
   xmlns:cc="http://creativecommons.org/ns#"
   xmlns:rdf="http://www.w3.org/1999/02/22-rdf-syntax-ns#"
   xmlns:svg="http://www.w3.org/2000/svg"
   xmlns="http://www.w3.org/2000/svg"
   xmlns:sodipodi="http://sodipodi.sourceforge.net/DTD/sodipodi-0.dtd"
   xmlns:inkscape="http://www.inkscape.org/namespaces/inkscape"
   inkscape:export-ydpi="90"
   inkscape:export-xdpi="90"
   inkscape:export-filename="/home/thockin/Downloads/kubernetes.png"
   sodipodi:docname="types-of-probes-in-kubernetes.svg"
   inkscape:version="1.0.1 (c497b03c, 2020-09-10)"
   version="1.1"
   id="svg2"
   height="1080"
   width="1920">
  <defs
     id="defs4" />
  <sodipodi:namedview
     inkscape:guide-bbox="true"
     showguides="true"
     lock-margins="true"
     inkscape:document-rotation="0"
     fit-margin-bottom="0"
     fit-margin-right="0"
     fit-margin-left="0"
     fit-margin-top="0"
     inkscape:snap-global="false"
     inkscape:window-maximized="0"
     inkscape:window-y="192"
     inkscape:window-x="2143"
     inkscape:window-height="1014"
     inkscape:window-width="1990"
     showgrid="false"
     inkscape:current-layer="layer1"
     inkscape:document-units="px"
     inkscape:cy="555.40508"
     inkscape:cx="741.4886"
     inkscape:zoom="0.52403314"
     inkscape:pageshadow="2"
     inkscape:pageopacity="0.0"
     borderopacity="1.0"
     bordercolor="#666666"
     pagecolor="#ffffff"
     id="base">
    <sodipodi:guide
       id="guide887"
       orientation="1,0"
       position="952.43269,861.06058" />
    <sodipodi:guide
       id="guide889"
       orientation="0,-1"
       position="1221.257,540.5037" />
  </sodipodi:namedview>
  <metadata
     id="metadata7">
    <rdf:RDF>
      <cc:Work
         rdf:about="">
        <dc:format>image/svg+xml</dc:format>
        <dc:type
           rdf:resource="http://purl.org/dc/dcmitype/StillImage" />
        <dc:title></dc:title>
      </cc:Work>
    </rdf:RDF>
  </metadata>
  <g
     transform="translate(769.34052,-559.8786)"
     id="layer1"
     inkscape:groupmode="layer"
     inkscape:label="Layer 1">
    <rect
       inkscape:export-ydpi="96"
       inkscape:export-xdpi="96"
       y="559.8786"
       x="-769.34052"
       height="1080"
       width="1920"
       id="rect18"
       style="fill:#326ce5;fill-opacity:1;fill-rule:evenodd;stroke-width:4.10839" />
    <g
       transform="matrix(0.88934167,0,0,0.88934243,222.82606,121.70991)"
       id="g885">
      <path
         style="fill:#326ce5;fill-opacity:1;stroke:none;stroke-width:0;stroke-miterlimit:4;stroke-dasharray:none;stroke-opacity:1"
         d="m 188.88317,851.75516 a 34.006871,33.728573 0 0 0 -13.03244,3.29791 l -177.837,84.97238 a 34.006871,33.728573 0 0 0 -18.40007,22.88068 l -43.87359,190.86947 a 34.006871,33.728573 0 0 0 4.61708,25.8601 34.006871,33.728573 0 0 0 1.93325,2.6839 l 123.09169,153.0458 a 34.006871,33.728573 0 0 0 26.58799,12.6912 l 197.39702,-0.045 a 34.006871,33.728573 0 0 0 26.58798,-12.6685 l 123.0462,-153.0685 a 34.006871,33.728573 0 0 0 6.57307,-28.544 L 401.63253,962.86064 A 34.006871,33.728573 0 0 0 383.23247,939.97996 L 205.37272,855.05307 a 34.006871,33.728573 0 0 0 -16.48955,-3.29791 z"
         id="path3055"
         inkscape:connector-curvature="0"
         inkscape:export-filename="new.png"
         inkscape:export-xdpi="250.55"
         inkscape:export-ydpi="250.55" />
      <path
         style="color:#000000;font-style:normal;font-variant:normal;font-weight:normal;font-stretch:normal;font-size:medium;line-height:normal;font-family:Sans;-inkscape-font-specification:Sans;text-indent:0;text-align:start;text-decoration:none;text-decoration-line:none;letter-spacing:normal;word-spacing:normal;text-transform:none;writing-mode:lr-tb;direction:ltr;baseline-shift:baseline;text-anchor:start;display:inline;overflow:visible;visibility:visible;fill:#ffffff;fill-opacity:1;fill-rule:nonzero;stroke:none;stroke-width:0;stroke-miterlimit:4;stroke-dasharray:none;marker:none;enable-background:accumulate"
         d="m 188.78769,837.93426 a 35.900129,35.606334 0 0 0 -13.7375,3.50261 L -12.70329,931.1173 a 35.900129,35.606334 0 0 0 -19.42356,24.15435 l -46.30722,201.49095 a 35.900129,35.606334 0 0 0 4.86726,27.3158 35.900129,35.606334 0 0 0 2.04698,2.8203 l 129.93769,161.5749 a 35.900129,35.606334 0 0 0 28.06636,13.3963 l 208.38248,-0.045 a 35.900129,35.606334 0 0 0 28.06636,-13.3736 l 129.8922,-161.5976 a 35.900129,35.606334 0 0 0 6.93698,-30.1133 L 413.38679,955.22616 A 35.900129,35.606334 0 0 0 393.96323,931.09455 L 206.20976,841.41412 a 35.900129,35.606334 0 0 0 -17.42207,-3.47986 z m 0.091,13.82848 a 34.006871,33.728573 0 0 1 16.48955,3.29791 l 177.85975,84.92689 a 34.006871,33.728573 0 0 1 18.40006,22.88068 l 43.94182,190.86948 a 34.006871,33.728573 0 0 1 -6.57308,28.5439 l -123.04621,153.0686 a 34.006871,33.728573 0 0 1 -26.58798,12.6685 l -197.39702,0.045 A 34.006871,33.728573 0 0 1 65.37759,1335.3729 L -57.71409,1182.3271 a 34.006871,33.728573 0 0 1 -1.93326,-2.6838 34.006871,33.728573 0 0 1 -4.61707,-25.8602 l 43.87358,-190.86939 a 34.006871,33.728573 0 0 1 18.40007,-22.88068 l 177.837,-84.97238 a 34.006871,33.728573 0 0 1 13.03244,-3.29791 z"
         id="path3054-2-9"
         inkscape:connector-curvature="0" />
      <path
         inkscape:connector-curvature="0"
         id="path3059"
         d="m 190.64839,916.71055 c -5.87854,5.9e-4 -10.64499,5.29551 -10.6443,11.82698 1e-5,0.10024 0.0205,0.19603 0.0227,0.29567 -0.009,0.88747 -0.0515,1.95663 -0.0227,2.72931 0.1402,3.76717 0.96137,6.6504 1.45563,10.12117 0.89542,7.42856 1.64572,13.58638 1.1827,19.30984 -0.45029,2.15826 -2.03997,4.1321 -3.45712,5.5041 l -0.25018,4.50335 c -6.3879,0.52925 -12.81853,1.49839 -19.24161,2.95675 -27.63848,6.27535 -51.43473,20.51206 -69.551797,39.73418 -1.17558,-0.802 -3.23225,-2.2775 -3.84381,-2.7293 -1.90045,0.2566 -3.82118,0.843 -6.32289,-0.6141 -4.76348,-3.2065 -9.10196,-7.6326 -14.3516,-12.96424 -2.40541,-2.5504 -4.14732,-4.97899 -7.00522,-7.43736 -0.649,-0.55828 -1.63946,-1.31337 -2.36539,-1.88777 -2.23431,-1.78137 -4.86959,-2.71039 -7.41462,-2.79753 -3.27217,-0.11204 -6.42219,1.1673 -8.48359,3.75279 -3.6647,4.59643 -2.4914,11.62181 2.61559,15.69351 0.0518,0.041 0.107,0.073 0.15921,0.1137 0.70177,0.5689 1.56113,1.2978 2.20618,1.7741 3.03271,2.2391 5.80302,3.3854 8.82476,5.1629 6.36619,3.9315 11.64385,7.1914 15.82997,11.1219 1.63469,1.7425 1.9204,4.813 2.13796,6.141 l 3.41163,3.0477 c -18.26336,27.485 -26.7158,61.4344 -21.72069,96.026 l -4.45786,1.2965 c -1.17492,1.5172 -2.83514,3.9045 -4.57163,4.6171 -5.4769,1.725 -11.64084,2.3585 -19.08239,3.1387 -3.49374,0.2905 -6.50825,0.1171 -10.21215,0.8187 -0.81521,0.1545 -1.95107,0.4504 -2.84303,0.6596 -0.031,0.01 -0.06,0.016 -0.091,0.023 -0.0486,0.011 -0.11249,0.035 -0.15921,0.045 -6.2738604,1.5159 -10.3042104,7.2825 -9.0067004,12.9642 1.29781,5.683 7.4259904,9.139 13.7375004,7.7785 0.0456,-0.01 0.11172,-0.012 0.15921,-0.023 0.0713,-0.016 0.13398,-0.051 0.2047,-0.068 0.87982,-0.1931 1.9824,-0.408 2.75205,-0.6141 3.6415,-0.975 6.27881,-2.4075 9.55257,-3.6618 7.04302,-2.5261 12.8763,-4.6363 18.55927,-5.4586 2.37354,-0.1859 4.87426,1.4645 6.1182,2.1607 l 4.63982,-0.796 c 10.67717,33.103 33.05309,59.8591 61.386627,76.648 l -1.93326,4.6398 c 0.69682,1.8016 1.46539,4.2393 0.94632,6.0185 -2.06603,5.3576 -5.60488,11.0126 -9.63461,17.317 -1.95116,2.9127 -3.94805,5.1731 -5.7088,8.5064 -0.42133,0.7976 -0.95793,2.0228 -1.36465,2.8657 -2.73574,5.8534 -0.72901,12.595 4.5261,15.1249 5.28812,2.5459 11.85208,-0.1392 14.69276,-6.0044 0.004,-0.01 0.0187,-0.014 0.0227,-0.023 0.003,-0.01 -0.003,-0.016 0,-0.023 0.40461,-0.8316 0.97784,-1.9246 1.31916,-2.7066 1.50813,-3.4549 2.00994,-6.4157 3.07047,-9.7573 2.81637,-7.0744 4.36374,-14.4973 8.24074,-19.1226 1.06165,-1.2666 2.79249,-1.7537 4.587,-2.2342 l 2.41088,-4.3669 c 24.70076,9.4811 52.34929,12.0253 79.96866,5.7543 6.30067,-1.4305 12.38336,-3.282 18.2636,-5.5041 0.67758,1.2019 1.93681,3.5122 2.27442,4.094 1.8236,0.5933 3.81407,0.8997 5.43587,3.2979 2.90062,4.9557 4.88429,10.8183 7.30089,17.8997 1.0607,3.3415 1.5849,6.3024 3.09321,9.7573 0.34378,0.7874 0.91414,1.8958 1.31917,2.7293 2.8347,5.8842 9.41946,8.5785 14.7155,6.0272 5.25446,-2.5313 7.2634,-9.2723 4.5261,-15.1249 -0.40677,-0.8429 -0.96603,-2.0682 -1.3874,-2.8658 -1.76092,-3.3332 -3.75749,-5.571 -5.70879,-8.4836 -4.03007,-6.3043 -7.37254,-11.5415 -9.43885,-16.8989 -0.864,-2.7632 0.14576,-4.4817 0.81879,-6.2774 -0.40305,-0.462 -1.26553,-3.0715 -1.77405,-4.2987 29.4455,-17.3862 51.16433,-45.14 61.36389,-77.1939 1.37731,0.2165 3.7712,0.6401 4.54884,0.7961 1.60086,-1.0558 3.07279,-2.4335 5.95898,-2.2062 5.68301,0.822 11.51613,2.9329 18.55928,5.4586 3.27382,1.2541 5.91102,2.7098 9.55257,3.6846 0.76966,0.206 1.87222,0.3982 2.75205,0.5913 0.0707,0.017 0.13341,0.052 0.2047,0.068 0.0475,0.011 0.11365,0.012 0.15921,0.023 6.31187,1.3588 12.44115,-2.0951 13.7375,-7.7785 1.29605,-5.682 -2.73243,-11.45 -9.00671,-12.9642 -0.91263,-0.2075 -2.20691,-0.56 -3.09321,-0.7278 -3.70394,-0.7015 -6.7184,-0.5285 -10.21215,-0.8188 -7.44159,-0.7798 -13.60541,-1.4139 -19.0824,-3.1387 -2.23312,-0.8663 -3.82177,-3.5235 -4.59436,-4.6171 l -4.29866,-1.2509 c 2.22876,-16.1243 1.62779,-32.9055 -2.22893,-49.6961 -3.89264,-16.947 -10.77193,-32.4466 -19.94668,-46.1025 1.10268,-1.0025 3.18506,-2.8465 3.77554,-3.3889 0.17261,-1.9099 0.0243,-3.9124 2.00149,-6.0272 4.18591,-3.9307 9.46399,-7.1901 15.82998,-11.122 3.02164,-1.7777 5.8149,-2.9236 8.84749,-5.1629 0.68579,-0.5064 1.62223,-1.3083 2.34266,-1.8878 5.1059,-4.0731 6.28146,-11.09799 2.61558,-15.69347 -3.66588,-4.59548 -10.76956,-5.02835 -15.87546,-0.95526 -0.72676,0.57559 -1.71293,1.32646 -2.3654,1.88777 -2.85776,2.45853 -4.62268,4.88683 -7.02796,7.43736 -5.24936,5.3319 -9.58828,9.7802 -14.3516,12.9869 -2.06409,1.2017 -5.08739,0.7859 -6.45939,0.7051 l -4.04847,2.8885 c -23.08541,-24.2075 -54.51672,-39.68441 -88.36112,-42.69089 -0.0947,-1.41831 -0.21867,-3.982 -0.25019,-4.75354 -1.38554,-1.32583 -3.05931,-2.45773 -3.47986,-5.32215 -0.46302,-5.72346 0.31003,-11.88128 1.20544,-19.30984 0.49426,-3.47077 1.31544,-6.354 1.45563,-10.12117 0.0319,-0.85637 -0.0193,-2.09903 -0.0227,-3.02498 -6.9e-4,-6.53147 -4.76576,-11.82758 -10.64429,-11.82698 z m -13.32811,82.56148 -3.16145,55.83707 -0.22744,0.1137 c -0.21204,4.9952 -4.32319,8.984 -9.37062,8.984 -2.06758,0 -3.976,-0.664 -5.52684,-1.7968 l -0.091,0.045 -45.7841,-32.456 c 14.07132,-13.8366 32.06964,-24.0619 52.81206,-28.7715 3.789,-0.8603 7.57631,-1.49859 11.34937,-1.95595 z m 26.67896,0 c 24.21692,2.97847 46.61291,13.94407 63.77477,30.75017 l -45.48842,32.2513 -0.15921,-0.068 c -4.03752,2.9489 -9.72611,2.2172 -12.87323,-1.7286 -1.28919,-1.6164 -1.96562,-3.517 -2.04698,-5.4358 l -0.0455,-0.023 z m -107.443657,51.58387 41.803857,37.3915 -0.0455,0.2274 c 3.77326,3.2803 4.32969,8.9725 1.1827,12.9188 -1.2891,1.6165 -3.01467,2.7007 -4.86726,3.2069 l -0.0455,0.1819 -53.585357,15.4661 c -2.72733,-24.9387 3.15038,-49.1811 15.55704,-69.3926 z m 187.889937,0.023 c 6.21124,10.0676 10.91471,21.312 13.71476,33.5022 2.76647,12.0441 3.46075,24.0667 2.31991,35.6857 l -53.8583,-15.5115 -0.0455,-0.2275 c -4.82287,-1.3181 -7.78684,-6.224 -6.66406,-11.1446 0.46,-2.0158 1.53003,-3.7211 2.97949,-4.981 l -0.0227,-0.1137 41.57643,-37.2096 z m -102.3717,40.2573 h 17.12639 l 10.64429,13.3053 -3.82103,16.6033 -15.37508,7.3919 -15.42058,-7.4146 -3.82103,-16.6033 z m 54.90453,45.5339 c 0.72779,-0.037 1.45241,0.029 2.1607,0.1592 l 0.091,-0.1137 55.42765,9.3706 c -8.11186,22.7901 -23.63419,42.5336 -44.37396,55.7461 l -21.51602,-51.9706 0.0682,-0.091 c -1.97646,-4.5925 0.001,-9.978 4.54885,-12.1681 1.16424,-0.5607 2.3806,-0.8712 3.59358,-0.9325 z m -93.09207,0.2274 c 4.22987,0.059 8.02389,2.9952 9.00671,7.3009 0.46012,2.0158 0.23618,4.013 -0.52311,5.777 l 0.15921,0.2048 -21.28859,51.4474 c -19.90367,-12.7722 -35.757007,-31.8958 -44.237487,-55.3594 l 54.950017,-9.3251 0.091,0.1137 c 0.61465,-0.1131 1.23802,-0.1677 1.84228,-0.1592 z m 46.42094,22.5396 c 1.47343,-0.054 2.9685,0.2481 4.38964,0.9325 1.86285,0.897 3.3019,2.3095 4.20768,4.003 h 0.20469 l 27.08836,48.9455 c -3.51556,1.1785 -7.12974,2.1857 -10.82624,3.025 -20.71691,4.7038 -41.36799,3.2786 -60.06747,-3.0932 l 27.02012,-48.8546 h 0.0455 c 1.62133,-3.0309 4.69621,-4.8391 7.93773,-4.9582 z"
         style="color:#000000;font-style:normal;font-variant:normal;font-weight:normal;font-stretch:normal;font-size:medium;line-height:normal;font-family:Sans;-inkscape-font-specification:Sans;text-indent:0;text-align:start;text-decoration:none;text-decoration-line:none;letter-spacing:normal;word-spacing:normal;text-transform:none;writing-mode:lr-tb;direction:ltr;baseline-shift:baseline;text-anchor:start;display:inline;overflow:visible;visibility:visible;fill:#ffffff;fill-opacity:1;stroke:none;stroke-width:0;stroke-miterlimit:4;stroke-dasharray:none;stroke-opacity:1;marker:none;enable-background:accumulate"
         sodipodi:nodetypes="ccccccccsccccscssccsccccccccscccsccccccccccccccscccscsccsccccscscsccccccccscccscsccccsccccscscscccccccccccccccscccsccccccccccccscccccscccccccccccccccccccccccscccscccccccccscccscccc"
         inkscape:export-filename="./path3059.png"
         inkscape:export-xdpi="250.55"
         inkscape:export-ydpi="250.55" />
    </g>
    <path
       style="fill:#ffffff;stroke-width:1.382"
       d="m -249.34908,1250.8394 c 3.10812,7.0068 20.07982,22.2313 26.01774,23.3394 11.93843,2.2277 8.07449,5.6398 116.79976,-103.1418 93.906427,-93.9551 101.2317369,-101.6206 101.2317369,-105.9317 0,-3.3941 1.34068,-6.1314 4.97134999,-10.15 7.79795001,-8.6315 10.98568011,-19.0264 7.51671001,-24.5121 -0.98896,-1.5639 2.72891,-6.1324 15.9405901,-19.5882 9.47681,-9.6517 18.15137,-19.75265 19.27701,-22.44657 1.409371,-3.37298 2.046475,-9.90286 2.046475,-20.9721 0,-22.23485 3.288616,-28.23883 15.467524,-28.23883 3.565431,0 6.629748,2.31096 18.325231,13.82004 14.195112,13.96874 18.479601,16.27504 22.593053,12.16163 4.19793,-4.19793 1.8653,-8.55413 -11.816188,-22.06662 -15.852274,-15.6565 -20.329827,-18.31141 -30.749583,-18.23228 -8.4381,0.0641 -14.030516,2.43563 -19.620172,8.32033 -6.47206,6.81357 -8.0199,12.64761 -8.0199,30.22843 0,8.99569 -0.67221,17.35276 -1.53209,19.04694 -0.84261,1.66026 -8.68009,10.24372 -17.41656,19.07433 l -15.8843401,16.0557 -5.41745,-1.3751 c -7.0252799,-1.7832 -15.4699899,1.2849 -21.9561499,7.9769 -3.18662,3.2877 -5.92534,4.8199 -8.61527,4.8199 -2.16892,0 -5.62282,0.8895 -7.67537,1.9766 -4.34848,2.303 -196.031967,194.2208 -200.455487,200.7004 -3.40222,4.9838 -3.82428,12.8325 -1.02862,19.1347 z m 42.96828,-42.1516 29.7135,-29.6894 10.39626,10.3963 10.3964,10.3964 -29.76615,29.6701 c -16.37149,16.3187 -31.08182,29.8796 -32.68964,30.1355 -4.14698,0.6601 -17.764,-12.9118 -17.764,-17.7053 0,-2.7347 6.5905,-10.0994 29.71363,-33.2036 z m 66.70517,-66.7056 25.93648,-25.9096 10.31694,10.3863 10.316937,10.3861 -26.210947,26.2382 -26.21081,26.2382 -10.04261,-9.9756 c -5.52345,-5.4865 -10.0426,-10.3082 -10.0426,-10.7146 0,-0.4067 11.67143,-12.3987 25.93661,-26.649 z m 67.337167,-67.3367 31.08347,-31.0605 10.38839,10.3191 10.38835,10.319 -31.43046,31.4529 -31.43064,31.4529 -10.04136,-9.9743 c -5.52277,-5.486 -10.041357,-10.3062 -10.041357,-10.7115 0,-0.4055 13.987667,-14.7144 31.083607,-31.7976 z m 56.67359,-44.2387 c 1.95623,-0.7661 3.67296,-0.2477 5.8735199,1.7741 4.13026,3.7944 3.92047,6.9517 -0.8135899,12.2501 l -3.92309,4.3906 -4.96485,-5.4054 -4.96482,-5.4054 3.0144,-3.2607 c 1.65799,-1.7933 4.25823,-3.7478 5.77843,-4.3433 z"
       id="path2523" />
  </g>
</svg>
