<?xml version="1.0" encoding="UTF-8" standalone="no"?>
<svg
   xmlns:dc="http://purl.org/dc/elements/1.1/"
   xmlns:cc="http://creativecommons.org/ns#"
   xmlns:rdf="http://www.w3.org/1999/02/22-rdf-syntax-ns#"
   xmlns:svg="http://www.w3.org/2000/svg"
   xmlns="http://www.w3.org/2000/svg"
   xmlns:sodipodi="http://sodipodi.sourceforge.net/DTD/sodipodi-0.dtd"
   xmlns:inkscape="http://www.inkscape.org/namespaces/inkscape"
   version="1.1"
   id="svg1408"
   xml:space="preserve"
   width="1920"
   height="1080"
   viewBox="0 0 1920.0001 1080"
   sodipodi:docname="undoing-a-git-commit.svg"
   inkscape:version="1.0.1 (c497b03c, 2020-09-10)"><metadata
     id="metadata1414"><rdf:RDF><cc:Work
         rdf:about=""><dc:format>image/svg+xml</dc:format><dc:type
           rdf:resource="http://purl.org/dc/dcmitype/StillImage" /><dc:title></dc:title></cc:Work></rdf:RDF></metadata><defs
     id="defs1412" /><sodipodi:namedview
     pagecolor="#ffffff"
     bordercolor="#666666"
     borderopacity="1"
     objecttolerance="10"
     gridtolerance="10"
     guidetolerance="10"
     inkscape:pageopacity="0"
     inkscape:pageshadow="2"
     inkscape:window-width="1576"
     inkscape:window-height="858"
     id="namedview1410"
     showgrid="false"
     showguides="true"
     inkscape:guide-bbox="true"
     inkscape:zoom="0.50383782"
     inkscape:cx="920.13523"
     inkscape:cy="562.26017"
     inkscape:window-x="92"
     inkscape:window-y="136"
     inkscape:window-maximized="0"
     inkscape:current-layer="g1416" /><g
     id="g1416"
     inkscape:groupmode="layer"
     inkscape:label="ink_ext_XXXXXX"
     transform="matrix(1.3333333,0,0,-1.3333333,0,122.52)"><rect
       style="fill:#f03c2e;fill-opacity:1;stroke:none;stroke-width:29.6279;stroke-linecap:round;stroke-linejoin:round"
       id="rect2774"
       width="1440"
       height="810"
       x="1.8000001e-05"
       y="-91.889992"
       transform="scale(1,-1)" /><g
       id="g1418"
       transform="matrix(0.28322442,0,0,0.28322442,595.8764,-443.23104)"><path
         d="M 901.543,500.352 500.352,901.527 c -23.094,23.11 -60.567,23.11 -83.692,0 L 333.359,818.211 439.031,712.535 c 24.563,8.293 52.727,2.727 72.297,-16.847 19.688,-19.696 25.203,-48.102 16.699,-72.75 L 629.883,521.094 c 24.648,8.496 53.066,3.004 72.754,-16.711 27.5,-27.492 27.5,-72.059 0,-99.574 -27.52,-27.516 -72.078,-27.516 -99.61,0 -20.683,20.703 -25.8,51.097 -15.312,76.582 l -95,94.992 V 326.414 c 6.699,-3.32 13.027,-7.742 18.613,-13.312 27.5,-27.497 27.5,-72.059 0,-99.598 -27.5,-27.488 -72.09,-27.488 -99.57,0 -27.5,27.539 -27.5,72.101 0,99.598 6.797,6.789 14.668,11.925 23.066,15.363 v 252.281 c -8.398,3.438 -16.25,8.531 -23.066,15.367 -20.828,20.821 -25.84,51.395 -15.156,76.977 L 292.422,777.285 17.3242,502.211 c -23.10545,-23.129 -23.10545,-60.602 0,-83.711 L 418.535,17.3242 c 23.098,-23.10545 60.559,-23.10545 83.692,0 L 901.543,416.641 c 23.113,23.113 23.113,60.605 0,83.711"
         style="fill:#ffffff;fill-opacity:1;fill-rule:nonzero;stroke:none"
         id="path1420" /></g><path
       sodipodi:nodetypes="ssscccccsscccccsccss"
       inkscape:connector-curvature="0"
       d="m 726.40242,-110.61052 c 89.16915,-0.19075 170.84601,-59.77657 195.07812,-149.96236 28.98794,-107.88586 -35.10719,-219.07996 -142.99319,-248.06806 -107.88518,-28.9878 -219.07992,35.1075 -248.06788,142.99328 -1.34128,4.72417 1.44175,9.63225 6.18446,10.90657 3.35205,0.90068 6.76041,-0.26655 8.90094,-2.7054 19.53533,-84.17707 93.86104,-143.69407 179.44738,-143.69415 64.95745,2.3e-4 125.11873,34.54238 158.35631,90.92145 25.80423,41.82593 34.94678,93.79958 21.16884,145.07768 -26.51883,98.69638 -127.79915,157.07774 -226.49612,130.55873 -52.90792,-14.21591 -94.13363,-49.95442 -117.00925,-95.2447 l 0.0636,0.0172 c -5.56969,-9.75095 -10.23294,-20.29437 -15.52068,-22.39985 -4.69502,-1.26105 -9.52342,1.52198 -10.78533,6.21675 l -22.84222,85.0137 c -1.34134,4.7242 1.44174,9.63225 6.18444,10.90658 4.74273,1.27433 9.6117,-1.57865 10.81871,-6.33894 l 17.1849,-63.95901 c 25.21763,48.87158 70.09614,87.4113 127.33722,102.79149 17.70004,4.75585 35.48928,7.00654 52.98977,6.9691 z"
       style="line-height:normal;text-indent:0;text-align:start;text-decoration:none;text-decoration-line:none;text-decoration-style:solid;text-decoration-color:#000000;text-transform:none;isolation:auto;mix-blend-mode:normal;fill:#ffffff;stroke-width:8.80282"
       id="path857" /></g></svg>
