<?xml version="1.0" encoding="UTF-8" standalone="no"?>
<svg
   xmlns:dc="http://purl.org/dc/elements/1.1/"
   xmlns:cc="http://creativecommons.org/ns#"
   xmlns:rdf="http://www.w3.org/1999/02/22-rdf-syntax-ns#"
   xmlns:svg="http://www.w3.org/2000/svg"
   xmlns="http://www.w3.org/2000/svg"
   xmlns:sodipodi="http://sodipodi.sourceforge.net/DTD/sodipodi-0.dtd"
   xmlns:inkscape="http://www.inkscape.org/namespaces/inkscape"
   version="1.1"
   id="svg883"
   width="2560"
   height="1440"
   viewBox="0 0 2560 1440"
   sodipodi:docname="you-don-t-need-an-init-system-for-node.js-in-docker.svg"
   inkscape:version="1.0.1 (c497b03c, 2020-09-10)">
  <metadata
     id="metadata889">
    <rdf:RDF>
      <cc:Work
         rdf:about="">
        <dc:format>image/svg+xml</dc:format>
        <dc:type
           rdf:resource="http://purl.org/dc/dcmitype/StillImage" />
        <dc:title></dc:title>
      </cc:Work>
    </rdf:RDF>
  </metadata>
  <defs
     id="defs887" />
  <sodipodi:namedview
     pagecolor="#ffffff"
     bordercolor="#666666"
     borderopacity="1"
     objecttolerance="10"
     gridtolerance="10"
     guidetolerance="10"
     inkscape:pageopacity="0"
     inkscape:pageshadow="2"
     inkscape:window-width="1792"
     inkscape:window-height="1019"
     id="namedview885"
     showgrid="false"
     showguides="true"
     inkscape:guide-bbox="true"
     inkscape:zoom="0.35455254"
     inkscape:cx="362.51424"
     inkscape:cy="800.07039"
     inkscape:window-x="0"
     inkscape:window-y="23"
     inkscape:window-maximized="0"
     inkscape:current-layer="g891"
     inkscape:document-rotation="0">
    <sodipodi:guide
       position="-5085.6997,719.99659"
       orientation="0,-1"
       id="guide2524" />
    <sodipodi:guide
       position="640,3678.5859"
       orientation="1,0"
       id="guide3207" />
    <sodipodi:guide
       position="1920,1222.9258"
       orientation="1,0"
       id="guide3211" />
  </sodipodi:namedview>
  <g
     inkscape:groupmode="layer"
     inkscape:label="Image"
     id="g891">
    <rect
       style="fill:#2396ed;fill-opacity:1;stroke-width:31.4462;stroke-linecap:round;stroke-linejoin:round"
       id="rect897"
       width="2844.9871"
       height="1784.9825"
       x="-1606.4944"
       y="-3252.4751"
       transform="matrix(-0.50074198,0.8655966,-0.8483303,-0.52946738,0,0)" />
    <rect
       style="fill:#333333;fill-opacity:1;stroke-width:31.4462;stroke-linecap:round;stroke-linejoin:round"
       id="rect897-0"
       width="2844.9871"
       height="1784.9825"
       x="-1293.6959"
       y="-1470.439"
       transform="matrix(-0.50074198,0.8655966,-0.8483303,-0.52946738,0,0)" />
    <g
       id="g2445"
       transform="matrix(3.0146598,0,0,3.0146598,1579.7898,-251.47412)"
       style="fill:#ffffff">
      <path
         d="m 234.4,303.4 c -0.6,-0.5 -6,-4.6 -17.6,-4.6 -3,0 -6.1,0.3 -9.1,0.8 -2.2,-15.3 -14.9,-22.7 -15.4,-23.1 l -3.1,-1.8 -2,2.9 c -2.5,3.9 -4.4,8.3 -5.5,12.8 -2.1,8.7 -0.8,16.9 3.6,23.9 -5.3,3 -13.9,3.7 -15.7,3.8 h -142 c -3.7,0 -6.7,3 -6.7,6.7 -0.2,12.4 1.9,24.8 6.2,36.5 4.9,12.8 12.2,22.3 21.6,28.1 10.6,6.5 27.9,10.2 47.4,10.2 8.8,0 17.6,-0.8 26.3,-2.4 12.1,-2.2 23.7,-6.4 34.4,-12.5 8.8,-5.1 16.7,-11.6 23.4,-19.2 11.3,-12.7 18,-26.9 22.9,-39.5 h 2 c 12.3,0 19.9,-4.9 24.1,-9.1 2.8,-2.6 4.9,-5.8 6.4,-9.4 l 0.9,-2.6 z"
         id="path1865"
         style="fill:#ffffff"
         sodipodi:nodetypes="cscccccccscccsccccscccc" />
      <path
         d="m 40.8,314 h 19 c 0.9,0 1.7,-0.7 1.7,-1.7 v -17 c 0,-0.9 -0.7,-1.7 -1.7,-1.7 h -19 c -0.9,0 -1.7,0.7 -1.7,1.7 v 17 c 0.1,1 0.8,1.7 1.7,1.7 z m 26.2,0 h 19 c 0.9,0 1.7,-0.7 1.7,-1.7 v -17 c 0,-0.9 -0.7,-1.7 -1.7,-1.7 H 67 c -0.9,0 -1.7,0.7 -1.7,1.7 v 17 c 0.1,1 0.8,1.7 1.7,1.7 m 26.7,0 h 19 c 0.9,0 1.7,-0.7 1.7,-1.7 v -17 c 0,-0.9 -0.7,-1.7 -1.7,-1.7 h -19 c -0.9,0 -1.7,0.7 -1.7,1.7 v 17 c 0,1 0.7,1.7 1.7,1.7 z m 26.3,0 h 19 c 0.9,0 1.7,-0.7 1.7,-1.7 v -17 c 0,-0.9 -0.7,-1.7 -1.7,-1.7 h -19 c -0.9,0 -1.7,0.7 -1.7,1.7 v 17 c 0,1 0.8,1.7 1.7,1.7 z M 67,289.7 h 19 c 0.9,0 1.7,-0.8 1.7,-1.7 v -17 c 0,-0.9 -0.7,-1.7 -1.7,-1.7 H 67 c -0.9,0 -1.7,0.7 -1.7,1.7 v 17 c 0.1,0.9 0.8,1.7 1.7,1.7 m 26.7,0 h 19 c 0.9,0 1.7,-0.8 1.7,-1.7 v -17 c 0,-0.9 -0.7,-1.7 -1.7,-1.7 h -19 c -0.9,0 -1.7,0.7 -1.7,1.7 v 17 c 0,0.9 0.7,1.7 1.7,1.7 m 26.3,0 h 19 c 0.9,0 1.7,-0.8 1.7,-1.7 v -17 c 0,-0.9 -0.8,-1.7 -1.7,-1.7 h -19 c -0.9,0 -1.7,0.7 -1.7,1.7 v 17 c 0,0.9 0.8,1.7 1.7,1.7 m 0,-24.4 h 19 c 0.9,0 1.7,-0.7 1.7,-1.7 v -17 c 0,-0.9 -0.8,-1.7 -1.7,-1.7 h -19 c -0.9,0 -1.7,0.7 -1.7,1.7 v 17 c 0,0.9 0.8,1.7 1.7,1.7 m 26.5,48.7 h 19 c 0.9,0 1.7,-0.7 1.7,-1.7 v -17 c 0,-0.9 -0.7,-1.7 -1.7,-1.7 h -19 c -0.9,0 -1.7,0.7 -1.7,1.7 v 17 c 0.1,1 0.8,1.7 1.7,1.7"
         id="path1867"
         style="fill:#ffffff" />
    </g>
    <g
       id="g2903"
       transform="matrix(4.3113036,0,0,-4.3113036,-640.29841,1666.6048)"
       style="fill:#8cc84b;fill-opacity:1">
      <g
         id="g2075"
         transform="translate(296.9532,165.0556)"
         style="fill:#8cc84b;fill-opacity:1">
        <path
           d="m 0,0 c -1.46,0 -2.912,0.381 -4.19,1.121 l -13.338,7.892 c -1.991,1.114 -1.019,1.509 -0.362,1.738 2.657,0.922 3.195,1.135 6.031,2.743 0.295,0.167 0.687,0.103 0.992,-0.076 L -0.62,7.335 c 0.371,-0.206 0.895,-0.206 1.237,0 l 39.95,23.058 c 0.372,0.212 0.61,0.64 0.61,1.081 v 46.104 c 0,0.451 -0.238,0.872 -0.62,1.101 L 0.624,101.717 c -0.369,0.216 -0.859,0.216 -1.231,0 L -40.53,78.672 c -0.388,-0.222 -0.634,-0.657 -0.634,-1.094 V 31.474 c 0,-0.441 0.246,-0.859 0.63,-1.068 l 10.944,-6.323 c 5.938,-2.969 9.574,0.528 9.574,4.041 v 45.519 c 0,0.644 0.517,1.151 1.161,1.151 h 5.065 c 0.634,0 1.158,-0.507 1.158,-1.151 V 28.124 c 0,-7.925 -4.316,-12.47 -11.829,-12.47 -2.309,0 -4.127,0 -9.202,2.501 l -10.476,6.031 c -2.588,1.496 -4.19,4.293 -4.19,7.288 v 46.104 c 0,2.995 1.602,5.792 4.19,7.281 l 39.949,23.085 c 2.528,1.429 5.888,1.429 8.396,0 L 44.153,84.859 c 2.587,-1.496 4.196,-4.286 4.196,-7.281 V 31.474 c 0,-2.995 -1.609,-5.782 -4.196,-7.288 L 4.206,1.121 C 2.929,0.381 1.48,0 0,0"
           style="fill:#8cc84b;fill-opacity:1;fill-rule:nonzero;stroke:none"
           id="path2077" />
      </g>
      <g
         id="g2079"
         transform="translate(309.2934,196.8184)"
         style="fill:#8cc84b;fill-opacity:1">
        <path
           d="m 0,0 c -17.482,0 -21.144,8.024 -21.144,14.755 0,0.64 0.514,1.151 1.154,1.151 h 5.165 c 0.577,0 1.058,-0.415 1.148,-0.978 0.78,-5.258 3.105,-7.912 13.677,-7.912 8.416,0 11.999,1.904 11.999,6.369 0,2.574 -1.016,4.485 -14.095,5.766 -10.931,1.081 -17.692,3.496 -17.692,12.24 0,8.061 6.794,12.868 18.186,12.868 12.798,0 19.131,-4.442 19.933,-13.972 0.03,-0.329 -0.086,-0.644 -0.305,-0.889 -0.219,-0.229 -0.524,-0.369 -0.846,-0.369 h -5.185 c -0.537,0 -1.012,0.382 -1.121,0.903 -1.244,5.533 -4.269,7.301 -12.476,7.301 -9.189,0 -10.257,-3.201 -10.257,-5.6 0,-2.906 1.26,-3.751 13.667,-5.393 C 14.085,24.617 19.917,22.319 19.917,13.69 19.917,4.986 12.659,0 0,0"
           style="fill:#8cc84b;fill-opacity:1;fill-rule:nonzero;stroke:none"
           id="path2081" />
      </g>
    </g>
  </g>
</svg>
